<svg xmlns="http://www.w3.org/2000/svg" viewBox="0 0 72 72"><defs><style>.cls-1{fill:#f6871f;}.cls-2{fill:#1f3445;}</style></defs><g id="Layer_2" data-name="Layer 2"><g id="Layer_1-2" data-name="Layer 1"><circle class="cls-1" cx="36" cy="36" r="36"/><path class="cls-2" d="M44.9,57.38c.37-4.6.13-8.78-3.95-11.78a4.81,4.81,0,0,1,5-1.43c2.45.73,3.45,2.6,3.74,5,3.24-4.71,1.76-13-3.09-17.65a15.67,15.67,0,0,0-20.28-1.41c-6,4.44-8.17,12.7-4.82,19.18.43-2.6,1.42-4.78,4.05-5.16,1.46-.21,3,.41,4.69,1-4.07,3.27-4.27,7.54-4,12-5.35-2-9-10.19-7.94-17.2a17.54,17.54,0,0,1,34.31-1.48C54.46,46,51.12,54.41,44.9,57.38Z"/><path class="cls-2" d="M54.78,20.74c-2.46.68-4.9,1.42-7.38,2-.53.13-1.2-.32-1.8-.51a30.72,30.72,0,0,0-6.38-1.59c1.7.65,3.44,1.21,5.09,2,2.78,1.27,2.87,1.57,2.27,4.95C39.32,23,32,23,24.57,27.64c-.38-2.4.87-5.85-3.9-5.29.22,1.56.51,3.16.64,4.78.07.9.7,2.39-1.48,2,.19-1.61.31-3.17.56-4.71.33-2-.39-3.12-2.46-3.32A11.12,11.12,0,0,1,16,20.5c5.29-1.48,10.11-2.63,14.79-4.2a14.87,14.87,0,0,1,9.79,0c4.66,1.52,9.43,2.69,14.16,4Z"/><path class="cls-2" d="M43.19,55.07c0,4.09.05,4.45-4,4.85-3.18.31-6.48-.32-9.69-.75-.56-.07-1.28-1.18-1.4-1.9a19.65,19.65,0,0,1,0-4.06,7.58,7.58,0,1,1,15.15.14C43.21,53.92,43.19,54.49,43.19,55.07Z"/><path class="cls-2" d="M35.66,43.78A3.83,3.83,0,0,1,31.83,40a3.81,3.81,0,1,1,3.83,3.82Z"/><path class="cls-2" d="M26.75,42.81a2.87,2.87,0,1,1,2.72-3A2.85,2.85,0,0,1,26.75,42.81Z"/><path class="cls-2" d="M44.57,42.81a2.87,2.87,0,0,1,.1-5.74,2.87,2.87,0,0,1-.1,5.74Z"/></g></g></svg>