<svg xmlns="http://www.w3.org/2000/svg" viewBox="0 0 61.69 61.69"><defs><style>.cls-1{fill:#282829;}</style></defs><g id="Layer_2" data-name="Layer 2"><g id="Layer_1-2" data-name="Layer 1"><path class="cls-1" d="M61.69,18.79a4,4,0,0,0-.31,1.37,16.78,16.78,0,0,1-9.08,11.9l-.34.19c.75.74,1.46,1.49,2.22,2.19a.6.6,0,0,1,.13.91c-.06.09-.09.18-.14.27-.85,1.69-.84,1.69-.06,3.4a.66.66,0,0,0,.46.33c.59.21,1.17.41,1.77.58a.47.47,0,0,1,.4.55c0,1.52,0,3.05,0,4.58,0,.3-.05.5-.38.55-.12,0-.22.1-.34.12a2.8,2.8,0,0,0-2.54,2.34.72.72,0,0,0,0,.56c.29.57.57,1.15.87,1.71a.45.45,0,0,1-.07.63Q52.65,52.61,51,54.29a.41.41,0,0,1-.62.07c-.11-.08-.27-.1-.38-.18A2.59,2.59,0,0,0,46.82,54c-.3.19-.55.32-.66.69-.19.67-.25,1.56-.72,1.93s-1.38.1-2.1.11c-1,0-1.89,0-2.83,0-.32,0-.5-.08-.55-.4a2.67,2.67,0,0,0-.13-.4c-.61-1.79-.61-1.78-2.34-2.47a.49.49,0,0,0-.49.06l-1.68.95c0,.2.17.25.28.36a4,4,0,0,1-4.7,6.34,3.93,3.93,0,0,1-1.74-4.92c.15-.39.2-.55-.32-.55-5.32,0-10.64,0-16,0-.11,0-.23,0-.39,0a5.4,5.4,0,0,1,.46,2,4,4,0,0,1-7.82,1A3.9,3.9,0,0,1,7.4,54.07.81.81,0,0,0,8,53.16Q8,41.87,8,30.57c0-.64-.18-.74-.76-.73-1.4,0-2.81,0-4.21,0a3,3,0,0,1-1.25-5.71,3.42,3.42,0,0,1,1.41-.28c1.2,0,2.41,0,3.61,0A3,3,0,0,1,10,27q0,4.09,0,8.19c0,.47.11.6.58.59,1.4,0,1.4,0,1.4-1.38s0-2.7,0-4c0-.4.06-.56.51-.55,1.67,0,3.34,0,5,0,.41,0,.5.13.5.51,0,1.65,0,3.3,0,4.94,0,.44.12.53.53.52,1.45,0,1.45,0,1.45-1.46,0-2.65,0-5.3,0-8,0-.41.09-.55.52-.54,1.65,0,3.3,0,4.94,0,.48,0,.55.15.55.58,0,2.93,0,5.86,0,8.79,0,.49.14.59.6.58,1.38,0,1.38,0,1.38-1.4,0-4,0-7.95,0-11.93,0-.47.11-.61.59-.6,1.61,0,3.21,0,4.82,0,.45,0,.62.09.6.59,0,1.38,0,2.77,0,4.15a1,1,0,0,0,.29.74,14.87,14.87,0,0,0,12.63,4.31c0-.2-.15-.26-.24-.36C45.34,30.12,44.15,29,43,27.76a.46.46,0,0,0-.7-.09,19.09,19.09,0,0,1-2.79,1.39c-.28.12-.38.08-.47-.2-.16-.48-.55-1-.47-1.4s.81-.44,1.23-.69.91-.49,1.35-.72L30,14.94a13.94,13.94,0,0,0,0,4.37c.06.35,0,.46-.33.5a6.64,6.64,0,0,0-1.18.22c-.37.11-.41-.07-.45-.34A16.44,16.44,0,0,1,29.89,8.92,16.61,16.61,0,0,1,42.78.12c.1,0,.21,0,.24-.12h3.37c0,.09.1.11.18.12A16.76,16.76,0,0,1,61.12,12.59c.23.85.38,1.73.57,2.59Zm-39,23c-4.06,0-8.12,0-12.17,0-.42,0-.54.09-.53.52,0,2.31,0,4.62,0,6.93,0,.35,0,.53.47.53,7.55,0,15.1,0,22.65,0,.68,0,.93-.21,1.05-.89.37-2.17.7-4.35,1.11-6.52.09-.51,0-.55-.48-.55C30.73,41.8,26.69,41.79,22.66,41.79Zm11.19-12c0,1.89,0,3.66,0,5.42,0,.51.17.6.61.57A2.92,2.92,0,0,1,37,36.7c.27.3.4.23.65,0a7.93,7.93,0,0,1,12.69,3.65,7.48,7.48,0,0,1-2.13,8.19A7.65,7.65,0,0,1,40,50.21a7.85,7.85,0,0,1-3.57-2.68c-.09.5-.17.92-.23,1.33a2.91,2.91,0,0,1-3.32,2.86H11.39c-1.43,0-1.41,0-1.44,1.44,0,.48.14.58.6.58,7.19,0,14.38,0,21.57,0a1.61,1.61,0,0,0,.85-.22c1.28-.74,2.58-1.45,3.86-2.19a.69.69,0,0,1,.86,0,4,4,0,0,0,1.57.74,2.33,2.33,0,0,1,2.11,2.23c.05.32.21.46.57.44a14.6,14.6,0,0,1,1.75,0,.44.44,0,0,0,.51-.36c.14-.48.34-1,.46-1.43a.59.59,0,0,1,.52-.49,7.37,7.37,0,0,0,2.33-.92,1.35,1.35,0,0,1,1.62,0c1.18.66,1.21.62,2.15-.32s.89-.88.29-2a1.5,1.5,0,0,1,0-1.84,3.15,3.15,0,0,0,.58-1.31A1.89,1.89,0,0,1,54,44.31a.81.81,0,0,0,.77-1.06c-.08-.57.21-1.29-.11-1.7s-1-.43-1.54-.58a.85.85,0,0,1-.68-.71,3.66,3.66,0,0,0-.5-1.4A2.51,2.51,0,0,1,52,35.57c.18-.24.1-.42-.1-.62-.54-.51-1.08-1-1.57-1.58a.74.74,0,0,0-.89-.21,16.77,16.77,0,0,1-10.68-.47A17.34,17.34,0,0,1,33.85,29.82Zm8.94,18.93A6,6,0,1,0,39.27,38,3.65,3.65,0,0,0,37.5,40.7c0,.55-.2,1.1-.26,1.66a5.37,5.37,0,0,0-.18,2.07A6,6,0,0,0,42.79,48.75Zm10-33.69-.26-.28c-1.87-1.87-3.75-3.74-5.62-5.62a.34.34,0,0,0-.54-.06,42.49,42.49,0,0,0-4.11,3.34c-.21.2-.22.31,0,.52q3.24,3.22,6.47,6.47c.22.22.34.24.56,0a39,39,0,0,0,3.29-4.07Zm-5.19,6.1a3,3,0,0,0-.26-.31q-3.23-3.24-6.47-6.47c-.2-.21-.32-.24-.54,0a43.3,43.3,0,0,0-3.28,4,.44.44,0,0,0,0,.69q2.79,2.74,5.54,5.53c.24.24.39.28.68.07a41.74,41.74,0,0,0,4-3.28ZM22.84,39.78H35.13c.18,0,.43.14.55-.18.46-1.16.06-1.78-1.19-1.78H11.36c-1.4,0-1.37,0-1.4,1.4,0,.48.13.58.59.58C14.65,39.77,18.74,39.78,22.84,39.78ZM45.13,7.41,45,7.25,40.55,2.82a.35.35,0,0,0-.42-.09,15,15,0,0,0-4.91,2.72c-.19.15-.23.26,0,.46q2.58,2.56,5.15,5.15c.19.19.3.17.49,0A36.39,36.39,0,0,1,44.9,7.69C45,7.62,45.12,7.57,45.13,7.41ZM33.55,7.1a14.77,14.77,0,0,0-2.92,5.08.48.48,0,0,0,.15.58q2.14,2.13,4.29,4.29c.18.18.3.27.49,0A38.34,38.34,0,0,1,39,12.92c.16-.17.17-.26,0-.43Q36.26,9.82,33.55,7.1ZM56,26.71c.12-.14.22-.23.31-.34a15.26,15.26,0,0,0,2.61-4.7.51.51,0,0,0-.14-.62q-2.15-2.11-4.25-4.26c-.26-.25-.38-.23-.58.05a34.75,34.75,0,0,1-3.29,4c-.21.22-.23.35,0,.58,1.69,1.67,3.38,3.37,5.06,5.06Zm-6.58,4.37s0,0,.07,0a15.34,15.34,0,0,0,4.89-2.74c.25-.2.11-.3,0-.45q-2.55-2.53-5.09-5.1c-.23-.24-.36-.17-.56,0a35.74,35.74,0,0,1-4,3.28c-.29.2-.31.32,0,.57,1.43,1.41,2.84,2.83,4.26,4.25A.43.43,0,0,0,49.43,31.08ZM55.8,8.26c0-1.77-.58-2.42-2-2.37a11.8,11.8,0,0,0-5.17,1.79c-.23.13-.17.22,0,.35l5.07,5.07c.11.12.21.25.35,0A12.62,12.62,0,0,0,55.8,8.26Zm-24,21.55V25.3c0-1.45,0-1.43-1.46-1.45-.43,0-.52.13-.52.54,0,3.31,0,6.61,0,9.92,0,1.52,0,1.51,1.52,1.5.38,0,.46-.11.46-.47C31.83,33.5,31.84,31.65,31.84,29.81ZM42.69,2.14,46.74,6.2c.15.15.27.1.42,0A17.91,17.91,0,0,1,52.35,4,15.08,15.08,0,0,0,42.69,2.14Zm15,7.2a17.44,17.44,0,0,1-2.1,5.07.47.47,0,0,0,.09.7c1.23,1.2,2.44,2.43,3.66,3.64.06.06.11.18.28.09A15.1,15.1,0,0,0,57.65,9.34ZM21.91,31.87v2.46c0,1.49,0,1.48,1.49,1.48.41,0,.49-.12.49-.5,0-2,0-4,0-6,0-1.46,0-1.44-1.46-1.46-.44,0-.53.14-.52.55C21.93,29.54,21.91,30.7,21.91,31.87ZM9,59.68a2,2,0,0,0,2-2,2,2,0,0,0-2-2,2,2,0,0,0,0,4Zm25.85-2a2,2,0,1,0-2,2A2,2,0,0,0,34.83,57.68ZM5.28,27.84c.76,0,1.52,0,2.28,0,.13,0,.36.07.37-.08a2.48,2.48,0,0,0-.08-1.35,1,1,0,0,0-.94-.54c-1.28,0-2.56,0-3.84,0a1,1,0,1,0,0,2C3.8,27.85,4.54,27.84,5.28,27.84Zm10.64,6v-.48c0-1.65,0-1.64-1.64-1.52-.26,0-.34.11-.33.36v3.31c0,.21,0,.3.29.33,1.68.18,1.68.18,1.68-1.46Z"/><path class="cls-1" d="M20,24.37c-.53-.54-1-1-1.49-1.55s-.63-.5-1.08,0C16,24.3,14.47,25.73,13,27.21c-.3.31-.49.31-.74,0s-.92-.63-.9-1.05.56-.68.89-1c1.77-1.78,3.55-3.54,5.31-5.33.28-.29.44-.28.69,0,.42.46.89.87,1.31,1.33.21.22.32.2.5,0,.85-1,1.72-2.06,2.67-3.21-.56,0-1,0-1.45,0s-.4-.11-.41-.42c-.06-1.59-.07-1.59,1.5-1.59H27Z"/></g></g></svg>