<svg xmlns="http://www.w3.org/2000/svg" viewBox="0 0 44.04 47.59"><defs><style>.cls-1{fill:#f79421;}</style></defs><g id="Layer_2" data-name="Layer 2"><g id="Layer_1-2" data-name="Layer 1"><path class="cls-1" d="M25.73,47.59l.21-.26C26,47.48,25.93,47.6,25.73,47.59Z"/><path class="cls-1" d="M0,24.44H11.58c0,.48.05.84.05,1.19,0,4.55,0,9.09,0,13.63A1.43,1.43,0,0,1,11,40.57,45.94,45.94,0,0,0,7.49,44H0Zm2.5,3.13v3.56H4.81V27.57Zm6.64,0H6.81v3.54H9.14ZM4.81,37.23v-3.5H2.52v3.5Zm4.31-3.52H6.82v3.52h2.3Z"/><path class="cls-1" d="M36.55,44c-1.29-1.24-2.59-2.47-3.86-3.72a1,1,0,0,1-.28-.62c0-5,0-10,0-15.26H44V44Zm2.67-12.91h2.32V27.59H39.22Zm-4.32,0h2.32V27.6H34.9Zm0,2.58v3.52h2.28V33.71Zm4.27,3.48h2.33V33.72H39.2Z"/><path class="cls-1" d="M22.46,5.5c-.31,1.32,1.37,3.27,2.3,3.62a7.28,7.28,0,0,1,4.49,7.94H14.82a7.17,7.17,0,0,1,5-8.14c.75-.23.73-.68,1-1.25C22,5.16,21,2.51,21.58,0h.88c.12,1.33,1.12,1.25,2,1.21C25.61,1.15,26.74.9,27.87.9c1.4,0,1.47.13,1.47,1.54,0,.88,0,1.76,0,2.64,0,.06-.05.13,0,.06l-6.76.31"/><path class="cls-1" d="M9.25,44c.65-.69,1.28-1.41,2-2a1.79,1.79,0,0,1,1.06-.39q9.74,0,19.45,0A1.75,1.75,0,0,1,32.8,42c.7.63,1.33,1.35,2,2Z"/><path class="cls-1" d="M31.11,40.28H27.52V26.36H23.87V40.25H20.21V26.37H16.52V40.28H12.87c0-.4,0-.76,0-1.12,0-4.95,0-9.9,0-14.85,0-.8.2-1.17,1-1.36,2.49-.61,5-1.32,7.44-1.95a3,3,0,0,1,1.4,0c2.59.66,5.17,1.38,7.76,2.06.52.13.81.3.81.93q0,7.92,0,15.85A2.89,2.89,0,0,1,31.11,40.28Z"/><path class="cls-1" d="M9.25,23.24V18.39h25.5v4.78H32.61c0-.08-.07,0,0-.05-.51-.31-.82-.95-1.37-1.11-2.78-.79-5.58-1.53-8.38-2.23a3.29,3.29,0,0,0-1.59,0q-4.37,1.09-8.7,2.31c-.36.1-.61.54-.93.8a1.22,1.22,0,0,1-.57.36C10.47,23.27,9.89,23.24,9.25,23.24Z"/></g></g></svg>