<svg xmlns="http://www.w3.org/2000/svg" viewBox="0 0 42.2 45.36"><defs><style>.cls-1{fill:#f79421;}</style></defs><g id="Layer_2" data-name="Layer 2"><g id="Layer_1-2" data-name="Layer 1"><path class="cls-1" d="M6,35.91c.33,3.2,1.49,6.15,1.47,9.22l-.75.17a10.62,10.62,0,0,1-.66-1.66c-.45-2.06-.86-4.14-1.23-6.22-.18-1-.48-1.6-1.67-1.8A3.8,3.8,0,0,1,1,34.11C-1.24,31,.53,25.73,4.35,24.5c0-1.8-.07-3.7,0-5.59A10,10,0,0,1,5,15.65c.54-1.28,1.46-2.27,1.33-3.93-.11-1.38,1.23-2.13,2.67-2a2.25,2.25,0,0,1,2.17,2.4c0,1.46-.77,2.62-2.22,2.5-2.49-.2-3,1.52-3.18,3.17a55.11,55.11,0,0,0-.07,6.68c1.47.5,2.27.36,2.66-1.31a9.81,9.81,0,0,1,9.71-7.8c2-.05,4,0,5.95,0a9.82,9.82,0,0,1,9.74,7.76c.38,1.63,1.13,1.88,2.62,1.36a62.8,62.8,0,0,0-.06-6.86c-.18-1.6-.75-3.2-3.11-3-1.46.12-2.24-1-2.27-2.46a2.45,2.45,0,0,1,2.55-2.48c1.45.09,2.52,1,2.4,2.37s.56,2,.9,3a25.23,25.23,0,0,1,1,5.36,36.49,36.49,0,0,1,0,3.91c3.85,1.73,5.27,4.81,3.79,8.81A4.58,4.58,0,0,1,39,35.58a2.08,2.08,0,0,0-1.61,1.88c-.41,2.08-.81,4.15-1.24,6.22a15.2,15.2,0,0,1-.57,1.68c-.93-1-.93-1-.22-4.66.3-1.54.59-3.09.92-4.79Zm15.09-9.75c-5.36,0-10.72,0-16.07,0-2.65,0-3.36.75-3.38,3.45V30.8c0,2.94.7,3.65,3.59,3.66H37.16c2.56,0,3.35-.79,3.38-3.28q0-.8,0-1.59c0-2.69-.73-3.43-3.39-3.43Q29.13,26.14,21.09,26.16Z"/><path class="cls-1" d="M27.56,6.44a6.47,6.47,0,1,1-12.94.12,6.47,6.47,0,1,1,12.94-.12Z"/></g></g></svg>