<svg xmlns="http://www.w3.org/2000/svg" viewBox="0 0 72 72"><defs><style>.cls-1{fill:#f6871f;}.cls-2{fill:#1f3445;}</style></defs><g id="Layer_2" data-name="Layer 2"><g id="Layer_1-2" data-name="Layer 1"><circle class="cls-1" cx="36" cy="36" r="36"/><path class="cls-2" d="M18.9,16.13a5.48,5.48,0,0,1,1.92-.91,5.15,5.15,0,0,1,3.45.44.31.31,0,0,0,.22.11h0a.31.31,0,0,0,.21.14h0a.28.28,0,0,0,.2.15.79.79,0,0,0,.31.26l.67.75v0l.05.07a.13.13,0,0,0,.09.13l0,.08h0l.06.1v0l0,0a.32.32,0,0,0,.12.22s0,0,0,.05a9.08,9.08,0,0,1,.41,1.44l-.07,1.33A7.53,7.53,0,0,1,26,22.14h0a.3.3,0,0,0-.15.2l-.06.08-.9.89a.06.06,0,0,0-.07.07.31.31,0,0,0-.21.14h0a.33.33,0,0,0-.21.14h0a9.27,9.27,0,0,1-1.38.56,11.64,11.64,0,0,1-1.45.09h-.21a3.77,3.77,0,0,0-.95-.15s0-.08-.08-.08l-.07,0-.3-.15a5,5,0,0,1-2.43-2.45,5.58,5.58,0,0,1-.35-2.06l0-.2a6.93,6.93,0,0,1,.35-1.26,6.3,6.3,0,0,1,1.27-1.71h0l.07-.08Z"/><path class="cls-2" d="M37.49,16.33a4.09,4.09,0,0,1,.7-.68A6.18,6.18,0,0,1,41,15.08h.41l1,.14.82.28a.16.16,0,0,0,.14.07h0a.17.17,0,0,0,.14.09l.16.11a2.3,2.3,0,0,1,.78,1.87c0,.25.11.28.31.28,2.46,0,4.91,0,7.36,0a13,13,0,0,1,4.12.29h0l.08.06a3.3,3.3,0,0,1,1,.84,4.61,4.61,0,0,1,.57,1.31c0,.27.06.53.06.79,0,1.14,0,2.28,0,3.42,0,6.05,0,12.1,0,18.14a21.3,21.3,0,0,1-.14,4.07h0a.06.06,0,0,0,0,.08V47a.58.58,0,0,0-.15.35h0a5.53,5.53,0,0,1-.69.83h0a.14.14,0,0,0-.13.09h0a.11.11,0,0,0-.12.08l-.09,0a.18.18,0,0,0-.14.08h0l-.11.06h0a5.43,5.43,0,0,1-1.38.26h-24c-.62,0-.62,0-.72-.59a5.31,5.31,0,0,0,0-1.38c0-.28,0-.57,0-.86,0-.46,0-.46.47-.46H51.79a2.62,2.62,0,0,0,1.14-.2,1,1,0,0,0,.49-.2A1.68,1.68,0,0,0,54.31,44a1.05,1.05,0,0,0,.15-.6.74.74,0,0,0,.06-.44V24.31a.9.9,0,0,0-.07-.51v-.07a.26.26,0,0,0,0-.24l0-.11a2,2,0,0,0-.95-1.4l-.08-.05a2.48,2.48,0,0,0-1.55-.46H30.51c-.23,0-.33-.07-.31-.32a1.4,1.4,0,0,0,0-.61,5.31,5.31,0,0,0,0-1.38,4.19,4.19,0,0,0,0-1c0-.19.06-.28.26-.26a1.92,1.92,0,0,0,.24,0h6.1c.15,0,.34.06.33-.21a3.1,3.1,0,0,1,.31-1.3h0Z"/><path class="cls-2" d="M27.61,55.28a2.62,2.62,0,0,1-1.81,1.88.21.21,0,0,0-.2,0,.14.14,0,0,0-.15,0,9.17,9.17,0,0,1-1.17-.06A3.85,3.85,0,0,1,23,56.52a4.61,4.61,0,0,1-.81-1.15,3.55,3.55,0,0,1-2,1.8,8.86,8.86,0,0,1-1.45.19,2.66,2.66,0,0,1-1.32-.54h0l-.05-.05a.49.49,0,0,0-.22-.23,5.5,5.5,0,0,1-.68-1.32l0-1.52V41.37c.09-.33,0-.45-.38-.43s-.71,0-1.07,0a2.13,2.13,0,0,1-1.7-.57l-.08-.11a.14.14,0,0,0-.08-.13L13.13,40A4.13,4.13,0,0,1,13,38.83q0-4.62,0-9.23a5.16,5.16,0,0,1,.31-2.1h0l0-.09h0A2.93,2.93,0,0,1,16,26h2a.46.46,0,0,1,.4.21,8.48,8.48,0,0,0,1.18,1.29,2.64,2.64,0,0,0,.7.63.22.22,0,0,0,.19.13.2.2,0,0,0,.16.13h0a.25.25,0,0,0,.2.14h0a.27.27,0,0,0,.2.13l0,0h0a.34.34,0,0,0,.24.13h0c.15.12.3.25.5.17A4.38,4.38,0,0,0,23,28.36a3.83,3.83,0,0,0,1.18-.89.43.43,0,0,0,.21-.21,3.59,3.59,0,0,0,.85-1.16l.05-.08a2.75,2.75,0,0,1,.76,0H39a2.12,2.12,0,0,1,1.28.33h0l.08.07h0l.07.08a.05.05,0,0,0,0,.05l0,.06h0l.05.08h0a.14.14,0,0,0,.08.14h0a.14.14,0,0,0,.07.14h0a.14.14,0,0,0,.06.16,0,0,0,0,0,0,.05c0,.08,0,.16,0,.24A4.76,4.76,0,0,1,40.74,30a1.18,1.18,0,0,1-1.25.83l-.54,0a1.78,1.78,0,0,0-.69,0,6.46,6.46,0,0,0-1.39,0,6.37,6.37,0,0,0-1.38,0,6.46,6.46,0,0,0-1.39,0,6.37,6.37,0,0,0-1.38,0,6.37,6.37,0,0,0-1.38,0,4.61,4.61,0,0,0-1.05,0,.19.19,0,0,0-.18,0H30a6.46,6.46,0,0,0-1.39,0,2.16,2.16,0,0,0-.76,0c-.23.05-.11.22-.11.33,0,1.52,0,3,0,4.56,0,5.1,0,10.21,0,15.31A33.34,33.34,0,0,1,27.61,55.28Z"/><path class="cls-2" d="M48.36,56.53l.7.82H46.22c-.18,0-.25-.15-.35-.25-1.55-1.6-3.08-3.21-4.62-4.82-.42-.43-.42-.43-.79.09a2.7,2.7,0,0,0-.54.58,4.43,4.43,0,0,0-.75.81A.41.41,0,0,0,39,54l0,0h0v0a1.15,1.15,0,0,0-.37.39.7.7,0,0,0-.26.28,3.62,3.62,0,0,0-.7.76h0l-.07.08h0l-.07.08a1.26,1.26,0,0,0-.42.44l0,0h0v0a1,1,0,0,0-.35.38,1.89,1.89,0,0,0-.47.51.85.85,0,0,1-.47.07H33.14c0-.25.29-.34.37-.55h0a.14.14,0,0,0,.1-.11l.09-.1.08-.09h0l.07-.08h0l.07-.07a.44.44,0,0,0,.19-.22,3.52,3.52,0,0,0,.65-.74h0l.07-.07h0L34.9,55,35,55l.07-.09.06-.06.07-.08a.53.53,0,0,0,.2-.22l.06-.06h0a.12.12,0,0,0,.09-.12h0a2.13,2.13,0,0,0,.49-.55h0l.07-.08h0l.07-.08h0l.07-.07h0l.07-.07a.5.5,0,0,0,.2-.23l0-.06.08-.09,0,0,.17-.2h0a2.67,2.67,0,0,0,.42-.47l.07-.09h0l.07-.08h0l.07-.08h0l.07-.07c.64-.68,1.27-1.37,1.86-2.09l.11-.11.1,0h1.52a1.76,1.76,0,0,1,1.81.77.59.59,0,0,0,.27.29,2.91,2.91,0,0,0,.63.68.63.63,0,0,0,.27.29l.07.07h0a11.52,11.52,0,0,0,1.25,1.36v0h0l.05,0a1,1,0,0,0,.34.37,5,5,0,0,0,.76.83.61.61,0,0,0,.27.28,14.23,14.23,0,0,0,1.4,1.51A.2.2,0,0,0,48.36,56.53Z"/></g></g></svg>