<svg xmlns="http://www.w3.org/2000/svg" viewBox="0 0 53.96 43.87"><defs><style>.cls-1{fill:#f79421;}</style></defs><g id="Layer_2" data-name="Layer 2"><g id="Layer_1-2" data-name="Layer 1"><path class="cls-1" d="M0,43.87V40.69l1.06-.14V24.36H14.52V40.54h1.14l.14-1.33,1.07-.07V25.61l-1.07-.14v-3.9H38.21v3.9l-1.12.13V39.12l1.12.1.1,1.32h1.11V24.36H52.87V40.51l1.09.18v3.18Zm33.78-4.73V25.59l-1.1-.12-.1-1.1H29.87l-.13,1.11-1.09.12V39.12l1.1.12.13,1.32h2.69l.12-1.34ZM21.41,40.55h2.72l.11-1.3,1.08-.13V25.57l-1.08-.07-.12-1.16H21.43l-.14,1.14-1.08.12V39.13l1.1.11Zm19.4-13v3.22h3.41V27.56Zm11,3.24V27.58H48.38V30.8Zm-11,5.43H44.2V33H40.79Zm11,0V33H48.37v3.22ZM2.18,27.56v3.22h3.4V27.56Zm11,0H9.75v3.22h3.4ZM2.16,33v3.24H5.57V33Zm7.58,0v3.25h3.38V33Z"/><path class="cls-1" d="M38.17,20.33H15.74a11.58,11.58,0,0,1,3.06-8,11.17,11.17,0,0,1,7.73-3.69c0-2.52,0-5,0-7.4A5.93,5.93,0,0,1,26.84,0c.35.13.69.28,1,.39a2.39,2.39,0,0,0,.6,0c.53,0,1.06,0,1.59,0s1.13.26,1.06,1.09c0,.2.38.58.61.6A19.93,19.93,0,0,0,34,2.2c0,.6,0,1.22,0,1.82a1.34,1.34,0,0,1-1.71,1c-.66-.13-1.29-.41-1.95-.53s-1.55-.15-2.39-.23V8.61a11.27,11.27,0,0,1,8.55,5.3A10.46,10.46,0,0,1,38.17,20.33Z"/></g></g></svg>