<svg xmlns="http://www.w3.org/2000/svg" viewBox="0 0 72 72"><defs><style>.cls-1{fill:#f6871f;}.cls-2{fill:#1f3445;}</style></defs><g id="Layer_2" data-name="Layer 2"><g id="Layer_1-2" data-name="Layer 1"><circle class="cls-1" cx="36" cy="36" r="36"/><path class="cls-2" d="M48.4,49.33c0,.26.35.58.61.74a3.77,3.77,0,0,1,1.8,4.29,3.73,3.73,0,0,1-3.56,2.74,3.78,3.78,0,0,1-3.66-2.74A3.67,3.67,0,0,1,45.4,50.1a1,1,0,0,0,.6-1.05C46,47,46,45,46,43V41.43c-3-.6-5.75,1.92-6.24,4.43a17.91,17.91,0,0,0-.23,3,7.88,7.88,0,0,1-8.21,8H24.24a3.06,3.06,0,0,1-3.2-3c0-.83,0-1.67,0-2.5V47.67H18.79c-1.3,0-1.77-.69-1.39-1.92.53-1.71,1-3.45,1.63-5.11a21.9,21.9,0,0,0,1.38-9,16.42,16.42,0,0,1,1.34-7.06c3.58-8.43,12.88-11.15,20.31-9A16,16,0,0,1,51.48,23a15.66,15.66,0,0,1,2.43,10.14c-.15,1.36-.34,2.72-.42,4.08s0,2.66,0,4.08H48.37C48.37,44.1,48.36,46.72,48.4,49.33Zm2.86-17.56a13.48,13.48,0,0,0-5.71-11.3,13.45,13.45,0,0,0-15.3-1,13.63,13.63,0,0,0-7,12.26Z"/><path class="cls-2" d="M39.69,23.23c-.79-2.75-2.78-3.43-4.21-3.32-2.12.17-3.4,1.71-3.67,4.25-1.86.52-2.64,1.33-2.65,2.75a2.61,2.61,0,0,0,2.49,2.65c3.9,0,7.81.05,11.71,0a1.79,1.79,0,0,0,2-1.64,1.86,1.86,0,0,0-1.68-2.05.92.92,0,0,1-.6-.48C42.48,23.64,41.65,23.06,39.69,23.23Z"/></g></g></svg>