<svg xmlns="http://www.w3.org/2000/svg" viewBox="0 0 72 72"><defs><style>.cls-1{fill:#f6871f;}.cls-2{fill:#1f3445;}</style></defs><g id="Layer_2" data-name="Layer 2"><g id="Layer_1-2" data-name="Layer 1"><circle class="cls-1" cx="36" cy="36" r="36"/><path class="cls-2" d="M13.92,52.61V49.24h3.52c0-2.81-.07-5.5,0-8.17A3.54,3.54,0,0,0,16,37.71a10.46,10.46,0,0,1-2-14.08,10.69,10.69,0,0,1,13.77-3.41,4.38,4.38,0,0,0,2,.51c8.38,0,16.75,0,25.13,0h1.63V49.19H60v3.42ZM21,49.12H52.91V24.31H32.06c1.89,4,1.92,7.81-.61,11.41S25.31,40.61,21,40.17ZM15.63,29.61a7.14,7.14,0,1,0,7.15-7.13A7.17,7.17,0,0,0,15.63,29.61Z"/><path class="cls-2" d="M51.12,43.9v3.45c-2.31,0-4.58.12-6.82-.07-.67-.06-1.27-1-1.92-1.53A3.53,3.53,0,0,1,46,43.87C47.63,44,49.32,43.9,51.12,43.9Z"/><path class="cls-2" d="M24.27,33.54l-.1,0c-3.48-3.18-3.57-3.42-3.1-9.06H24.5a13.89,13.89,0,0,0,.07,3.77,13.32,13.32,0,0,0,2.08,3.16Z"/></g></g></svg>