<svg xmlns="http://www.w3.org/2000/svg" viewBox="0 0 72 72"><defs><style>.cls-1{fill:#f6871f;}.cls-2{fill:#1f3445;}</style></defs><g id="Layer_2" data-name="Layer 2"><g id="Layer_1-2" data-name="Layer 1"><circle class="cls-1" cx="36" cy="36" r="36"/><path class="cls-2" d="M35.78,60A94.88,94.88,0,0,1,19.66,42.28c-8.06-11.89.94-25.54,11.87-27.85,12-2.53,23.6,6.5,23.39,18.6a15.64,15.64,0,0,1-1.67,6.47C49.17,47.69,42.6,53.81,35.78,60ZM20.62,32.44A15.15,15.15,0,1,0,35.78,17.37,15.18,15.18,0,0,0,20.62,32.44Z"/><path class="cls-2" d="M46.27,39.17c-.33-3.09-1.52-5.33-4.11-6.7-1.09-.58-1.79-.49-2.39.7C39.05,34.62,38.15,36,37,37.9V33.43h-2.5v4.41c-1.08-1.83-2-3.25-2.76-4.74-.56-1.05-1.18-1.23-2.24-.68A7.51,7.51,0,0,0,25.37,39c-3.24-3.17-2.85-10.35.76-14.59a12.58,12.58,0,0,1,17.08-2A12.42,12.42,0,0,1,46.27,39.17ZM31.21,26.55a4.69,4.69,0,0,0,4.7,4.66,4.75,4.75,0,0,0,4.68-4.7,4.82,4.82,0,0,0-4.73-4.69A4.74,4.74,0,0,0,31.21,26.55Z"/><path class="cls-2" d="M30.58,43.74c-1.65-.59-2.52-2.67-1.7-3.88a1.12,1.12,0,0,1,1-.41,1.11,1.11,0,0,1,.69.78C30.62,41.38,30.58,42.53,30.58,43.74Z"/><path class="cls-2" d="M41,43.73c0-1.28-.05-2.39,0-3.49a1.13,1.13,0,0,1,.68-.8,1.18,1.18,0,0,1,1,.44C43.47,41,42.7,43,41,43.73Z"/></g></g></svg>