<svg xmlns="http://www.w3.org/2000/svg" viewBox="0 0 72 72"><defs><style>.cls-1{fill:#f6871f;}.cls-2{fill:#1f3445;}</style></defs><g id="Layer_2" data-name="Layer 2"><g id="Layer_1-2" data-name="Layer 1"><circle class="cls-1" cx="36" cy="36" r="36"/><path class="cls-2" d="M47.4,52h1a1,1,0,0,0,1.11-1.12c0-.19,0-.38,0-.57V18.49a2.73,2.73,0,0,0,0-.57.88.88,0,0,0-.73-.78,4.17,4.17,0,0,0-.61,0q-12,0-24.1,0a3.66,3.66,0,0,0-.66,0,.87.87,0,0,0-.72.79,4.16,4.16,0,0,0,0,.61V50.93A1,1,0,0,0,23.69,52c.92,0,1.85,0,2.77,0h6.22c.62,0,.63,0,.45.61s-.35,1.06-.5,1.6c-.08.29-.27.26-.47.26H27.22c-1.23,0-2.47,0-3.7,0a3.41,3.41,0,0,1-3.39-3.54V18.39a3.6,3.6,0,0,1,1.36-3.05,3.8,3.8,0,0,1,2.4-.72H48.21A3.48,3.48,0,0,1,52,18.39v32.3a3.62,3.62,0,0,1-1.32,3,3.32,3.32,0,0,1-2.12.72.34.34,0,0,1-.27-.15C48,53.57,47.71,52.82,47.4,52Z"/><path class="cls-2" d="M49.46,60.67l-3.1-1.78-1.23,4-.1,0-3.61-9.47-2,.12-2.24,7.1h-.1l-1.35-3.91-3.13,2.11-.08-.06c.3-1,.6-1.89.89-2.84.41-1.3.81-2.61,1.22-3.91a.44.44,0,0,0-.17-.59,3.11,3.11,0,0,1-1.34-2.72,1.94,1.94,0,0,0-.51-1.44,3.23,3.23,0,0,1,.3-4.68.8.8,0,0,0,.23-.83,3.17,3.17,0,0,1,1.43-3.27A3,3,0,0,1,37.06,38a.58.58,0,0,0,.69-.26,3.19,3.19,0,0,1,4.84-.38,4.4,4.4,0,0,0,1.72,1A3,3,0,0,1,46.37,41,1.31,1.31,0,0,0,47,42a3.39,3.39,0,0,1,.64,4.78A3.55,3.55,0,0,0,47,48.56a4,4,0,0,1-.8,2.37.6.6,0,0,0-.1.71c1.09,2.88,2.17,5.76,3.26,8.65C49.38,60.38,49.4,60.47,49.46,60.67ZM46.14,45.15A6.11,6.11,0,1,0,40,51.26,6.14,6.14,0,0,0,46.14,45.15Z"/><path class="cls-2" d="M35.1,30.89H27.39c-.84,0-1.29-.32-1.41-1a1.12,1.12,0,0,1,.85-1.29,3.18,3.18,0,0,1,.62-.05H42.73A1.4,1.4,0,0,1,44,29a1.11,1.11,0,0,1-.58,1.76,2.68,2.68,0,0,1-.74.09Z"/><path class="cls-2" d="M35.1,22.62h7.75a1.26,1.26,0,0,1,1.16.49,1.11,1.11,0,0,1-.7,1.76,3.07,3.07,0,0,1-.53.05H27.41a2.24,2.24,0,0,1-.89-.17A1.06,1.06,0,0,1,26,23.63a1.07,1.07,0,0,1,.85-.95,2.9,2.9,0,0,1,.66-.06Z"/></g></g></svg>