<svg xmlns="http://www.w3.org/2000/svg" viewBox="0 0 40.13 47.35"><defs><style>.cls-1{fill:#f79421;}</style></defs><g id="Layer_2" data-name="Layer 2"><g id="Layer_1-2" data-name="Layer 1"><path class="cls-1" d="M20.11,34.68c-3-.1-6-.18-9-.31-1.61-.07-3.21-.23-4.82-.35-.59,0-.75-.23-.71-.83a10.39,10.39,0,0,1,.84-3.34A11.43,11.43,0,0,1,12,23.94,3.33,3.33,0,0,1,14,23.56a1.32,1.32,0,0,1,1.08.77l4.27,8.24a1.68,1.68,0,0,0,.67.75c.3.16.48.1.64-.21L25,24.71l.25-.44A1.53,1.53,0,0,1,27,23.52a4.24,4.24,0,0,1,1.11.36,11.42,11.42,0,0,1,6.54,9.43c.05.45-.13.66-.62.7-.93.09-1.87.17-2.81.23-3.69.25-7.38.39-11.08.38Z"/><path class="cls-1" d="M2.38,38.09a2.21,2.21,0,0,1,.47.07c.06,0,.1.12.12.2.1.36.15.74.28,1.09a1,1,0,0,0,.91.71,1.09,1.09,0,0,0,1-.57,2.45,2.45,0,0,0-.87-3.34,1.59,1.59,0,0,0-1.85.23,3.21,3.21,0,0,0-.74.9,5,5,0,0,0-.34,4,2.81,2.81,0,0,0,2.09,2,3.69,3.69,0,0,0,1.15,0l8.92-.8,3.27-.3.38,0a.79.79,0,0,1,0,.69,1.71,1.71,0,0,1-1.51,1c-.55,0-1.1,0-1.64,0a58.46,58.46,0,0,0-8.46.56,8.17,8.17,0,0,1-2.21,0A3.29,3.29,0,0,1,.4,42.15,8.21,8.21,0,0,1,.43,37,3.15,3.15,0,0,1,4,34.65c2,.12,4,.27,6,.41l5.81.4.23,0a1,1,0,0,1,.92.67,9.92,9.92,0,0,1,.74,4.06,3,3,0,0,1,0,.42.75.75,0,0,1-.75.79l-2.18.22L6,42.46a15.61,15.61,0,0,1-1.93.11,1.94,1.94,0,0,1-2-2.07,12.22,12.22,0,0,1,.2-1.81C2.29,38.49,2.34,38.3,2.38,38.09Z"/><path class="cls-1" d="M35.87,3.16l-2.28.59c-4,1-7.9,2-11.84,3.07a7.35,7.35,0,0,1-3.81-.12C13.69,5.58,9.44,4.48,5.18,3.37a1.34,1.34,0,0,1-.84-.46l.89-.17L17.32.43c.52-.1,1-.2,1.56-.32a6.94,6.94,0,0,1,2.87.1L34.81,2.73c.21,0,.42.07.63.13a2.77,2.77,0,0,1,.46.22Z"/><path class="cls-1" d="M24,35.49l1.58-.11,7.79-.53c1-.07,2-.14,3-.19a5.25,5.25,0,0,1,1,0,2.67,2.67,0,0,1,2.06,1.57,6.6,6.6,0,0,1,.65,2.47,10.16,10.16,0,0,1-.26,3.43c-.15.6-.4.79-1,.74l-5.61-.53-8-.78a1.37,1.37,0,0,1-.4-.09.29.29,0,0,1-.21-.34A14.58,14.58,0,0,0,24,35.59.25.25,0,0,1,24,35.49Z"/><path class="cls-1" d="M27.61,10.94c.07.3.15.6.21.91a7.91,7.91,0,0,1-3.39,8,7.82,7.82,0,0,1-12.08-5.36,9.37,9.37,0,0,1,.07-3.08c.05-.34.25-.42.54-.21A11.28,11.28,0,0,0,18,13.25,12.18,12.18,0,0,0,27.42,11l.11-.08Z"/><path class="cls-1" d="M28.26,5.78c0,.32,0,.62-.05.92,0,.73-.08,1.47-.13,2.21a2.2,2.2,0,0,1-1,1.76,11.44,11.44,0,0,1-3.9,1.75,12.37,12.37,0,0,1-9.38-1.34l-.48-.31a2.45,2.45,0,0,1-1.11-1.95C12.1,7.89,12,7,11.91,6c0-.11,0-.23,0-.38l.39.11L19,7.62a4.4,4.4,0,0,0,2.49,0C23.64,7,25.84,6.4,28,5.83Z"/><path class="cls-1" d="M17.41,35.44h5.2c.5,0,.68.12.85.6a10.77,10.77,0,0,1,.61,3.9,10.88,10.88,0,0,1-.56,3.26c-.12.37-.25.47-.62.47H17.56A10.48,10.48,0,0,0,17.41,35.44Z"/><path class="cls-1" d="M20.09,21.69c.23,0,.46,0,.69,0a1.12,1.12,0,0,1,1.13,1,1.09,1.09,0,0,1-.83,1.15c-.25.08-.29.26-.3.47a3.92,3.92,0,0,0,.37,2c.14.3.3.59.46.87a2.36,2.36,0,0,1,.13,2.26c-.39.85-.78,1.7-1.2,2.53a1.26,1.26,0,0,1-.43.43c-.1.08-.22,0-.29-.11-.49-1-1-2.06-1.46-3.09a1.76,1.76,0,0,1,0-1.52c.16-.36.35-.71.53-1.06a5,5,0,0,0,.58-1.72,2.31,2.31,0,0,0,0-.64.57.57,0,0,0-.4-.46,1.1,1.1,0,0,1-.74-1.19,1.12,1.12,0,0,1,1.07-.94h.72Z"/><path class="cls-1" d="M35.69,44.58,33,44.31c-2.58-.25-5.17-.37-7.77-.38a3.93,3.93,0,0,1-.69-.06.59.59,0,0,1-.32-1,1.07,1.07,0,0,1,.89-.35c.52,0,1.05,0,1.57.09,1.77.15,3.54.29,5.31.46,2.08.19,4.16.41,6.23.62a4.46,4.46,0,0,1,.51.07.91.91,0,0,1,.21.15.91.91,0,0,1-.17.17A6.11,6.11,0,0,1,35.69,44.58Z"/><path class="cls-1" d="M32.44,4.39c0,.36.06.69.06,1,0,1,0,2,0,2.93a3.78,3.78,0,0,0,.08.89,1.06,1.06,0,0,0,.28.52.57.57,0,0,1,.14.59,3.2,3.2,0,0,1-.17.43,1.56,1.56,0,0,0-.11,1.16c.24.93.47,1.87.7,2.8,0,.08,0,.17.06.28l-.42,0-1.64,0c-.33,0-.45-.12-.39-.44.15-.72.32-1.43.49-2.14a3.25,3.25,0,0,0,0-2,.64.64,0,0,1,.07-.52A2.87,2.87,0,0,0,32,8.11c0-.92,0-1.84,0-2.77a2.16,2.16,0,0,1,.1-.61A.41.41,0,0,1,32.44,4.39Z"/><path class="cls-1" d="M23.93,46.67l-2.31-1.18c-.58-.29-.75-.24-1.06.33s-.49.88-.73,1.32a.56.56,0,0,1-.19.21c-.08-.21-.19-.4-.25-.62a3.52,3.52,0,0,0-1.16-1.79c-.26-.2-.55-.37-.87-.58.47,0,.9-.11,1.33-.11l3.77,0a1,1,0,0,1,1,.67,4.1,4.1,0,0,1,.46,1.41C23.94,46.44,23.93,46.53,23.93,46.67Z"/></g></g></svg>