<svg xmlns="http://www.w3.org/2000/svg" viewBox="0 0 77.88 66.2"><defs><style>.cls-1{fill:#282829;}</style></defs><g id="Layer_2" data-name="Layer 2"><g id="Layer_1-2" data-name="Layer 1"><path class="cls-1" d="M10.12,44.06H1.54c-1,0-1.49-.43-1.48-1.33,0-3.86-.23-7.73.13-11.57a11,11,0,0,1,10.1-9.63c4.37-.14,8.76-.2,13.12,0,3.9.2,6.81,2.31,8.81,5.66.3.5.09.55-.36.6A13.25,13.25,0,0,0,19.7,39.13a19.57,19.57,0,0,0-.13,4.12c0,.7-.21.83-.86.83C15.85,44,13,44.06,10.12,44.06Z"/><path class="cls-1" d="M29.87,52.89H23.72c-1.4,0-1.8-.4-1.8-1.77,0-3.16,0-6.32,0-9.48A11.13,11.13,0,0,1,33.35,30.26q5.63,0,11.25,0a3.45,3.45,0,0,1,1.28.13c.18.07.4.11.44.3s-.23.28-.37.37a19.81,19.81,0,0,0-6.14,6.12,20.18,20.18,0,0,0-2.9,15.09c.11.57-.07.63-.56.63C34.19,52.88,32,52.89,29.87,52.89Z"/><path class="cls-1" d="M39,48.16a18,18,0,1,1,17.8,18A18.06,18.06,0,0,1,39,48.16Zm2.64.07a15.41,15.41,0,1,0,15.27-15.4A15.36,15.36,0,0,0,41.6,48.23Z"/><path class="cls-1" d="M45.44,27.6a11,11,0,0,1,7.23-5.92,11.49,11.49,0,0,1,3-.35H66.56A11.1,11.1,0,0,1,77.83,32.23c.1,3.42,0,6.85,0,10.28a2.25,2.25,0,0,1-.08.64c-.09.33-.29.68-.61.69s-.29-.42-.35-.68A20.42,20.42,0,0,0,49.36,29.28c-.23.09-.46.33-.7,0A4.11,4.11,0,0,0,45.44,27.6Z"/><path class="cls-1" d="M7.91,8.88a8.88,8.88,0,1,1,8.93,8.78A8.7,8.7,0,0,1,7.91,8.88Z"/><path class="cls-1" d="M60.94,17.66a8.7,8.7,0,0,1-8.76-9,8.86,8.86,0,1,1,8.76,9Z"/><path class="cls-1" d="M38.76,26.59A8.59,8.59,0,0,1,30,17.82a8.88,8.88,0,0,1,9-8.89,8.73,8.73,0,0,1,8.64,8.83A8.9,8.9,0,0,1,38.76,26.59Z"/></g></g></svg>