<svg xmlns="http://www.w3.org/2000/svg" viewBox="0 0 30.25 45.36"><defs><style>.cls-1{fill:#f79421;}</style></defs><g id="Layer_2" data-name="Layer 2"><g id="Layer_1-2" data-name="Layer 1"><path class="cls-1" d="M2.36,34.87v-.7c0-4,0-7.91,0-11.87a5.93,5.93,0,0,1,6.08-6.12h7.71l.5,0c-.06,1.13-.15,2.22-.18,3.31q-.07,2.73-.09,5.46c0,.35-.07.51-.43.63a3.11,3.11,0,0,0,0,5.86.88.88,0,0,1,.61.67,13.51,13.51,0,0,0,4.3,6.45,5.7,5.7,0,0,0,1.23.75.55.55,0,0,1,.38.6c0,1,0,1.94,0,2.9a1.17,1.17,0,0,1-1.27,1.29H8.58c-.85,0-1.28-.5-1.28-1.44,0-5.44,0-10.88,0-16.33,0-.31.15-.81-.39-.79s-.37.48-.37.79c0,1.76,0,3.51,0,5.26a.71.71,0,0,1-.37.69c-1.12.75-2.23,1.53-3.34,2.3Z"/><path class="cls-1" d="M14.85,0A6.75,6.75,0,1,1,8.1,6.6,6.74,6.74,0,0,1,14.85,0Z"/><path class="cls-1" d="M23.18,27c-.65-.18-1.19-.31-1.7-.49a.61.61,0,0,1-.28-.44c-.06-1.27-.15-2.54-.12-3.8,0-1.92.15-3.84.24-5.76a4.22,4.22,0,0,1,.05-.42,15,15,0,0,1,1.84.42,5.6,5.6,0,0,1,3.66,3.7C28,23.76,29,27.29,30.1,30.82a2.29,2.29,0,0,1-.54,2.45,2.34,2.34,0,0,1-2.49.6l-10.58-3a2.41,2.41,0,0,1-1.87-2.21,2.26,2.26,0,0,1,1.55-2.32,2.79,2.79,0,0,1,1.46-.06c2.58.69,5.14,1.43,7.71,2.16.11,0,.24.11.33.08a2.64,2.64,0,0,0,.47-.25c-.09-.16-.14-.4-.28-.46a11.69,11.69,0,0,0-1.43-.41.61.61,0,0,1-.49-.49c-.5-1.66-1-3.32-1.51-5,0-.08,0-.19-.08-.23s-.34-.22-.52-.33c-.06.19-.22.39-.18.55.19.74.43,1.47.65,2.2C22.59,25.06,22.87,26,23.18,27Z"/><path class="cls-1" d="M20.32,26.22l-3.14-.87c0-1.55,0-3.1,0-4.65s.15-2.9.23-4.35a1.07,1.07,0,0,1,1.19-1.16h.85c.77,0,1.11.41,1.09,1.18-.08,2.56-.16,5.13-.22,7.69C20.31,24.76,20.32,25.46,20.32,26.22Z"/><path class="cls-1" d="M2.2,45.11a3.74,3.74,0,0,1-.05-.45c0-1.87,0-3.74,0-5.61a1,1,0,0,1,.5-.95c1.27-.81,2.51-1.64,3.82-2.51,0,.18,0,.3,0,.42,0,1.78,0,3.57-.06,5.35a.86.86,0,0,1-.16.55C5,43,3.62,44,2.2,45.11Zm2.11-4.7c0-.5,0-1,0-1.5,0-.18-.22-.34-.34-.5-.13.16-.36.31-.36.48,0,1,0,2,0,3a.66.66,0,0,0,.35.48c.33,0,.38-.23.38-.51Z"/><path class="cls-1" d="M25.74,17.14a6.92,6.92,0,0,0-3.43-1.63,1.55,1.55,0,0,0-.29,0,1.23,1.23,0,0,1-1.24-.55.49.49,0,0,0-.19-.16,3.25,3.25,0,0,0-3.6.42.78.78,0,0,1-.45.23c-.33,0-.66,0-1.09,0a3.33,3.33,0,0,1,2.76-1.64c2.9,0,5.81,0,8.71,0a3.3,3.3,0,0,1,2.69,1.56C28.13,15.54,26.7,15.77,25.74,17.14Z"/><path class="cls-1" d="M17.17,31.85l3,.86a.57.57,0,0,1,.26.27,6.6,6.6,0,0,0,2.68,2.81,2,2,0,0,1,.41,2.66.82.82,0,0,1-.94.28,3.4,3.4,0,0,1-.72-.34A13,13,0,0,1,17.17,31.85Z"/><path class="cls-1" d="M1.39,45.36a11.59,11.59,0,0,1-1.18-.47A.49.49,0,0,1,0,44.51C0,42.34,0,40.17.09,38a1.22,1.22,0,0,1,.42-.85c2-1.4,3.94-2.75,6-4.19,0,.58,0,1.07,0,1.55,0,.12-.19.25-.32.34-1.31.88-2.63,1.77-4,2.62a1.68,1.68,0,0,0-.85,1.58C1.4,41.12,1.39,43.19,1.39,45.36Z"/><path class="cls-1" d="M28.5,23c-.27-.89-.47-1.75-.79-2.56A18.56,18.56,0,0,0,26.53,18a.52.52,0,0,1,0-.69,3.61,3.61,0,0,1,2.18-1.1,1,1,0,0,1,1.37.59,1.44,1.44,0,0,1,.13.62c0,1.54,0,3.07,0,4.61,0,.32-.08.48-.42.54S29,22.83,28.5,23Z"/><path class="cls-1" d="M30.24,33.91a9.19,9.19,0,0,1,0,1.16.86.86,0,0,1-.3.48,3.63,3.63,0,0,1-2.18.89c-.66.05-1-.13-1.15-.76a8.85,8.85,0,0,1-.18-1.07,10,10,0,0,0,2,.07A8.87,8.87,0,0,0,30.24,33.91Z"/><path class="cls-1" d="M26,36.54l-1.36.08a2,2,0,0,0-1.2-1.56.64.64,0,0,1-.24-.38c0-.35,0-.7,0-1.12.83.23,1.6.44,2.35.67.08,0,.14.17.16.27C25.77,35.16,25.86,35.83,26,36.54Z"/><path class="cls-1" d="M28.72,23.69l1.5-.4v5l-.08,0Z"/><path class="cls-1" d="M24.58,37.42c1.83-.27,3.72.13,5.36-.92l.1.13a3.87,3.87,0,0,1-.83.79,5,5,0,0,1-1.5.5c-1,.16-2.08.24-3.18.35Z"/><path class="cls-1" d="M21.34,33.12c1.06.07,1.11.12,1,1.21Z"/></g></g></svg>