<svg xmlns="http://www.w3.org/2000/svg" viewBox="0 0 72 72"><defs><style>.cls-1{fill:#f6871f;}.cls-2{fill:#1f3445;}</style></defs><g id="Layer_2" data-name="Layer 2"><g id="Layer_1-2" data-name="Layer 1"><circle class="cls-1" cx="36" cy="36" r="36"/><path class="cls-2" d="M15.79,57A24.55,24.55,0,0,1,16,52.45a6.11,6.11,0,0,1,9.84-3.16l.34.28.62-1.11q1.35-2.43,2.69-4.87a1.59,1.59,0,0,0,.19-.7c0-2.11,0-4.21,0-6.32a1.1,1.1,0,0,0-.25-.62c-.81-.9-1.66-1.78-2.48-2.68a.81.81,0,0,0-.65-.27H15.81c0-.06-.06-.09-.06-.11a36.09,36.09,0,0,1,.09-4A5.83,5.83,0,0,1,20.54,24a6.17,6.17,0,0,1,6.85,3.29,5.73,5.73,0,0,1,.55,2.61A4.94,4.94,0,0,0,28,31.74a5.29,5.29,0,0,0,1.22,1.39c.7.75,1.39,1.51,2.11,2.23a1,1,0,0,0,.6.27q4.05,0,8.1,0a.79.79,0,0,0,.53-.22q1.57-1.63,3.1-3.3a1,1,0,0,0,.22-.58A20.38,20.38,0,0,1,44,28.59,5.73,5.73,0,0,1,48.72,24a6.12,6.12,0,0,1,6.81,3.29,5.74,5.74,0,0,1,.55,2.41c0,1,0,2,0,3A1.32,1.32,0,0,1,56,33H45.69a.87.87,0,0,0-.72.3c-.94,1-1.9,2-2.83,3.05a1,1,0,0,0-.23.57c0,1.79,0,3.58,0,5.37a.89.89,0,0,0,.08.43c1.25,2.25,2.5,4.5,3.78,6.78.27-.2.51-.39.77-.57a6.14,6.14,0,0,1,9.36,3.48A4.17,4.17,0,0,1,56,53.47c0,1.18,0,2.35,0,3.53H43.89c0-1.12,0-2.24,0-3.37a5.06,5.06,0,0,1,.54-2.23.66.66,0,0,0,0-.69q-1.92-3.37-3.8-6.77A.57.57,0,0,0,40,43.6H31.88a.57.57,0,0,0-.57.34q-1.9,3.44-3.84,6.84a.73.73,0,0,0,0,.73,3.84,3.84,0,0,1,.39,1.26c.07,1.41.07,2.82.1,4.23Z"/><path class="cls-2" d="M54.47,18.93A4.5,4.5,0,1,1,50,14.44,4.48,4.48,0,0,1,54.47,18.93Z"/><path class="cls-2" d="M21.86,23.44A4.5,4.5,0,1,1,26.36,19,4.49,4.49,0,0,1,21.86,23.44Z"/><path class="cls-2" d="M21.83,47.45A4.5,4.5,0,1,1,26.36,43,4.49,4.49,0,0,1,21.83,47.45Z"/><path class="cls-2" d="M54.46,43A4.49,4.49,0,1,1,50,38.46,4.5,4.5,0,0,1,54.46,43Z"/></g></g></svg>