<svg xmlns="http://www.w3.org/2000/svg" viewBox="0 0 62.1 62.09"><defs><style>.cls-1{fill:#fff;}</style></defs><g id="Layer_2" data-name="Layer 2"><g id="Layer_1-2" data-name="Layer 1"><path class="cls-1" d="M59.14,3.43l-6.76,1.8c-1.58.42-3.17.85-4.75,1.25a1.4,1.4,0,0,1-1.55-.62,1.43,1.43,0,0,1,0-1.67A1.58,1.58,0,0,1,47,3.6L60.19.09A1.47,1.47,0,0,1,62.1,1.51V52.34c0,1.22-.29,1.63-1.45,1.93L31.82,62a2.74,2.74,0,0,1-1.45,0Q15.84,58.1,1.29,54.23A1.51,1.51,0,0,1,0,52.55V1.66A1.47,1.47,0,0,1,2,.12L14.88,3.54c.88.24,1.32.68,1.38,1.36a1.45,1.45,0,0,1-1.82,1.57c-2.3-.59-4.59-1.21-6.89-1.82C6.16,4.28,4.78,3.93,3.4,3.53,3,3.43,3,3.5,3,3.87,3,5.76,3,7.65,3,9.54q0,20.64,0,41.27c0,.61.13.85.76,1q12.8,3.38,25.58,6.82c.07,0,.16,0,.29,0V37.48c0-.2,0-.41,0-.61a1.48,1.48,0,0,1,2.94,0c0,.2,0,.41,0,.61V58.71l4.54-1.2q10.74-2.86,21.48-5.72c.46-.12.6-.28.6-.76q0-23.47,0-46.95Z"/><path class="cls-1" d="M37.15,23.68c-1.36,0-2.71,0-4.07,0-.48,0-.57-.14-.56-.58q0-3.59,0-7.15c0-.41.13-.56.51-.66,1.68-.43,3.37-.87,5-1.35A1.44,1.44,0,0,0,39,11.81a1.51,1.51,0,0,0-1.87-.65L31.6,12.64a2,2,0,0,1-1.09,0c-1.83-.51-3.68-1-5.52-1.47a1.51,1.51,0,0,0-2.07,1.15A1.54,1.54,0,0,0,24.24,14c1.59.43,3.17.86,4.76,1.26.42.1.59.25.58.72,0,2.36,0,4.72,0,7.08,0,.43,0,.61-.55.6-2.77,0-5.55,0-8.32,0A.87.87,0,0,1,20,23.3a14.29,14.29,0,1,1,25.24-11,14.11,14.11,0,0,1-3,11,.93.93,0,0,1-.82.4C39.94,23.67,38.54,23.68,37.15,23.68Z"/><path class="cls-1" d="M31.08,26.63c2.61,0,5.21,0,7.82,0,.44,0,.55.13.54.55,0,1.23,0,2.46,0,3.7a1.51,1.51,0,0,1-1.67,1.68H24.34a1.51,1.51,0,0,1-1.67-1.69c0-1.23,0-2.46,0-3.69,0-.43.11-.55.54-.55C25.83,26.65,28.45,26.63,31.08,26.63Z"/><path class="cls-1" d="M7.41,40l2.55.67,15.3,4.08a1.53,1.53,0,0,1,1.32,1.82,1.51,1.51,0,0,1-2,1l-11-2.94L7.18,43a1.53,1.53,0,0,1-1.24-1.22,1.41,1.41,0,0,1,.6-1.46A1.73,1.73,0,0,1,7.41,40Z"/><path class="cls-1" d="M56.18,41.5A1.52,1.52,0,0,1,54.89,43c-2.09.57-4.19,1.12-6.28,1.68l-11,2.93a1.49,1.49,0,1,1-.78-2.85l17.32-4.61A1.49,1.49,0,0,1,56.18,41.5Z"/><path class="cls-1" d="M18,33.05c-.88-.23-1.93-.49-3-.77L7.25,30.2,7,30.13a1.47,1.47,0,0,1-1-1.82,1.46,1.46,0,0,1,1.84-1q5.37,1.41,10.74,2.87a1.47,1.47,0,0,1,1.15,1.65A1.54,1.54,0,0,1,18,33.05Z"/><path class="cls-1" d="M44,33.06a1.51,1.51,0,0,1-1.58-1.22,1.45,1.45,0,0,1,1.07-1.65c1.41-.41,2.84-.77,4.26-1.15l6.41-1.71a1.49,1.49,0,1,1,.79,2.85Q49.65,31.6,44.37,33A2.16,2.16,0,0,1,44,33.06Z"/><path class="cls-1" d="M7.5,14.43A8.3,8.3,0,0,1,9,14.79c1.27.33,2.54.66,3.8,1A1.48,1.48,0,1,1,12,18.64Q9.51,18,7,17.31a1.45,1.45,0,0,1-1.1-1.63A1.5,1.5,0,0,1,7.5,14.43Z"/><path class="cls-1" d="M56.18,15.9a1.4,1.4,0,0,1-1,1.38q-2.65.75-5.33,1.43a1.45,1.45,0,0,1-1.71-1.06A1.38,1.38,0,0,1,49,15.92c1.81-.53,3.62-1,5.45-1.46A1.43,1.43,0,0,1,56.18,15.9Z"/></g></g></svg>