<svg xmlns="http://www.w3.org/2000/svg" viewBox="0 0 72 72"><defs><style>.cls-1{fill:#f6871f;}.cls-2{fill:#1f3445;}</style></defs><g id="Layer_2" data-name="Layer 2"><g id="Layer_1-2" data-name="Layer 1"><circle class="cls-1" cx="36" cy="36" r="36"/><path class="cls-2" d="M43.24,49.61H44.7V28.16H54V49.63h5.16c.63,0,1,.53.71,1a1.14,1.14,0,0,1-.52.36,1.55,1.55,0,0,1-.53,0H10.77a.67.67,0,0,1-.68-.68.66.66,0,0,1,.69-.7c.82,0,1.63,0,2.45,0h2.6v-26L30.26,37V23.66c.37.34.64.58.9.83Q37,30.1,42.92,35.72a1.12,1.12,0,0,1,.3.74q0,6.27,0,12.53ZM20,49.61c0-.18,0-.34,0-.5v-15a1.59,1.59,0,0,0,0-.38.7.7,0,0,0-.64-.62.68.68,0,0,0-.76.52,1.48,1.48,0,0,0-.05.47v15c0,.17,0,.33,0,.5Zm14.4,0c0-.18,0-.33,0-.49v-15a1.59,1.59,0,0,0,0-.38.69.69,0,0,0-.69-.62.72.72,0,0,0-.75.61,1.6,1.6,0,0,0,0,.38v15c0,.16,0,.33,0,.5Z"/><path class="cls-2" d="M43.29,26.67v-5.1H55.46v5.1Z"/></g></g></svg>