<?xml version="1.0" encoding="utf-8"?>
<!-- Generator: Adobe Illustrator 26.0.1, SVG Export Plug-In . SVG Version: 6.00 Build 0)  -->
<svg version="1.1" id="Layer_1" xmlns="http://www.w3.org/2000/svg" xmlns:xlink="http://www.w3.org/1999/xlink" x="0px" y="0px"
	 viewBox="0 0 200 200" style="enable-background:new 0 0 200 200;" xml:space="preserve">
<style type="text/css">
	.st0{fill:#F0F7FF;}
	.st1{fill:#3168B2;}
</style>
<rect x="-1689.6" y="-70.9" class="st0" width="1924.8" height="341.1"/>
<g>
	<path class="st1" d="M52.6,96.7c0-16.4,0-32.7,0-49.1c0-1.1,0.1-1.2,1.3-1.2c32.8,0,65.5,0,98.3,0c1.2,0,1.3,0.1,1.3,1.3
		c0,32.8,0,65.5,0,98.3c0,1.2-0.1,1.3-1.3,1.3c-32.7,0-65.5,0-98.2,0c-1.2,0-1.3-0.1-1.3-1.3C52.6,129.5,52.6,113.1,52.6,96.7z
		 M54,96.8c0,16.1,0,32.2,0,48.3c0,0.5,0.1,0.7,0.7,0.7c5,0,9.9,0,14.9,0c3.4,0,6.9,0,10.3,0c0.5,0,0.8,0,0.6-0.7
		c-0.3-1.2-0.4-2.5-0.6-3.7c-0.1-0.5,0-0.8,0.4-1.1c2-1.3,4.1-2.6,6.1-3.9c0.4-0.3,0.8-0.3,1.2,0.1c2,1.8,4.1,3.5,6.1,5.2
		c0.4,0.3,0.4,0.6,0.3,1.1c-0.2,0.8-0.3,1.5-0.5,2.3c-0.1,0.5,0,0.7,0.6,0.7c19.1,0,38.1,0,57.2,0c0.5,0,0.7-0.1,0.7-0.7
		c0-32.2,0-64.4,0-96.7c0-0.6-0.2-0.7-0.7-0.7c-6.2,0-12.3,0-18.5,0c-11.8,0-23.6,0-35.4,0c-0.6,0-0.8,0.1-0.7,0.8
		c0.2,1.5,0.3,3,0.6,4.4c0.1,0.6-0.1,1-0.5,1.3c-1.9,1.4-3.9,2.9-5.8,4.3c-0.7,0.5-0.9,0.5-1.5-0.1c-2-2-3.9-3.9-5.9-5.9
		c-0.4-0.4-0.5-0.8-0.4-1.3c0.2-1,0.3-1.9,0.5-2.9c0.1-0.5,0.1-0.8-0.6-0.8c-9.4,0-18.8,0-28.3,0c-0.6,0-0.7,0.2-0.7,0.8
		C54,64.7,54,80.7,54,96.8z M95.8,53c-0.2-1.6-0.4-3.2-0.6-4.8c0-0.3-0.2-0.3-0.5-0.3c-3.1,0-6.1,0-9.2,0c-0.3,0-0.4,0.1-0.5,0.4
		c-0.2,1-0.3,2.1-0.5,3.1c-0.1,0.3,0.1,0.5,0.2,0.6c1.7,1.7,3.4,3.4,5.1,5.1c0.2,0.2,0.4,0.3,0.7,0.1c1.6-1.3,3.3-2.5,5-3.7
		C95.7,53.3,95.9,53.2,95.8,53z M87,145.8c1.5,0,2.9,0,4.4,0c0.6,0,0.7-0.2,0.8-0.7c0.1-0.6,0.2-1.3,0.4-1.9c0.1-0.4,0-0.7-0.3-0.9
		c-1.6-1.4-3.3-2.8-4.9-4.2c-0.3-0.3-0.5-0.3-0.9-0.1c-1.6,1-3.1,2-4.7,3c-0.4,0.2-0.5,0.5-0.4,0.9c0.2,1.1,0.4,2.3,0.5,3.4
		c0,0.4,0.2,0.5,0.5,0.5C83.9,145.8,85.5,145.8,87,145.8z"/>
	<path class="st1" d="M129.6,65.4c0-1.3,0-2.3,0-3.3c0-0.3,0.1-0.6,0.3-0.8c1-1,2-2,3-3c0.4-0.4,1.1-0.5,1.6-0.9
		c1.5-1,3.1-1.2,4.8-0.7c0.1,0,0.2,0.1,0.3,0.1c2.2-0.2,3.5,1.3,4.8,2.8c0.2,0.2,0.3,0.5,0.2,0.8c-0.2,1.2-0.4,2.5-0.5,3.7
		c-0.1,1.3,0,2.5,0.2,3.8c0.1,0.8-0.1,1.3-0.7,1.8c-0.7,0.6-1.3,1.2-1.9,1.9c-0.3,0.3-0.6,0.4-1,0.4c-0.7-0.1-1.4-0.1-2-0.2
		c-1.8-0.3-3.6-0.1-5.3,0.5c-1.8,0.6-1.5,0.5-2.4-1C129.8,69.3,129.1,67.4,129.6,65.4z M131,65.4c-0.3,1.7,0.1,3.5,1.2,5.1
		c0.3,0.4,0.5,0.5,0.9,0.4c1.2-0.3,2.4-0.9,3.7-0.7c0.7,0.1,1.4,0.1,2.2,0.2c1.7,0.2,1.7,0.2,3-1.1c0.2-0.2,0.3-0.4,0.5-0.5
		c0.3-0.3,0.4-0.6,0.4-1c-0.1-2-0.3-4.1,0.2-6c0.3-1.1,0.1-1.9-0.8-2.6c-0.5-0.3-0.8-0.9-1.5-0.9c-1.1-0.1-2.2-0.3-3.3-0.5
		c-0.3,0-0.5,0-0.7,0.1c-1.7,0.7-3.4,1.6-4.6,3.1c-0.2,0.3-0.5,0.5-0.7,0.7c-0.4,0.3-0.5,0.7-0.5,1.1C131,63.6,131,64.4,131,65.4z"
		/>
	<path class="st1" d="M107.9,128.7c0-1.4,0-2.4,0-3.4c0-0.5,0.2-0.8,0.6-1c2.5-1.5,5.1-3,7.6-4.5c0.7-0.4,1-0.3,1.3,0.5
		c1,3,2,6.1,3.1,9.1c0.1,0.3,0.1,0.6,0,0.9c-0.5,2-1,3.9-1.5,5.9c-0.2,0.7-0.4,0.8-1.1,0.7c-2.4-0.5-4.9-1-7.3-1.4
		c-0.6-0.1-0.9-0.4-1.2-0.9C108.2,132.6,107.5,130.6,107.9,128.7z M116.2,121.3c-2.2,1.3-4.4,2.6-6.6,3.9c-0.3,0.2-0.4,0.3-0.4,0.6
		c0,1.7,0,3.4,0,5.1c0,0.2,0,0.4,0.1,0.6c0.4,0.7,0.7,1.4,1.1,2.1c0.1,0.2,0.3,0.4,0.5,0.4c2,0.4,4.1,0.8,6.1,1.2
		c0.5,0.1,0.6-0.1,0.7-0.5c0.3-1.3,0.6-2.7,1-4c0.2-0.7,0.2-1.3-0.1-1.9C117.9,126.4,117.1,123.9,116.2,121.3z"/>
	<path class="st1" d="M121.6,60.8c0.9-0.1,1.1,0.1,1.2,0.9c0.3,2.5,0.5,5.1,0.8,7.6c0,0.4-0.1,0.7-0.3,1c-1.7,1.8-3.3,3.7-5,5.5
		c-0.5,0.6-0.7,0.6-1.4,0.1c-1.3-1-2.5-2-3.8-3c-0.9-0.7-1.5-1.7-2.3-2.5c-0.9-1-1.7-2-2.5-3c-0.5-0.6-0.5-0.9,0.1-1.4
		c1.6-1.3,3.2-2.7,4.8-4c0.2-0.2,0.4-0.3,0.6-0.3C116.5,61.4,119.1,61.1,121.6,60.8z M122.2,69c-0.2-2.1-0.5-4.3-0.7-6.4
		c0-0.4-0.3-0.4-0.6-0.3c-2.1,0.2-4.3,0.5-6.4,0.7c-0.2,0-0.3,0.1-0.5,0.2c-1.3,1.1-2.7,2.2-4,3.3c-0.3,0.2-0.2,0.3,0,0.6
		c2.1,2.7,4.3,5.2,7.1,7.1c0.3,0.2,0.5,0.3,0.8,0c1.3-1.5,2.7-3.1,4.1-4.6C122.1,69.5,122.3,69.3,122.2,69z"/>
	<path class="st1" d="M138.1,133.4c0.1,0.5-0.1,0.7-0.4,1c-1.5,1.1-3,2.3-4.4,3.4c-0.2,0.2-0.5,0.2-0.8,0.2
		c-1.8-0.2-3.6-0.3-5.4-0.5c-0.8-0.1-1-0.4-0.8-1.2c0.5-2.1,1-4.1,1.5-6.2c0.1-0.3,0.1-0.7,0-1c-0.3-1.1-0.6-2.1-0.9-3.2
		c-0.2-0.7-0.1-1,0.6-1.2c1.6-0.5,3.2-0.9,4.8-1.4c0.3-0.1,0.5-0.1,0.8,0c1.2,0.3,2.5,0.6,3.7,0.9c0.4,0.1,0.7,0.3,0.7,0.8
		C137.7,127.9,137.9,130.7,138.1,133.4z M136.7,132.8c-0.2-2.3-0.4-4.6-0.5-6.8c0-0.3-0.1-0.5-0.4-0.5c-0.9-0.2-1.8-0.4-2.7-0.7
		c-0.2,0-0.4-0.1-0.6,0c-1.3,0.4-2.5,0.8-3.8,1.1c-0.3,0.1-0.3,0.2-0.2,0.5c0.3,0.8,0.4,1.6,0.7,2.3c0.2,0.6,0.2,1.1,0,1.7
		c-0.4,1.7-0.8,3.5-1.3,5.2c-0.1,0.4,0,0.5,0.4,0.5c1.3,0.1,2.6,0.2,3.9,0.3c0.3,0,0.5-0.1,0.8-0.3c1.1-0.8,2.1-1.7,3.2-2.5
		C136.6,133.6,136.8,133.3,136.7,132.8z"/>
	<path class="st1" d="M59,80.3c-0.4-1.6,0.3-3.4,1.4-5c0.1-0.2,0.2-0.4,0.4-0.6c0.7-1.1,0.7-1.2,2-0.9c2.5,0.5,5,1.1,7.5,1.6
		c0.5,0.1,0.8,0.3,0.9,0.8c0.6,1.6,1.3,3.3,1.9,4.9c0.2,0.4,0.2,0.8,0,1.2c-0.6,1.6-1.3,3.2-1.9,4.8c-0.3,0.9-0.7,1-1.5,0.5
		c-1.8-1-3.6-2.1-5.4-3.1c-0.3-0.2-0.6-0.3-1-0.3c-1.1,0-2.2,0-3.2,0c-0.8,0-1-0.2-1-1C59,82.4,59,81.5,59,80.3z M60.4,80.1
		c0,0.9,0,1.6,0,2.3c0,0.4,0.1,0.5,0.5,0.5c0.9,0,1.8,0,2.7,0c0.4,0,0.8,0.1,1.1,0.3c1.6,0.9,3.2,1.8,4.9,2.8
		c0.3,0.2,0.5,0.2,0.7-0.2c0.4-1.2,0.9-2.4,1.4-3.6c0.1-0.3,0.1-0.6,0-0.9c-0.5-1.3-1-2.6-1.5-4c-0.1-0.4-0.4-0.5-0.7-0.6
		c-2-0.4-3.9-0.8-5.9-1.2c-1.3-0.3-1.2-0.2-2,0.9C60.7,77.6,60.1,78.9,60.4,80.1z"/>
	<path class="st1" d="M83.8,120.9c-2,0.5-3.4-0.4-4.6-1.9c-0.9-1-1.9-1.9-2.8-2.9c-0.6-0.6-0.6-0.9,0-1.5c1.5-1.5,2.9-2.9,4.4-4.4
		c0.2-0.2,0.5-0.4,0.8-0.4c2.5-0.5,5-1,7.5-1.5c0.6-0.1,1,0.1,1.1,0.7c0.5,2.5,1,5.1,1.5,7.6c0.1,0.5-0.1,0.8-0.5,1.1
		c-1.3,0.9-2.6,1.7-3.9,2.6c-0.5,0.4-1.1,0.6-1.8,0.5C84.9,120.9,84.3,120.9,83.8,120.9z M83.5,119.5c0.9,0,1.4,0,2,0
		c0.3,0,0.5-0.1,0.8-0.2c1.2-0.8,2.3-1.6,3.5-2.3c0.3-0.2,0.4-0.4,0.3-0.8c-0.4-1.9-0.8-3.9-1.2-5.8c-0.1-0.5-0.2-0.5-0.7-0.4
		c-2,0.4-4.1,0.8-6.2,1.2c-0.3,0.1-0.5,0.1-0.7,0.4c-1.2,1.2-2.4,2.4-3.6,3.6c-0.3,0.3-0.2,0.4,0,0.6c0.8,0.8,1.6,1.5,2.3,2.3
		C81.1,119.2,82.2,120,83.5,119.5z"/>
	<path class="st1" d="M71.3,131c-1.4,0.1-2.9,0.2-4.3,0.3c-0.4,0-0.7-0.1-0.9-0.5c-1-1.8-1.9-3.7-2.9-5.5c-0.2-0.3-0.2-0.6,0-1
		c0.9-1.5,1.7-3.1,2.5-4.6c0.2-0.4,0.5-0.5,0.9-0.5c1.5,0.1,2.9,0.3,4.4,0.4c0.3,0,0.4,0.2,0.6,0.3c1.2,1,2.5,2,3.7,3
		c0.3,0.2,0.5,0.5,0.5,0.8c0.3,1.9,0.6,3.8,0.9,5.7c0.1,0.7-0.1,1-0.9,1C74.3,130.7,72.8,130.9,71.3,131C71.3,131,71.3,131,71.3,131
		z M67.9,129.8c2.4-0.2,4.6-0.3,6.9-0.5c0.5,0,0.5-0.2,0.4-0.6c-0.2-1.3-0.4-2.6-0.6-3.9c-0.1-0.6-0.3-0.9-0.8-1.3
		c-1-0.8-1.9-1.6-2.9-2.3c-0.2-0.1-0.3-0.3-0.6-0.3c-1-0.1-2-0.2-3-0.3c-0.4,0-0.6,0-0.8,0.4c-0.6,1.1-1.2,2.2-1.8,3.3
		c-0.2,0.3-0.2,0.5,0,0.8c0.7,1.3,1.4,2.6,2.1,3.9C67,129.6,67.3,130,67.9,129.8z"/>
	<path class="st1" d="M66.1,100.3c1.9-0.4,3.4,0.4,4.8,1.6c1.3,1.1,2.8,2.1,4.1,3.1c0.8,0.6,0.8,0.8,0.2,1.5
		c-1.5,1.9-2.9,3.9-4.4,5.8c-0.4,0.5-0.7,0.6-1.3,0.4c-2.5-1-5-2-7.5-3c-0.6-0.2-0.7-0.6-0.6-1.2c0.5-2.5,1-5,1.5-7.5
		c0.1-0.6,0.4-0.8,1-0.8C64.7,100.3,65.4,100.3,66.1,100.3z M73.9,106c0-0.2-0.2-0.2-0.3-0.3c-0.9-0.7-1.8-1.4-2.7-2
		c-0.9-0.7-1.7-1.6-2.7-1.9c-1-0.3-2.2-0.1-3.4-0.1c0,0,0,0-0.1,0c-0.4-0.1-0.6,0.2-0.6,0.5c-0.4,2-0.8,3.9-1.2,5.9
		c-0.1,0.4,0.1,0.5,0.4,0.7c2,0.8,4,1.6,6,2.4c0.4,0.2,0.6,0.1,0.8-0.2c1.1-1.5,2.3-3.1,3.4-4.6C73.7,106.3,73.8,106.2,73.9,106z"/>
	<path class="st1" d="M90.1,77.9c2.3,0.2,4.3,0.4,6.4,0.6c0.3,0,0.5,0.2,0.8,0.4c1.5,1.3,2.9,2.6,4.4,3.8c0.5,0.4,0.5,0.8,0.3,1.4
		c-1,1.9-2,3.9-2.9,5.9c-0.3,0.6-0.7,0.7-1.2,0.6c-1.9-0.5-3.8-1-5.8-1.4c-0.5-0.1-0.8-0.3-1-0.8c0,0,0,0,0-0.1
		c-1.2-1.9-1.7-4-1.5-6.3c0.1-1,0-2.1,0-3.2C89.5,78.1,89.8,77.8,90.1,77.9z M91.4,79.4c-0.5-0.1-0.6-0.1-0.6,0.5
		c0,0.8,0.1,1.5,0,2.3C90.7,84,91,85.6,92,87.1c0,0,0,0,0,0.1c0.1,0.3,0.3,0.5,0.6,0.5c1.6,0.4,3.1,0.8,4.7,1.2
		c0.4,0.1,0.5,0,0.6-0.3c0.8-1.5,1.5-3.1,2.3-4.6c0.2-0.3,0.1-0.5-0.1-0.7c-1.2-1-2.4-2.1-3.6-3.2c-0.2-0.2-0.5-0.3-0.7-0.3
		C94.4,79.7,92.9,79.5,91.4,79.4z"/>
	<path class="st1" d="M131,91.1c-1,0-1.9,0-2.9,0c-0.4,0-0.7-0.1-1-0.4c-1.5-1.5-2.9-2.9-4.4-4.4c-0.5-0.5-0.5-0.9-0.1-1.4
		c1.5-2,3-4,4.5-5.9c0.5-0.7,0.9-0.7,1.4-0.1c1.5,1.5,2.9,2.9,4.4,4.4c0.3,0.3,0.4,0.6,0.5,0.9c0.5,1.9,0.9,3.8,1.4,5.7
		c0.2,0.9,0,1.2-0.9,1.2C133,91.1,132,91.1,131,91.1C131,91.1,131,91.1,131,91.1z M130.3,89.7c1.1,0,1.8,0,2.6,0
		c0.4,0,0.5-0.1,0.4-0.5c-0.4-1.5-0.8-3-1.2-4.6c-0.1-0.2-0.2-0.4-0.3-0.6c-1.2-1.2-2.4-2.3-3.5-3.5c-0.3-0.3-0.4-0.2-0.6,0
		c-1.1,1.5-2.3,3.1-3.4,4.6c-0.2,0.3-0.2,0.4,0.1,0.7c0.7,0.7,1.5,1.3,2.1,2.1C127.5,89.3,128.8,90.2,130.3,89.7z"/>
	<path class="st1" d="M77.4,71.9c-0.1-0.3,0.1-0.6,0.3-0.9c1.3-1.6,2.7-3.2,4-4.8c0.4-0.5,0.8-0.5,1.3-0.2c2.1,1.3,4.2,2.6,6.3,3.9
		c0.7,0.5,0.8,0.8,0.2,1.5c-1.3,1.6-2.6,3.2-4,4.8c-0.2,0.3-0.5,0.4-0.8,0.5c-1.9,0.7-3.8,1.3-5.7,2c-0.8,0.3-1.2,0.1-1.3-0.8
		C77.8,75.9,77.6,73.9,77.4,71.9z M79.3,77.1c1.7-0.6,3.4-1.2,5-1.8c0.2-0.1,0.3-0.2,0.4-0.3c1.1-1.3,2.1-2.6,3.2-3.8
		c0.2-0.3,0.2-0.4-0.1-0.6c-1.6-1-3.3-2-4.9-3c-0.3-0.2-0.4-0.1-0.7,0.1c-1.1,1.3-2.2,2.6-3.2,3.9c-0.1,0.2-0.3,0.3-0.2,0.5
		C79,73.8,79.2,75.4,79.3,77.1z"/>
	<path class="st1" d="M128.8,99.1c2.3,0.1,4.7,0.2,7.1,0.4c0.7,0,1,0.3,0.8,1c-0.4,2.1-0.8,4.2-1.2,6.3c-0.1,0.3-0.2,0.5-0.4,0.7
		c-1.4,1.5-2.7,3-4.1,4.6c-0.5,0.6-0.9,0.6-1.4-0.1c-1.1-1.7-2.2-3.3-3.4-5c-0.2-0.3-0.2-0.6-0.2-1c0.4-2.1,0.8-4.2,1.2-6.3
		C127.5,99,128.1,99.1,128.8,99.1z M130.4,110.7c1.2-1.3,2.4-2.6,3.6-3.9c0.1-0.1,0.2-0.3,0.2-0.5c0.3-1.7,0.7-3.3,1-5
		c0.1-0.3,0-0.4-0.3-0.4c-1.9-0.1-3.9-0.2-5.8-0.3c-0.4,0-0.4,0.1-0.5,0.4c-0.3,1.7-0.6,3.3-1,5c0,0.2-0.1,0.4,0.1,0.6
		C128.6,107.9,129.5,109.3,130.4,110.7z"/>
	<path class="st1" d="M136.9,79.3c-0.4,0-0.7-0.3-0.7-0.7c0-0.4,0.2-0.7,0.6-0.7c0.4,0,0.7,0.2,0.7,0.7
		C137.6,79,137.3,79.2,136.9,79.3z"/>
	<path class="st1" d="M104.8,58.5c-0.4,0-0.7-0.3-0.7-0.7c0-0.4,0.3-0.7,0.7-0.7c0.4,0,0.7,0.3,0.7,0.7
		C105.5,58.2,105.2,58.4,104.8,58.5z"/>
	<path class="st1" d="M72.8,64.9c-0.4-0.1-0.7-0.3-0.7-0.7c0-0.4,0.3-0.7,0.8-0.7c0.4,0,0.7,0.3,0.6,0.7
		C73.4,64.6,73.2,64.9,72.8,64.9z"/>
	<path class="st1" d="M63.9,54.5c0,0.4-0.3,0.7-0.7,0.7c-0.5,0-0.7-0.3-0.7-0.7c0-0.4,0.3-0.7,0.7-0.7
		C63.6,53.9,63.8,54.1,63.9,54.5z"/>
	<path class="st1" d="M84,95.6c0.4,0,0.7,0.3,0.7,0.7c0,0.4-0.3,0.7-0.7,0.7c-0.4,0-0.7-0.3-0.6-0.7C83.3,95.8,83.6,95.6,84,95.6z"
		/>
	<path class="st1" d="M104.9,93.9c0.4,0,0.6,0.3,0.6,0.7c0,0.4-0.3,0.7-0.7,0.7c-0.4,0-0.7-0.3-0.6-0.7
		C104.2,94.2,104.4,93.9,104.9,93.9z"/>
	<path class="st1" d="M82.4,127.6c0.4,0,0.7,0.3,0.7,0.7c0,0.4-0.3,0.7-0.7,0.7c-0.4,0-0.7-0.3-0.7-0.7
		C81.7,127.9,82,127.6,82.4,127.6z"/>
	<path class="st1" d="M137.6,117.1c-0.1,0.4-0.2,0.7-0.7,0.7c-0.5,0-0.7-0.2-0.7-0.7c0-0.4,0.2-0.7,0.7-0.7
		C137.3,116.4,137.5,116.7,137.6,117.1z"/>
	<path class="st1" d="M61.5,135.6c0.4,0,0.7,0.2,0.7,0.7c0,0.4-0.2,0.7-0.7,0.7c-0.4,0-0.7-0.3-0.7-0.7
		C60.9,135.9,61.1,135.7,61.5,135.6z"/>
	<path class="st1" d="M143.3,138.8c0.4,0,0.7,0.3,0.7,0.7c0,0.4-0.2,0.7-0.7,0.7c-0.4,0-0.7-0.3-0.7-0.7
		C142.6,139.1,142.9,138.9,143.3,138.8z"/>
	<path class="st1" d="M99.1,115.5c0,0.4-0.2,0.7-0.7,0.7c-0.4,0-0.7-0.2-0.7-0.6c0-0.4,0.2-0.7,0.7-0.7
		C98.9,114.8,99.1,115,99.1,115.5z"/>
	<path class="st1" d="M141.7,89.1c0.4,0.1,0.7,0.3,0.7,0.7c0,0.5-0.3,0.7-0.7,0.7c-0.4,0-0.7-0.3-0.6-0.7
		C141,89.4,141.3,89.2,141.7,89.1z"/>
	<path class="st1" d="M103.2,73.1c0.4,0,0.7,0.2,0.7,0.7c0,0.4-0.2,0.7-0.7,0.7c-0.4,0-0.7-0.3-0.7-0.7
		C102.6,73.4,102.8,73.1,103.2,73.1z"/>
	<path class="st1" d="M103.3,137.2c0.4,0.1,0.7,0.3,0.6,0.7c0,0.4-0.3,0.7-0.7,0.7c-0.4,0-0.6-0.3-0.6-0.7
		C102.6,137.5,102.8,137.2,103.3,137.2z"/>
	<path class="st1" d="M121.6,105.9c0,0.4-0.3,0.7-0.7,0.7c-0.5,0-0.7-0.3-0.7-0.7c0-0.4,0.3-0.7,0.7-0.6
		C121.3,105.2,121.5,105.4,121.6,105.9z"/>
	<path class="st1" d="M143.3,80.9c-0.4,0-0.7-0.2-0.7-0.7c0-0.4,0.2-0.7,0.6-0.7c0.4,0,0.7,0.2,0.7,0.7
		C144,80.6,143.7,80.9,143.3,80.9z"/>
</g>
</svg>
