<?xml version="1.0" encoding="utf-8"?>
<!-- Generator: Adobe Illustrator 26.0.1, SVG Export Plug-In . SVG Version: 6.00 Build 0)  -->
<svg version="1.1" id="Layer_1" xmlns="http://www.w3.org/2000/svg" xmlns:xlink="http://www.w3.org/1999/xlink" x="0px" y="0px"
	 viewBox="0 0 200 200" style="enable-background:new 0 0 200 200;" xml:space="preserve">
<style type="text/css">
	.st0{fill:#F0F7FF;}
	.st1{fill:#3168B2;}
</style>
<rect x="-1029.6" y="-70.9" class="st0" width="1924.8" height="341.1"/>
<g>
	<path class="st1" d="M153.5,81.6c0,12.2-1.8,22.7-5.9,32.8c-6.1,14.8-16,26.2-29.7,34.4c-3.6,2.1-7.2,4.1-11.1,5.7
		c-1.6,0.7-3.2,0.8-4.8,0.1C85.6,148.2,73,137.4,64.3,122c-4.3-7.7-6.7-16-8-24.7c-0.9-5.6-1.2-11.2-1.1-16.9c0-0.7-0.2-1-0.7-1.4
		c-1.7-1-3.5-1.8-5.4-2.5c-1.5-0.5-2.5-1.4-2.6-3.1c-0.2-1.7,0.6-2.9,2.1-3.7c6-3.3,10.1-8.1,12.2-14.7c0.5-1.4,1.5-2.3,3-2.4
		c1.5-0.1,2.7,0.6,3.4,1.9c1.1,2,2.4,3.9,4,5.6c0.3,0.4,0.6,0.6,1.2,0.6c6.9-0.4,13.4-2,19.4-5.6c3.9-2.3,7.2-5.2,9.7-8.9
		c1.4-2.1,4.2-2.2,5.7-0.2c6.9,8.9,16.1,13.5,27.1,14.8c4.2,0.5,8.4,0.4,12.6-0.2c2.8-0.4,4.2,0.6,4.8,3.4c0.6,2.7,1,5.3,1.3,8
		C153.4,75.8,153.6,79.4,153.5,81.6z M62.6,87c-0.1,4.2,0.4,8.3,1.2,12.4c1.8,9,5,17.3,10.2,24.9c7.5,10.9,17.7,18.3,29.7,23.4
		c0.5,0.2,0.8,0.2,1.3,0c2.5-1.1,4.9-2.3,7.3-3.7c11.6-6.6,20.8-15.4,26.8-27.4c3.9-7.7,6-15.9,6.9-24.4c0.8-7.8,0.6-15.5-0.6-23.3
		c-0.1-0.9-0.4-1-1.2-1c-5.5,0.4-11,0-16.5-1.2c-8.7-2-16.4-5.7-22.7-12.1c-0.6-0.6-0.9-0.4-1.3,0.1c-3,3.2-6.6,5.7-10.5,7.7
		c-3.8,2-7.9,3.3-12.4,4.3c0.7,0.3,1.1,0.4,1.5,0.6c2.2,1,2.8,3.9,1.1,5.7c-0.5,0.5-1.1,0.8-1.6,1.1c-5.6,3.2-9.6,7.9-11.6,14
		c-0.5,1.4-1.2,2.6-2.8,2.8c-1.8,0.2-3-0.7-3.8-2.1C63.2,88.2,62.9,87.6,62.6,87z M64.8,63.6c-2.1,3.4-4.5,6.4-7.6,8.9
		c3.2,1.8,5.9,4,8.3,6.8c0.7,0.8,0.9,0.6,1.3-0.2c0.3-0.6,0.7-1.1,1.1-1.6c1.6-2.4,3.6-4.4,5.9-6.4C70.2,69.2,67.4,66.7,64.8,63.6z"
		/>
	<path class="st1" d="M104.3,129.2c-16.3-0.1-29.2-13.2-29.1-29.4c0.1-16,13.3-29.1,29.2-29c16.2,0.1,29.2,13.2,29.2,29.3
		C133.5,116.2,120.4,129.3,104.3,129.2z M104.3,122.2c12.2,0,22.2-9.9,22.2-22.1c0-12.2-10-22.2-22.3-22.2
		c-12.1,0-22.1,10-22.1,22.2C82.2,112.2,92.1,122.2,104.3,122.2z"/>
	<path class="st1" d="M90.8,96.5c1.3,0,2.2,0.6,3,1.3c2.1,2,4.3,3.9,6.5,5.9c0.6,0.6,0.9,0.5,1.5-0.1c4.1-4.5,8.3-8.9,12.4-13.4
		c1-1.1,2.2-1.8,3.7-1.4c2.5,0.6,3.6,3.5,1.9,5.6c-0.9,1.2-2,2.2-3,3.3c-4.2,4.6-8.5,9.1-12.7,13.7c-1.7,1.8-3.6,2-5.5,0.3
		c-3.3-2.9-6.5-5.9-9.8-8.9c-1.2-1.1-1.6-2.6-1.1-4C88.2,97.4,89.6,96.5,90.8,96.5z"/>
</g>
</svg>
