<?xml version="1.0" encoding="utf-8"?>
<!-- Generator: Adobe Illustrator 26.0.1, SVG Export Plug-In . SVG Version: 6.00 Build 0)  -->
<svg version="1.1" id="Layer_1" xmlns="http://www.w3.org/2000/svg" xmlns:xlink="http://www.w3.org/1999/xlink" x="0px" y="0px"
	 viewBox="0 0 200 200" style="enable-background:new 0 0 200 200;" xml:space="preserve">
<style type="text/css">
	.st0{fill:#F0F7FF;}
	.st1{fill:#3168B2;}
</style>
<rect x="-1249.6" y="-70.9" class="st0" width="1924.8" height="341.1"/>
<g>
	<path class="st1" d="M136.4,118.5c-4.3,0-8.6,0-12.8,0c-2,0-2.7-0.7-2.7-2.7c0-2.1,0-4.3,0-6.4c0-2,0.6-2.7,2.7-2.7
		c6.1,0,12.2,0,18.2,0c2.5,0,5,0,7.5,0c2,0,2.7,0.7,2.7,2.7c0,2.1,0,4.3,0,6.4c0,2-0.7,2.7-2.7,2.7
		C145,118.5,140.7,118.5,136.4,118.5z"/>
	<path class="st1" d="M150.3,139.9c0,2.3,0,4.5,0,6.8c0,0.9-0.3,1.3-1.3,1.3c-1.5,0-2.9,0-4.4,0c-0.9,0-1.3-0.3-1.3-1.3
		c0-4.6,0-9.2,0-13.8c0-0.9,0.4-1.2,1.2-1.2c1.5,0,3,0,4.5,0c0.9,0,1.2,0.4,1.2,1.3C150.3,135.3,150.3,137.6,150.3,139.9z"/>
	<path class="st1" d="M146.8,128.5c-0.8,0-1.5,0-2.3,0c-0.8,0-1.1-0.3-1.1-1.1c0-1.5,0-2.9,0-4.4c0-0.8,0.4-1.1,1.1-1.1
		c1.5,0,3.1,0,4.6,0c0.8,0,1.2,0.4,1.2,1.2c0,1.4,0,2.8,0,4.2c0,0.8-0.4,1.2-1.2,1.1C148.3,128.5,147.6,128.5,146.8,128.5z"/>
	<path class="st1" d="M136.4,128.5c-0.7,0-1.4,0-2.1,0c-0.9,0.1-1.4-0.3-1.3-1.2c0-1.4,0-2.8,0-4.1c0-0.8,0.4-1.2,1.2-1.2
		c1.5,0,3.1,0,4.6,0c0.8,0,1.2,0.4,1.2,1.2c0,1.4,0,2.8,0,4.2c0,0.8-0.3,1.1-1.1,1.1C138,128.5,137.2,128.5,136.4,128.5z"/>
	<path class="st1" d="M136.4,138.3c-0.8,0-1.5,0-2.3,0c-0.8,0-1.1-0.3-1.1-1.1c0-1.5,0-3,0-4.5c0-0.7,0.4-1,1.1-1c1.6,0,3.1,0,4.7,0
		c0.7,0,1.1,0.3,1.2,1.1c0,1.5,0,3,0,4.5c0,0.7-0.4,1-1.1,1C138,138.3,137.2,138.3,136.4,138.3z"/>
	<path class="st1" d="M136.3,148c-3.8-0.1-3.3,0.6-3.3-3.3c0-3.8-0.4-3.1,3.2-3.2c0.8,0,1.7,0,2.5,0c0.8,0,1.2,0.3,1.2,1
		c0,1.5,0,3,0,4.5c0,0.7-0.4,1-1.1,1C138,148,137.2,148,136.3,148z"/>
	<path class="st1" d="M126,138.3c-0.8,0-1.5,0-2.3,0c-0.8,0-1.1-0.3-1.1-1.1c0-1.5,0-2.9,0-4.4c0-0.8,0.4-1.1,1.1-1.1
		c1.5,0,3.1,0,4.6,0c0.8,0,1.2,0.4,1.2,1.2c0,1.5,0,2.9,0,4.4c0,0.7-0.4,1-1.1,1C127.6,138.3,126.8,138.3,126,138.3z"/>
	<path class="st1" d="M126.1,128.5c-0.8,0-1.5,0-2.3,0c-0.9,0-1.2-0.4-1.2-1.2c0-1.4,0-2.7,0-4.1c0-0.8,0.3-1.2,1.2-1.2
		c1.5,0,3,0,4.5,0c0.9,0,1.3,0.4,1.3,1.2c0,1.4,0,2.8,0,4.2c0,0.8-0.4,1.1-1.1,1.1C127.6,128.4,126.9,128.5,126.1,128.5z"/>
	<path class="st1" d="M126,148c-0.8,0-1.6,0-2.4,0c-0.7,0-1-0.4-1-1c0-1.5,0-3.1,0-4.6c0-0.6,0.3-1,1-1c1.6,0,3.1,0,4.7,0
		c0.8,0,1.2,0.4,1.2,1.2c0,1.5,0,2.9,0,4.4c0,0.7-0.3,1-1,1C127.7,148,126.9,148,126,148z"/>
	<path class="st1" d="M150.2,100c-8,0-15.9,0-23.9,0c-0.7,0-1.1-0.1-1.5-0.7c-4.6-7.1-9.9-13.6-15.9-19.5c-0.5-0.5-0.6-0.7-0.1-1.3
		c2.7-3.1,1.1-7.7-2.9-8.6c-0.3-0.1-0.6-0.1-1-0.2c2.1-2.9,4.2-5.8,6.2-8.6c1.8-2.5,3.6-5,4.8-7.9c1-2.4-0.5-4.5-3.1-4.6
		c-1,0-2.1,0.2-3.1,0.4c-1,0.2-1.9,0.4-2.9,0.5c-2.8,0.4-5.1-0.5-7.1-2.4c-2.9-2.7-4.9-2.9-8.3-1c-0.4,0.2-0.9,0.5-1.3,0.7
		c-4.6,3-9.5,3.3-14.6,1.4c-1.5-0.6-3-1-4.7-1.2c-3.1-0.3-4.8,1.8-3.9,4.8c0.6,2,1.6,3.8,2.6,5.6c2.5,4.2,5.3,8.2,8.2,12.3
		c-0.3,0.1-0.4,0.1-0.6,0.1c-4.2,1-5.8,5.5-3,8.8c0.6,0.7,0.1,0.9-0.2,1.2c-5.4,5.3-10.3,11.1-14.6,17.4c-4.3,6.2-8,12.7-10.2,20
		c-1.9,6.1-2.1,12.2,0.3,18.2c3.8,9.6,13.1,15.8,23.6,15.8c11.9,0,23.7,0,35.6,0c1.8,0,3.7,0,5.5-0.4c0.4-0.1,0.7-0.1,1,0.4
		c1.7,2.8,4.2,4,7.4,4c9.2,0,18.4,0,27.7,0c5.2,0,8.4-3.2,8.4-8.5c0-12.7,0-25.4,0-38.1C158.8,103.4,155.4,100,150.2,100z
		 M114.6,105.6c-2.7-5.6-6.8-9.9-12.3-12.5c-5.6-2.6-11.4-3.1-17.3-1.5c-10.6,2.9-18.2,12.6-18.5,23.4c-0.3,11.1,6.5,21,16.8,24.7
		c9.6,3.4,23.9,0.8,31-12.5c0,0.5,0,0.9,0,1.3c0,5.9,0,11.7,0,17.6c0,1.5,0,1.5-1.5,1.5c-13.2,0-26.4,0.1-39.6,0
		c-8.2,0-14.7-3.6-19-10.7c-3.4-5.6-3.5-11.6-1.8-17.7c1.6-5.8,4.3-11.1,7.5-16.1C64.8,95.5,70.6,88.5,77,82c1.3-1.3,2.5-2,4.4-1.5
		c-0.4,1.1-0.8,2.4-1,3.6c-0.2,1.4,0.3,2.3,1.4,2.5c1.2,0.2,1.9-0.6,2-2.1c0.1-0.6,0.2-1.2,0.3-1.8c0.7-2.2,1.2-2.6,3.5-2.6
		c2.6,0,5.1,0,7.7,0c0.7,0,1.1,0.2,1.5,0.8c0.7,1.2,1.2,2.5,1.3,3.9c0.1,0.9,0.6,1.5,1.5,1.7c0.8,0.2,1.3-0.2,1.7-0.9
		c0.3-0.4,0.3-0.9,0.2-1.3c-0.1-1.4-0.5-2.6-1.1-4c1.4,0,2.6,0,3.9,0c0.3,0,0.5,0.2,0.7,0.4c6,5.9,11.5,12.2,16.1,19.2
		c0,0.1,0,0.1,0.1,0.3C118,100.8,115.8,102.5,114.6,105.6z M110.5,115.6c0,1.4-1.3,2.5-2.7,2.5c-1.4,0-2.7-1.3-2.6-2.6
		c0-1.3,1.3-2.5,2.6-2.5C109.3,112.9,110.5,114.2,110.5,115.6z M98.4,112.1C98.3,112.1,98.3,112.1,98.4,112.1c-0.2,0-0.3,0-0.5,0
		c0,0,0,0,0,0.1c0,0.1,0,0.2,0,0.3c0,0,0,0.1,0,0.1c0,0,0,0,0,0c0,0,0,0.1,0,0.1c-0.1,0.4-0.2,0.7-0.3,1.1c-0.1,0.3-0.2,0.5-0.4,0.8
		c-0.3,0.5-0.6,0.9-1,1.4c-0.3,0.3-0.7,0.6-1.1,0.9c0,0-0.1,0.1-0.1,0.1c0,0-0.1,0-0.1,0.1c-0.2,0.1-0.4,0.3-0.7,0.4
		c-0.2,0.1-0.3,0.2-0.5,0.2c-0.1,0-0.3,0.1-0.4,0.2c-0.7,0.2-1.3,0.4-2,0.5c-0.5,0.1-1,0.1-1.5,0.2c0.2,0.3,0.5,0.6,0.7,0.8
		c0.5,0.7,1.1,1.3,1.6,2c0.5,0.6,1,1.3,1.5,1.9c0.2,0.3,0.5,0.6,0.7,0.9c0,0,0,0.1,0.1,0.1c0.1,0.2,0.2,0.3,0.4,0.5
		c0.2,0.2,0.4,0.4,0.5,0.7c0.1,0.1,0.2,0.2,0.3,0.3c0,0,0,0,0,0c0.2,0.3,0.5,0.6,0.7,0.9c0,0,0,0,0.1,0.1c0.1,0.2,0.3,0.3,0.4,0.5
		c0.2,0.3,0.4,0.5,0.7,0.8c0.4,0.5,0.9,1.1,1.3,1.6c0,0,0,0.1,0.1,0.1c0,0.1,0,0.2,0,0.2c0,0.1,0,0.1-0.1,0.1c-0.8,0-1.6,0-2.4,0
		c-0.2,0-0.5,0-0.7,0c-0.2,0-0.3,0-0.4-0.2c0,0,0,0,0,0c-0.1-0.1-0.1-0.1-0.2-0.2c0,0,0,0,0,0c0,0,0,0,0,0c0-0.1-0.1-0.2-0.2-0.3
		c-0.2-0.2-0.4-0.4-0.5-0.6c-0.1-0.1-0.2-0.2-0.2-0.3c0,0-0.1-0.1-0.1-0.1c0,0,0,0,0-0.1c0,0-0.1-0.1-0.1-0.1
		c-0.2-0.2-0.4-0.5-0.7-0.8c-0.1-0.1-0.2-0.3-0.4-0.5c-0.3-0.3-0.5-0.6-0.8-0.9c-0.2-0.2-0.4-0.5-0.6-0.7c-0.2-0.2-0.3-0.4-0.5-0.6
		c-0.1-0.1-0.2-0.2-0.3-0.4c0,0,0,0,0,0c-0.3-0.3-0.5-0.6-0.8-1c0-0.1-0.1-0.1-0.1-0.2c-0.1-0.1-0.2-0.2-0.3-0.3
		c-0.1-0.1-0.2-0.3-0.3-0.4c-0.1-0.1-0.2-0.2-0.3-0.3c-0.2-0.2-0.3-0.4-0.5-0.5c-0.1-0.1-0.2-0.3-0.4-0.4c-0.1-0.1-0.2-0.2-0.3-0.3
		c0,0,0,0,0-0.1l0,0c0,0,0,0-0.1-0.1c0,0,0,0,0,0c0,0-0.1-0.1-0.1-0.1c-0.3-0.4-0.6-0.7-0.9-1.1c0,0-0.1-0.1-0.1-0.1
		c0,0-0.1-0.1-0.1-0.1c0,0,0,0,0,0c-0.1-0.1-0.1-0.2-0.2-0.2c0,0,0-0.1,0-0.1c0-0.7,0-1.4-0.1-2.1c0-0.1,0-0.1,0.1-0.1
		c0.3,0.1,0.6,0,0.9,0.1c0.4,0,0.9,0,1.3,0c0,0,0.1,0,0.1,0c0,0,0.1,0,0.1,0c0.2,0,0.4,0,0.5-0.1c0.2,0,0.3,0,0.5-0.1c0,0,0,0,0.1,0
		c0.1,0,0.2,0,0.3-0.1c0.1,0,0.2,0,0.4-0.1c0,0,0.1,0,0.1,0c0.3,0,0.5-0.1,0.8-0.2c0,0,0.1,0,0.1,0c0.1,0,0.3-0.1,0.4-0.1
		c0.1,0,0.2-0.1,0.3-0.1c0.1,0,0.2-0.1,0.3-0.1c0,0,0.1-0.1,0.1-0.1c0.1,0,0.2-0.1,0.2-0.1c0,0,0.1,0,0.1-0.1c0,0,0,0,0,0
		c0,0,0.1,0,0.1-0.1c0.1,0,0.1,0,0.1-0.1c0.1-0.1,0.2-0.1,0.2-0.2c0,0,0.1,0,0.1,0c0,0,0.1-0.1,0.1-0.1c0.2-0.2,0.5-0.5,0.7-0.7
		c0,0,0-0.1,0.1-0.1c0,0,0-0.1,0-0.1c0,0,0,0,0,0c0,0,0.1-0.1,0.1-0.2c0,0,0.1-0.1,0.1-0.1c0,0,0-0.1,0-0.1c0,0,0,0,0,0
		c0-0.1,0.1-0.1,0.1-0.2c0,0,0,0,0-0.1c0.1-0.2,0.1-0.5,0.2-0.7c0,0,0-0.1,0-0.1c0-0.1,0-0.2,0-0.3c0,0,0-0.1,0-0.1c0,0-0.1,0-0.1,0
		c-3.1,0-6.2,0-9.2,0c0,0-0.1,0.1-0.1-0.1c0,0,0.1-0.1,0.1-0.1c0.1-0.1,0.1-0.2,0.2-0.3c0,0,0.1-0.1,0.1-0.1c0,0,0,0,0,0
		c0.1-0.1,0.1-0.1,0.1-0.2c0,0,0,0,0,0c0.1-0.1,0.2-0.2,0.3-0.4c0.1-0.1,0.2-0.2,0.2-0.4c0.1-0.1,0.1-0.2,0.2-0.3
		c0.1,0,0-0.1,0.1-0.1c0-0.1,0.1-0.1,0.1-0.1c0,0,0.1,0,0.1-0.1c0.1,0,0-0.1,0.1-0.1c0,0,0,0,0,0c0.1,0,0.1,0,0.2,0
		c0.9,0,1.8,0,2.7,0c1.6,0,3.2,0,4.7,0c0.1,0,0.2,0,0.1-0.1c0-0.1-0.1-0.1-0.1-0.2c-0.1-0.2-0.2-0.3-0.3-0.5c0,0-0.1-0.1-0.1-0.1
		c0,0,0-0.1-0.1-0.1c0-0.1-0.1-0.1-0.2-0.2c-0.1-0.1-0.2-0.2-0.3-0.2c0,0,0,0,0,0c-0.1-0.1-0.2-0.1-0.3-0.2c0,0-0.1-0.1-0.1-0.1
		c0,0,0,0-0.1,0c0,0,0,0-0.1,0c-0.1-0.1-0.2-0.1-0.3-0.2c0,0,0,0,0,0c-0.2-0.1-0.4-0.2-0.6-0.3c-0.1,0-0.1,0-0.2-0.1
		c-0.1,0-0.2-0.1-0.4-0.1c-0.1,0-0.2-0.1-0.3-0.1c0,0-0.1,0-0.1,0c-0.9-0.2-1.8-0.2-2.7-0.2c-0.1,0-0.2,0-0.4,0c-0.6,0-1.2,0-1.8,0
		c-0.2,0-0.3,0-0.5,0c0,0,0,0-0.1,0c-0.1,0-0.1,0-0.2,0c0,0,0,0,0,0c0,0,0-0.1,0.1-0.1c0-0.1,0.1-0.1,0.1-0.2c0,0,0.1,0,0-0.1
		c0.1,0,0.1-0.1,0.1-0.1c0.1-0.2,0.3-0.4,0.4-0.6c0.1-0.1,0.2-0.2,0.2-0.4c0.1,0,0-0.1,0.1-0.1c0-0.1,0.1-0.1,0.1-0.2
		c0,0,0.1,0,0-0.1c0,0,0,0,0,0c0,0,0,0,0-0.1c0-0.1,0.1-0.1,0.1-0.2c0,0,0-0.1,0.1-0.1c0.1,0,0.2,0,0.3,0c0.7,0,1.4,0,2.2,0
		c1.1,0,2.1,0,3.2,0c0.1,0,0.1,0,0.2,0c0.1,0,0.2,0,0.2,0c0,0,0.1,0,0.1,0c0.9,0,1.7,0,2.6,0c0,0,0.1,0,0.1,0c0.6,0,1.1,0,1.7,0
		c1,0,2,0,3,0c0.1,0,0.2,0,0.3,0c0.4,0,0.7,0,1.1,0c0.1,0,0.2,0,0.2,0c0,0,0.1,0,0.1,0c0,0,0,0,0.1,0c0.2,0,0.3,0,0.5,0
		c0.1,0,0.1,0,0.2,0c-0.2,0.3-0.4,0.7-0.6,1c0,0,0,0,0,0c-0.3,0.4-0.5,0.7-0.7,1.1c0,0.1-0.1,0.1-0.1,0.2c0,0-0.1,0-0.1,0
		c-1,0-2,0-2.9,0c-0.3,0-0.6,0-0.9,0c0,0-0.1,0-0.1,0c0,0,0,0,0,0c-0.1,0-0.1,0-0.2,0c0.2,0.3,0.4,0.6,0.6,1c0.3,0.5,0.5,1,0.6,1.6
		c0,0,0,0,0,0.1c0,0,0,0,0,0c0.2,0,0.4,0,0.6,0c1.3,0,2.5,0,3.8,0c0,0,0.1,0,0.1,0c-0.1,0.2-0.3,0.4-0.4,0.6
		c-0.2,0.4-0.5,0.7-0.7,1.1c0,0.1-0.1,0.1-0.1,0.2c0,0,0,0-0.1,0.1c0,0,0,0,0,0c-0.1,0.2-0.3,0.3-0.5,0.3c-0.7,0-1.3,0-2,0
		C98.5,112.1,98.4,112.1,98.4,112.1C98.4,112.1,98.4,112.1,98.4,112.1z M77.8,115.5c0,1.4-1.1,2.6-2.5,2.6c-1.4,0-2.6-1.2-2.6-2.6
		c0-1.4,1.2-2.6,2.6-2.6C76.6,112.9,77.8,114.1,77.8,115.5z M155.1,146.7c0,3.3-1.7,4.9-5,4.9c-9.2,0-18.4,0-27.7,0
		c-3.3,0-4.9-1.6-4.9-5c0-6.4,0-12.9,0-19.3c0-6.3,0-12.6,0-18.9c0-3.4,1.6-5,5.1-5c9.1,0,18.3,0,27.4,0c3.4,0,5,1.7,5,5
		C155.1,121.2,155.1,133.9,155.1,146.7z"/>
</g>
</svg>
