<?xml version="1.0" encoding="utf-8"?>
<!-- Generator: Adobe Illustrator 26.0.1, SVG Export Plug-In . SVG Version: 6.00 Build 0)  -->
<svg version="1.1" id="Layer_1" xmlns="http://www.w3.org/2000/svg" xmlns:xlink="http://www.w3.org/1999/xlink" x="0px" y="0px"
	 viewBox="0 0 200 200" style="enable-background:new 0 0 200 200;" xml:space="preserve">
<style type="text/css">
	.st0{fill:#F0F7FF;}
	.st1{fill:#3168B2;}
</style>
<rect x="-589.6" y="-70.9" class="st0" width="1924.8" height="341.1"/>
<g>
	<path class="st1" d="M61.8,131.4c-0.4,1.4,1.1,3.7-1.2,4.8c-2.2,1.1-3.4-1.1-4.9-2.1c-3.5-2.5-7-5.1-10.4-7.7
		c-2.2-1.7-2.2-2.9,0.1-4.6c4-3,8-6,12-9c0.9-0.7,1.9-1.3,3.1-0.7c1.2,0.6,1.2,1.7,1.2,2.9c0,1.6,0.1,3.3,0,4.9
		c-0.2,2,0.8,2.1,2.3,1.8c4.2-0.8,7.9-2.5,11.3-4.9c6.6-4.5,12.6-9.9,18.9-14.9c8.2-6.6,16.3-13.3,24.6-19.8
		c5.3-4.2,11.1-7.6,18.1-8.3c1.3-0.1,1.5-0.7,1.5-1.8c-0.1-2-0.1-4-0.1-6c0.1-2.5,1.8-3.4,3.8-1.9c4.4,3.2,8.7,6.5,13.1,9.8
		c1.7,1.3,1.6,2.7,0,4c-4.3,3.2-8.5,6.5-12.9,9.6c-2,1.5-3.7,0.6-3.8-1.9c-0.1-1.8-0.2-3.6,0-5.4c0.2-2-0.8-2.1-2.3-1.8
		c-4.2,0.8-8,2.6-11.5,5c-7,4.8-13.3,10.5-19.9,15.8c-7.9,6.3-15.7,12.7-23.6,19c-5.3,4.2-11,7.5-17.9,8.2c-1.3,0.1-1.6,0.7-1.5,1.8
		C61.8,129,61.8,130,61.8,131.4z M150.5,75.8c-2.7-2-5.1-3.8-7.8-5.8c0,4.1,0,7.6,0,11.6C145.4,79.5,147.8,77.7,150.5,75.8z
		 M57.3,118.2c-2.5,1.9-4.7,3.5-6.9,5.1c-0.6,0.5-0.8,0.8-0.1,1.4c2.2,1.6,4.5,3.3,6.9,5.2C57.3,125.8,57.3,122.3,57.3,118.2z"/>
	<path class="st1" d="M138.2,130.9c0.1-4.3,0.1-4.2-4.2-5.1c-4.3-0.9-8.1-2.9-11.7-5.3c-6.2-4.2-11.7-9.1-17.5-13.7
		c-1.2-0.9-1.7-2.1-0.6-3.3c1-1.2,2.3-1,3.4,0c4.9,3.9,9.8,7.9,14.7,11.8c4,3.1,8.3,5.5,13.4,6.5c1.7,0.3,2.8,0.3,2.6-2
		c-0.2-1.8-0.1-3.6,0-5.4c0.1-2.2,1.8-3.1,3.6-1.9c4.5,3.2,8.9,6.5,13.3,9.9c1.7,1.3,1.4,2.8-0.3,4c-4.3,3.2-8.6,6.4-12.8,9.6
		c-0.8,0.6-1.6,1-2.6,0.5c-1.1-0.5-1.3-1.5-1.3-2.6C138.2,132.7,138.2,131.8,138.2,130.9z M142.6,129.9c2.8-2.1,5.2-3.9,7.9-5.9
		c-2.7-2-5.1-3.8-7.9-5.8C142.6,122.3,142.6,125.8,142.6,129.9z"/>
	<path class="st1" d="M61.8,69c0,4.3,0,4.2,4.1,5.2c4.8,1.1,9,3.3,13,6.2c5.6,3.9,10.7,8.4,16,12.7c1.2,1,2,2.1,0.8,3.5
		c-1.1,1.4-2.4,0.9-3.6-0.1c-4.9-4-9.8-7.9-14.7-11.8c-3.9-3-8.2-5.4-13.2-6.3c-1.7-0.3-2.8-0.2-2.6,2c0.2,1.7,0.1,3.4,0,5.2
		c-0.1,2.5-1.8,3.4-3.8,2c-4.3-3.1-8.6-6.3-12.8-9.6c-1.8-1.4-1.8-2.7,0.1-4.2c4.2-3.2,8.4-6.3,12.6-9.5c0.8-0.6,1.7-1.2,2.8-0.7
		c1.3,0.6,1.3,1.7,1.2,2.8C61.8,67.2,61.8,68.1,61.8,69z M49.5,75.8c2.7,2,5.1,3.8,7.8,5.8c0-4.2,0-7.7,0-11.7
		C54.6,72,52.2,73.8,49.5,75.8z"/>
	<path class="st1" d="M102.2,75.8c0,3.5,0,6.9,0,10.4c0,1.6-0.3,3.1-2.3,3c-1.8-0.1-2.1-1.5-2.1-3c0-7-0.1-14,0.1-21
		c0-2.1-0.7-2.7-2.6-2.5c-1.7,0.2-3.5,0.2-5.2,0.1c-2.4-0.1-3.3-1.8-1.9-3.7c3.2-4.5,6.6-8.9,9.9-13.3c1.2-1.6,2.7-1.5,3.9,0.1
		c3.3,4.3,6.6,8.6,9.8,13c1.4,1.9,0.5,3.6-1.9,3.7c-1.8,0.1-3.6,0.2-5.4,0c-2.1-0.2-2.4,0.7-2.4,2.5
		C102.3,68.7,102.2,72.3,102.2,75.8z M100.1,50.6c-2,2.6-3.8,5.1-5.7,7.7c4,0,7.6,0,11.5,0C103.8,55.6,102,53.2,100.1,50.6z"/>
	<path class="st1" d="M97.9,124.4c0-3.5,0-7.1,0-10.6c0-1.6,0.1-3.1,2.1-3.2c2,0,2.2,1.5,2.2,3.1c0,7,0.1,14-0.1,21
		c0,2,0.6,2.6,2.5,2.4c1.8-0.2,3.6-0.2,5.4-0.1c2.2,0.1,3.1,1.8,1.8,3.6c-3.3,4.5-6.7,9-10.1,13.5c-1.1,1.5-2.6,1.4-3.7-0.1
		c-3.4-4.4-6.7-8.8-9.9-13.3c-1.3-1.8-0.4-3.4,1.8-3.6c1.8-0.1,3.6-0.2,5.4,0c1.9,0.2,2.6-0.3,2.5-2.4
		C97.7,131.3,97.9,127.9,97.9,124.4z M94.1,141.4c1.9,2.6,3.5,4.7,5.1,6.8c0.3,0.4,0.7,1.2,1.3,0.3c1.7-2.3,3.4-4.6,5.3-7.1
		C101.7,141.4,98.2,141.4,94.1,141.4z"/>
</g>
</svg>
