<?xml version="1.0" encoding="utf-8"?>
<!-- Generator: Adobe Illustrator 26.0.1, SVG Export Plug-In . SVG Version: 6.00 Build 0)  -->
<svg version="1.1" id="Layer_1" xmlns="http://www.w3.org/2000/svg" xmlns:xlink="http://www.w3.org/1999/xlink" x="0px" y="0px"
	 viewBox="0 0 200 200" style="enable-background:new 0 0 200 200;" xml:space="preserve">
<style type="text/css">
	.st0{fill:#F0F7FF;}
	.st1{fill:#3168B2;}
</style>
<rect x="-809.6" y="-70.9" class="st0" width="1924.8" height="341.1"/>
<g>
	<path class="st1" d="M120.8,42.6c0.3,0,0.5,0,0.8,0c0.3,0.1,0.6,0.1,0.8,0.2c0.9,0.2,1.5,0.9,2,1.6c0,0,0,0.1,0,0.1
		c0.3,0.7,0.7,1.3,1.1,1.9c0.2,0.4,0.4,0.8,0.7,1.2c0.1,0.3,0.3,0.6,0.5,0.8c0.7,1.2,1.5,2.4,2.2,3.7c0.3,0.5,0.5,1,0.9,1.4
		c0.1,0.2,0.1,0.4,0.3,0.5c0.3,0.7,0.7,1.3,1.1,1.9c0.2,0.3,0.3,0.6,0.5,0.9c0.2,0.4,0.5,0.8,0.7,1.2c0.7,1.2,1.5,2.4,2.2,3.6
		c0.3,0.5,0.6,1,0.9,1.5c0,0.2,0.1,0.3,0.2,0.4c0.3,0.6,0.6,1.2,1.1,1.8c0.1,0.3,0.3,0.6,0.5,0.9c0.2,0.3,0.3,0.7,0.6,1
		c0.3,0.5,0.6,1,0.8,1.4c0.1,0.3,0.3,0.2,0.5,0c1.3-0.6,2.5-1.3,3.8-2c0.2-0.1,0.4-0.2,0.6-0.3c1-0.6,2-1.1,3.1-1.1
		c1.4,0.1,2.4,0.7,3,2c0.1,0.6,0.2,1.2,0.2,1.9c-0.1,0.6-0.3,1.3-0.4,1.9c-0.2,0.6-0.4,1.1-0.5,1.7c-0.5,1.3-0.7,2.6-1.1,3.9
		c-0.2,0.6-0.3,1.3-0.5,1.9c-0.2,0.6-0.4,1.2-0.5,1.8c-0.3,1.3-0.7,2.5-1,3.8c-0.2,0.7-0.4,1.4-0.6,2.1c-0.3,1.2-0.6,2.3-1,3.5
		c-0.2,0.7-0.4,1.3-0.5,2c-0.1,0.5-0.3,1-0.4,1.5c-0.2,0.2-0.2,0.5-0.3,0.8c-0.4,1.2-0.5,2.4-1.2,3.4c-0.2,0.2-0.4,0.4-0.6,0.6
		c-0.1,0-0.1,0.1-0.2,0.1l0,0c-1,0.7-2.1,0.8-3.2,0.7c-0.1,0-0.2,0-0.3,0c-0.7-0.2-1.3-0.4-2-0.5c-0.7-0.2-1.3-0.3-2-0.5
		c-0.7-0.2-1.4-0.4-2.1-0.5c0,0-0.1,0-0.1,0c-0.5-0.3-1-0.3-1.5-0.4c-0.5-0.1-1-0.3-1.5-0.4c-0.7-0.2-1.4-0.4-2.1-0.5
		c-0.7-0.2-1.3-0.4-2-0.5c0,0-0.1,0-0.1,0c-0.5-0.2-1-0.3-1.5-0.4c-0.7-0.2-1.4-0.4-2.1-0.5c-0.5-0.2-1-0.3-1.5-0.4
		c-0.7-0.2-1.5-0.4-2.3-0.5c0,0,0,0-0.1,0c-0.1,0-0.1-0.1-0.2-0.1c-1.1-0.3-2.2-0.5-3.3-0.8c-0.7-0.2-1.4-0.4-2.1-0.5
		c-0.5-0.1-1-0.3-1.5-0.4c-0.3-0.1-0.6-0.2-0.9-0.3c0,0-0.1,0-0.1,0c0,0,0,0,0,0c-0.4-0.2-0.8-0.5-1.3-0.8c-0.4-0.4-0.7-0.8-1-1.3
		c-0.1-0.4-0.2-0.8-0.2-1.2c0.1-0.8,0.5-1.4,1.1-1.9c0.6-0.5,1.4-0.8,2-1.3c1.3-0.6,2.5-1.3,3.8-2c0.2-0.1,0.4-0.2,0.7-0.3
		c0.5-0.2,0.5-0.4,0.1-0.7c-0.3-0.5-0.5-0.9-0.8-1.4c-0.1-0.2-0.2-0.3-0.3-0.5c-0.8-1.3-1.6-2.5-2.3-3.8c-0.3-0.6-0.7-1.2-1.1-1.8
		c0-0.1,0-0.2-0.1-0.2c-0.2-0.4-0.5-0.8-0.7-1.2c-0.1-0.2-0.2-0.3-0.4,0c-0.7,1.1-1.6,2.1-2.3,3.3c-0.2,0.2-0.3,0.4-0.5,0.6
		c-0.3,0.4-0.6,0.8-0.9,1.2c-0.2,0.2-0.4,0.4-0.5,0.6c-0.6,1-1.3,1.9-2.4,2.4c-0.3,0.1-0.7,0.2-1,0.2c-0.9,0.1-1.7-0.2-2.5-0.6
		c-1.3-0.8-2.6-1.7-3.9-2.5c-0.1-0.1-0.3-0.2-0.4-0.2c-0.5-0.4-1-0.7-1.5-1c-0.5-0.5-1.2-0.7-1.8-1.1c-0.6-0.5-1.3-1-2-1.4
		c0,0-0.1-0.1-0.1-0.1c-0.6-0.4-1.1-0.8-1.8-1.1l0,0c-0.1,0-0.2-0.1-0.2-0.1c-1.1-0.9-2.4-1.5-3.5-2.5c-0.1-0.1-0.2-0.1-0.2-0.2
		c-0.4-0.6-0.7-1.1-0.9-1.8c-0.1-0.7,0-1.4,0.2-2.1c0.4-0.6,0.7-1.2,1.2-1.7c0.5-0.6,1-1.2,1.5-1.8c0.1-0.1,0.2-0.2,0.2-0.3
		c0.4-0.4,0.8-0.9,1.2-1.4c0.2-0.3,0.6-0.5,0.7-0.9c0.4-0.4,0.8-0.8,1-1.2c0.3-0.3,0.6-0.6,0.9-1c0.3-0.2,0.5-0.4,0.6-0.7
		c1.6-1.9,3.2-3.9,4.9-5.8c0.1-0.1,0.1-0.2,0.2-0.2c0.5-0.5,1-1.1,1.4-1.6c0.2-0.2,0.3-0.5,0.5-0.8c0.4-0.4,0.8-0.8,1.3-1.1
		c0.2-0.1,0.5-0.3,0.7-0.4c0.5-0.2,1.1-0.3,1.6-0.5c0.6-0.1,1.1-0.3,1.7-0.4c1.3-0.3,2.5-0.6,3.8-0.8c0.8-0.2,1.5-0.3,2.3-0.5
		c0.6-0.1,1.2-0.1,1.8-0.4c0.6,0,1.3-0.2,1.9-0.4c0.5,0,1-0.2,1.5-0.3c0.1,0,0.2-0.1,0.3-0.1c0.7-0.1,1.3-0.3,2-0.4
		c0.7-0.2,1.4-0.3,2.1-0.5c0.6-0.1,1.1-0.2,1.6-0.4C119.5,43,120.2,42.8,120.8,42.6z M87.7,67.1c-0.1,0.1-0.1,0.1-0.2,0.2
		c-0.2,0.2-0.4,0.5-0.7,0.7c1.2,0.9,2.4,1.7,3.7,2.4c0.2,0.2,0.5,0.4,0.8,0.5c0.3,0.3,0.7,0.5,1.1,0.8c1.3,0.8,2.5,1.7,3.8,2.5
		c0.2,0.2,0.5,0.4,0.7,0.5c0.4,0.3,0.8,0.5,1.1,0.8c0.5,0.3,1,0.7,1.5,1l0,0l0.1,0l0,0c0.2,0.4,0.4,0.2,0.5,0c0.5-0.7,1-1.3,1.4-2
		c0.1-0.1,0.1-0.2,0.2-0.3c0.4-0.5,0.8-0.9,1.1-1.5c0.7-1,1.4-2,2.2-2.9c0.1-0.2,0.2-0.4,0.1-0.6c0.1-0.8-0.1-1.5-0.7-2.2
		c-0.1-0.4-0.3-0.7-0.6-1c-0.1-0.3-0.3-0.6-0.5-0.9c-0.7-1.3-1.5-2.5-2.3-3.8c-0.3-0.6-0.7-1.2-1.1-1.8c0-0.1-0.1-0.2-0.1-0.3
		c-0.4-0.6-0.8-1.2-1.2-1.8c0-0.3-0.3-0.5-0.4-0.8c-0.2-0.4-0.5-0.8-0.7-1.2c-0.1-0.2-0.2-0.3-0.4,0c-0.3,0.5-0.8,0.9-1.1,1.4
		c-0.2,0.2-0.4,0.4-0.5,0.6c-1.7,1.9-3.2,3.8-4.8,5.8c-0.1,0.1-0.2,0.1-0.2,0.3c-0.4,0.5-0.9,1.1-1.3,1.6c-0.2,0.2-0.4,0.5-0.6,0.7
		C88.3,66.3,88,66.7,87.7,67.1C87.7,67.1,87.7,67.1,87.7,67.1z"/>
	<path class="st1" d="M49,83.3c0-0.6,0-1.2,0-1.8c0.3-0.9,0.3-1.8,0.4-2.8c0.2-0.7,0.3-1.3,0.5-2c0.1-0.6,0.6-0.2,0.9-0.4
		c1.2,0.2,2.3,0.3,3.5,0.5c0.7,0.2,1.5,0.3,2.3,0.4c0.7,0.1,1.3,0.2,2,0.3c0.7,0.2,1.3,0.3,2,0.4c0.6,0.1,1.2,0.2,1.8,0.3
		c0.6,0.2,1.2,0.3,1.9,0.4c0.1,0,0.2,0,0.2,0c0.5,0.2,1,0.3,1.5,0.4l0,0c0.1,0,0.1,0,0.2,0.1c0.6,0.1,1.3,0.3,1.9,0.4
		c0.5,0.2,1.1,0.4,1.6,0.5l0,0l0,0c0.1,0,0.1,0.1,0.2,0.1c1.2,0.4,2.3,0.9,3.5,1.3c0.7,0.3,1.4,0.6,2,0.9c0,0,0,0,0,0
		c0.1,0,0.1,0.1,0.2,0.1c0,0,0.1,0,0.1,0.1c0.5,0.3,1.1,0.6,1.6,0.9l0,0c0.1,0,0.1,0.1,0.2,0.1c1.2,0.8,2.4,1.5,3.6,2.3
		c0.1,0.2,0.4,0.3,0.6,0.4c0.4,0.3,0.8,0.6,1.1,0.9c0.4,0.3,0.8,0.7,1.2,1c0.3,0.2,0.5,0.4,0.8,0.7c0.9,0.9,1.8,1.7,2.7,2.6
		c0.1,0,0.1,0.1,0.2,0.1l0,0c0,0.1,0.1,0.1,0.1,0.1c0,0,0,0,0,0c0.2,0.4,0.4,0.7,0.8,0.9c0.3,0.5,0.7,0.9,1.1,1.3
		c0.2,0.3,0.5,0.6,0.7,0.9c0.3,0.3,0.5,0.6,0.8,1c0.3,0.5,0.7,1.1,1.1,1.5c0,0.1,0,0.2,0.1,0.2c0.8,1.3,1.6,2.6,2.4,3.9
		c0,0.2,0.1,0.3,0.2,0.4c0.2,0.5,0.6,0.9,0.6,1.4c0,0-0.1,0-0.1,0c-0.1,0-0.1-0.1-0.2-0.1c-1-0.2-1.9-0.4-2.9-0.5
		c-0.6-0.2-1.2-0.3-1.9-0.4c0,0-0.1,0-0.1,0c-0.1,0-0.1-0.1-0.2-0.1c-0.6-0.1-1.2-0.3-1.8-0.4c-0.6-0.2-1.2-0.4-1.9-0.5
		c0,0-0.1,0-0.1,0c-0.1-0.1-0.3-0.1-0.5-0.1c0,0-0.1,0-0.1,0c-0.3-0.2-0.7-0.2-1-0.3c-0.6-0.2-1.2-0.4-1.8-0.6
		c-0.7-0.2-1.4-0.5-2.1-0.7c-1.3-0.5-2.5-1-3.8-1.5c-1.2-0.6-2.4-1.1-3.7-1.7c-2.2-1.1-4.3-2.5-6.3-4c0.5,0.7,1.1,1.1,1.7,1.6
		c1.4,1.2,2.9,2.3,4.6,3.2c0.1,0.2,0.3,0.3,0.5,0.3c0.3,0.3,0.7,0.5,1.1,0.7c0.7,0.4,1.4,0.7,2.1,1.1c0.1,0.1,0.2,0.1,0.3,0.2
		c0.1,0.1,0.2,0.1,0.3,0.1c0,0,0.1,0,0.1,0c0.4,0.2,0.7,0.4,1.2,0.6c0.5,0.3,1.1,0.5,1.7,0.8c0.3,0.1,0.6,0.3,0.9,0.4
		c0.3,0.2,0.7,0.3,1,0.4c0.7,0.3,1.3,0.5,2,0.8c0.6,0.2,1.3,0.4,1.9,0.7c0.1,0.1,0.1,0.1,0.3,0.1c0.6,0.2,1.1,0.4,1.7,0.5
		c0.6,0.3,1.2,0.4,1.8,0.6c0.6,0.2,1.3,0.4,1.9,0.5c0.3,0.1,0.5,0.2,0.8,0.2c0.4,0.1,0.7,0.2,1.1,0.3c0.1,0.1,0.2,0.2,0,0.3
		c-1.3,0.5-2.5,1-3.8,1.6c-0.6,0.2-1.3,0.4-1.9,0.6c-2.5,0.7-5,0.9-7.5,1.1c-0.6,0-1.3,0-1.9,0c-0.2,0-0.3,0-0.5,0
		c-0.9-0.1-1.8-0.2-2.6-0.2c-0.1,0-0.2,0-0.2,0c-0.8-0.1-1.5-0.2-2.3-0.4c-0.5-0.1-1.1-0.3-1.6-0.4c-0.7-0.2-1.4-0.4-2.1-0.6
		c-1.2-0.5-2.4-0.9-3.6-1.4c-0.6-0.3-1.3-0.6-1.9-1c-0.1,0-0.2,0-0.2-0.1c-0.5-0.5-1.2-0.7-1.8-1.1c-0.4-0.3-0.8-0.6-1.2-0.8
		c-0.2-0.2-0.4-0.4-0.6-0.5c-1.3-1-2.5-2.1-3.7-3.2c-0.3-0.3-0.6-0.6-0.9-0.9c-0.9-0.9-1.5-1.9-2.3-2.8c-0.2-0.4-0.4-0.7-0.7-1
		c-0.2-0.3-0.3-0.6-0.5-0.9c-0.7-1.3-1.3-2.7-1.9-4c-0.2-0.6-0.4-1.3-0.6-1.9c0-0.5-0.2-1-0.3-1.5C49.3,85.2,49.3,84.2,49,83.3z
		 M67,91.7C67,91.7,67,91.7,67,91.7c-0.1-0.1-0.1-0.1-0.1,0C66.9,91.7,66.9,91.8,67,91.7C66.9,91.8,67,91.8,67,91.7z"/>
	<path class="st1" d="M122.9,157.4c-0.5,0-0.9,0-1.4,0c-0.8-0.2-1.5-0.6-2.1-1.1c-0.3-0.3-0.6-0.5-0.9-0.8c-0.2-0.4-0.6-0.6-0.9-0.8
		c-0.3-0.3-0.6-0.7-1-0.9c-0.3-0.4-0.6-0.6-1-0.9c-0.4-0.3-0.7-0.7-1.1-1c-0.2-0.3-0.5-0.5-0.8-0.7c-2.5-2.3-5-4.5-7.5-6.8
		c-0.6-0.6-1.1-1.1-1.8-1.6c-0.1-0.2-0.2-0.3-0.4-0.4c-0.5-0.5-1.1-0.9-1.6-1.4c-0.1-0.2-0.2-0.3-0.4-0.4c-0.5-0.5-1-0.9-1.6-1.4
		c-0.1-0.1-0.2-0.3-0.4-0.3c-0.4-0.5-0.8-0.9-1.3-1.3c-0.1-0.2-0.2-0.4-0.5-0.4c-0.1,0-0.1-0.1-0.2-0.1l0,0c-0.4-0.6-0.8-1.3-0.9-2
		c-0.1-0.7,0-1.4,0.3-2c0.3-0.6,0.7-1.1,1.2-1.6c1.3-1.3,2.7-2.5,4-3.8c0.7-0.6,1.2-1.4,1.9-1.9c1.2-1,2.3-2.2,3.5-3.3
		c0.2-0.1,0.4-0.3,0.5-0.5c0.5-0.3,0.9-0.9,1.4-1.3c0.3-0.2,0.6-0.5,0.8-0.8c1-1,2-1.9,3-2.9c0.3-0.2,0.5-0.5,0.8-0.7
		c0.5-0.3,0.9-0.7,1.2-1.2c0.3-0.3,0.6-0.6,0.9-0.9c0.3-0.3,0.6-0.6,0.9-0.9c0.4-0.4,0.7-0.7,1.1-1.1c0.2-0.2,0.5-0.4,0.7-0.6
		c1-0.6,2-0.9,3.1-0.8c0.2,0.1,0.4,0.1,0.6,0.2c0.6,0.2,1,0.7,1.3,1.2c0.3,0.6,0.4,1.2,0.5,1.9c0,2,0,4.1,0,6.1
		c0,0.2-0.1,0.4,0.3,0.4c0.5,0,1.1,0.1,1.6-0.1c0.1,0,0.1,0,0.2,0c0.1,0.1,0.2,0.1,0.2,0c0.1,0,0.1,0,0.2,0c0.1,0,0.1,0.1,0.2,0.1
		c3,0,5.9,0,8.9,0c0.2,0,0.4,0.1,0.5-0.1c-0.4-0.8-0.9-1.7-1.3-2.5c-0.7-1.3-1.3-2.5-2-3.8c-0.3-0.7-0.7-1.3-1-2
		c-0.1-0.6-0.2-1.2,0-1.8c0-0.1,0.1-0.2,0.1-0.3c0.3-0.7,0.8-1.2,1.4-1.7c0.1-0.1,0.2-0.1,0.3-0.2c0.7-0.3,1.3-0.6,2-0.9
		c1.3-0.5,2.6-1.1,3.9-1.7c1.2-0.5,2.4-1,3.6-1.5c0.6-0.3,1.3-0.5,1.9-0.8c0.3,0,0.5-0.2,0.8-0.3c0.5-0.1,0.9-0.4,1.4-0.6
		c0.5-0.2,1-0.4,1.5-0.7c0.6-0.2,1.2-0.5,1.7-0.7c0.1,0,0.2,0,0.3-0.1c0.7-0.2,1.4-0.1,2.1-0.1c1.2,0.4,2.2,1,2.8,2.1
		c0.2,0.5,0.5,1.1,0.7,1.6c0,0,0,0.1,0.1,0.1c0.2,0.6,0.5,1.3,0.8,1.9c0.5,1.3,1,2.6,1.6,3.9c0.4,1.2,1,2.4,1.5,3.6
		c0.2,0.7,0.5,1.3,0.8,1.9c0.5,1.3,1.1,2.5,1.6,3.8c0.3,0.8,0.6,1.6,1,2.3c0.7,1.3,0.8,2.7,0.4,4.1c-0.1,0.4-0.2,0.8-0.3,1.2
		c0,0,0,0,0,0.1c-0.3,0.6-0.4,1.2-0.6,1.8c-0.2,0.5-0.3,1.1-0.5,1.6c-0.2,0.7-0.5,1.3-0.6,2c-0.4,1.3-0.9,2.6-1.3,3.9
		c-0.2,0.6-0.5,1.2-0.6,1.8c-0.5,1.3-1,2.7-1.3,4c-0.2,0.6-0.4,1.1-0.5,1.8c0,0,0,0.1,0,0.1c-0.1,0.2-0.1,0.4-0.1,0.7
		c-0.3,1.1-1,1.9-2,2.4c-0.7,0.2-1.3,0.3-2,0.3c-0.5,0-1.1,0-1.6,0c-0.7,0-1.4,0-2.1,0c-0.5,0-1.1,0-1.6,0c-0.7,0-1.4,0-2.1,0
		c-0.5,0-1.1,0-1.6,0c-0.7,0-1.4,0-2.1,0c-0.5,0-1.1,0-1.6,0c-0.7,0-1.4,0-2.1,0c-0.5,0-1.1,0-1.6,0c-0.7,0-1.4,0-2.1,0
		c-0.5,0-1.1,0-1.6,0c-0.7,0-1.4,0-2.1,0c-0.5,0-1.1,0-1.6,0c-0.7,0-1.4,0-2.1,0c-0.5,0-1.1,0-1.6,0c-0.4,0-0.7,0-1.1,0
		c-0.4,0-0.5,0.1-0.5,0.5c0,1.2,0,2.4,0,3.6c0,1.2,0.1,2.5-0.3,3.7c-0.1,0.1-0.1,0.2-0.2,0.3C124.5,156.7,123.8,157.2,122.9,157.4z
		 M144,120.4c0.6,0.1,1.1,0.1,1.7,0c0.7,0.1,1.4,0.1,2.1,0c0.5,0.1,1.1,0.1,1.6,0c0.7,0.1,1.4,0.1,2.1,0c0.6,0,1.1,0.1,1.7,0
		c0.7,0.1,1.4,0.1,2.1,0c0.5,0.1,1.1,0.1,1.6,0c0.6,0,1.1,0,1.8,0c-0.1-0.2-0.2-0.3-0.3-0.5c-0.2-0.7-0.5-1.3-0.8-1.9
		c-0.2-0.4-0.3-0.7-0.5-1.1c0-0.3-0.2-0.5-0.3-0.7c-0.2-0.7-0.5-1.3-0.8-2c-0.2-0.6-0.4-1.1-0.7-1.6c0-0.1-0.1-0.2-0.1-0.3
		c-0.2-0.6-0.5-1.2-0.7-1.7c-0.6-1.3-1.1-2.6-1.7-3.9c-0.4-1.3-0.4-1.3-1.5-0.7c-0.5,0.2-1,0.4-1.5,0.6c-0.2,0-0.4,0.1-0.5,0.2
		c-0.6,0.2-1.1,0.4-1.6,0.7c-1.2,0.5-2.5,1-3.7,1.6c-0.7,0.2-1.3,0.5-2,0.8c-0.4,0.2-0.8,0.3-1.1,0.5c-0.3,0.1-0.5,0.2-0.8,0.4
		c-0.6,0.2-1.1,0.4-1.6,0.7c-0.2,0.1-0.4,0.1-0.5,0.2c-0.2,0.1-0.3,0.2-0.1,0.4c0.4,0.6,0.7,1.3,1.1,2c0.7,1.3,1.3,2.7,2.1,3.9
		c0.3,0.6,0.5,1.3,1,1.8c0,0,0.1,0,0.1,0.1C142.7,120.3,143.3,120.5,144,120.4z"/>
	<path class="st1" d="M74.2,109.8c0.3,0,0.7,0.1,1,0.1c0.8,0.1,1.5,0.1,2.3,0.2c0.1,0,0.2,0,0.4,0c0,0,0.1,0,0.1,0
		c0.6,0,1.2,0,1.9,0c0.5,0,1,0.1,1.5,0c1-0.1,2-0.1,2.9-0.2c0.8-0.1,0.8-0.1,0.6,0.6c0,0,0,0,0,0c0,0,0,0,0,0.1c0,0.1,0,0.1-0.1,0.2
		c-0.2,0.5-0.4,1.1-0.6,1.6c-0.3,0.6-0.5,1.3-0.8,1.9c-0.6,1.2-1.2,2.4-1.8,3.7c-0.2,0.4-0.5,0.7-0.7,1.1c-1.3,2.4-2.9,4.5-4.8,6.5
		c-0.2,0.2-0.6,0.4-0.7,0.7c-0.1,0-0.1,0.1-0.2,0.1c0.1,0,0.1-0.1,0.2-0.1c0.3-0.2,0.5-0.4,0.8-0.6c0.2-0.1,0.3-0.2,0.4-0.3
		c1.3-1.3,2.6-2.6,3.7-4.1c0.7-1,1.5-1.9,2.1-3c0.2-0.3,0.5-0.6,0.6-1c0.2-0.3,0.4-0.5,0.5-0.9c0.5-0.7,0.9-1.4,1.2-2.1
		c0.1-0.1,0.1-0.2,0.2-0.3c0.2-0.5,0.5-1,0.7-1.5c0.3-0.6,0.6-1.1,0.8-1.8c0.2-0.2,0.2-0.4,0.3-0.7c0.2-0.3,0.3-0.5,0.7-0.5
		c0.3,0,0.5-0.1,0.8-0.2c1.4-0.2,2.8-0.6,4.1-0.9c0.2-0.1,0.5-0.1,0.7-0.2c0.5-0.3,0.8-0.1,0.8,0.4c0.5,3.1,0.5,6.2,0,9.3
		c-0.1,0.7-0.3,1.3-0.4,2c-0.2,0.7-0.4,1.3-0.6,2c-0.5,1.2-0.9,2.3-1.4,3.5c-0.8,1.3-1.4,2.7-2.3,3.9c-0.2,0.3-0.4,0.5-0.6,0.8
		c-0.3,0.4-0.6,0.7-0.8,1.1c-1.5,1.8-3.1,3.4-4.8,4.8c-0.3,0.3-0.7,0.4-0.9,0.8l0,0l-0.1,0l0,0c-0.3,0.1-0.6,0.4-0.9,0.6
		c-1.2,0.8-2.5,1.5-3.8,2.2c-1.2,0.5-2.4,1-3.7,1.4c-0.7,0.2-1.3,0.4-2,0.6c-0.6,0.1-1.2,0.2-1.8,0.4c-0.7,0.1-1.4,0.1-2.1,0.2
		c-1.6,0.2-3.3,0-4.9-0.1c-0.9-0.1-1.8-0.4-2.8-0.6c-0.6-0.1-0.4-0.6-0.4-1c0.1-0.7,0.2-1.3,0.3-2c0.2-0.5,0.3-0.9,0.3-1.4
		c0.2-1.3,0.5-2.7,0.7-4c0.1-0.5,0.2-1,0.3-1.5c0.2-0.7,0.3-1.5,0.5-2.2c0.1-0.7,0.3-1.3,0.4-2c0.4-1.3,0.7-2.5,1.1-3.8
		c0.2-0.6,0.4-1.1,0.6-1.7c0.1-0.3,0.3-0.7,0.4-1c0.3-0.3,0.4-0.7,0.5-1.1c0.3-0.6,0.6-1.2,0.9-1.8c0,0,0,0,0,0
		c0.1,0,0.1-0.1,0.1-0.1c0.1-0.1,0.2-0.2,0.2-0.4c0.3-0.4,0.6-0.9,0.8-1.4c0.4-0.5,0.7-1.1,1.1-1.6c0.4-0.7,1-1.3,1.4-2
		c0.2-0.2,0.4-0.5,0.6-0.7c0.4-0.4,0.8-0.9,1.2-1.3c0.2-0.3,0.5-0.5,0.7-0.8c0.5-0.3,1,0.1,1.5,0c0.1,0.1,0.3,0,0.5,0.1
		C73.9,109.8,74.1,109.8,74.2,109.8z"/>
</g>
</svg>
