<?xml version="1.0" encoding="utf-8"?>
<!-- Generator: Adobe Illustrator 26.0.1, SVG Export Plug-In . SVG Version: 6.00 Build 0)  -->
<svg version="1.1" id="Layer_1" xmlns="http://www.w3.org/2000/svg" xmlns:xlink="http://www.w3.org/1999/xlink" x="0px" y="0px"
	 viewBox="0 0 200 200" style="enable-background:new 0 0 200 200;" xml:space="preserve">
<style type="text/css">
	.st0{fill:#F0F7FF;}
	.st1{fill:#3168B2;}
</style>
<rect x="-149.6" y="-70.9" class="st0" width="1924.8" height="341.1"/>
<g>
	<path class="st1" d="M109.4,79c-1.5,0-2.9,0-4.4,0c-3.3,0.1-6-1.1-8.3-3.3c-2.3-2.3-4.4-4.7-5-8c-0.5-2.7,0.4-5.1,2.4-7
		c2.2-2,4.4-4,6.8-5.8c2.3-1.8,5.1-2.2,7.5-0.6c6.5,4.3,13.5,8.1,18.9,13.8c8.9,9.4,14.3,20.7,16.5,33.4c0.8,4.6,1.3,9.2,0.6,13.8
		c-0.6,3.9-2.5,7.1-6,9.1c-15.8,9.2-32.4,10.7-49.6,4.6c-1.5-0.5-2.2-0.4-3,1c-2.4,4.2-6.2,6.9-10.5,9c-0.8,0.4-1.5,0.4-2.2-0.2
		c-6.4-6.1-12.2-12.6-15.1-21.2c-4.2-12.1-3.9-24.2,0.9-36.1c0.6-1.4,1.6-1.9,2.9-2.1c5-0.8,9.9-0.4,14.7,1.3
		c5.6,2.1,9.9,5.9,13.4,10.6c0.6,0.9,1.1,1,2.1,0.6c8.5-3.3,18.1,0.3,22.3,8.4c0.7,1.4,1.5,1.9,3.1,1.8c3-0.1,3-0.1,2.3-2.9
		c-1.4-5.9-2.5-11.8-3.2-17.8c0-0.3-0.1-0.7-0.2-1c-0.2-1.2-0.7-1.9-2.3-1.7C112.7,79.1,111,79,109.4,79C109.4,79,109.4,79,109.4,79
		z M58.8,100.6c0.1,6.6,1.2,12.5,3.6,18.2c2.7,6.3,7,11.3,11.8,16c0.6,0.6,1,0.3,1.5,0c3.7-2.1,6.5-5,8.3-8.9
		c0.7-1.5,1.4-1.8,2.9-1.3c1.2,0.4,2.4,0.9,3.6,1.3c15.4,5.3,30.3,4,44.7-3.7c4-2.2,5.8-5.4,5.8-9.9c0-7.8-1.4-15.4-4.4-22.6
		c-3.6-8.9-8.5-16.9-16.2-22.8c-4.3-3.3-8.9-6.2-13.4-9.2c-1.5-1-3-0.9-4.4,0.4c-2,1.6-4,3.3-5.9,5c-1.8,1.6-2.1,3.7-1,5.8
		c1,1.9,2.4,3.5,4.1,4.9c1.1,0.9,2.4,1.6,3.8,1.6c3.7,0,7.3,0.3,11-0.1c2.9-0.3,3.3-0.3,4.8,3.1c0.3,0.7,0.5,1.4,0.6,2.1
		c0.8,7.2,2.3,14.3,3.9,21.4c0.5,2.2-1,4-3.3,4c-1.8,0-3.6,0-5.4,0c-1.5,0-2.6-0.7-3.3-2c-0.3-0.6-0.6-1.2-0.9-1.8
		c-3.2-6-10.6-9-17-6.9c-1,0.3-1.5,0.7-0.7,1.7c0.4,0.5,0.6,1.1,0.9,1.7c0.7,1.5,0.5,2.5-0.5,3c-1.1,0.6-2,0.1-2.7-1.4
		c-1.9-3.6-4.1-6.9-6.9-9.9c-5.5-5.8-12.3-8.1-20.2-7.5c-1.1,0.1-1.8,0.4-2.3,1.6C59.7,89.7,59,95.3,58.8,100.6z"/>
	<path class="st1" d="M157.3,101.5c-0.1,0.8-0.1,1.6-0.2,2.3c-0.1,1-0.8,1.6-1.8,1.6c-1,0-1.7-0.6-1.8-1.6c-0.1-1.5,0-2.9,0.2-4.4
		c0.1-0.9,0.8-1.5,1.7-1.4c1,0,1.6,0.6,1.8,1.6C157.3,100.2,157.3,100.8,157.3,101.5C157.3,101.5,157.3,101.5,157.3,101.5z"/>
	<path class="st1" d="M147.9,130.6c0,1-2.4,4.4-3.3,4.7c-0.8,0.3-1.4,0.1-2-0.5c-0.5-0.6-0.7-1.3-0.2-2c0.7-1.1,1.5-2.2,2.4-3.3
		c0.5-0.6,1.2-0.8,2-0.5C147.5,129.4,147.9,130,147.9,130.6z"/>
	<path class="st1" d="M101.7,46.2c-0.7,0-1.4,0-2,0c-1-0.1-1.6-0.7-1.6-1.7c0-1,0.5-1.7,1.5-1.8c1.4-0.2,2.9-0.1,4.3,0.1
		c0.9,0.2,1.4,0.9,1.3,1.8c0,0.9-0.6,1.5-1.5,1.7c-0.7,0.1-1.3,0-2,0C101.7,46.3,101.7,46.3,101.7,46.2z"/>
	<path class="st1" d="M110.9,43.7c1.3,0.3,2.6,0.6,3.9,1c1,0.3,1.3,1.1,1.1,2.1c-0.3,1.1-1,1.5-2.1,1.3c-1.2-0.2-2.4-0.5-3.5-0.8
		c-1-0.3-1.6-1-1.4-2C109.1,44.2,109.8,43.6,110.9,43.7z"/>
	<path class="st1" d="M75.6,147.9c1.5,0.6,3.2,1.2,4.6,2.2c0.5,0.4,0.6,1.2,0.3,1.9c-0.3,0.8-1,1.2-1.7,1c-1.6-0.3-3.1-1-4.5-2
		c-0.6-0.4-0.7-1.2-0.4-2C74.2,148.3,74.8,148,75.6,147.9z"/>
	<path class="st1" d="M119.3,48.7c0-1.3,1.1-2.2,2.3-1.8c1.3,0.4,2.5,1,3.7,1.6c0.9,0.5,1.2,1.4,0.7,2.4c-0.5,0.9-1.2,1.2-2.2,0.8
		c-1.2-0.5-2.3-1-3.4-1.5C119.6,49.9,119.3,49.3,119.3,48.7z"/>
	<path class="st1" d="M46.3,98.2c0,0.6,0,1.3,0,1.9c-0.1,1-0.7,1.6-1.7,1.7c-1.1,0.1-1.8-0.6-1.9-1.6c-0.1-1.4-0.1-2.7,0.2-4.1
		c0.2-1,0.9-1.5,1.9-1.5c1,0.1,1.6,0.7,1.7,1.7c0.1,0.6,0,1.3,0,1.9C46.4,98.2,46.3,98.2,46.3,98.2z"/>
	<path class="st1" d="M143.4,63c0,0.9-0.3,1.5-1,1.8c-0.7,0.3-1.4,0.3-2-0.3c-0.9-0.9-1.8-1.8-2.6-2.8c-0.6-0.7-0.7-1.6,0-2.4
		c0.7-0.8,1.7-0.9,2.5-0.1c1,0.9,1.8,1.9,2.7,2.9C143.2,62.4,143.3,62.8,143.4,63z"/>
	<path class="st1" d="M81.9,45.6c1,0.1,1.6,0.5,1.8,1.4c0.2,0.9-0.2,1.6-1,2c-1.2,0.5-2.4,1-3.6,1.4c-0.9,0.3-1.7-0.1-2.1-0.9
		c-0.4-0.8-0.3-1.7,0.5-2.2C78.9,46.5,80.4,46.1,81.9,45.6z"/>
	<path class="st1" d="M71.8,50.2c1.2,0,1.7,0.4,2,1.2c0.3,0.8,0.1,1.5-0.5,1.9c-1.1,0.8-2.3,1.5-3.5,2.2c-0.7,0.4-1.4,0.2-2-0.3
		c-0.6-0.6-0.8-1.3-0.4-2C68.6,51.6,70.4,50.9,71.8,50.2z"/>
	<path class="st1" d="M48.7,80.6c-1.1,0-2-1-1.7-2.1c0.4-1.5,1-2.9,1.9-4.2c0.5-0.8,1.4-0.9,2.2-0.4c0.8,0.5,1.2,1.2,0.8,2.1
		c-0.5,1.2-1,2.4-1.6,3.6C50,80.3,49.4,80.6,48.7,80.6z"/>
	<path class="st1" d="M69.4,147.9c-1,0-4.5-2.4-4.8-3.3c-0.2-0.7-0.1-1.4,0.4-1.9c0.6-0.6,1.3-0.8,2-0.3c1.2,0.8,2.4,1.6,3.5,2.6
		c0.5,0.5,0.6,1.2,0.3,1.9C70.5,147.5,70,147.8,69.4,147.9z"/>
	<path class="st1" d="M149.4,78.9c0-1.2,0.4-1.8,1.2-2.1c0.8-0.2,1.6-0.1,2,0.7c0.7,1.3,1.2,2.7,1.5,4.1c0.2,0.8-0.2,1.5-1,1.9
		c-0.8,0.4-1.7,0.3-2.1-0.5C150.4,81.6,149.9,80.1,149.4,78.9z"/>
	<path class="st1" d="M98.2,153.6c0.6,0,1.3,0,1.9,0c1.1,0.1,1.7,0.7,1.7,1.8c0,1.1-0.6,1.8-1.7,1.8c-1.2,0-2.4,0-3.6-0.1
		c-1.2-0.1-1.9-0.8-1.8-2c0.1-1.2,1-1.6,2-1.6C97.2,153.5,97.7,153.5,98.2,153.6C98.2,153.6,98.2,153.6,98.2,153.6z"/>
	<path class="st1" d="M50.6,120.9c-0.1,1.2-0.5,1.8-1.3,2c-0.8,0.3-1.6,0-2-0.8c-0.6-1.3-1.2-2.7-1.6-4c-0.2-0.8,0.2-1.5,1-1.9
		c0.8-0.4,1.7-0.3,2.1,0.4C49.5,118.1,50.1,119.7,50.6,120.9z"/>
	<path class="st1" d="M60.9,62.6c-0.9,0-1.4-0.3-1.7-0.9c-0.3-0.6-0.4-1.4,0.1-1.9c1-1,2-2,3.1-2.9c0.7-0.6,1.6-0.5,2.3,0.2
		c0.7,0.7,0.8,1.6,0.2,2.2c-1,1.1-2.2,2.1-3.3,3.1C61.3,62.5,61,62.5,60.9,62.6z"/>
	<path class="st1" d="M149.8,71.8c-0.1,1.1-0.5,1.6-1.2,1.9c-0.7,0.3-1.4,0.1-1.8-0.4c-0.9-1.2-1.7-2.5-2.4-3.8
		c-0.4-0.7,0-1.4,0.6-1.9c0.6-0.5,1.3-0.6,1.9-0.2C148.3,68.6,149.1,70.3,149.8,71.8z"/>
	<path class="st1" d="M48.2,85.8c-0.3,1.4-0.6,2.8-1,4.2c-0.3,0.9-1.1,1.2-2,1c-0.9-0.2-1.4-0.8-1.3-1.7c0.1-1.5,0.4-3,1-4.4
		c0.3-0.8,1.1-1.2,1.9-0.9C47.7,84.1,48.1,84.8,48.2,85.8z"/>
	<path class="st1" d="M153.1,121.4c-0.5,1.4-1,3.1-2.1,4.4c-0.5,0.6-1.3,0.7-2,0.2c-0.7-0.4-1.2-1.1-0.9-2c0.5-1.4,1.1-2.7,1.8-4
		c0.4-0.7,1.2-0.9,2.1-0.6C152.7,119.8,153.1,120.4,153.1,121.4z"/>
	<path class="st1" d="M139,137.4c1.5-0.1,2.5,1.4,1.8,2.6c-0.9,1.4-2.2,2.5-3.6,3.3c-0.7,0.4-1.4,0.1-2-0.5
		c-0.5-0.5-0.7-1.3-0.3-1.9c1-1.4,2.3-2.5,3.6-3.5C138.7,137.4,139,137.4,139,137.4z"/>
	<path class="st1" d="M128,149.8c-1.1-0.1-1.7-0.4-1.9-1.2c-0.2-0.7-0.2-1.5,0.5-2c1.1-0.8,2.3-1.5,3.5-2.2c0.7-0.4,1.6-0.2,2.1,0.4
		c0.5,0.6,0.7,1.4,0.2,2C131.2,148.3,129.5,149.1,128,149.8z"/>
	<path class="st1" d="M121.1,149.3c1,0.1,1.6,0.5,1.9,1.3c0.3,0.9,0,1.6-0.7,2c-1.3,0.6-2.7,1.1-4.1,1.6c-0.8,0.2-1.5-0.2-1.9-1
		c-0.4-0.8-0.3-1.6,0.4-2.1C118.1,150.2,119.7,150,121.1,149.3z"/>
	<path class="st1" d="M50.2,128.1c0-1.1,0.3-1.7,1.1-2c0.8-0.3,1.5-0.2,2,0.5c0.8,1.1,1.6,2.3,2.2,3.6c0.4,0.7,0.2,1.4-0.4,2
		c-0.6,0.5-1.4,0.8-2,0.3C51.6,131.2,50.9,129.5,50.2,128.1z"/>
	<path class="st1" d="M62.6,139.1c0,1.5-1.6,2.4-2.7,1.6c-1.2-0.9-2.2-2-3.1-3.3c-0.5-0.7-0.3-1.5,0.3-2.1c0.6-0.6,1.3-0.8,2-0.3
		c1.3,1,2.4,2.2,3.4,3.6C62.6,138.7,62.6,139,62.6,139.1z"/>
	<path class="st1" d="M57.7,66.7c-0.9,1.3-1.7,3-3.2,4.2c-0.6,0.4-1.3,0.2-1.9-0.3c-0.6-0.6-0.8-1.3-0.4-2c0.8-1.2,1.6-2.4,2.5-3.6
		c0.5-0.6,1.3-0.6,2-0.3C57.4,65,57.7,65.6,57.7,66.7z"/>
	<path class="st1" d="M88.7,156.1c-1-0.2-2.2-0.5-3.5-0.9c-1-0.3-1.5-1.1-1.2-2.2c0.3-1,1.1-1.5,2.1-1.3c1.1,0.2,2.3,0.5,3.4,0.8
		c1.1,0.3,1.6,1,1.4,2C90.8,155.7,90.1,156.2,88.7,156.1z"/>
	<path class="st1" d="M107.7,156.7c-1.1,0.1-2-0.4-2.1-1.5c-0.2-1.2,0.5-1.9,1.7-2.1c1.1-0.2,2.1-0.4,3.2-0.5c1.1-0.2,2,0.2,2.2,1.4
		c0.2,1.1-0.3,1.9-1.5,2.1C110,156.3,108.8,156.5,107.7,156.7z"/>
	<path class="st1" d="M43.3,107.9c-0.1-1.6,0.5-2.3,1.6-2.4c1.1-0.1,1.7,0.5,1.9,1.6c0.2,1.1,0.4,2.2,0.5,3.3c0.1,1.1-0.2,2-1.4,2.2
		c-1.2,0.2-1.9-0.4-2.1-1.5C43.6,109.9,43.4,108.7,43.3,107.9z"/>
	<path class="st1" d="M91.8,43.2c1.7-0.1,2.5,0.4,2.6,1.5c0.1,1.1-0.5,1.8-1.6,2c-1,0.2-2.1,0.4-3.1,0.5c-1.2,0.2-2.1-0.2-2.3-1.4
		c-0.2-1.2,0.4-1.9,1.6-2.1C90,43.6,91.2,43.3,91.8,43.2z"/>
	<path class="st1" d="M156.1,111.5c-0.2,0.9-0.5,2.2-0.9,3.4c-0.3,1.1-1.2,1.4-2.2,1.1c-1-0.3-1.4-1.1-1.2-2.1
		c0.2-1.2,0.5-2.4,0.8-3.6c0.3-1.1,1-1.6,2.1-1.3C155.8,109.2,156.3,110,156.1,111.5z"/>
	<path class="st1" d="M130.7,51.9c0.9,0,4.4,2.4,4.7,3.2c0.2,0.8,0.1,1.5-0.5,2c-0.6,0.5-1.4,0.6-2,0.2c-1.1-0.7-2.3-1.5-3.3-2.4
		c-0.6-0.5-0.7-1.3-0.4-2C129.4,52.3,129.9,52,130.7,51.9z"/>
	<path class="st1" d="M156.7,91.9c0.1,1.5-0.5,2.2-1.5,2.4c-1.1,0.1-1.8-0.4-2-1.5c-0.2-1.1-0.4-2.3-0.6-3.4c-0.2-1.1,0.3-2,1.4-2.2
		c1.1-0.2,1.9,0.4,2.1,1.6C156.4,89.9,156.6,91.1,156.7,91.9z"/>
	<path class="st1" d="M108.8,117.8c-7.3,0.1-13.7-2.4-19.5-6.7c-1.8-1.3-3.5-2.7-5.2-4c-1.2-0.9-1.4-2-0.7-2.9
		c0.7-0.9,1.8-0.9,2.9,0.1c2.2,1.8,4.5,3.6,6.9,5.2c4.9,3.2,10.4,4.8,16.3,4.8c0.7,0,1.5,0,2.2,0c1,0,1.7,0.6,1.8,1.6
		c0.1,1.1-0.5,1.8-1.6,1.9C110.8,117.8,109.8,117.8,108.8,117.8z"/>
</g>
</svg>
