<?xml version="1.0" encoding="utf-8"?>
<!-- Generator: Adobe Illustrator 26.0.1, SVG Export Plug-In . SVG Version: 6.00 Build 0)  -->
<svg version="1.1" id="Layer_1" xmlns="http://www.w3.org/2000/svg" xmlns:xlink="http://www.w3.org/1999/xlink" x="0px" y="0px"
	 viewBox="0 0 200 200" style="enable-background:new 0 0 200 200;" xml:space="preserve">
<style type="text/css">
	.st0{fill:#F0F7FF;}
	.st1{fill:#3168B2;}
</style>
<rect x="-1469.6" y="-70.9" class="st0" width="1924.8" height="341.1"/>
<g>
	<path class="st1" d="M162.3,136.7c-0.6,0.8-1.5,0.9-2.4,0.9c-35.1,0-70.2,0-105.3,0c-2,0-2.4-0.4-2.4-2.4c0-1.3,0-2.6,0-3.9
		c0-2.2,1.4-3.6,3.6-3.8c0.3,0,0.6,0,1,0c10.5,0,20.9,0,31.4,0c0.4,0,0.8,0,1.2,0c-6.1-2.8-11.6-6.4-16.2-11.2
		c-4.7-4.8-8.2-10.4-10.6-16.8c-0.4,1-0.6,1.8-1,2.6c-0.4,1-1.2,1.4-2.1,1c-0.9-0.3-1.3-1.1-1-2.1c0.8-2.4,1.7-4.9,2.6-7.3
		c0.4-1,1.3-1.3,2.2-0.9c2.1,1,4.3,2,6.4,3c1,0.5,1.3,1.4,0.8,2.2c-0.4,0.8-1.3,1.1-2.3,0.6c-0.9-0.4-1.9-0.9-2.8-1.3
		c3.7,12.7,17.2,27.5,36.6,29.7c24.5,2.7,42.1-13.6,47.2-29.7c-1,0.5-1.9,0.9-2.8,1.3c-1.1,0.5-2,0.2-2.4-0.7
		c-0.4-0.9,0-1.7,1.1-2.2c2-1,3.9-1.9,5.9-2.8c1.3-0.6,2.1-0.3,2.7,1.1c0.8,2.2,1.6,4.4,2.3,6.6c0.4,1.2,0.1,2-0.9,2.4
		c-0.9,0.3-1.7-0.1-2.2-1.3c-0.3-0.7-0.5-1.4-0.8-2.3c-5.2,13-14.1,22.3-27.2,27.9c0.6,0,1,0.1,1.4,0.1c10.5,0,20.9,0,31.4,0
		c2.2,0,3.8,0.6,4.6,2.8C162.3,132.4,162.3,134.6,162.3,136.7z M107.1,134.4c16.6,0,33.1,0,49.7,0c2.3,0,2.3,0,2.3-2.3
		c0-1.4,0-1.4-1.4-1.4c-33.3,0-66.5,0-99.8,0c-2.6,0-2.5,0-2.6,2.6c0,0.9,0.2,1.1,1.1,1.1C73.3,134.4,90.2,134.4,107.1,134.4z"/>
	<path class="st1" d="M162.3,152c-0.6,0.8-1.4,1-2.4,1c-35.1,0-70.2,0-105.4,0c-0.3,0-0.5,0-0.8,0c-1-0.1-1.7-0.7-1.7-1.6
		c0-0.9,0.7-1.6,1.8-1.6c0.2,0,0.4,0,0.6,0c35.1,0,70.2,0,105.4,0c1,0,1.8,0.2,2.4,1C162.3,151.1,162.3,151.6,162.3,152z"/>
	<path class="st1" d="M107.2,51.4c-1.8,5.1-4.4,9.5-7.4,13.7c-0.2,0.2-0.3,0.5-0.5,0.7c-0.6,0.6-1.4,0.8-2.1,0.2
		c-0.7-0.5-0.9-1.3-0.4-2.1c0.7-1.1,1.5-2.2,2.2-3.3c2.8-4.4,5.2-8.9,6.2-14.1c0.2-1.2,1-1.8,2.1-1.8c1,0,1.8,0.5,2,1.7
		c1.3,6.8,4.9,12.5,8.9,18.1c3.3,4.7,7,9.1,9.9,14.1c2.6,4.5,4.3,9.2,4,14.6c-0.6,10.7-8.5,20.3-19,22.7
		c-14.1,3.3-27.7-5.7-30.3-19.9c-1.1-6.1,0.4-11.6,3.4-16.9c1.8-3.1,3.9-6.1,6.1-9c0.7-1,1.6-1.1,2.4-0.5c0.8,0.6,0.8,1.5,0.1,2.5
		c-2.4,3.4-4.8,6.8-6.8,10.5c-7,13.3,2.3,28.9,16.5,30.6c13.6,1.7,25.4-9.6,24.2-23.2c-0.3-3.4-1.7-6.4-3.3-9.3
		c-2.6-4.5-5.8-8.5-8.8-12.7c-3.3-4.5-6.5-9.2-8.6-14.4C107.8,52.8,107.5,52.3,107.2,51.4z"/>
	<path class="st1" d="M123.4,92.5c-0.4,8.4-7.4,15.3-15.7,15.4c-1.3,0-2.1-0.5-2.1-1.6c0-1,0.7-1.6,2.1-1.7
		c6.7-0.2,12.2-5.6,12.5-12.2c0.1-1.6,0.6-2.4,1.7-2.4C123,90.1,123.5,90.9,123.4,92.5z"/>
	<path class="st1" d="M62.9,140.2c0.6,0,1.2,0.4,1.4,1.1c0.4,1.3,0.8,2.6,1.1,3.9c0.2,1-0.3,1.8-1.1,2c-0.8,0.2-1.7-0.3-2-1.2
		c-0.4-1.3-0.7-2.5-1-3.8C61.1,141.1,61.8,140.2,62.9,140.2z"/>
	<path class="st1" d="M90.6,145.4c-0.1,1-0.5,1.6-1.3,1.8c-0.8,0.2-1.5-0.2-1.7-0.9c-0.5-1.4-0.9-2.9-1.2-4.3
		c-0.2-0.9,0.3-1.5,1.1-1.7c0.8-0.2,1.5,0,1.8,0.7C89.8,142.5,90.2,144,90.6,145.4z"/>
	<path class="st1" d="M128.2,145.5c0,1-0.5,1.5-1.2,1.7c-0.8,0.2-1.5-0.1-1.8-0.9c-0.5-1.5-0.9-2.9-1.2-4.4
		c-0.2-0.8,0.3-1.4,1.1-1.7c0.8-0.3,1.5-0.1,1.8,0.7C127.5,142.4,127.8,144.1,128.2,145.5z"/>
	<path class="st1" d="M138.2,140.2c0.6,0.1,1.1,0.4,1.3,1.2c0.4,1.3,0.7,2.5,1,3.8c0.2,1-0.2,1.8-1.1,2c-0.8,0.2-1.7-0.2-2-1.2
		c-0.4-1.3-0.8-2.5-1-3.8C136.2,141,137,140.1,138.2,140.2z"/>
	<path class="st1" d="M153.2,145.4c-0.1,1-0.5,1.6-1.3,1.8c-0.8,0.2-1.5-0.1-1.8-0.9c-0.5-1.5-0.9-2.9-1.2-4.4
		c-0.2-0.9,0.4-1.5,1.2-1.7c0.8-0.2,1.5,0.1,1.8,0.8C152.5,142.5,152.8,144.1,153.2,145.4z"/>
	<path class="st1" d="M75.5,140.2c0.7,0,1.2,0.4,1.4,1.2c0.4,1.3,0.7,2.5,1,3.8c0.2,1-0.2,1.8-1.1,2c-0.8,0.2-1.7-0.2-2-1.2
		c-0.4-1.3-0.8-2.5-1-3.8C73.6,141.1,74.3,140.2,75.5,140.2z"/>
	<path class="st1" d="M100.6,140.2c0.7,0,1.2,0.5,1.4,1.3c0.4,1.3,0.7,2.5,1,3.8c0.2,0.9-0.3,1.7-1.1,1.9c-0.8,0.3-1.7-0.1-2-1
		c-0.4-1.4-0.8-2.7-1.1-4.1C98.6,141,99.5,140.1,100.6,140.2z"/>
	<path class="st1" d="M115.7,145.5c0,1-0.5,1.6-1.3,1.7c-0.8,0.2-1.5-0.2-1.7-0.9c-0.5-1.4-0.9-2.9-1.2-4.4
		c-0.2-0.8,0.3-1.4,1.1-1.6c0.8-0.3,1.5,0,1.8,0.7C115,142.4,115.2,144,115.7,145.5z"/>
	<path class="st1" d="M107.1,134.4c-16.9,0-33.8,0-50.7,0c-0.9,0-1.1-0.2-1.1-1.1c0.1-2.6,0-2.6,2.6-2.6c33.3,0,66.5,0,99.8,0
		c1.4,0,1.4,0,1.4,1.4c0,2.3,0,2.3-2.3,2.3C140.3,134.4,123.7,134.4,107.1,134.4z"/>
</g>
</svg>
