<?xml version="1.0" encoding="utf-8"?>
<!-- Generator: Adobe Illustrator 26.0.1, SVG Export Plug-In . SVG Version: 6.00 Build 0)  -->
<svg version="1.1" id="Layer_1" xmlns="http://www.w3.org/2000/svg" xmlns:xlink="http://www.w3.org/1999/xlink" x="0px" y="0px"
	 viewBox="0 0 200 200" style="enable-background:new 0 0 200 200;" xml:space="preserve">
<style type="text/css">
	.st0{fill:#F0F7FF;}
	.st1{fill:#3168B2;}
</style>
<rect x="-369.6" y="-70.9" class="st0" width="1924.8" height="341.1"/>
<path class="st1" d="M60.3,125.4c0.1-0.1,0.2-0.2,0.3-0.3c0.2-0.3,0.4-0.5,0.7-0.8c0.1-0.1,0.1-0.2,0-0.3c-0.7-1-1.2-2.1-1.8-3.2
	c0-0.1,0-0.2-0.1-0.2c-0.2-0.3-0.3-0.6-0.5-0.9c0,0,0-0.1-0.1-0.1c-0.2-0.3-0.3-0.6-0.4-0.9c-0.2-0.5-0.4-1-0.7-1.5
	c0-0.2-0.1-0.4-0.2-0.5c-0.1-0.4-0.2-0.7-0.4-1.1c-0.2-0.5-0.4-1.1-0.6-1.6c0.1-0.1,0-0.1-0.1-0.1c-0.1-0.6-0.3-1.2-0.5-1.7
	c0-0.2,0-0.4-0.1-0.6c0-0.4-0.1-0.7-0.3-1.1c-0.1-0.2-0.2-0.2-0.3-0.1c-0.2,0-0.4,0-0.6,0c0,0,0-0.1,0-0.1c-0.8-0.1-1.6-0.2-2.3-0.2
	c-0.7-0.1-1.4-0.1-2.2-0.2c0-0.1-0.1-0.1-0.2-0.1c-0.5,0-0.9-0.1-1.4-0.1c-0.3,0-0.6,0-0.9-0.1c-0.9-0.1-1.8-0.2-2.7-0.2
	c-0.5,0-1.1,0-1.6-0.4c-0.4-0.3-0.7-0.7-0.7-1.2c0-0.7,0-1.4,0-2c0-4.2,0-8.4,0-12.6c0-1.6,0.8-2.1,2.1-2.2c1.7-0.1,3.4-0.3,5.1-0.4
	c0.1,0,0.2,0,0.3-0.1c0.1,0,0.3,0,0.4,0c1.3-0.1,2.5-0.2,3.8-0.4c0.3,0,0.7-0.1,1-0.1c0.2,0,0.3-0.1,0.4-0.2
	c0.1-0.3,0.1-0.6,0.2-0.9c0.1-0.2,0.2-0.4,0.1-0.6c0.2-0.3,0.2-0.6,0.3-0.9c0.1-0.3,0.3-0.5,0.2-0.8c0,0,0.1-0.1,0.1-0.2
	c0.2-0.1,0.1-0.2,0.1-0.3c0.3-0.8,0.6-1.6,0.8-2.4c0.1-0.1,0.2-0.3,0.2-0.5c0.3-0.7,0.6-1.4,0.9-2.2c0.1-0.1,0.2-0.2,0.1-0.3
	c0.2-0.2,0.3-0.6,0.4-0.9c0.2,0,0.2-0.2,0.2-0.3c0.5-0.8,0.9-1.6,1.4-2.5c0.2-0.3,0.5-0.6,0.5-0.9c-0.1-0.3-0.4-0.6-0.6-0.8
	c0,0,0,0-0.1,0c-0.1-0.1-0.2-0.3-0.3-0.4c-0.2-0.3-0.4-0.5-0.6-0.8c-0.3-0.4-0.7-0.8-1.1-1.2c-0.4-0.4-0.7-0.8-1-1.2
	c0,0,0-0.1-0.1-0.1c-0.5-0.7-1.1-1.4-1.7-2.1c0-0.1-0.1-0.1-0.1-0.2c-0.3-0.3-0.6-0.8-0.9-1.1c0-0.1,0-0.1-0.1-0.1
	c-0.1-0.2-0.3-0.4-0.5-0.6c-0.3-0.3-0.5-0.8-0.6-1.2c0-0.1,0-0.2,0-0.3c0.1-0.1,0.1-0.2,0-0.3c0,0,0,0,0-0.1
	c0.2-0.3,0.3-0.6,0.5-0.8c3.1-3.1,6.2-6.1,9.2-9.2c0.5-0.5,0.9-1,1.4-1.4c0.2-0.2,0.6-0.2,0.8-0.4c0.1-0.1,0.2,0.1,0.3,0
	c0.5,0,0.9,0.2,1.2,0.6c0.2,0.2,0.4,0.4,0.6,0.5c0,0,0.1,0.1,0.1,0.1c0.3,0.3,0.6,0.5,0.9,0.8c0.1,0.1,0.2,0.2,0.4,0.3
	c0.3,0.3,0.7,0.6,1.1,0.9c0.3,0.3,0.6,0.5,0.9,0.8c0,0,0,0,0.1,0.1c0.4,0.3,0.7,0.7,1.1,0.9c0,0.1,0.1,0.1,0.2,0.2
	c0.4,0.4,1,0.8,1.4,1.2c0,0,0.1,0.1,0.1,0.1c0.1,0.2,0.3,0.3,0.5,0.4c0,0,0.1,0.1,0.1,0.1c0.2,0.2,0.5,0.4,0.7,0.6
	c0.2,0.1,0.3,0.2,0.5,0c0.5-0.3,1-0.7,1.6-1c0.5-0.3,1-0.5,1.5-0.8c0.1,0,0.2,0,0.3-0.1c0.3-0.1,0.6-0.2,0.8-0.4
	c0.2,0.1,0.2-0.1,0.4-0.1c0.8-0.3,1.5-0.7,2.3-1c0.2,0,0.4-0.1,0.5-0.2c0.2-0.1,0.4-0.1,0.7-0.2c0.1,0,0.3-0.1,0.3-0.2
	c0,0,0,0,0.1,0c0.6,0,1.1-0.3,1.6-0.5c0.1,0,0.1,0,0.2,0c0.6-0.2,1.2-0.3,1.8-0.5c0.2,0,0.3,0,0.5-0.1c0.3-0.1,0.6-0.1,0.9-0.2
	c0.2-0.1,0.3-0.2,0.2-0.4c0-0.2,0-0.4,0-0.6c0.2-0.1,0-0.2,0-0.3c0-0.1,0-0.2,0-0.3c0,0,0.1-0.1,0.1-0.1c-0.1-0.5,0.1-0.9,0.1-1.4
	c0-0.1,0-0.1,0-0.2c0.1-0.7,0.2-1.4,0.2-2.2c0.1-0.1,0.1-0.1,0.1-0.3c0-0.9,0.2-1.9,0.2-2.8c0-0.7,0.1-1.5,0.2-2.2
	c0.1-0.5,0-1,0.4-1.5c0.4-0.5,0.9-0.8,1.6-0.8c3.5,0,7,0,10.5,0c1.4,0,2.7,0,4.1,0c1,0,1.9,0.7,1.9,1.8c0.1,1.6,0.3,3.1,0.4,4.6
	c0,0.4,0.1,0.8,0.1,1.2c0.1,0.9,0.1,1.8,0.2,2.7c0,0.3,0,0.6,0.1,0.9c0,0.1,0,0.2,0,0.3c0,0.1,0,0.3,0,0.4c0,0.2,0,0.5,0,0.7
	c0,0.3,0.2,0.4,0.4,0.4c0.3,0,0.5,0.1,0.8,0.2c0.2,0,0.3,0.1,0.5,0.1c0.6,0.2,1.2,0.3,1.8,0.5c0.1,0,0.1,0,0.2,0.1
	c0.9,0.3,1.8,0.6,2.7,1c0.1,0,0.2,0.1,0.4,0.1c0.8,0.4,1.6,0.7,2.4,1.1c0.1,0,0.1,0.1,0.2,0.1c0.3,0.2,0.7,0.3,1,0.5
	c0.1,0.1,0.1,0.1,0.2,0.1c0.6,0.3,1.1,0.6,1.7,0.9c0.4,0.2,0.8,0.5,1.3,0.8c0.1,0.1,0.2,0.2,0.3,0.1c0.3-0.2,0.6-0.3,0.8-0.7
	c0.1,0,0.2-0.1,0.3-0.2c0.2-0.1,0.3-0.2,0.4-0.4c0.1-0.1,0.2,0,0.2-0.1c0.5-0.4,0.9-0.8,1.4-1.1c0.1-0.1,0.1-0.1,0.2-0.2
	c0.3-0.4,0.8-0.6,1.1-1c0,0,0.1,0,0.1-0.1c0.7-0.5,1.3-1.1,2-1.6c0.1-0.1,0.3-0.2,0.4-0.3c0.3-0.3,0.7-0.5,0.9-0.8
	c0.1-0.1,0.2,0,0.2-0.2c0.5-0.4,1-0.9,1.7-0.9c0.1,0,0.3,0,0.4,0c0.4,0.1,0.8,0.3,1.1,0.6c3.4,3.4,6.8,6.8,10.2,10.2
	c0.4,0.4,0.6,0.8,0.7,1.3c0,0,0,0.1,0,0.1c0,0.7-0.5,1.2-0.9,1.7c-0.1,0-0.1,0.1-0.1,0.2c-0.1,0.1-0.2,0.2-0.3,0.3
	c-0.5,0.6-1.1,1.3-1.6,1.9c-0.3,0.3-0.6,0.6-0.8,1c-0.1,0.1-0.2,0.2-0.3,0.3c-0.3,0.4-0.6,0.8-1,1.2c-0.5,0.6-1.1,1.2-1.6,1.9
	c-0.1,0-0.1,0.1-0.1,0.1c-0.3,0.3-0.6,0.6-0.8,1c-0.1,0.1-0.1,0.2,0,0.3c0.7,1,1.2,2.1,1.8,3.2c0,0.1,0,0.2,0.1,0.2
	c0.2,0.4,0.3,0.7,0.5,1.1c0,0.1,0.1,0.1,0.1,0.2c0.3,0.7,0.6,1.4,0.9,2.1c0.1,0.3,0.2,0.5,0.3,0.7c0.1,0.3,0.2,0.6,0.3,0.9
	c0,0,0,0.1,0.1,0.1c0.2,0.5,0.3,1,0.5,1.5c0,0.1,0,0.1,0.1,0.2c0.2,0.6,0.3,1.1,0.5,1.7c0,0.2,0.1,0.3,0.1,0.5
	c0.1,0.3,0.2,0.6,0.2,0.8c0,0.3,0.2,0.4,0.4,0.4c0.2,0,0.5,0,0.7,0c0,0.1,0.1,0,0.2,0c0,0,0.1,0,0.1,0c0.7,0.1,1.4,0.2,2.1,0.2
	c0.7,0,1.4,0.2,2.1,0.2c0.4,0.1,0.7,0.1,1.1,0.1c1.6,0.2,3.2,0.3,4.8,0.4c0.8,0.1,1.5,0.9,1.5,1.7c0,5,0,9.9,0,14.9
	c0,0.8-0.6,1.6-1.5,1.7c-1,0.1-1.9,0.2-2.9,0.3c-0.7,0-1.3,0.1-2,0.2c-0.5,0.1-1,0-1.5,0.1c-0.8,0.2-1.6,0.1-2.4,0.2
	c-0.2,0-0.2,0-0.2-0.2c0-1.1,0-2.2,0-3.2c0-0.2,0.1-0.2,0.3-0.2c1.7-0.1,3.3-0.3,5-0.4c0.5,0,0.9-0.1,1.4-0.1c0.2,0,0.2-0.1,0.2-0.2
	c0-0.2,0-0.3,0-0.5c0-3.4,0-6.9,0-10.3c0-0.4-0.1-0.5-0.5-0.5c-0.7,0-1.4-0.1-2-0.1c-0.8-0.1-1.6-0.1-2.4-0.2
	c-0.6-0.1-1.2-0.2-1.8-0.2c-0.7,0-1.3-0.2-2-0.1c0,0-0.1,0-0.1,0c-0.1,0-0.2-0.2-0.3-0.1c-0.3,0-0.7-0.2-1-0.1c-0.1,0-0.1,0-0.2,0
	c-0.1,0-0.2-0.1-0.3-0.1c-0.6,0.1-1.1-0.2-1.5-0.6c-0.1-0.1-0.2-0.2-0.3-0.3c-0.2-0.5-0.2-1-0.4-1.4c-0.1-0.2-0.1-0.5-0.2-0.7
	c-0.1-0.6-0.2-1.1-0.4-1.7c0-0.1,0-0.1,0-0.2c-0.2-0.5-0.3-1-0.5-1.4c0-0.1,0-0.2-0.1-0.2c0-0.1,0-0.2-0.1-0.2c0,0,0,0,0-0.1
	c-0.1-0.5-0.2-0.9-0.5-1.3c0-0.1,0-0.2-0.1-0.2c-0.1-0.4-0.3-0.8-0.5-1.1c0-0.2-0.1-0.3-0.2-0.4c-0.1-0.3-0.2-0.5-0.4-0.8
	c0-0.2-0.1-0.4-0.2-0.5c0-0.2-0.1-0.4-0.3-0.6c0-0.2-0.1-0.4-0.3-0.6c-0.1-0.3-0.2-0.6-0.4-0.8c0-0.1-0.1-0.2-0.1-0.3
	c-0.1-0.3-0.3-0.6-0.5-0.9c0-0.1-0.1-0.2-0.2-0.2c0-0.3-0.2-0.5-0.4-0.7c0-0.1,0-0.1-0.1-0.1c-0.1-0.2-0.2-0.5-0.4-0.6
	c0-0.1-0.1-0.2-0.2-0.3c-0.2-0.3-0.4-0.6-0.5-1c0-0.3,0-0.5,0-0.8c0.1-0.4,0.3-0.7,0.6-1c0.2-0.2,0.4-0.3,0.4-0.6c0,0,0.1,0,0.1-0.1
	c0.2-0.1,0.3-0.3,0.4-0.5c0.1,0,0.1-0.1,0.1-0.2c0,0,0.1,0,0.1,0c0.6-0.7,1.2-1.3,1.7-2.1c0.2-0.2,0.4-0.3,0.5-0.6
	c0,0,0.1-0.1,0.1-0.1c0.1-0.1,0.2-0.2,0.3-0.4c0.1-0.1,0.2-0.2,0.2-0.3c1-1,1.9-2.2,2.8-3.3c0.1-0.1,0.1-0.2,0-0.3
	c-0.2-0.2-0.5-0.5-0.7-0.7c-0.8-0.7-1.6-1.5-2.3-2.3c-0.6-0.6-1.2-1.2-1.8-1.8c-0.6-0.7-1.3-1.3-1.9-1.9c-0.3-0.4-0.8-0.6-1.1-1
	c-0.1-0.2-0.3-0.1-0.4,0c-0.4,0.4-0.8,0.8-1.3,1.1c-0.6,0.4-1.1,1-1.7,1.4c-0.1,0.1-0.2,0.1-0.3,0.2c-0.3,0.2-0.6,0.5-0.9,0.7
	c-0.8,0.7-1.6,1.3-2.4,2c-0.1,0-0.1,0-0.1,0.1c-0.2,0.2-0.4,0.3-0.6,0.5c-0.6,0.4-1,1-1.7,1.2c-0.9,0.2-1.5-0.3-2.2-0.7
	c-0.7-0.5-1.5-0.9-2.2-1.3c-1.1-0.6-2.2-1.2-3.4-1.7c-0.7-0.3-1.5-0.6-2.2-0.9c-0.8-0.3-1.6-0.6-2.4-0.8c-1.1-0.3-2.1-0.6-3.2-0.8
	c-0.5-0.1-1.1-0.1-1.6-0.5c-0.5-0.4-0.7-0.9-0.8-1.5c0-0.6-0.1-1.2-0.2-1.8c-0.1-0.3,0-0.6-0.1-0.9c-0.1-0.4-0.1-0.8-0.1-1.2
	c0-0.3-0.1-0.6-0.1-0.9c-0.1-0.5-0.1-1-0.1-1.5c-0.1-0.6-0.1-1.2-0.2-1.9c-0.1-0.3-0.1-0.7-0.1-1c0-0.5-0.1-0.9-0.1-1.4
	c0-0.2-0.1-0.3-0.3-0.3c-3.6,0-7.3,0-10.9,0c-0.2,0-0.3,0.1-0.3,0.3c-0.1,1.6-0.3,3.2-0.4,4.8c-0.2,2-0.4,4-0.6,6.1
	c-0.1,0.7-0.6,1.4-1.5,1.6c-0.6,0.1-1.2,0.3-1.8,0.4c-0.8,0.2-1.5,0.4-2.2,0.6c-0.7,0.2-1.4,0.4-2,0.7c-0.7,0.3-1.5,0.5-2.2,0.9
	c-0.6,0.3-1.3,0.6-1.9,0.9c-0.5,0.3-1.1,0.5-1.6,0.8c-0.7,0.4-1.4,0.8-2,1.2c-0.8,0.4-1.4,1.2-2.5,1c-0.4-0.1-0.7-0.2-0.9-0.4
	c-1.1-0.9-2.2-1.8-3.4-2.8c-0.8-0.6-1.6-1.2-2.3-2c0-0.1-0.1-0.1-0.2-0.2c-0.7-0.5-1.3-1.1-2-1.6C66,58,66,58,65.4,58.6
	c-0.7,0.7-1.3,1.4-2,2c-1.1,1.1-2.3,2.3-3.4,3.4c-0.6,0.6-1.2,1.3-1.9,1.9c-0.1,0.1-0.1,0.2,0,0.4c1.2,1.4,2.4,2.9,3.7,4.4
	c1,1.2,1.9,2.3,2.9,3.5c0.1,0.2,0.3,0.4,0.4,0.5c0.5,0.7,0.4,1.5,0,2c-1.1,1.7-2.1,3.4-3,5.3c-0.3,0.7-0.6,1.4-0.9,2.1
	c-0.9,2-1.5,4.1-2,6.1c-0.1,0.5-0.2,1-0.3,1.5c-0.1,0.8-0.9,1.5-1.8,1.6c-1.1,0.1-2.2,0.1-3.2,0.3c-0.5,0.1-1,0-1.5,0.1
	c-0.9,0.2-1.9,0-2.8,0.3c-0.2,0.1-0.4,0-0.6,0c-0.9,0.1-1.8,0.1-2.6,0.2c-0.2,0-0.2,0.1-0.2,0.2c0,0.2,0,0.4,0,0.5
	c0,3.4,0,6.9,0,10.3c0,0.3,0,0.4,0.4,0.4c1.6,0.1,3.1,0.3,4.6,0.4c2,0.2,4,0.4,6.1,0.6c0.8,0.1,1.4,0.7,1.5,1.5
	c0.5,2.5,1.2,5,2.2,7.4c0.7,1.8,1.6,3.5,2.5,5.2c0.5,0.8,1,1.6,1.5,2.4c0.5,0.8,0.5,1.6-0.1,2.3c-0.5,0.6-1,1.1-1.4,1.7
	c-0.4,0.5-0.8,0.9-1.1,1.3c-0.6,0.7-1.2,1.5-1.8,2.2c-0.3,0.4-0.7,0.8-1,1.2c-0.1,0.1-0.1,0.1-0.1,0.2c0,0,0,0.1-0.1,0.1
	c-0.1,0-0.1,0.1-0.2,0.2c-0.1,0.1-0.1,0.1-0.2,0.2c-0.3,0.4-0.6,0.7-0.9,1.1c-0.1,0.1-0.1,0.2,0,0.3c1,1,2,2,3.1,3
	c1,1,2.1,2.1,3.1,3.1c0.5,0.5,1.1,1.1,1.6,1.6c0.1,0.2,0.3,0.1,0.4,0c0.3-0.2,0.5-0.4,0.8-0.7c0.5-0.5,1.1-0.8,1.6-1.3
	c0.1,0,0.2-0.1,0.2-0.2c0.3-0.4,0.7-0.6,1.1-1c0.4-0.3,0.8-0.7,1.2-1c0,0,0,0,0,0c0.6-0.5,1.1-0.9,1.7-1.4c0.6-0.5,1.2-1,1.8-1.5
	c0.6-0.5,1.5-0.4,2.1-0.1c1.7,1.1,3.4,2.1,5.3,3c1.5,0.7,3.1,1.4,4.7,1.9c1.7,0.5,3.4,1,5.1,1.4c0.9,0.2,1.4,0.9,1.5,1.7
	c0.1,1.4,0.3,2.8,0.4,4.2c0.1,1.2,0.2,2.4,0.3,3.6c0.1,1,0.2,1.9,0.3,2.9c0,0.2,0.2,0.2,0.3,0.2c1.1,0,2.2,0,3.4,0
	c2.5,0,4.9,0,7.4,0c0.3,0,0.4-0.1,0.4-0.3c0-0.8,0.1-1.5,0.2-2.2c0.1-0.6,0.1-1.3,0.2-1.9c0.1-0.6,0.1-1.2,0.1-1.8
	c0-0.6,0.1-1.2,0.2-1.9c0.2-0.2,0-0.4,0-0.7c0,0,0-0.1,0-0.1c0,0,0.1-0.1,0.1-0.1c0-0.5,0.1-1.1,0.1-1.6c0-0.7,0.3-1.2,0.7-1.6
	c0,0,0.1,0,0.1-0.1c0.5-0.3,1-0.3,1.5-0.5c0.2,0,0.4,0,0.6-0.1c0.1,0,0.2,0,0.3-0.1c1.3-0.3,2.5-0.7,3.8-1.2c0.9-0.3,1.8-0.7,2.6-1
	c0.1,0,0.2-0.1,0.3-0.1c0.4-0.1,0.8-0.3,1.2-0.5c0.3-0.2,0.5-0.2,0.7,0c0.8,0.8,1.6,1.6,2.4,2.4c0,0,0,0,0,0.1
	c-0.1,0.1-0.2,0.1-0.3,0.2c-0.1,0-0.1,0-0.2,0c-0.4,0.2-0.7,0.3-1,0.6l0,0l0,0c-0.4,0-0.6,0.3-0.9,0.4c-0.6,0.2-1.1,0.5-1.7,0.7
	c-0.1,0.1-0.4,0-0.4,0.2c-0.1,0-0.2,0-0.3,0.1c-0.4,0.2-0.8,0.3-1.2,0.4c-0.8,0.3-1.6,0.5-2.4,0.8c-0.3,0.1-0.6,0.1-0.9,0.3
	c-0.1,0-0.2,0-0.3,0.1c-0.3,0-0.7,0.2-1,0.2c-0.3,0.1-0.4,0.2-0.4,0.5c0,0.2,0,0.3,0,0.5c0,0.1-0.1,0.2-0.1,0.3
	c-0.1,0.7-0.2,1.5-0.2,2.2c-0.1,0.7-0.1,1.3-0.1,2c-0.2,1-0.2,2-0.3,2.9c-0.1,1-0.2,2.1-0.3,3.1c-0.1,0.8-0.8,1.5-1.8,1.5
	c-3.2,0-6.4,0-9.5,0c-1.8,0-3.7,0-5.5,0c-0.9,0-1.5-1-1.6-1.7c0-0.6-0.1-1.2-0.2-1.9c0-0.3,0-0.6-0.1-0.9c0-0.4-0.1-0.8-0.1-1.3
	c0-0.3-0.1-0.6-0.1-0.8c0-0.2-0.1-0.5,0-0.7c0-0.1,0-0.2-0.1-0.3c0.1-0.4-0.1-0.9-0.1-1.3c0-0.3,0-0.6-0.1-0.8c0-0.1,0-0.1,0-0.2
	c0.1-0.5-0.1-0.9-0.1-1.4c0,0-0.1-0.1-0.1-0.1c0-0.1,0-0.2,0-0.3c0-0.1,0.1-0.2,0-0.3c0-0.2,0-0.4,0-0.6c0.1-0.2-0.1-0.3-0.2-0.4
	c-0.3,0-0.5-0.2-0.8-0.2c-0.2-0.1-0.4-0.1-0.7-0.2c-0.6-0.2-1.2-0.3-1.8-0.5c-0.1,0-0.2-0.1-0.3-0.1c-0.7-0.2-1.4-0.5-2-0.7
	c-0.2-0.1-0.4-0.2-0.6-0.2c-0.1-0.1-0.3-0.2-0.5-0.2c-0.7-0.3-1.4-0.6-2.1-0.9c-0.1-0.1-0.2-0.2-0.3-0.1c-0.3-0.2-0.6-0.3-1-0.5
	c-0.1-0.1-0.2-0.1-0.3-0.1c-0.1-0.1-0.2-0.1-0.3-0.2c-0.9-0.5-1.8-1-2.7-1.5c-0.3-0.2-0.4-0.2-0.6,0.1c-0.2,0.2-0.4,0.3-0.6,0.5
	c-0.1,0-0.1,0.1-0.1,0.1c-0.2,0.1-0.3,0.2-0.4,0.4c0,0-0.1,0.1-0.1,0.1c-0.2,0-0.2,0.1-0.3,0.2c-0.2,0.2-0.5,0.4-0.7,0.6
	c-0.6,0.5-1.2,1-1.8,1.5c0,0,0,0-0.1,0.1c-0.7,0.5-1.3,1.1-2,1.7c-0.1,0-0.1,0.1-0.2,0.1c-0.4,0.2-0.7,0.7-1.1,0.9
	c-0.1,0.1-0.2,0.2-0.3,0.2c-0.4,0.4-0.8,0.7-1.4,0.9c0,0-0.1,0-0.1,0c-0.1,0-0.1,0-0.2,0c-0.1,0-0.2,0.1-0.4,0
	c-0.4-0.1-0.8-0.3-1.1-0.6c-0.1-0.1-0.3-0.3-0.4-0.4c-3.3-3.3-6.5-6.5-9.8-9.8c-0.3-0.3-0.5-0.6-0.7-0.9c0,0,0,0,0-0.1
	c0-0.1,0.1-0.2,0-0.3c0-0.1,0-0.2,0-0.3c0.1-0.4,0.2-0.8,0.5-1.1c0.2-0.2,0.4-0.4,0.5-0.7c0.1,0,0.1-0.1,0.1-0.1
	c0.1,0,0.2-0.1,0.2-0.2c0.1,0,0.1-0.1,0.1-0.2c0.2-0.2,0.4-0.5,0.6-0.7c0.1,0,0.1-0.1,0.1-0.2c0.1-0.2,0.2-0.3,0.4-0.5
	c0.4-0.5,0.9-1,1.3-1.6c0,0,0.1-0.1,0.1-0.1c0.5-0.4,0.8-1,1.2-1.4C59.4,126.6,59.8,126,60.3,125.4z"/>
<path class="st1" d="M144.2,132.5c0.9,0,1.7,0,2.6,0c2.6,0,5.3,0,7.9,0c0.1,0,0.3,0,0.4,0c0,0,0.1,0,0.1,0c0,0,0,0.1,0,0.1
	c-0.3,0.3-0.6,0.6-0.9,0.9c-0.6,0.5-1.1,1.1-1.7,1.7c-0.6,0.6-1.2,1.2-1.8,1.8c-0.5,0.5-1,1-1.5,1.5c-0.6,0.6-1.3,1.3-1.9,1.9
	c-0.9,0.9-1.8,1.8-2.7,2.7c-0.8,0.8-1.6,1.7-2.5,2.5c-0.9,0.9-1.8,1.7-2.6,2.6c-1.1,1.1-2.2,2.3-3.4,3.4c-0.1,0.1-0.2,0.1-0.3,0.1
	c-0.2-0.2-0.3-0.3-0.5-0.5c0,0,0-0.1-0.1-0.1c-0.1-0.2-0.3-0.3-0.5-0.5c0,0,0,0,0,0c-0.2-0.2-0.4-0.4-0.6-0.6c0,0,0-0.1-0.1-0.1
	c-0.1-0.2-0.3-0.3-0.5-0.5c0,0,0,0,0,0c-0.2-0.2-0.4-0.4-0.6-0.6c0,0,0-0.1-0.1-0.1c-0.1-0.2-0.3-0.3-0.5-0.5c0,0,0,0,0,0
	c-0.2-0.2-0.4-0.4-0.6-0.6c0,0,0-0.1-0.1-0.1c-0.1-0.2-0.3-0.3-0.5-0.5c0,0,0,0,0,0c-0.2-0.2-0.4-0.4-0.6-0.6c0,0,0-0.1-0.1-0.1
	c-0.1-0.2-0.3-0.3-0.5-0.5c0,0,0,0,0,0c-0.2-0.2-0.4-0.4-0.6-0.6c0,0,0-0.1-0.1-0.1c-0.1-0.2-0.3-0.3-0.5-0.5c0,0,0,0,0,0
	c-0.2-0.2-0.4-0.4-0.6-0.6c0,0,0-0.1-0.1-0.1c-0.1-0.2-0.3-0.3-0.5-0.5c0,0,0,0,0,0c-0.2-0.2-0.4-0.4-0.6-0.6c0,0,0-0.1-0.1-0.1
	c-0.1-0.2-0.3-0.3-0.5-0.5c0,0,0,0,0,0c-0.2-0.2-0.4-0.4-0.6-0.6c0,0,0-0.1-0.1-0.1c-0.1-0.2-0.3-0.3-0.5-0.5c0,0,0,0,0,0
	c-0.2-0.2-0.4-0.4-0.6-0.6c0,0,0-0.1-0.1-0.1c-0.1-0.2-0.3-0.3-0.5-0.5c0,0,0,0,0,0c-0.2-0.2-0.4-0.4-0.6-0.6c0,0,0-0.1-0.1-0.1
	c-0.1-0.2-0.3-0.3-0.5-0.5c0,0,0,0,0,0c-0.2-0.2-0.4-0.4-0.6-0.6c0,0,0-0.1-0.1-0.1c-0.1-0.2-0.3-0.3-0.5-0.5c0,0,0,0,0,0
	c-0.2-0.2-0.4-0.4-0.6-0.6c0,0,0-0.1-0.1-0.1c-0.3-0.4-0.7-0.8-1.1-1.2l0,0c-0.4-0.4-0.7-0.8-1.2-1.2l0,0c-0.4-0.4-0.7-0.8-1.2-1.2
	l0,0c-0.1-0.2-0.3-0.3-0.5-0.5c0,0,0,0,0,0c-0.1-0.1-0.1-0.1-0.2-0.2c0-0.1-0.1-0.2-0.2-0.2c0-0.1-0.2-0.1-0.2-0.3
	c0.1-0.1,0.2,0,0.3,0c0.1,0,0.1,0,0.2,0c0.6,0,1.1,0,1.7,0c2.9,0,5.7,0,8.6,0c0.3,0,0.4-0.1,0.4-0.4c0-7.8,0-15.6,0-23.4
	c0-0.3,0.1-0.4,0.4-0.4c4.9,0,9.9,0,14.8,0c0.1,0,0.2,0,0.4,0c0.1,0.1,0,0.3,0,0.5c0,7.7,0,15.4,0,23.1c0,0.2,0,0.3,0,0.5
	C144.1,132.5,144.1,132.6,144.2,132.5z"/>
<path class="st1" d="M155.2,132.5c0,0-0.1,0-0.1,0c0-0.1,0.1-0.2,0.1-0.2c0-0.2,0.2-0.2,0.3-0.1c0.4,0.2,0.2,0.6,0.2,0.9
	c0,0.2-0.1,0.3-0.3,0.3c-0.1,0-0.3,0-0.3,0.2c0,0.2-0.1,0.3-0.3,0.3c0,0-0.1,0-0.1,0c-0.3,0.1,0,0.5-0.3,0.6c-0.2,0-0.5,0-0.4,0.4
	c0,0.2-0.1,0.1-0.2,0.2c-0.2,0.1-0.4,0.1-0.3,0.4c0,0.2-0.1,0.3-0.3,0.3c-0.1,0-0.3,0-0.3,0.2c0,0.3-0.1,0.4-0.3,0.4
	c-0.2,0-0.3,0.1-0.3,0.3c0,0.2-0.1,0.3-0.3,0.3c-0.1,0-0.3,0-0.3,0.1c0,0.3-0.3,0.3-0.4,0.5c-0.2,0.2-0.3,0.6-0.7,0.7
	c0,0.3-0.1,0.5-0.5,0.5c0,0.4-0.5,0.5-0.6,0.7c-0.1,0.2-0.2,0.4-0.5,0.4c0,0-0.1,0-0.1,0.1c0,0.4-0.3,0.5-0.5,0.6
	c0,0-0.1,0.1-0.1,0.2c0,0.2-0.1,0.3-0.3,0.3c-0.2,0-0.3,0.1-0.3,0.3c0,0.2-0.1,0.3-0.2,0.3c0,0,0,0,0,0c-0.4,0-0.2,0.5-0.4,0.5
	c-0.2,0.1-0.5,0-0.5,0.4c0,0.1-0.1,0.2-0.2,0.2c-0.2,0-0.4,0.1-0.4,0.4c0,0.2-0.1,0.2-0.3,0.2c-0.2,0-0.3,0.1-0.3,0.3
	c0,0.2-0.1,0.3-0.3,0.3c-0.4,0-0.2,0.4-0.4,0.5c-0.2,0.1-0.5,0-0.5,0.4c0,0.1-0.1,0.2-0.2,0.2c-0.2,0-0.3,0.1-0.3,0.3
	c0,0.2-0.1,0.3-0.3,0.2c-0.2,0-0.3,0.1-0.3,0.3c0,0.1,0,0.2,0,0.2c-0.5-0.1-0.4,0.6-0.8,0.7c-0.2,0-0.3,0.1-0.3,0.3
	c0,0.2-0.1,0.3-0.3,0.3c-0.2,0-0.3,0.1-0.3,0.3c0,0.2-0.1,0.3-0.3,0.3c-0.2,0-0.3,0.1-0.3,0.3c0,0.1,0,0.2-0.1,0.2
	c-0.5-0.1-0.4,0.6-0.8,0.6c-0.2,0-0.3,0.1-0.3,0.3c0,0.2-0.1,0.3-0.3,0.3c0,0,0,0-0.1,0c-0.3,0-0.1,0.5-0.4,0.5
	c-0.2,0.1-0.4,0.1-0.5,0.4c-0.1,0.3-0.5,0.5-0.8,0.8c-0.1,0.1-0.4,0.1-0.3,0.4c0,0.1-0.1,0.3-0.2,0.2c-0.2,0-0.5,0.2-0.7-0.2
	c1.1-1.1,2.2-2.3,3.4-3.4c0.9-0.9,1.8-1.7,2.6-2.6c0.8-0.8,1.6-1.7,2.5-2.5c0.9-0.9,1.8-1.8,2.7-2.7c0.6-0.6,1.2-1.3,1.9-1.9
	c0.5-0.5,1-1,1.5-1.5c0.6-0.6,1.2-1.2,1.8-1.8c0.6-0.6,1.1-1.1,1.7-1.7C154.7,133.2,155,132.9,155.2,132.5c0.1,0.1,0.1,0.1,0.1,0
	C155.3,132.5,155.3,132.5,155.2,132.5z"/>
<path class="st1" d="M146.3,65.9c-0.1-0.5-0.3-1-0.7-1.3c-3.4-3.4-6.8-6.8-10.2-10.2c-0.3-0.3-0.7-0.5-1.1-0.6
	c0-0.1,0.1-0.1,0.2-0.1c0.2,0,0.5,0,0.7,0c0.1,0,0.2,0,0.2,0.1c0.1,0.4,0.6,0.5,0.7,0.9c0,0,0,0.1,0,0.1c0.5,0.1,0.5,0.6,0.9,0.8
	c0,0,0.1,0,0.1,0c0.1,0.4,0.6,0.5,0.8,0.8c0,0.1,0.1,0.2,0.2,0.2c0.1,0,0.1,0,0.2,0.1c0.2,0.4,0.6,0.5,0.8,0.8
	c0,0.1,0.1,0.2,0.3,0.2c0.2,0.1,0.3,0.2,0.3,0.4c0,0,0,0.1,0,0.1c0.3,0.1,0.5,0.4,0.7,0.6c0.2,0.2,0.4,0.2,0.5,0.5
	c0.5,0.1,0.5,0.6,0.9,0.7c0,0,0.1,0,0.1,0c0.1,0.4,0.6,0.5,0.8,0.8c0,0.1,0.1,0.2,0.2,0.2c0.1,0,0.1,0,0.2,0.1
	c0.1,0.4,0.6,0.5,0.8,0.8c0,0.1,0.1,0.2,0.2,0.2c0.1,0,0.1,0,0.2,0.1c0.2,0.4,0.6,0.5,0.8,0.8c0,0.1,0.1,0.2,0.3,0.2
	c0.2,0.1,0.3,0.1,0.3,0.4c0,0,0,0.1,0,0.1c0.4,0.1,0.4,0.5,0.7,0.6c0.4,0.2,0.4,0.6,0.4,0.9c0,0.1,0,0.2,0,0.3
	C146.5,65.7,146.5,65.8,146.3,65.9z"/>
<path class="st1" d="M130.6,60.7c0.6-0.5,1.1-1,1.7-1.4c0.5-0.3,0.9-0.8,1.3-1.1c0.1-0.1,0.2-0.2,0.4,0c0.3,0.4,0.7,0.7,1.1,1
	c0.6,0.7,1.3,1.3,1.9,1.9c0.6,0.6,1.2,1.2,1.8,1.8c0.8,0.8,1.5,1.5,2.3,2.3c0.3,0.2,0.5,0.5,0.7,0.7c0.1,0.1,0.2,0.2,0,0.3
	c-0.9,1.1-1.8,2.2-2.8,3.3c-0.2-0.3,0.1-0.6-0.1-0.9c0,0,0.1-0.1,0.2-0.1c0.3,0.2,0.3,0,0.3-0.2c0-0.2,0.1-0.4,0.4-0.3
	c0.1,0,0.3-0.1,0.2-0.3c-0.1-0.2,0-0.3,0.3-0.3c0.2,0,0.3-0.1,0.3-0.3c0-0.2,0.1-0.3,0.2-0.3c0.4,0,0.4-0.3,0.4-0.6
	c0-0.3,0.1-0.7-0.4-0.6c-0.1,0-0.1-0.1-0.1-0.2c-0.2-0.4-0.3-0.4-0.7-0.4c0-0.3,0.1-0.6-0.4-0.6c-0.1,0-0.1-0.1-0.1-0.1
	c-0.1-0.2-0.2-0.4-0.5-0.5c0,0-0.1,0-0.1,0c0-0.4-0.5-0.5-0.6-0.8c0-0.1-0.1-0.1-0.1-0.1c-0.3-0.2-0.6-0.3-0.6-0.7
	c-0.5,0-0.5-0.7-0.9-0.7c-0.1,0-0.1-0.1-0.1-0.1c-0.1-0.2-0.1-0.5-0.4-0.4c-0.1,0-0.1-0.1-0.1-0.2c-0.1-0.1-0.1-0.3-0.2-0.3
	c-0.3-0.1-0.4-0.4-0.5-0.5c-0.3-0.2-0.4-0.5-0.7-0.7c-0.2-0.1-0.3-0.2-0.4-0.4c0-0.3-0.3-0.2-0.5-0.3c-0.2-0.1-0.3,0.1-0.5,0.1
	c-0.3,0-0.2,0.2-0.2,0.3c0,0.1-0.1,0.2-0.3,0.2c-0.2,0-0.3,0-0.3,0.2c0,0.2-0.1,0.3-0.3,0.3c-0.2,0-0.3,0.1-0.2,0.3
	c0.1,0.3,0,0.4-0.3,0.3c-0.1-0.1-0.2,0-0.3,0.1c-0.1,0.1-0.1,0.2-0.1,0.3c0,0.1,0.1,0.1,0,0.2c-0.1,0.1-0.2,0-0.2,0
	c-0.1-0.1-0.2,0-0.2,0C130.9,60.9,130.7,60.9,130.6,60.7z"/>
<path class="st1" d="M53.7,134.6c0.2,0.4,0.4,0.7,0.7,0.9c3.3,3.3,6.5,6.5,9.8,9.8c0.1,0.1,0.3,0.3,0.4,0.4c0.3,0.3,0.7,0.5,1.1,0.6
	c-0.3,0.2-0.8,0.2-1,0c-0.3-0.3-0.7-0.5-0.8-0.9c0-0.1-0.1-0.2-0.2-0.2c-0.3,0-0.4-0.1-0.4-0.3c0-0.1-0.1-0.2-0.2-0.2
	c-0.2-0.1-0.4-0.2-0.4-0.4c0,0,0-0.1,0-0.1c-0.5,0-0.5-0.7-0.9-0.7c-0.1,0-0.2-0.1-0.2-0.2c0-0.2-0.1-0.3-0.3-0.3c0,0-0.1,0-0.1,0
	c-0.1-0.4-0.6-0.5-0.8-0.9c0-0.1,0-0.2-0.1-0.2c-0.4,0-0.4-0.2-0.5-0.5c0-0.1-0.1-0.1-0.2-0.1c-0.1,0-0.2,0-0.2-0.1
	c-0.1-0.4-0.5-0.5-0.7-0.8c-0.1-0.2-0.3-0.2-0.3-0.4c-0.2-0.3-0.6-0.5-0.8-0.8c-0.1-0.1-0.1-0.2-0.2-0.2c-0.2-0.1-0.4-0.2-0.4-0.5
	c0,0,0-0.1-0.1-0.1c-0.5,0-0.5-0.6-0.9-0.7c-0.2-0.1-0.3-0.4-0.6-0.6c-0.2-0.1-0.3-0.4-0.6-0.5c-0.1,0-0.1-0.1-0.1-0.2
	c0-0.1,0-0.2-0.2-0.2c-0.3,0-0.4-0.2-0.4-0.4c0-0.1-0.1-0.2-0.2-0.2c-0.4-0.1-0.3-0.5-0.4-0.8C53.5,134.7,53.6,134.7,53.7,134.6z"/>
<path class="st1" d="M65.6,53.6c-0.2,0.2-0.5,0.2-0.8,0.4c-0.5,0.4-1,0.9-1.4,1.4c-3.1,3.1-6.1,6.1-9.2,9.2
	c-0.2,0.2-0.3,0.5-0.5,0.8c-0.2-0.2-0.1-0.8,0.2-0.9c0.1-0.1,0.2-0.2,0.3-0.3c0.1-0.2,0.1-0.3,0.3-0.3c0,0,0.1,0,0.1,0
	c0.1-0.4,0.6-0.5,0.7-0.9c0-0.2,0.1-0.3,0.3-0.3c0.1,0,0.2,0,0.2-0.1c0-0.5,0.7-0.5,0.7-1c0-0.1,0-0.1,0.1-0.1
	c0.3,0,0.3-0.2,0.5-0.4c0.2-0.3,0.5-0.4,0.6-0.8c0.5,0.1,0.5-0.6,0.9-0.7c0.1,0,0.1-0.1,0.1-0.2c0-0.1,0.1-0.2,0.1-0.2
	c0.5,0.1,0.5-0.6,0.9-0.7c0.1,0,0.2-0.1,0.2-0.2c0-0.2,0.1-0.3,0.4-0.3c0,0,0.1,0,0.1,0c0-0.5,0.6-0.5,0.7-0.9
	c0-0.1,0.1-0.1,0.1-0.1c0.3-0.1,0.4-0.3,0.6-0.5c0.2-0.2,0.5-0.3,0.5-0.7c0.5,0,0.5-0.5,0.8-0.6c0.1-0.1,0.2-0.1,0.3-0.3
	c0-0.2,0.1-0.4,0.4-0.3c0,0,0.1,0,0.1,0c0-0.4,0.6-0.5,0.7-0.9c0.1-0.2,0.2-0.3,0.4-0.3C65.1,53.6,65.4,53.4,65.6,53.6z"/>
<path class="st1" d="M144.2,132.5c-0.1,0-0.1-0.1-0.1-0.1c0-0.2,0-0.3,0-0.5c0-7.7,0-15.4,0-23.1c0-0.2,0-0.3,0-0.5
	c0.2,0.1,0.1,0.3,0.1,0.4c0,1.5,0,2.9,0,4.4C144.2,119.6,144.2,126.1,144.2,132.5z"/>
<path class="st1" d="M116.4,138.5c-0.9,0.4-1.7,0.7-2.6,1c-1.2,0.4-2.5,0.8-3.8,1.2c-0.1,0-0.2,0-0.3,0.1c0-0.5,0-0.6,0.5-0.6
	c0.2,0,0.4,0,0.7,0c0.3,0,0.5,0,0.6-0.4c0-0.2,0.4-0.2,0.7-0.2c0.3,0.1,0.6-0.1,0.8,0c0.1,0,0.2-0.1,0.2-0.2c0-0.3,0.1-0.4,0.4-0.4
	c0.2,0,0.5,0,0.7,0c0.3,0,0.5,0,0.6-0.4c0-0.2,0.2-0.2,0.4-0.3C115.7,138.4,116.1,138.4,116.4,138.5z"/>
<path class="st1" d="M121.1,140.3c-0.8-0.8-1.6-1.6-2.4-2.4c-0.3-0.3-0.5-0.2-0.7,0c-0.4,0.2-0.8,0.4-1.2,0.5
	c-0.1-0.1-0.2-0.3-0.1-0.4c0.1-0.1,0.2-0.2,0.4-0.1c0.2,0,0.4-0.1,0.6,0c0.1,0,0.1,0,0.1-0.1c0-0.4,0.1-0.5,0.5-0.4
	c0.2,0,0.6-0.1,0.7,0.2c0.1,0.2,0.1,0.3,0.4,0.3c0.1,0,0.2,0.1,0.2,0.1c-0.1,0.5,0.7,0.5,0.7,0.9c0,0.1,0.1,0.1,0.2,0.1
	c0.2,0,0.4,0.1,0.4,0.4c0,0.2,0.2,0.2,0.3,0.2c0.2,0.1,0.3,0.2,0.3,0.4C121.3,140.2,121.3,140.3,121.1,140.3z"/>
<path class="st1" d="M111.8,144.1c0.3-0.2,0.6-0.2,0.9-0.3c0.8-0.3,1.6-0.5,2.4-0.8c0.4-0.1,0.8-0.3,1.2-0.4c0.1,0,0.2-0.1,0.3-0.1
	c0,0.1,0.1,0.2,0.1,0.2c0.1,0.2,0,0.4-0.2,0.3c-0.2,0-0.4,0-0.6,0c-0.2,0-0.4,0-0.3,0.3c0,0.1-0.1,0.2-0.2,0.2c-0.4,0-0.8,0.1-1.2,0
	c-0.2-0.1-0.3,0-0.4,0.2c0,0.3-0.2,0.4-0.5,0.3c-0.4-0.1-0.8,0-1.2,0C112,144.2,111.9,144.3,111.8,144.1z"/>
<path class="st1" d="M140.6,79.2c-0.6-1.1-1.2-2.2-1.8-3.2c-0.1-0.1-0.1-0.2,0-0.3c0.3-0.3,0.6-0.6,0.8-1c-0.1,0.7,0,1.4,0,2.1
	c0,0.2,0.1,0.2,0.2,0.2c0.4,0,0.4,0.2,0.4,0.5c0,0.2,0.1,0.3,0,0.5c0,0.1,0,0.2,0.1,0.2c0.1,0,0.3,0,0.3,0.2
	C140.7,78.6,140.9,78.9,140.6,79.2z"/>
<path class="st1" d="M60.6,74.9C60.6,75,60.6,75,60.6,74.9c0.3,0.3,0.6,0.6,0.7,0.9c0.1,0.3-0.3,0.6-0.5,0.9
	c-0.5,0.8-0.9,1.6-1.4,2.5c-0.3-0.3,0-0.6-0.1-0.9c0,0,0.1-0.1,0.1-0.1c0.5,0,0.4-0.4,0.4-0.6c0-0.3,0-0.5,0.4-0.5
	c0.1,0,0.2-0.1,0.2-0.2c0-0.5,0.1-1,0-1.5C60.4,75.2,60.3,75,60.6,74.9z"/>
<path class="st1" d="M59.4,120.8c0.6,1.1,1.2,2.2,1.8,3.2c0.1,0.1,0.1,0.2,0,0.3c-0.2,0.2-0.4,0.5-0.7,0.8c-0.2,0-0.2-0.1-0.2-0.3
	c0.1-0.5,0-1,0-1.5c0-0.1,0-0.3-0.2-0.3c-0.4,0-0.3-0.3-0.3-0.5c0-0.3,0.1-0.6-0.4-0.7c-0.3-0.1-0.1-0.5-0.2-0.7
	C59.3,121,59.3,120.8,59.4,120.8z"/>
<path class="st1" d="M125,60.6c-0.2,0.4-0.5,0.4-0.8,0.7c-0.1,0.1-0.3,0-0.3-0.1c-0.4-0.3-0.8-0.5-1.3-0.8c-0.6-0.3-1.1-0.6-1.7-0.9
	c0-0.1,0-0.2,0.2-0.2c0.2,0,0.4,0.1,0.6,0c0.1,0,0.2,0.1,0.2,0.3c0,0.2,0.1,0.3,0.3,0.3c0.2,0,0.3,0,0.5,0.1c0.2,0,0.4,0.1,0.3,0.3
	c0,0.1,0.1,0.2,0.2,0.2c0.4,0,0.8,0.1,1.2,0C124.5,60.4,124.8,60.3,125,60.6z"/>
<path class="st1" d="M79.1,59.4c-0.5,0.3-1,0.6-1.5,0.8c-0.6,0.3-1.1,0.6-1.6,1c-0.2,0.1-0.3,0.1-0.5,0c-0.2-0.2-0.5-0.4-0.7-0.6
	c0.2-0.2,0.5-0.2,0.7-0.1c0.4,0.1,0.8,0,1.2,0c0.1,0,0.3,0,0.3-0.1c-0.1-0.5,0.4-0.4,0.6-0.4c0.3-0.1,0.6,0.1,0.5-0.4c0,0,0,0,0-0.1
	C78.3,59.2,79,59.2,79.1,59.4z"/>
<path class="st1" d="M74.9,139.5c0.2-0.2,0.4-0.3,0.6-0.5c0.2-0.2,0.4-0.2,0.6-0.1c0.9,0.6,1.8,1.1,2.7,1.5c0.1,0,0.2,0.1,0.3,0.2
	c0,0.2-0.2,0.1-0.3,0.1c-0.1,0-0.3-0.1-0.4,0c-0.1,0-0.3-0.1-0.2-0.2c0-0.3-0.1-0.3-0.3-0.3c-0.2,0-0.4-0.1-0.6-0.1
	c-0.2,0-0.2-0.1-0.2-0.3c0.1-0.3-0.1-0.2-0.3-0.2c-0.5-0.1-1.1,0-1.6,0C75.1,139.6,74.9,139.7,74.9,139.5z"/>
<path class="st1" d="M68.9,55.6c-0.3-0.3-0.6-0.5-0.9-0.8c0-0.1,0.1-0.2,0.2-0.2c0.2,0,0.4,0,0.6,0c0.1,0,0.2,0,0.2,0.2
	c0,0.2,0,0.5,0.4,0.4c0.1,0,0.2,0.1,0.2,0.1c0,0.1,0,0.2,0,0.2c0.4,0.1,0.5,0.6,0.9,0.8c0.1,0,0.2,0,0.2,0.1c0,0.3,0.2,0.5,0.5,0.4
	c0.1,0,0.1,0.1,0.1,0.2c0,0.1,0,0.3,0,0.4c-0.3-0.2-0.6-0.5-0.9-0.8c-0.3-0.3-0.8-0.6-1.1-0.9C69.3,55.6,69.2,55.5,68.9,55.6z"/>
<path class="st1" d="M109.8,149.9c0-0.7,0.1-1.3,0.1-2c0.1-0.7,0.1-1.5,0.2-2.2c0-0.1,0-0.2,0.1-0.3c0.2,0,0.3,0.2,0.2,0.3
	c-0.2,0.4,0,0.7,0,1c0,0.2,0,0.5,0,0.7c0,0.4-0.1,0.8,0,1.2c0.1,0.4,0,0.8,0,1.2c0,0.1-0.1,0.1-0.2,0.1
	C110,149.9,109.9,149.9,109.8,149.9z"/>
<path class="st1" d="M142.5,71.2c0.2-0.4,0.6-0.7,0.8-1c0.5-0.7,1.1-1.3,1.6-1.9c0.1-0.1,0.2-0.2,0.3-0.3c0,0.2,0.1,0.4,0.1,0.6
	c0,0.3,0,0.5-0.4,0.6c0,0-0.1,0-0.1,0.1c-0.1,0.3-0.4,0.4-0.6,0.6c-0.2,0.1-0.2,0.4-0.5,0.5c0,0,0,0,0,0c-0.1,0.3-0.2,0.6-0.6,0.6
	c-0.1,0,0,0.1-0.1,0.2C143,71.3,142.8,71.4,142.5,71.2z"/>
<path class="st1" d="M69.3,144.1c0.7-0.6,1.3-1.2,2-1.7c0,0.1,0,0.2,0,0.4c0,0.2-0.1,0.2-0.2,0.2c-0.1,0-0.3,0-0.3,0.2
	c0,0.3-0.2,0.4-0.5,0.4c-0.1,0-0.2,0.1-0.2,0.2c0,0.2,0,0.3-0.3,0.3c-0.2,0-0.3,0.2-0.3,0.4c0,0.1-0.1,0.3-0.2,0.2
	c-0.2-0.1-0.2,0.1-0.3,0.2c-0.1,0.4-0.7,0.6-1,0.2c0.4-0.3,0.7-0.7,1.1-0.9C69.2,144.3,69.3,144.2,69.3,144.1z"/>
<path class="st1" d="M139.7,74.6c0.5-0.6,1-1.3,1.6-1.9c0.3-0.4,0.6-0.8,1-1.2c0.1,0,0.2,0,0.2,0.1c0,0.2,0,0.4,0,0.6
	c0,0.3-0.3,0.2-0.4,0.3c-0.2,0.3-0.5,0.4-0.7,0.7c-0.1,0.2-0.3,0.3-0.4,0.5c-0.2,0.2-0.6,0.5-0.7,0.7
	C140.1,74.7,140,74.7,139.7,74.6z"/>
<path class="st1" d="M54.7,68c0.4,0.3,0.6,0.7,0.9,1.1c0,0.1,0,0.2,0.1,0.2c0.5,0.7,1.2,1.3,1.7,2.1c-0.3,0-0.5,0-0.5-0.4
	c0-0.2-0.2-0.2-0.3-0.2c-0.2,0-0.3-0.1-0.2-0.3c0-0.2-0.1-0.2-0.3-0.3c-0.3-0.2-0.6-0.5-0.9-0.8c-0.1-0.1-0.1-0.3-0.4-0.3
	c-0.2,0-0.2-0.1-0.2-0.2C54.7,68.5,54.6,68.2,54.7,68z"/>
<path class="st1" d="M57.5,128.7c-0.4,0.6-0.8,1.1-1.3,1.6c-0.1,0.2-0.3,0.3-0.4,0.5c-0.1,0-0.2,0.1-0.1,0.2
	c-0.2,0.2-0.4,0.5-0.6,0.7c-0.1,0-0.2,0.1-0.1,0.2c0,0.1-0.1,0.2-0.2,0.2c-0.1-0.2-0.1-0.4-0.1-0.7c0-0.2,0-0.4,0.3-0.4
	c0.2,0,0.2-0.1,0.3-0.3c0-0.2,0.2-0.2,0.3-0.3c0.3-0.2,0.6-0.5,0.8-0.8c0.1-0.2,0.1-0.4,0.4-0.4c0.1,0,0.2-0.1,0.2-0.2
	C56.9,128.7,57.2,128.7,57.5,128.7z"/>
<path class="st1" d="M57.5,71.4c0.4,0.4,0.7,0.8,1,1.2c0.4,0.4,0.7,0.8,1.1,1.2c0.2,0.3,0.4,0.5,0.6,0.8c-0.3,0.1-0.5,0.2-0.5-0.3
	c0-0.1-0.2-0.2-0.3-0.2c-0.2,0-0.3-0.1-0.3-0.3c0-0.1,0-0.2,0-0.2c-0.5,0-0.4-0.7-0.9-0.7c-0.1,0-0.2-0.1-0.2-0.2
	c0-0.3-0.1-0.3-0.3-0.4c-0.2,0-0.3-0.1-0.2-0.3C57.5,71.9,57.5,71.6,57.5,71.4z"/>
<path class="st1" d="M130.7,55.9c-0.7,0.5-1.3,1.1-2,1.6c0-0.3-0.1-0.6,0.4-0.5c0.1,0,0.2-0.1,0.2-0.2c0-0.3,0.2-0.3,0.4-0.4
	c0.2-0.3,0.4-0.5,0.7-0.8c0.1-0.1,0.1-0.4,0.5-0.3c0.1,0,0.2-0.2,0.2-0.3c0-0.3,0.1-0.4,0.3-0.3c0.2,0.1,0.5-0.2,0.7,0.1
	c-0.3,0.3-0.6,0.6-0.9,0.8C130.8,55.5,130.7,55.6,130.7,55.9z"/>
<path class="st1" d="M60.3,125.4c-0.5,0.6-0.9,1.2-1.4,1.7c-0.5,0.4-0.7,1-1.2,1.4c-0.2-0.3,0-0.6-0.1-0.9c0.4-0.1,0.5-0.4,0.7-0.6
	c0.2-0.1,0.4-0.2,0.5-0.5c0,0,0-0.1,0-0.1c0.3,0,0.5-0.2,0.5-0.6c0,0,0.1-0.1,0.1-0.1c0.3,0,0.4-0.1,0.5-0.4
	C59.9,125.2,60.1,125.4,60.3,125.4z"/>
<path class="st1" d="M127.1,63.7c0.8-0.7,1.6-1.3,2.4-2c0.3-0.2,0.6-0.5,0.9-0.7c0,0.3,0.1,0.6-0.4,0.6c0,0-0.1,0-0.1,0
	c0,0.4-0.5,0.4-0.6,0.6c-0.2,0.3-0.3,0.6-0.7,0.6c0,0,0,0,0,0c0,0.5-0.4,0.5-0.7,0.6c-0.2,0.1-0.2,0.2-0.3,0.4
	C127.5,63.9,127.3,63.9,127.1,63.7z"/>
<path class="st1" d="M71.4,142.4c0.6-0.5,1.2-1,1.8-1.5c0.2-0.2,0.5-0.4,0.7-0.6c0.1-0.1,0.1-0.2,0.3-0.2c0,0.3,0,0.7-0.4,0.7
	c0,0-0.1,0.1-0.1,0.2c0,0.3-0.1,0.4-0.4,0.4c-0.2,0-0.2,0.2-0.2,0.3c0,0.2-0.1,0.3-0.3,0.3c-0.3,0-0.4,0.1-0.4,0.4
	c0,0.1,0,0.2-0.1,0.2C72,142.4,71.7,142.6,71.4,142.4z"/>
<path class="st1" d="M74.1,59.9c-0.5-0.4-1-0.8-1.4-1.2c0.1,0,0.1-0.1,0.1-0.2c-0.1-0.1-0.2,0-0.3,0c-0.4-0.3-0.8-0.6-1.1-0.9
	c0.3-0.2,0.6-0.1,0.9-0.1c0.1,0,0.1,0.1,0.1,0.2c0,0.2,0.1,0.4,0.4,0.3c0.2,0,0.3,0.1,0.3,0.3c0,0.2,0.1,0.3,0.3,0.3
	c0.1,0,0.2,0,0.2,0c0.1,0.3,0.3,0.5,0.6,0.7C74.3,59.5,74.1,59.7,74.1,59.9z"/>
<path class="st1" d="M149.9,90.2c-0.7,0-1.4-0.1-2.1-0.2c-0.7,0-1.4-0.1-2.1-0.2c0.2-0.3,0.5-0.2,0.7-0.2c0.6,0,1.1,0.1,1.7,0
	c0.5-0.1,1.1,0,1.6,0.1C150,89.9,149.9,90.1,149.9,90.2z"/>
<path class="st1" d="M54.2,89.9c-1.3,0.1-2.5,0.2-3.8,0.4c-0.1,0-0.3,0-0.4,0c0-0.3,0.1-0.4,0.3-0.4c0.6-0.1,1.3-0.1,1.9,0
	c0.1,0,0.2,0.1,0.2,0c0.4-0.2,0.8,0,1.2-0.1C54,89.6,54.2,89.7,54.2,89.9z"/>
<path class="st1" d="M127.3,58.7c-0.5,0.3-0.9,0.7-1.4,1.1c-0.1-0.3-0.1-0.5,0.3-0.6c0,0,0.1,0,0.1,0c0.1-0.3,0.2-0.6,0.7-0.6
	c0-0.4,0.2-0.6,0.6-0.6c0.1-0.8,0.7-0.4,1.2-0.5c-0.3,0.4-0.8,0.6-1.1,1C127.4,58.5,127.2,58.5,127.3,58.7z"/>
<path class="st1" d="M110.1,53.9c-0.1-0.3-0.1-0.6-0.1-0.9c-0.1-0.9-0.2-1.8-0.2-2.7c0.1,0,0.2,0,0.2-0.1c0.2-0.1,0.3,0,0.3,0.1
	c0,0.4,0.2,0.9-0.1,1.3c-0.1,0.1,0.1,0.2,0.1,0.3c-0.2,0.5,0.2,1,0.1,1.6c0,0,0,0.1,0,0.1C110.3,53.7,110.3,53.9,110.1,53.9z"/>
<path class="st1" d="M117,142.3c0.6-0.3,1.1-0.5,1.7-0.7c0.3-0.1,0.6-0.4,0.9-0.4c0,0.2-0.2,0.3-0.1,0.5c0,0.1-0.1,0.2-0.2,0.2
	c-0.2,0-0.4,0.1-0.7,0c-0.2-0.1-0.4,0-0.4,0.3c0,0.2-0.1,0.3-0.3,0.3c-0.3,0-0.6,0.2-0.9,0C117.1,142.5,117,142.5,117,142.3z"/>
<path class="st1" d="M50.1,109.8c0.7,0,1.4,0.1,2.2,0.2c0.8,0.1,1.6,0.2,2.3,0.2c0,0,0,0,0,0.1c-0.1,0.1-0.3,0.1-0.4,0.1
	c-0.6,0-1.1,0-1.7-0.1c-0.4-0.1-0.8,0-1.2,0.1c-0.4,0.1-0.7,0-1.1-0.1C50.1,110.1,50.1,110,50.1,109.8z"/>
<path class="st1" d="M138.5,70.2c-0.1,0.3-0.3,0.4-0.5,0.6c-0.5,0.7-1.1,1.4-1.7,2.1c0,0,0,0-0.1,0c-0.1-0.3,0.1-0.5,0.2-0.8
	c0.1-0.1,0.2-0.3,0.3-0.4c0.1-0.2,0.1-0.5,0.4-0.4c0.1,0,0.1-0.1,0.1-0.3c0-0.1,0-0.3,0.2-0.3c0.3,0,0.4-0.1,0.5-0.4
	C138,70,138.3,70.3,138.5,70.2z"/>
<path class="st1" d="M107.4,141.4c-0.4,0.5-0.7,1-0.7,1.6c0,0.5-0.1,1.1-0.1,1.6c0,0-0.1,0.1-0.1,0.1c-0.1,0-0.2-0.1-0.1-0.2
	c0.1-0.4,0-0.7,0.1-1.1c0.1-0.3-0.1-0.7-0.1-1c-0.1-0.3,0-0.5,0.3-0.6c0.2,0,0.2-0.1,0.3-0.3C107,141.2,107,141.2,107.4,141.4z"/>
<path class="st1" d="M116.6,57.5c-0.9-0.3-1.8-0.6-2.7-1c0.1-0.2,0.2-0.2,0.4-0.2c0.4,0,0.7,0.1,1.1,0c0.2,0,0.1,0.1,0.1,0.2
	c0,0.3,0.1,0.4,0.4,0.3c0.1,0,0.1,0,0.2,0C116.6,57,116.6,57,116.6,57.5z"/>
<path class="st1" d="M119.4,58.7c-0.8-0.4-1.6-0.7-2.4-1.1c0.1-0.1,0.2-0.1,0.3-0.1c0.3-0.1,0.5,0,0.8,0c0.1,0,0.3,0,0.3,0.2
	c0,0.5,0.3,0.4,0.6,0.4C119.5,58.2,119.6,58.2,119.4,58.7z"/>
<path class="st1" d="M142.2,82.8c-0.3-0.7-0.6-1.4-0.9-2.1c0.6-0.2,0.6-0.2,0.6,0.4c0,0.3-0.1,0.6,0.4,0.6c0.1,0,0.2,0.2,0.2,0.3
	C142.4,82.3,142.6,82.6,142.2,82.8z"/>
<path class="st1" d="M124.7,65.4c0.7-0.2,1.1-0.7,1.7-1.2c0.2-0.2,0.4-0.3,0.6-0.5c0.1,0.4,0,0.7-0.5,0.7c0,0-0.1,0-0.1,0
	c0.1,0.5-0.7,0.4-0.6,0.9c0,0,0,0,0,0.1C125.6,65.6,124.9,65.6,124.7,65.4z"/>
<path class="st1" d="M83.4,142.5c0.2,0,0.4,0.1,0.6,0.2c0.7,0.2,1.4,0.5,2,0.7c-0.1,0.2-0.2,0.2-0.3,0.2c-0.3,0-0.6,0-1-0.1
	c-0.1,0-0.2,0-0.2-0.1c0-0.5-0.4-0.4-0.6-0.4C83.4,143,83.4,143,83.4,142.5z"/>
<path class="st1" d="M56.5,113.9c0.2,0.5,0.4,1.1,0.6,1.6c0.1,0.4,0.2,0.7,0.4,1.1c-0.5,0-0.5-0.1-0.5-0.5c0-0.3,0.1-0.7-0.4-0.6
	c-0.1,0-0.1,0-0.1-0.1C56.6,114.9,56.3,114.4,56.5,113.9C56.5,113.9,56.5,113.9,56.5,113.9z"/>
<path class="st1" d="M57.5,83.4c-0.3,0.8-0.5,1.6-0.8,2.4c0,0.1,0,0.3-0.1,0.3c-0.1-0.3-0.1-0.6-0.1-1c0,0,0.1-0.1,0-0.1
	c-0.2-0.4,0-0.5,0.3-0.5c0.1,0,0.1-0.1,0.1-0.2c0-0.1,0-0.2,0-0.4C57,83.4,57,83.4,57.5,83.4z"/>
<path class="st1" d="M82.9,57.7c-0.8,0.3-1.5,0.7-2.3,1c-0.1-0.5-0.1-0.5,0.4-0.5c0.3,0,0.6,0,0.7-0.4c0-0.1,0.1-0.2,0.2-0.2
	C82.2,57.6,82.6,57.4,82.9,57.7z"/>
<path class="st1" d="M57.7,117.1c0.2,0.5,0.5,1,0.7,1.5c0.1,0.3,0.3,0.6,0.4,0.9c-0.1,0-0.2,0-0.4,0c-0.2,0-0.4-0.1-0.3-0.3
	c0.1-0.2-0.1-0.4,0-0.7c0-0.1-0.1-0.2-0.2-0.2c-0.4,0-0.4-0.2-0.4-0.5C57.5,117.6,57.6,117.4,57.7,117.1z"/>
<path class="st1" d="M58.6,80.7c-0.3,0.7-0.6,1.4-0.9,2.2c-0.1-0.3-0.2-0.6-0.1-0.9c0-0.2,0.1-0.4,0.3-0.4c0.2,0,0.2-0.1,0.2-0.3
	c0-0.2,0-0.3,0-0.5c0-0.1,0-0.3,0.1-0.4C58.4,80.4,58.5,80.6,58.6,80.7z"/>
<path class="st1" d="M113.7,56.5c-0.6-0.2-1.2-0.3-1.8-0.5c0-0.2,0.2-0.2,0.3-0.2c0.4,0,0.8,0,1.2,0c0.3,0,0.4,0.1,0.3,0.4
	C113.7,56.3,113.7,56.4,113.7,56.5z"/>
<path class="st1" d="M88.1,56c-0.6,0.2-1.2,0.3-1.8,0.5c0-0.7,0-0.7,0.6-0.7c0.3,0,0.5,0,0.8,0C87.9,55.8,88,55.8,88.1,56z"/>
<path class="st1" d="M80.7,141.4c0.7,0.3,1.4,0.6,2.1,0.9c-0.3,0.3-0.7,0-1.1,0.1c0,0-0.1-0.1-0.1-0.1c0-0.5-0.4-0.5-0.8-0.5
	c-0.1,0-0.3,0.1-0.3-0.1C80.5,141.6,80.6,141.5,80.7,141.4z"/>
<path class="st1" d="M144,88c-0.2-0.6-0.3-1.1-0.5-1.7c0.2,0,0.6-0.2,0.6,0.2c0,0.3,0.1,0.6,0.1,0.9c0,0.1,0,0.3,0,0.4
	C144.2,87.9,144.1,88,144,88z"/>
<path class="st1" d="M90.2,50.1c0,0.7-0.1,1.4-0.2,2.2c-0.1,0-0.2-0.1-0.2-0.2c0.1-0.6-0.1-1.2,0.1-1.8C89.9,50.1,90,50.2,90.2,50.1
	z"/>
<path class="st1" d="M90,147.7c0.1,0.3,0.1,0.6,0.1,0.8c0,0.4,0.1,0.9,0.1,1.3c-0.2,0-0.4,0-0.4-0.3c0-0.2-0.1-0.4-0.1-0.7
	c0-0.3,0.2-0.6,0.1-1C89.7,147.8,89.9,147.7,90,147.7z"/>
<path class="st1" d="M86.3,143.5c0.6,0.2,1.2,0.3,1.8,0.5c0,0.1-0.1,0.1-0.2,0.1c-0.5,0-0.9,0-1.4,0c-0.2,0-0.3-0.1-0.2-0.3
	C86.3,143.8,86.3,143.7,86.3,143.5z"/>
<path class="st1" d="M117.6,133.1c0.1,0.1,0.1,0.1,0.2,0.2c-0.3,0.1-0.5,0-0.6-0.3c0-0.2-0.1-0.3-0.4-0.3c-0.1,0-0.2,0-0.2-0.2
	c0-0.1,0-0.2,0.1-0.2c0.3-0.1,0.6-0.1,0.9,0c0.2,0.1,0.1,0.2,0.1,0.3c-0.1,0-0.1,0-0.2,0c-0.1,0-0.3-0.1-0.3,0
	c-0.1,0.1,0.1,0.2,0.2,0.3C117.4,133,117.5,133.1,117.6,133.1z"/>
<path class="st1" d="M110.2,144.8c0-0.3,0-0.4,0.4-0.5c0.3-0.1,0.6-0.2,1-0.2c0,0.2-0.1,0.3-0.1,0.5c0,0.1-0.1,0.2-0.2,0.2
	C110.9,144.8,110.6,144.9,110.2,144.8z"/>
<path class="st1" d="M141.5,92.7c0.4,0.4,0.9,0.7,1.5,0.6c0.1,0,0.2,0.1,0.3,0.1c0,0.1-0.1,0.2-0.2,0.2c-0.3,0-0.5,0.1-0.8,0.1
	c-0.2,0-0.4-0.1-0.4-0.3c-0.1-0.2-0.2-0.4-0.4-0.4c-0.1,0-0.2,0-0.2-0.1C141.3,92.8,141.4,92.7,141.5,92.7z"/>
<path class="st1" d="M56.5,86.2c0.1,0.3-0.1,0.5-0.2,0.8c-0.1,0.3-0.1,0.6-0.3,0.9c-0.2,0-0.1-0.1-0.1-0.2c0-0.4,0-0.8,0.1-1.2
	C55.9,86.2,56.2,86.2,56.5,86.2z"/>
<path class="st1" d="M55.9,112.1c0.2,0.6,0.4,1.1,0.5,1.7c-0.5,0-0.5,0-0.6-0.5c-0.1-0.3,0-0.6-0.1-0.9
	C55.8,112.2,55.8,112.1,55.9,112.1z"/>
<path class="st1" d="M109,140.9c-0.5,0.2-1.1,0.2-1.5,0.5c-0.1-0.2-0.2-0.4,0-0.6c0.2-0.2,0.4-0.1,0.6-0.1c0.2,0.1,0.4,0.1,0.6,0
	C108.9,140.6,109,140.7,109,140.9z"/>
<path class="st1" d="M67.8,54.7c-0.2-0.1-0.4-0.3-0.6-0.5c-0.4-0.3-0.8-0.5-1.2-0.6c0.1-0.1,1.1-0.2,1.2-0.1
	c0.1,0.3,0.4,0.5,0.6,0.7C67.9,54.4,67.9,54.5,67.8,54.7z"/>
<path class="st1" d="M86.1,56.5c-0.5,0.2-1,0.5-1.6,0.5c0-0.1,0-0.2,0-0.4c0-0.1,0.1-0.2,0.2-0.2c0.3,0,0.6,0,1-0.1
	C85.9,56.4,86,56.5,86.1,56.5z"/>
<path class="st1" d="M143.4,86.1c-0.2-0.5-0.3-1-0.5-1.5c0.2,0.1,0.5-0.2,0.6,0c0.2,0.2-0.1,0.4,0,0.6c0.1,0.3-0.2,0.5,0,0.8
	C143.5,86,143.4,86.1,143.4,86.1z"/>
<path class="st1" d="M145.4,67.7c0.4-0.5,0.9-1,0.9-1.7c0.3,0.3,0.2,1.2-0.2,1.3c-0.2,0-0.2,0.1-0.2,0.3
	C145.9,67.9,145.7,68,145.4,67.7z"/>
<path class="st1" d="M135.6,73.7c-0.1,0.2-0.3,0.4-0.4,0.6c-0.3,0.3-0.5,0.6-0.6,1c0,0-0.1-0.1-0.1-0.1c0.1-0.2,0-0.5,0-0.7
	c0-0.2,0-0.3,0.2-0.2c0.2,0.1,0.3-0.1,0.3-0.2C135.1,73.6,135.1,73.6,135.6,73.7z"/>
<path class="st1" d="M144.8,89.8c-0.3,0-0.4-0.2-0.4-0.4c0-0.3-0.1-0.6-0.2-0.8c0.6,0,0.6,0.1,0.6,0.6
	C144.8,89.4,144.8,89.6,144.8,89.8z"/>
<path class="st1" d="M139.8,86.9c0.2,0.5,0.3,1,0.5,1.4c-0.6,0-0.7,0-0.7-0.7C139.6,87.4,139.6,87.2,139.8,86.9z"/>
<path class="st1" d="M66.3,146.3c0.5-0.2,0.9-0.6,1.4-0.9c0.2,0.3,0.2,0.4-0.1,0.5c-0.2,0-0.3,0.1-0.3,0.3
	C67.1,146.5,66.6,146.6,66.3,146.3z"/>
<path class="st1" d="M133.9,53.7c-0.7,0-1.2,0.5-1.7,0.9c-0.2-0.3,0-0.4,0.2-0.5c0.2-0.1,0.3-0.1,0.3-0.3c0.1-0.3,0.3-0.4,0.5-0.3
	C133.5,53.6,133.8,53.4,133.9,53.7z"/>
<path class="st1" d="M55.2,110.3c0.1,0,0.3-0.1,0.3,0.1c0.1,0.4,0.2,0.7,0.3,1.1c-0.5,0-0.6-0.1-0.6-0.6
	C55.2,110.7,55.2,110.5,55.2,110.3z"/>
<path class="st1" d="M140.3,88.6c0.2,0.5,0.3,1.1,0.4,1.7c-0.3,0.1-0.5-0.1-0.5-0.4c0-0.3-0.1-0.6-0.1-0.9
	C140.2,88.8,140.1,88.7,140.3,88.6z"/>
<path class="st1" d="M119.6,141.2c0.3-0.3,0.7-0.4,1-0.6c0,0.1,0.1,0.2,0.1,0.3c0,0.3-0.1,0.5-0.4,0.4
	C120.1,141.3,119.8,141.5,119.6,141.2z"/>
<path class="st1" d="M111.4,55.9c-0.3-0.1-0.5-0.2-0.8-0.2c-0.3,0-0.4-0.2-0.4-0.4c0.3,0,0.7-0.1,1,0.2
	C111.3,55.5,111.4,55.7,111.4,55.9z"/>
<path class="st1" d="M53.6,66.1c0.1,0.4,0.2,0.9,0.6,1.2c0.2,0.2,0.3,0.4,0.5,0.6c-0.3,0-0.5,0-0.5-0.4c0-0.1,0-0.1-0.1-0.2
	c-0.2,0-0.4-0.1-0.4-0.3C53.6,66.7,53.4,66.4,53.6,66.1z"/>
<path class="st1" d="M54.6,132.1c-0.1,0.3-0.3,0.5-0.5,0.7c-0.3,0.3-0.4,0.7-0.5,1.1c-0.2-0.5-0.1-0.9,0.3-1.2
	c0.1-0.1,0.2-0.1,0.2-0.2C54.1,132.2,54.3,132.1,54.6,132.1z"/>
<path class="st1" d="M55.8,88.6c-0.1,0.3-0.1,0.6-0.2,0.9c0,0.2-0.1,0.3-0.4,0.2c0-0.3-0.1-0.7,0.1-1C55.5,88.6,55.6,88.5,55.8,88.6
	z"/>
<path class="st1" d="M140.9,91c0.1,0.5,0.2,1,0.4,1.4c-0.1,0.2-0.2,0.1-0.4,0.1c-0.1,0-0.2-0.1-0.2-0.2c0.1-0.3,0-0.7,0-1
	C140.8,91.1,140.7,91,140.9,91z"/>
<path class="st1" d="M89.7,55.2c0.1,0.2,0,0.3-0.2,0.4c-0.3,0.1-0.6,0.1-0.9,0.2c0-0.3,0.3-0.6,0.6-0.6
	C89.4,55.2,89.6,55.2,89.7,55.2z"/>
<path class="st1" d="M118.4,133.8c0.4,0.4,0.8,0.7,1.2,1.2c-0.3,0.1-0.6,0.2-0.6-0.3c0-0.1-0.1-0.1-0.1-0.1
	C118.3,134.4,118.3,134.1,118.4,133.8z"/>
<path class="st1" d="M119.5,134.9c0.4,0.4,0.8,0.7,1.2,1.2c-0.3,0.1-0.6,0.2-0.6-0.3c0-0.1-0.1-0.1-0.1-0.1
	C119.5,135.6,119.5,135.3,119.5,134.9z"/>
<path class="st1" d="M138.6,83.8c0.1,0.4,0.4,0.7,0.5,1.1c-0.1,0.3-0.3,0.1-0.4,0.1c-0.1,0-0.1-0.1-0.1-0.2c0-0.2,0-0.4-0.1-0.7
	C138.4,84,138.4,83.8,138.6,83.8z"/>
<path class="st1" d="M120.7,136.1c0.4,0.3,0.8,0.7,1.1,1.2c-0.4,0.1-0.4,0.1-0.5-0.3c0-0.1-0.1-0.2-0.2-0.2
	C120.6,136.7,120.6,136.4,120.7,136.1z"/>
<path class="st1" d="M141.2,80.5c-0.2-0.4-0.3-0.7-0.5-1.1c0.2,0.1,0.5-0.2,0.6,0c0.1,0.2,0.1,0.5,0,0.8
	C141.3,80.3,141.2,80.4,141.2,80.5z"/>
<path class="st1" d="M120.6,59.3c-0.3-0.2-0.7-0.3-1-0.5c0.3-0.4,0.6-0.1,0.9-0.1C120.8,58.8,120.6,59.1,120.6,59.3z"/>
<path class="st1" d="M58.8,119.6c0.2,0.3,0.3,0.6,0.5,0.9c-0.1,0-0.2,0-0.2,0c-0.2,0-0.4,0-0.3-0.3c0-0.1,0-0.2,0-0.3
	C58.7,119.9,58.7,119.7,58.8,119.6z"/>
<path class="st1" d="M88.7,144.2c0.3,0,0.5,0.1,0.8,0.2c0.1,0,0.3,0.2,0.2,0.4c-0.1,0-0.2,0-0.4,0C88.9,144.8,88.9,144.8,88.7,144.2
	z"/>
<path class="st1" d="M84.4,57c-0.1,0.1-0.2,0.2-0.3,0.2c-0.2,0.1-0.4,0.1-0.7,0.2c-0.2-0.3-0.1-0.5,0.2-0.5
	C83.9,57,84.2,56.9,84.4,57z"/>
<path class="st1" d="M142.8,84.4c-0.1-0.3-0.2-0.6-0.3-0.9c0.2-0.2,0.4-0.2,0.5,0C143.1,83.7,143,84.3,142.8,84.4z"/>
<path class="st1" d="M135.2,77.3c0.2,0.2,0.3,0.4,0.4,0.6c-0.1,0.2-0.2,0.3-0.4,0.2c-0.2-0.1-0.2-0.2-0.1-0.4
	C135,77.6,134.9,77.4,135.2,77.3z"/>
<path class="st1" d="M139.1,85.1c0.2,0.4,0.4,0.8,0.5,1.3c-0.3-0.1-0.6-0.1-0.4-0.6c0-0.1,0-0.2-0.1-0.3
	C139,85.4,139,85.3,139.1,85.1z"/>
<path class="st1" d="M80.3,58.8c-0.3,0.2-0.5,0.3-0.8,0.4c-0.2-0.4-0.1-0.4,0.3-0.5C79.9,58.7,80.1,58.5,80.3,58.8z"/>
<path class="st1" d="M79.4,140.8c0.3,0.1,0.7,0.3,1,0.5c-0.3,0.1-0.5,0.1-0.8,0.1C79.2,141.3,79.4,141,79.4,140.8z"/>
<path class="st1" d="M89.9,52.5c0.1,0.5-0.1,0.9-0.1,1.4c0,0-0.1,0.1-0.1,0.1c-0.2-0.4-0.1-0.8-0.1-1.2
	C89.7,52.6,89.8,52.5,89.9,52.5z"/>
<path class="st1" d="M89.8,146c0,0,0.1,0.1,0.1,0.1c-0.1,0.5,0.1,0.9,0.1,1.4c-0.1,0-0.3-0.1-0.3-0.2
	C89.7,146.8,89.6,146.4,89.8,146z"/>
<path class="st1" d="M59.2,79.5c-0.1,0.3-0.2,0.6-0.4,0.9c-0.2-0.3,0-0.6,0-0.9C58.7,79.4,59,79.3,59.2,79.5z"/>
<path class="st1" d="M134.5,76c0.1,0.4,0.3,0.7,0.5,1C134.4,77,134.2,76.6,134.5,76z"/>
<path class="st1" d="M138,82.6c0.2,0.2,0.3,0.5,0.4,0.8c-0.2,0-0.4,0.1-0.5-0.2C137.8,83,137.8,82.7,138,82.6z"/>
<path class="st1" d="M136.8,80.1c0.2,0.2,0.3,0.5,0.4,0.8c-0.2,0.1-0.5,0.2-0.4-0.3C136.9,80.5,136.6,80.3,136.8,80.1z"/>
<path class="st1" d="M136.2,79c0.2,0.3,0.4,0.6,0.5,0.9c-0.1,0-0.2,0-0.3,0c-0.1,0-0.2,0-0.1,0C136.3,79.5,136.1,79.3,136.2,79z"/>
<path class="st1" d="M143.5,93.4c0.3-0.1,0.7,0.1,1,0.1C144.3,93.8,143.8,93.7,143.5,93.4z"/>
<path class="st1" d="M137.5,81.5c0.1,0.2,0.2,0.4,0.3,0.6c-0.1,0.1-0.3,0.1-0.3,0C137.4,81.8,137.3,81.6,137.5,81.5z"/>
<path class="st1" d="M117.9,133.3c0.2,0.1,0.4,0.3,0.5,0.5c-0.2,0-0.4,0.2-0.5,0C117.7,133.7,117.8,133.5,117.9,133.3z"/>
<path class="st1" d="M135.7,78.1c0.2,0.2,0.3,0.4,0.4,0.7c-0.2,0.1-0.4,0.1-0.4-0.2C135.7,78.4,135.5,78.2,135.7,78.1z"/>
<path class="st1" d="M74.3,140c0.1-0.2,0.3-0.3,0.4-0.4c0,0.1,0,0.2,0,0.3c0,0.1,0,0.3-0.2,0.3C74.4,140.2,74.3,140.1,74.3,140z"/>
<path class="st1" d="M129.9,145.3c0.2,0.2,0.4,0.4,0.6,0.6C130,146,129.8,145.9,129.9,145.3z"/>
<path class="st1" d="M123,138.4c0.2,0.2,0.4,0.4,0.6,0.6C123.1,139.1,122.9,139,123,138.4z"/>
<path class="st1" d="M128.7,144.2c0.2,0.2,0.4,0.4,0.6,0.6C128.8,144.8,128.7,144.7,128.7,144.2z"/>
<path class="st1" d="M124.1,139.6c0.2,0.2,0.4,0.4,0.6,0.6C124.2,140.2,124.1,140.1,124.1,139.6z"/>
<path class="st1" d="M127.6,143c0.2,0.2,0.4,0.4,0.6,0.6C127.7,143.7,127.5,143.6,127.6,143z"/>
<path class="st1" d="M125.3,140.7c0.2,0.2,0.4,0.4,0.6,0.6C125.4,141.4,125.2,141.3,125.3,140.7z"/>
<path class="st1" d="M126.4,141.9c0.2,0.2,0.4,0.4,0.6,0.6C126.5,142.5,126.4,142.4,126.4,141.9z"/>
<path class="st1" d="M134.4,149.9c0.2,0.2,0.4,0.4,0.6,0.6C134.6,150.6,134.4,150.4,134.4,149.9z"/>
<path class="st1" d="M133.3,148.8c0.2,0.2,0.4,0.4,0.6,0.6C133.4,149.4,133.3,149.3,133.3,148.8z"/>
<path class="st1" d="M132.1,147.6c0.2,0.2,0.4,0.4,0.6,0.6C132.3,148.3,132.1,148.2,132.1,147.6z"/>
<path class="st1" d="M121.8,137.3c0.2,0.2,0.4,0.4,0.6,0.6C121.9,138,121.8,137.8,121.8,137.3z"/>
<path class="st1" d="M131,146.5c0.2,0.2,0.4,0.4,0.6,0.6C131.1,147.1,131,147,131,146.5z"/>
<path class="st1" d="M123.6,139.1c0.2,0.1,0.3,0.3,0.5,0.5c-0.2,0.1-0.3,0.2-0.5,0C123.5,139.4,123.5,139.2,123.6,139.1z"/>
<path class="st1" d="M125.9,141.4c0.2,0.1,0.3,0.3,0.5,0.5c-0.2,0.1-0.3,0.2-0.5,0C125.8,141.7,125.8,141.5,125.9,141.4z"/>
<path class="st1" d="M127,142.5c0.2,0.1,0.3,0.3,0.5,0.5c-0.2,0.1-0.3,0.2-0.5,0C126.9,142.8,127,142.7,127,142.5z"/>
<path class="st1" d="M128.2,143.7c0.2,0.1,0.3,0.3,0.5,0.5c-0.2,0.1-0.3,0.2-0.5,0C128.1,144,128.1,143.8,128.2,143.7z"/>
<path class="st1" d="M129.3,144.8c0.2,0.1,0.3,0.3,0.5,0.5c-0.2,0.1-0.3,0.2-0.5,0C129.2,145.1,129.2,145,129.3,144.8z"/>
<path class="st1" d="M131.6,147.1c0.2,0.1,0.3,0.3,0.5,0.5c-0.2,0.1-0.3,0.2-0.5,0C131.5,147.4,131.5,147.3,131.6,147.1z"/>
<path class="st1" d="M74.7,60.4c-0.2-0.1-0.4-0.2-0.5-0.4C74.8,59.8,74.8,59.8,74.7,60.4z"/>
<path class="st1" d="M130.5,145.9c0.2,0.1,0.3,0.3,0.5,0.5c-0.2,0.1-0.3,0.2-0.5,0C130.4,146.3,130.4,146.1,130.5,145.9z"/>
<path class="st1" d="M132.8,148.2c0.2,0.1,0.3,0.3,0.5,0.5c-0.2,0.1-0.3,0.2-0.5,0C132.7,148.6,132.7,148.4,132.8,148.2z"/>
<path class="st1" d="M133.9,149.4c0.2,0.1,0.3,0.3,0.5,0.5c-0.2,0.1-0.3,0.2-0.5,0C133.8,149.7,133.8,149.5,133.9,149.4z"/>
<path class="st1" d="M135.1,150.5c0.2,0.1,0.3,0.3,0.5,0.5c-0.2,0.1-0.3,0.2-0.5,0C134.9,150.9,135,150.7,135.1,150.5z"/>
<path class="st1" d="M122.5,137.9c0.2,0.1,0.3,0.3,0.5,0.5c-0.2,0.1-0.3,0.2-0.5,0C122.3,138.2,122.4,138.1,122.5,137.9z"/>
<path class="st1" d="M124.8,140.2c0.2,0.1,0.3,0.3,0.5,0.5c-0.2,0.1-0.3,0.2-0.5,0C124.6,140.5,124.7,140.4,124.8,140.2z"/>
<path class="st1" d="M135.6,151.1c0.2,0.2,0.3,0.3,0.5,0.5c-0.3,0.2-0.5,0.1-0.5-0.2C135.6,151.2,135.6,151.1,135.6,151.1z"/>
<path class="st1" d="M136.1,73.1c-0.1,0.2-0.3,0.4-0.4,0.5C135.5,73.1,135.5,73.1,136.1,73.1z"/>
<path class="st1" d="M125.7,60c-0.1,0.2-0.3,0.3-0.4,0.4c0,0,0-0.1,0-0.1c0-0.1,0-0.3,0.1-0.3C125.5,59.8,125.6,59.9,125.7,60z"/>
<path class="st1" d="M106.4,144.9c0,0.2,0.1,0.4,0,0.7C106.3,145.3,106.1,145.1,106.4,144.9z"/>
<path class="st1" d="M89.4,98.2c0.2,0.1,0.3,0.3,0.5,0.4C89.6,98.7,89.4,98.6,89.4,98.2z"/>
<path class="st1" d="M120.8,140.6c0.1-0.1,0.2-0.1,0.3-0.2c0.1,0.1,0.1,0.2,0,0.3C121,140.8,120.8,140.8,120.8,140.6z"/>
<path class="st1" d="M138.9,69.7c-0.1,0.1-0.2,0.3-0.3,0.4C138.5,69.8,138.5,69.7,138.9,69.7z"/>
<path class="st1" d="M107.5,112.2c0,0.1,0,0.2-0.1,0.2c-0.1-0.1-0.3-0.1-0.2-0.2C107.2,112,107.3,112.2,107.5,112.2z"/>
<path class="st1" d="M110.2,54.5c-0.1-0.1,0-0.2,0-0.4c0.1,0,0.2,0.1,0.2,0.2C110.3,54.5,110.3,54.5,110.2,54.5z"/>
<path class="st1" d="M89.2,118c0.1,0.1,0.2,0.1,0.3,0.3C89.4,118.3,89.2,118.3,89.2,118z"/>
<path class="st1" d="M71.1,137.8C71.1,137.8,71.1,137.8,71.1,137.8c-0.1,0-0.2,0-0.2-0.1c0,0,0,0,0.1-0.1
	C71.1,137.6,71.1,137.7,71.1,137.8z"/>
<path class="st1" d="M89.8,54.3c0,0.1,0.1,0.2,0,0.3C89.6,54.5,89.6,54.4,89.8,54.3z"/>
<path class="st1" d="M89.8,145.4c0.2,0.1,0,0.2,0,0.3C89.6,145.6,89.6,145.5,89.8,145.4z"/>
<path class="st1" d="M59,132.7c0.1-0.1,0.1-0.1,0.2-0.2c0,0,0.1,0.1,0.1,0.1l0,0C59.2,132.6,59.1,132.7,59,132.7z"/>
<path class="st1" d="M90.1,81.6c-0.1,0.1-0.2,0.1-0.3,0.2C89.8,81.6,89.9,81.5,90.1,81.6z"/>
<path class="st1" d="M53.6,65.4c0,0.1,0.1,0.2,0,0.3C53.4,65.6,53.5,65.5,53.6,65.4z"/>
<path class="st1" d="M115.6,108.1c0-0.1,0-0.2,0-0.3C115.6,107.9,115.7,108,115.6,108.1z"/>
<path class="st1" d="M53.6,134.3c0.1,0.1,0.1,0.2,0,0.3C53.5,134.5,53.4,134.4,53.6,134.3z"/>
<path class="st1" d="M66,146.3c0.1,0,0.1,0,0.2,0c0,0.1,0,0.1-0.1,0.1C66,146.5,66,146.4,66,146.3z"/>
<path class="st1" d="M68.6,60.1c0.1,0,0.2,0.1,0.2,0.2C68.7,60.3,68.6,60.2,68.6,60.1z"/>
<path class="st1" d="M68.8,139.7c0,0.1-0.1,0.1-0.2,0.2C68.6,139.8,68.7,139.7,68.8,139.7z"/>
<path class="st1" d="M139.6,86.5c0.1,0,0,0.2,0.1,0.2C139.5,86.7,139.6,86.6,139.6,86.5z"/>
<path class="st1" d="M145.6,89.9c-0.1,0-0.1,0-0.2,0C145.5,89.7,145.6,89.7,145.6,89.9z"/>
<path class="st1" d="M115.6,109.7c0,0,0-0.1,0-0.1C115.7,109.6,115.6,109.6,115.6,109.7z"/>
<path class="st1" d="M144.8,93.5c0,0,0.1,0,0.1,0c0,0,0,0.1-0.1,0.1C144.8,93.7,144.8,93.6,144.8,93.5z"/>
<path class="st1" d="M108,110.1c0.1,0.1-0.1,0.1-0.1,0.2C107.9,110.2,107.9,110.1,108,110.1z"/>
<path class="st1" d="M59.3,132.6C59.3,132.6,59.3,132.6,59.3,132.6C59.3,132.6,59.3,132.6,59.3,132.6L59.3,132.6z"/>
<path class="st1" d="M59.4,132.3C59.4,132.3,59.4,132.2,59.4,132.3C59.5,132.2,59.5,132.3,59.4,132.3z"/>
<path class="st1" d="M68.9,55.6c0.3-0.1,0.4,0,0.4,0.3C69.2,55.8,69,55.7,68.9,55.6z"/>
<path class="st1" d="M130.7,55.9c0-0.2,0.1-0.4,0.4-0.3C131,55.7,130.8,55.8,130.7,55.9z"/>
<path class="st1" d="M72.5,58.5c0.1,0,0.2-0.1,0.3,0c0,0.1,0,0.1-0.1,0.2C72.6,58.7,72.5,58.6,72.5,58.5z"/>
<path class="st1" d="M127.3,58.7c0-0.2,0.1-0.2,0.2-0.2C127.4,58.6,127.4,58.7,127.3,58.7z"/>
<path class="st1" d="M55,131.8c0-0.1,0-0.2,0.1-0.2C55.1,131.7,55,131.8,55,131.8z"/>
<path class="st1" d="M69.3,144.1c0,0.1-0.1,0.2-0.2,0.1C69.2,144.2,69.2,144.1,69.3,144.1z"/>
<path class="st1" d="M55.7,131c0-0.1,0-0.2,0.1-0.2C55.8,130.9,55.7,130.9,55.7,131z"/>
<path class="st1" d="M55.8,69.2c-0.1,0-0.2-0.1-0.1-0.2C55.7,69.1,55.8,69.1,55.8,69.2z"/>
<path class="st1" d="M117.6,133.1c-0.1,0-0.2-0.1-0.2-0.2C117.5,132.9,117.6,133,117.6,133.1z"/>
<path class="st1" d="M155.2,132.5c0,0,0.1-0.1,0.1,0C155.4,132.6,155.3,132.6,155.2,132.5C155.3,132.6,155.2,132.6,155.2,132.5z"/>
<path class="st1" d="M98,97.5c0.1,0,0.2-0.1,0.2-0.1c0.1,0,0.3-0.1,0.4-0.2c0,0,0.1,0,0.1-0.1c0,0,0,0,0,0c0.1,0,0.1,0,0.1-0.1
	c0.1,0,0.1-0.1,0.2-0.1c0.1-0.1,0.3-0.1,0.4-0.3c0.1,0,0.1,0,0.2-0.1c0,0,0.1-0.1,0.1-0.1c0.4-0.3,0.7-0.7,1-1.1
	c0,0,0.1-0.1,0.1-0.1c0,0,0.1-0.1,0.1-0.1c0,0,0,0,0-0.1c0.1-0.1,0.1-0.2,0.1-0.3c0-0.1,0.1-0.1,0.1-0.2c0,0,0.1-0.1,0.1-0.2
	c0,0,0,0,0,0c0.1-0.1,0.1-0.2,0.1-0.3c0,0,0-0.1,0-0.1c0.1-0.4,0.2-0.8,0.3-1.1c0,0,0-0.1,0-0.1c0-0.2,0.1-0.4,0-0.5
	c0,0,0-0.1-0.1-0.1c-0.1,0-0.1,0-0.2,0c-4.7,0-9.5,0-14.2,0c-0.1,0-0.2,0.1-0.2-0.1c0.1-0.1,0.1-0.1,0.2-0.2
	c0.1-0.1,0.2-0.3,0.3-0.4c0-0.1,0.1-0.1,0.1-0.2c0,0,0,0,0,0c0.1-0.1,0.1-0.2,0.1-0.3c0,0,0,0,0,0c0.2-0.1,0.3-0.4,0.4-0.6
	c0.1-0.2,0.3-0.4,0.4-0.6c0.2-0.1,0.2-0.4,0.4-0.5c0.1,0,0.1-0.1,0.1-0.2c0-0.1,0.1-0.1,0.1-0.2c0.1,0,0.1-0.1,0.1-0.1
	c0.1,0,0.1-0.1,0.1-0.1c0,0,0,0,0-0.1c0.1,0,0.2,0,0.2,0c1.4,0,2.7,0,4.1,0c2.4,0,4.9,0,7.3,0c0.1,0,0.3,0,0.1-0.2
	c0-0.1-0.1-0.2-0.2-0.3c-0.1-0.3-0.3-0.5-0.5-0.7c-0.1-0.1-0.1-0.1-0.2-0.2c0-0.1-0.1-0.1-0.1-0.1c-0.1-0.1-0.2-0.2-0.3-0.3
	c-0.1-0.1-0.3-0.2-0.4-0.3c0,0,0,0,0,0c-0.1-0.1-0.3-0.2-0.4-0.3c-0.1-0.1-0.1-0.1-0.2-0.1c0,0-0.1-0.1-0.1-0.1c0,0,0,0-0.1,0
	c-0.1-0.1-0.3-0.2-0.5-0.2c0,0,0,0-0.1,0c-0.3-0.2-0.7-0.3-1-0.4c-0.1,0-0.2-0.1-0.3-0.1c-0.2-0.1-0.4-0.1-0.6-0.2
	c-0.1,0-0.3-0.1-0.4-0.1c-0.1,0-0.1,0-0.2,0c-1.4-0.3-2.8-0.2-4.2-0.2c-0.2,0-0.4,0-0.6,0c-0.9,0-1.8,0-2.7,0c-0.2,0-0.5,0-0.7,0
	c0,0-0.1,0-0.1,0c-0.1,0-0.2,0-0.2,0c0,0,0,0,0-0.1c0.1,0,0.1-0.1,0.1-0.1c0.1-0.1,0.1-0.2,0.2-0.3c0,0,0.1-0.1,0.1-0.1
	c0.1-0.1,0.1-0.1,0.2-0.2c0.2-0.3,0.4-0.6,0.6-0.9c0.1-0.2,0.3-0.4,0.4-0.6c0.1,0,0.1-0.1,0.1-0.2c0.1-0.1,0.1-0.2,0.2-0.3
	c0,0,0.1-0.1,0.1-0.1c0,0,0,0,0.1-0.1c0,0,0-0.1,0.1-0.1c0.1-0.1,0.1-0.2,0.2-0.2c0.1,0,0-0.1,0.1-0.1c0.1,0,0.3,0,0.4,0
	c1.1,0,2.2,0,3.3,0c1.6,0,3.3,0,4.9,0c0.1,0,0.2,0,0.2,0c0.1,0,0.2,0,0.4,0c0.1,0,0.1,0,0.2,0c1.3,0,2.7,0,4,0c0,0,0.1,0,0.1,0
	c0.9,0,1.7,0,2.6,0c1.5,0,3,0,4.6,0c0.2,0,0.3,0,0.5,0c0.6,0,1.1,0,1.7,0c0.1,0,0.2,0,0.4,0c0,0,0.1,0,0.1,0c0,0,0.1,0,0.1,0
	c0.2,0,0.5,0,0.7,0c0.1,0,0.2,0,0.3,0c-0.3,0.5-0.7,1.1-1,1.6c0,0,0,0,0,0.1c-0.4,0.6-0.8,1.1-1.1,1.7c-0.1,0.1-0.1,0.2-0.2,0.3
	c-0.1,0-0.1,0-0.2,0c-1.5,0-3,0-4.5,0c-0.5,0-0.9,0-1.4,0c0,0-0.1,0-0.1,0c0,0,0,0,0,0c-0.1,0-0.2,0-0.3,0c0.4,0.5,0.7,1,0.9,1.5
	c0.4,0.8,0.8,1.6,0.9,2.4c0,0,0,0.1,0,0.1c0,0,0,0,0,0c0.3,0,0.7,0,1,0c2,0,3.9,0,5.9,0c0,0,0.1,0,0.1,0c-0.2,0.3-0.4,0.6-0.6,1
	c-0.4,0.6-0.8,1.1-1.1,1.8c-0.1,0.1-0.1,0.2-0.2,0.3c0,0-0.1,0.1-0.1,0.1c0,0,0,0,0,0c-0.1,0.4-0.4,0.4-0.8,0.4c-1,0-2,0-3,0.1
	c-0.1,0-0.1,0-0.2,0.1c0-0.1,0,0-0.1,0c0,0-0.1,0,0,0c-0.2-0.1-0.5,0-0.7,0c-0.1,0,0,0.1,0,0.1c0,0.2,0,0.3-0.1,0.5c0,0,0,0.1,0,0.1
	c0,0,0,0,0,0c0,0,0,0.1,0,0.1c-0.2,0.6-0.3,1.1-0.5,1.6c-0.2,0.4-0.4,0.8-0.6,1.2c-0.4,0.8-1,1.5-1.6,2.1c-0.5,0.5-1.1,1-1.7,1.4
	c-0.1,0-0.1,0.1-0.2,0.1c-0.1,0-0.1,0-0.1,0.1c-0.3,0.2-0.7,0.4-1,0.6c-0.2,0.1-0.5,0.2-0.8,0.3c-0.2,0.1-0.4,0.2-0.6,0.2
	c-1,0.4-2,0.6-3.1,0.8c-0.7,0.1-1.5,0.2-2.3,0.2c0.4,0.4,0.7,0.9,1,1.3c0.8,1,1.6,2,2.4,3c0.8,1,1.5,1.9,2.3,2.9
	c0.4,0.5,0.7,0.9,1.1,1.4c0,0.1,0.1,0.1,0.1,0.2c0.2,0.2,0.4,0.5,0.6,0.7c0.3,0.3,0.5,0.7,0.8,1c0.1,0.2,0.3,0.3,0.4,0.5
	c0,0,0,0,0,0c0.4,0.5,0.8,1,1.1,1.4c0,0,0.1,0.1,0.1,0.1c0.2,0.3,0.4,0.5,0.6,0.8c0.3,0.4,0.7,0.8,1,1.3c0.7,0.8,1.3,1.7,2,2.5
	c0,0,0.1,0.1,0.1,0.1c0,0.1,0,0.3,0,0.4c0,0.2-0.1,0.2-0.2,0.2c-1.2,0-2.5,0-3.7,0.1c-0.4,0-0.8,0-1.1,0c-0.3,0-0.5,0-0.7-0.3
	c0,0,0,0,0,0c-0.1-0.1-0.2-0.2-0.3-0.3c0,0,0,0-0.1,0c0,0,0,0,0,0c0-0.2-0.2-0.3-0.3-0.4c-0.2-0.3-0.5-0.6-0.8-0.9
	c-0.1-0.2-0.3-0.3-0.4-0.5c0,0-0.1-0.1-0.1-0.1c0,0,0-0.1-0.1-0.1c0-0.1-0.1-0.1-0.1-0.2c-0.4-0.4-0.7-0.8-1-1.2
	c-0.2-0.2-0.4-0.5-0.6-0.7c-0.4-0.5-0.8-0.9-1.2-1.4c-0.3-0.4-0.6-0.7-0.9-1.1c-0.3-0.3-0.5-0.6-0.8-0.9c-0.2-0.2-0.3-0.4-0.5-0.6
	c0,0,0,0,0-0.1c-0.4-0.5-0.8-1-1.2-1.5c0-0.1-0.1-0.2-0.2-0.2c-0.1-0.1-0.3-0.3-0.4-0.5c-0.2-0.2-0.3-0.4-0.5-0.6
	c-0.1-0.1-0.3-0.3-0.4-0.5c-0.2-0.3-0.5-0.6-0.7-0.8c-0.2-0.2-0.4-0.5-0.6-0.7c-0.1-0.2-0.2-0.3-0.4-0.5c0,0,0-0.1-0.1-0.1
	c0,0,0,0,0,0c0,0-0.1-0.1-0.1-0.1c0,0,0,0,0,0c-0.1-0.1-0.1-0.1-0.2-0.2c-0.5-0.6-0.9-1.1-1.4-1.7c0-0.1-0.1-0.1-0.1-0.2
	c0-0.1-0.1-0.1-0.1-0.2c0,0,0,0-0.1-0.1c-0.1-0.1-0.2-0.3-0.3-0.4c0,0-0.1-0.1-0.1-0.1c0-1.1-0.1-2.2-0.1-3.3c0-0.1,0-0.2,0.1-0.1
	c0.5,0.1,0.9,0.1,1.4,0.1c0.7,0,1.3,0,2,0c0.1,0,0.1,0,0.2,0c0.1,0,0.1,0,0.2,0c0.3,0,0.5-0.1,0.8-0.1c0.2,0,0.5-0.1,0.7-0.1
	c0,0,0.1,0,0.1,0c0.2,0,0.4,0,0.5-0.1c0.2,0,0.4-0.1,0.6-0.1c0,0,0.1,0,0.1,0c0.4-0.1,0.8-0.2,1.2-0.3c0,0,0.1,0,0.1,0
	c0.2,0,0.4-0.1,0.6-0.2c0.2-0.1,0.3-0.1,0.5-0.2C97.7,97.7,97.9,97.6,98,97.5z"/>
</svg>
