<svg width="24" height="25" viewBox="0 0 24 25" fill="none" xmlns="http://www.w3.org/2000/svg">
<path d="M9.99 18.48C14.4028 18.48 17.98 14.9028 17.98 10.49C17.98 6.07724 14.4028 2.5 9.99 2.5C5.57724 2.5 2 6.07724 2 10.49C2 14.9028 5.57724 18.48 9.99 18.48Z" fill="#56BE89"/>
<path d="M21.9701 16.4901C21.9701 19.7901 19.2901 22.4701 15.9901 22.4701C13.9501 22.4701 12.1601 21.4501 11.0801 19.9001C15.4401 19.4101 18.9101 15.9401 19.4001 11.5801C20.9501 12.6601 21.9701 14.4501 21.9701 16.4901Z" fill="#1B5148"/>
<path d="M11.45 10.2099L9.05 9.36991C8.81 9.28991 8.76 9.26991 8.76 8.91991C8.76 8.65991 8.94 8.44991 9.17 8.44991H10.67C10.99 8.44991 11.25 8.73991 11.25 9.09991C11.25 9.50991 11.59 9.84991 12 9.84991C12.41 9.84991 12.75 9.50991 12.75 9.09991C12.75 7.94991 11.86 7.00991 10.75 6.95991V6.90991C10.75 6.49991 10.41 6.15991 10 6.15991C9.59 6.15991 9.25 6.48991 9.25 6.90991V6.95991H9.16C8.11 6.95991 7.25 7.83991 7.25 8.92991C7.25 9.87991 7.67 10.4899 8.54 10.7899L10.95 11.6299C11.19 11.7099 11.24 11.7299 11.24 12.0799C11.24 12.3399 11.06 12.5499 10.83 12.5499H9.33C9.01 12.5499 8.75 12.2599 8.75 11.8999C8.75 11.4899 8.41 11.1499 8 11.1499C7.59 11.1499 7.25 11.4899 7.25 11.8999C7.25 13.0499 8.14 13.9899 9.25 14.0399V14.0999C9.25 14.5099 9.59 14.8499 10 14.8499C10.41 14.8499 10.75 14.5099 10.75 14.0999V14.0499H10.84C11.89 14.0499 12.75 13.1699 12.75 12.0799C12.75 11.1299 12.32 10.5199 11.45 10.2099Z" fill="white"/>
</svg>
