<?xml version="1.0" encoding="utf-8"?>
<!-- Generator: Adobe Illustrator 26.0.1, SVG Export Plug-In . SVG Version: 6.00 Build 0)  -->
<svg version="1.1" id="Layer_1" xmlns="http://www.w3.org/2000/svg" xmlns:xlink="http://www.w3.org/1999/xlink" x="0px" y="0px"
	 viewBox="0 0 412 425" style="enable-background:new 0 0 412 425;" xml:space="preserve">
<style type="text/css">
	.st0{fill:#3168B2;}
</style>
<path class="st0" d="M162.2,292.2c3.6,8.8-1.6,12.5-8.1,15.8c-7.1,3.7-13.9,7.9-20.8,12c-5.9,3.5-10.2,2.7-13.7-3.5
	c-12-21.1-24.2-42.1-36.4-63.1c-3.5-6-2.4-10.3,3.8-13.6c6.8-3.6,13.3-7.7,19.9-11.6c11.7-6.7,12.3-6.6,21.1,4.6
	c16.8-28,42.8-34.2,72.7-31.2c1.7,0.2,3.6,0.6,4.6-1.7c2.3-5.1-1.1-20.4-5.3-24.4c-2.7-2.7-4.4-1.5-7,0.3
	c-21.6,14.8-48.6,10.2-63-20c-1-2.1-1.6-3.8,0.4-5.8c21.6-21.4,46.9-21.9,65-0.1c0.2,0.2,0.3,0.6,0.5,0.8c4.1,3.8,1.7,12,9.1,13.6
	c1.6-8,10-12.3,10.1-21.7c0.2-27.4,28-48.8,55.7-44c26.6,4.6,30.6,11.8,20.5,37c-10.6,26.7-40.8,38.7-66.2,25.8
	c-6.2-3.2-7.7,0.5-7.9,4.2c-0.7,11-0.5,22.2-0.6,33.2c0,3.4,2.5,2.8,4.5,2.9c6.2,0,12.3,0.2,18.5,0c10-0.5,17.6,3.7,22,12.3
	c2.9,5.7,4.7,3.5,7.5,0.4c7.2-8.1,14.2-16.3,21.7-24c7.8-8,18.8-9.6,28-4.9c8.9,4.5,13.7,13.1,12.9,22.6c-0.3,3.8-1.6,7.2-4,10.2
	c-15,18.7-29.5,37.9-46.7,54.9c-13.6,13.4-28.7,20.9-48.7,19.6C209.4,291.1,186.3,292.2,162.2,292.2z M202.5,281
	c11.4,0,22.9-0.7,34.2,0.2c12.8,1,22.7-3.9,31.7-12c19-16.9,33.9-37.4,49.8-57c2.8-3.4,3.3-7.4,1.4-11.2c-2.2-4.4-6-6.8-11.1-7
	c-5.6-0.2-9,3.1-12.4,6.9c-11.6,12.8-23.3,25.5-34.8,38.3c-5.1,5.7-11,10.2-18.8,10.4c-12.3,0.3-24.6,0.1-37,0.1
	c-3.8,0-7-1.1-7.2-5.3c-0.1-4.9,3.4-5.9,7.6-5.8c10.5,0.1,21,0.1,31.4,0c9.6-0.1,15.9-5,16.2-12.6c0.3-7.7-6.4-13.2-16.6-13.2
	c-16.9-0.1-33.9,0.7-50.8-0.2c-17.5-1-30.9,5.1-42.3,18.1c-10.7,12.2-11.1,11.9-3.1,25.7c3.5,6.1,7.3,12.1,10.5,18.4
	c2.3,4.7,5.3,6.6,10.7,6.4C175.4,280.7,188.9,281,202.5,281z M149.9,295c-0.9-1.5-1.9-3.4-3-5.2c-7.2-12.5-14.4-25.1-21.6-37.6
	c-9.6-16.6-9.4-16.3-26-6.8c-5.4,3.1-4.9,5.4-2.3,9.8c7.6,12.6,14.9,25.5,22.2,38.3c10.1,17.5,12.4,17.9,28.3,5.3
	C148.8,297.9,150.5,297.4,149.9,295z M231.7,152.2c20.4,7.6,40.4-0.7,48.6-19c7.8-17.6,4.6-22.8-14.9-24.1
	c-20.3-1.3-38.4,14-38.2,32.7c8.8-5.2,17.5-10.4,26.3-15.6c3.6-2.1,7.5-4.4,10.3,0.5c2.9,5-1.3,7.1-4.7,9.2
	C250.2,141.2,241.3,146.5,231.7,152.2z M187.3,158.8c-11.1-18.2-30-16.6-42.4-6.5c-1.5,1.2-2.3,2.1-1.3,4.5
	c5.3,13.4,23.9,19.7,37.4,12.1c-5.9-1.4-11.5-2.9-17.2-4.1c-3.7-0.8-6.8-2.5-6-6.6c0.8-4.7,4.5-5.2,8.6-4.2
	C173.1,155.6,179.9,157.1,187.3,158.8z"/>
</svg>
