<?xml version="1.0" encoding="utf-8"?>
<!-- Generator: Adobe Illustrator 26.0.1, SVG Export Plug-In . SVG Version: 6.00 Build 0)  -->
<svg version="1.1" id="Layer_1" xmlns="http://www.w3.org/2000/svg" xmlns:xlink="http://www.w3.org/1999/xlink" x="0px" y="0px"
	 viewBox="0 0 412 425" style="enable-background:new 0 0 412 425;" xml:space="preserve">
<style type="text/css">
	.st0{fill:#3168B2;}
</style>
<g>
	<path class="st0" d="M164,317.5c-0.5,0.6-1.1,1.2-1.7,1.7c-0.3-0.1-0.5-0.5-0.9-0.3c-0.2,0.1-0.4,0-0.3-0.2
		c0.1-0.3,0.1-0.5-0.2-0.6c-0.3-0.1-0.4,0.3-0.4,0.5c-0.1,0.4-0.6,0.3-0.6,0.6c0.4,0.3,0.9,0,1.3,0.3c-0.1,0.3-0.4,0.2-0.6,0.2
		c-1.7,0.2-3,1-3.5,2.7c-0.2,0.7-0.1,1.4-0.1,2.1c-2.8,3.2-6.4,3.4-9.4,0.3c-16.1-16.1-32.1-32.1-48.2-48.2c-2.6-2.6-2.6-6.1,0-8.7
		c6.6-6.7,13.2-13.4,20-19.9c4.5-4.4,9.9-5.4,15.8-3.4c0.7,0.3,1,0.2,1.5-0.5c8.1-13,19.8-20.6,34.9-22.8c9.2-1.3,18.1,0.2,26.5,4.5
		c2.6,1.3,5.3,1.9,8.2,1.9c12.1,0,24.2,0,36.3,0c4.1,0,7.7,1.2,10.8,3.8c0.5,0.4,0.7,0.4,1.2,0c8.2-8,16.5-15.9,24.7-23.9
		c7.7-7.5,20-5.9,25.4,3.4c3.3,5.6,2.7,13-1.4,18c-13.2,16.3-26.4,32.6-39.7,48.8c-2.9,3.5-6.6,5.2-11.1,5.2c-18.7,0-37.5,0-56.2,0
		c-6.2,0-11.3,2.5-15.5,6.9c-0.2,0.2-0.3,0.4-0.2,0.8c1.3,5.9-0.2,10.8-4.5,15c-3.5,3.4-7,7-10.5,10.4c-0.3-0.4-0.1-0.8,0.1-1.2
		c0.1-0.2,0.3-0.5,0.1-0.6c-0.2-0.2-0.5-0.3-0.9-0.2c-0.9,0.3-1.3,1.5-0.7,2.3C163.9,317,164,317.2,164,317.5z M111.4,276.3
		c-0.3,0.7-0.3,1.4-0.2,2.1c0.1,1.6,1.3,2.4,2.6,2c0,0,0.1,0,0.2,0.1c0.1,0.3-0.4,0.3-0.3,0.5c0.8,0.2,1.6-0.1,2.4-0.2
		c0.1,0.1,0.3,0.2,0.4,0.3c11.7,11.7,23.3,23.3,35,35c0.6,0.6,0.9,0.5,1.5,0c5.5-5.6,11.1-11.2,16.7-16.7c2.8-2.8,2.7-6.8,0-9.4
		c-7.1-7-14.1-14.1-21.2-21.1c-3.8-3.8-7.5-7.6-11.3-11.4c0.5-0.4,1.1-0.1,1.7-0.2c0.4-0.1,0.9-0.3,0.8-0.7c0-0.4-0.5-0.2-0.8-0.2
		c-0.3,0-0.6,0-0.8,0c-0.7,0.1-0.9-0.3-0.9-0.9c0-0.6,0-1.2,0-2c-0.5,0.5-0.8,0.9-1,1.4c-0.2,0.5,0.1,1.1-0.2,1.5
		c-0.6-0.6-1.2-1.1-1.8-1.7c-2.5-2.4-6.2-2.4-8.7,0.1c-1.2,1.2-2.4,2.4-3.6,3.6c-4.5,4.5-9.1,9.1-13.6,13.6c-0.5,0.4-0.4,0.7,0,1.1
		c0.8,0.8,1.6,1.6,2.4,2.4C110.5,276.1,110.5,276.6,111.4,276.3z M229.9,252.2c0.4,0,0.5,0.3,0.8,0.5c0.6,0.6,1.2,1.2,1.8,1.8
		c0.4,0.5,0.7,0.3,1-0.1c0.4-0.4-0.1-0.6-0.3-0.8c-0.4-0.8-1.7-1.2-1.2-2.5c0.4-0.1,0.8-0.1,1.1,0c0.2,0.9,1,0.9,1.6,1.1
		c1,0.3,1.5-0.4,2-1.1c2,0,4.1,0,6.1-0.1c4.8-0.1,8.1-4.4,6.9-9c-0.8-3.1-3.8-5.2-7.2-5.2c-12.1,0-24.2,0-36.4,0
		c-4.1,0-8.1-0.7-11.8-2.6c-9.3-4.8-18.9-5.5-28.8-2.3c-9.6,3.2-17.1,9.2-22.1,18.1c-0.3,0.5-0.4,0.9,0.2,1.4
		c10.2,10.2,20.4,20.3,30.5,30.5c0.7,0.7,1,0.6,1.6,0c5.4-5.4,11.9-7.9,19.5-7.9c18.9,0,37.8,0,56.7,0c1.8,0,3.3-0.6,4.5-2
		c8.2-10.1,16.4-20.2,24.6-30.3c5-6.1,9.9-12.2,14.9-18.3c2.3-2.9,2.2-7.1-0.5-9.6c-2.8-2.7-7-2.7-9.8-0.1
		c-8.8,8.5-17.7,17.1-26.5,25.6c-0.4,0.4-0.5,0.7-0.3,1.2c0.5,1.9,0.4,3.9,0.2,5.8c-1,7-7.3,13.1-14.4,13.4
		c-6.3,0.3-12.6,0.1-18.9,0.1c0-0.6,0.4-1,0.6-1.6c0.3-1,0.1-1.4-0.9-1.8c-2.5-0.9-4.8,0.7-5,3.3c-4.6,0-9.2,0-13.8,0
		c-0.5,0-1.1-0.2-1.5-0.4c-1.9-0.9-2.9-3-2.5-5.1c0.4-2,2.2-3.4,4.3-3.4c4.1,0,8.2,0,12.3,0c2.7,0,5.3,0,8,0c-0.2,1-0.3,1.9,0.5,2.7
		c0.2,0.2,0,0.4-0.1,0.6c-0.1,0.5,0.2,0.8,0.6,0.6c0.5-0.3,0.7,0,1,0.3c0.2,0.2,0.4,0.6,0.7,0.7c0.5,0.2,0.6,1.4,1.4,0.6
		c0.8-0.8-0.4-1-0.6-1.4c-0.2-0.3-0.6-0.6-0.8-0.9c-0.3-0.3-0.4-0.6,0-0.9C230.4,253,230,252.6,229.9,252.2z M158.4,320
		c-0.3-0.1-0.4-0.2-0.4-0.2c-0.5,0.2-1,0.8-1.5,0c-0.1-0.1-0.4,0-0.5,0.2c-0.2,0.3-0.1,0.5,0.2,0.6c0.5,0.2,0.4,0.4,0.2,0.8
		c-0.1,0.2-0.3,0.4,0.1,0.6C157.1,321.4,157.5,320.6,158.4,320z"/>
	<path class="st0" d="M186.1,204.5c-2.9-2.4-4.4-5.5-4.5-9.3c-0.2-14.1,9.7-26.8,23.5-30.3c2.5-0.6,4.9-0.9,7.5-0.9
		c7.9,0,15.7-0.1,23.6,0c12.5,0.2,21.8,5.9,27.8,16.8c2.5,4.5,3.5,9.3,3.5,14.4c-0.1,6.7-5.7,12.2-12.5,12.2c-20.3,0-40.6,0-60.9,0
		c-1.5,0-2.9-0.2-4.2-0.8c0.4-0.6,1.2-0.9,1.5-1.7c0.1-0.3,0.4-0.7-0.1-0.9c-0.4-0.2-0.7,0-0.8,0.4c-0.2,0.4-0.4,0.8-0.9,0.9
		c-0.2,0-0.4,0-0.5-0.1c-0.2-0.2,0.1-0.3,0.2-0.5c0.5-0.5,1.1-1.1,1.5-1.7c0.2-0.3,0.3-0.3,0.6-0.2c1.3,0.7,2.5,0.3,3.2-1.1
		c0.1-0.3,0.5-0.7,0-1c-0.4-0.2-0.7,0-0.9,0.4c-0.2,0.4-0.4,0.6-0.8,0.8c-0.2,0.1-0.5,0.1-0.6-0.1c-0.2-0.2,0.1-0.4,0.2-0.5
		c0.4-0.4,0.8-0.8,1.2-1.2c0.3-0.3,0.4-0.5,0.1-0.8c-0.6-0.7-1.7-0.9-2.6-0.4c-0.9,0.5-1.4,1.7-1.1,2.5c0.1,0.3,0.6,0.4,0.4,0.9
		c-2-1-3.3-0.3-3.8,2C186.5,204.6,186.3,203.6,186.1,204.5z M198,197.6c0.2-0.9-0.5-1.5-1.2-2c-1-0.7-2.5-0.2-3,1
		c-0.1,0.4-0.5,0.4-0.7,0.6c-0.2,0.2-0.6,0.4-0.2,0.8c1.2,1.2,2.4,2.4,3.6,3.6c0.3,0.3,0.5,0.2,0.8-0.1c0.3-0.3,0.5-0.5,0.1-0.8
		c-0.2-0.2-0.4-0.4-0.6-0.6c-0.3-0.3-0.5-0.5,0.1-0.7C197.7,199.2,198,198.5,198,197.6z M199.4,193c-0.7-0.8-1.3-1.5-2-2.1
		c-0.3-0.4-0.6-0.3-1,0c-0.2,0.2-0.4,0.5-0.1,0.8c1.3,1.3,2.5,2.5,3.8,3.8c0.3,0.3,0.6,0.2,0.9-0.1c0.3-0.3,0.2-0.5,0-0.8
		c-0.2-0.2-0.5-0.3-0.5-0.7c0.8-0.2,1.6,0.1,2.3-0.3c0.2-0.1,0.5-0.3,0.5-0.5c0-0.4-0.4-0.2-0.6-0.2c-0.7-0.1-1.5,0-2-0.3
		c-0.8-0.4,0.2-1.2-0.1-1.9c-0.1-0.2,0.1-0.5-0.2-0.6c-0.2-0.1-0.4,0.2-0.5,0.3C199.2,191.1,199.7,192,199.4,193z M200,196.4
		c-0.1-0.1-0.2-0.2-0.3-0.3c-0.8-0.8-1.6-1.5-2.3-2.3c-0.3-0.3-0.6-0.2-0.9,0.1c-0.3,0.3-0.3,0.5,0,0.8c0.8,0.8,1.6,1.5,2.3,2.3
		c0.2,0.2,0.3,0.3,0.5,0.1C199.6,196.8,199.8,196.6,200,196.4z"/>
	<path class="st0" d="M299.2,187.5c-0.2,0.1-0.5,0.1-0.7,0c0-0.5,0.1-1,0.6-1.2c0.3-0.2,0.6-0.5,0.8-0.8c0.2-0.4,0.4-0.4,0.8-0.3
		c1.4,0.6,2.4,0.2,3.1-1.2c0.1-0.3,0.4-0.7-0.1-0.9c-0.4-0.2-0.7,0-0.8,0.4c-0.2,0.4-0.4,0.8-0.9,0.9c-0.2,0-0.4,0-0.5-0.1
		c-0.2-0.2,0.1-0.3,0.2-0.5c0.5-0.5,0.9-0.9,1.4-1.4c0.2-0.2,0.4-0.4,0.1-0.7c-0.6-0.5-1.3-0.9-2.1-0.6c-0.9,0.3-1.5,0.8-1.5,1.9
		c0,0.6,0.3,1.1,0.3,1.7c-2.2-1-3.5-0.2-3.5,2.1c0,0.2,0,0.4,0,0.7c-0.1,0-0.2,0-0.4,0c0-0.4,0.1-0.8-0.3-1
		c-0.5-0.1-0.7,0.3-0.9,0.6c-0.1,0.1,0,0.2-0.1,0.4c-3.1,0-6.1,0-9.2,0c-2.7,0-5.4,0-8,0c-2.9,0-4.8-1.3-5.7-4
		c-2.7-8-7.6-14.4-14.6-19.2c-3.3-2.3-3.5-6.6-0.4-9.1c5.1-4.2,10.9-6.3,17.5-6.3c7,0,13.9,0,20.9,0c13.5,0,24.6,9,27.3,22.2
		c0.6,2.7,0.9,5.5,0.1,8.2c-1.2,4.4-5.1,7.8-9.6,8.1c-4,0.3-8,0.1-12.1,0.1c-0.1-0.4,0.3-1-0.3-1.2c-0.6-0.2-0.9,0.4-1.1,0.9
		C299.3,187.3,299.3,187.4,299.2,187.5z M307.4,179.9c-0.1-0.3-0.2-0.7-0.4-1c-0.7-1.5-2.8-1.9-3.7-0.6c-0.3,0.5-0.6,0.9-1.1,1.3
		c-0.3,0.2-0.4,0.4-0.1,0.7c1.2,1.2,2.4,2.4,3.6,3.6c0.4,0.4,0.5,0.1,0.8-0.1c0.2-0.2,0.5-0.4,0.1-0.8c-0.2-0.1-0.3-0.3-0.5-0.5
		c-0.5-0.4-0.7-0.7,0.1-1C307.1,181.3,307.2,180.6,307.4,179.9z M309.6,176.1c0.8,0,1.3,0,1.9,0c0.6,0,1-0.5,1.1-0.9
		c0-0.4-0.6-0.2-1-0.2c-1.7,0-1.7,0-1.8-1.7c0-0.3,0.2-0.7-0.2-0.8c-0.3-0.1-0.5,0.3-0.7,0.6c-0.2,0.2-0.2,0.5-0.2,0.8
		c0,0.4,0,0.8,0,1.2c-0.1,0-0.2,0.1-0.3,0.1c-0.6-0.7-1.2-1.3-1.8-2c-0.4-0.4-0.6-0.2-1,0.1c-0.3,0.2-0.3,0.4-0.1,0.6
		c1.2,1.4,2.6,2.7,4,4c0.3,0.3,0.5,0.1,0.7-0.1c0.2-0.2,0.5-0.5,0.1-0.8C310.1,176.7,310,176.5,309.6,176.1z M309.2,178.5
		c-0.1-0.1-0.1-0.2-0.2-0.3c-0.8-0.8-1.6-1.6-2.4-2.4c-0.4-0.4-0.5,0-0.7,0.2c-0.2,0.2-0.4,0.4-0.1,0.7c0.8,0.8,1.6,1.6,2.4,2.4
		c0.2,0.2,0.3,0.3,0.6,0.1C308.9,179,309.2,178.8,309.2,178.5z"/>
	<path class="st0" d="M128.7,165.1c1.7-3.9,4.2-7.2,7.5-9.9c4.3-3.5,9.2-5.6,14.7-6.2c0.2,0,0.3,0,0.5,0c0.3,0.9,1.1,1.3,1.7,1.9
		c0.3,0.3,0.5,0.5,0.9,0.1c0.4-0.4,0.4-0.6,0-1c-0.3-0.3-0.7-0.6-0.7-1.2c0.2-0.1,0.4-0.1,0.6,0c0.2,0.6,0.8,0.8,1.2,0.9
		c0.3,0,0.7-0.4,0.7-0.9c0.1,0,0.1-0.1,0.2-0.1c7.1,0,14.3-0.3,21.4,0.1c5.8,0.3,10.9,2.6,15.3,6.4c2.9,2.5,2.5,6.7-0.7,8.9
		c-6.2,4.3-10.8,9.9-13.6,16.9c-0.3,0.7-0.6,1.5-0.8,2.2c-0.9,2.6-2.7,4-5.4,4c-11.5,0-23,0-34.6,0c-6.3,0-12-5.1-11.2-13
		c0.3-2.7,0.7-5.4,1.8-8c-0.1,0.7,0.3,0.8,1,0.7c-0.3,1.2-0.1,2.3,0.2,3.3c-0.5-0.1-0.4-0.5-0.6-0.9c-0.1-0.4-0.1-0.8-0.5-1.2
		c-0.3,0.5,0.1,1.3-0.7,1.4c-0.1,0-0.1,0.3-0.1,0.4c0,0.1,0.2,0.2,0.3,0.1c0.4-0.2,0.7,0,0.9,0.3c0.4,0.5,0.5,0.2,0.7-0.2
		c0.7,0.6,1.4,1.3,2.4,0.5c0.1,0.4-0.3,0.5-0.2,0.8c1.6,0.2,2.9-0.3,3.7-1.6c0.7-1.1,1.1-2.5,0.1-3.7c-0.3,0.9-0.7,1.7-1.5,2.6
		c0.2-1,0.8-1.6,1-2.3c0.3-0.8,0-1.3-0.7-1.7c-1.1-0.5-2.2-0.5-3.3,0.1c-0.4,0.2-0.8,0.5-1.3,0.8c0.1-0.6,0.8-0.8,0.8-1.3
		C129.7,164.7,129.3,166,128.7,165.1z M145.1,157c0.1,0,0.3,0,0.4,0.1c1.4,0.8,2.7,0.4,3.4-1c0.1-0.3,0.4-0.7,0-0.9
		c-0.4-0.2-0.7,0-0.9,0.4c-0.1,0.3-0.4,0.6-0.7,0.8c-0.2,0.1-0.5,0.2-0.7,0c-0.3-0.3,0.1-0.4,0.2-0.6c0.2-0.3,0.5-0.5,0.7-0.7
		c0.9-0.9,0.8-1.3-0.4-1.8c-0.8-0.3-1.4-0.1-2,0.4c-1.1,1-0.7,2.1-0.2,3.1c-0.4-0.1-0.9-0.3-1.3-0.4c-1.4-0.3-2.8,1.2-2.4,2.6
		c0.3,1,1.2,1.8,2.2,1.8c1,0,2-0.6,2.4-1.7c0.1-0.3,0.2-0.6-0.1-0.7c-0.3-0.1-0.7-0.1-0.8,0.2c-0.1,0.3-0.2,0.5-0.4,0.7
		c-0.3,0.3-0.7,0.5-1,0.2c-0.3-0.3,0.2-0.5,0.4-0.7C144.2,158.2,145.1,157.9,145.1,157z M152.3,152.1c0.2-1.1-0.5-1.8-1.3-2.2
		c-0.7-0.4-1.6-0.3-2.2,0.2c-0.6,0.4-0.8,1.3-1.6,1.8c-0.4,0.2,0,0.6,0.3,0.8c1.1,0.8,1.9,1.9,2.9,2.8c0.3,0.3,0.6,1.1,1.3,0.5
		c0.7-0.7-0.2-0.9-0.4-1.3c0-0.1-0.1-0.1-0.1-0.1c-0.3-0.3-0.3-0.4,0.2-0.6C152,153.5,152.4,152.9,152.3,152.1z M140.2,164.7
		c-0.1-0.1-0.2-0.3-0.3-0.4c-0.4-0.4-0.8-0.9-1.3-1.3c-0.4-0.4-0.5-0.7,0-1.1c0.3-0.3,0.4-0.5,0.1-0.9c-0.4-0.4-0.6-0.1-0.8,0.1
		c-0.2,0.2-0.5,0.4-0.8,0.1c-0.3-0.3-0.2-0.6,0.1-0.9c0.1-0.2,0.6-0.2,0.2-0.6c-0.3-0.3-0.6-0.4-1-0.2c-0.9,0.5-1.1,1.5-0.4,2.3
		c0.2,0.3,0.7,0.5,0.2,1.1c-0.3,0.3,0.3,0.8,0.7,0.6c0.6-0.4,0.8,0,1.2,0.3c0.4,0.4,0.8,0.8,1.2,1.2c0.2,0.2,0.3,0.3,0.6,0.2
		C139.8,165.2,140.1,165,140.2,164.7z M141.5,163.4c0.3-0.1,0.5-0.3,0.7-0.5c0.2-0.2,0-0.4-0.2-0.6c-0.3-0.3-0.6-0.6-0.9-0.9
		c-0.5-0.5-1.1-1-0.3-1.8c0.3-0.3-0.2-1.2-0.4-1c-0.7,0.6-1.2,1.3-1.8,1.9c0,0,0.1,0.2,0.2,0.3c0.8,0.8,1.6,1.6,2.4,2.4
		C141.3,163.3,141.4,163.3,141.5,163.4z"/>
	<path class="st0" d="M238.8,153.7c-1,0.9-2,1.6-3.2,2.3c-13.5,8-31.2-0.7-33-16.3c-1.4-12.2,7-22.9,19.1-24.6
		c12-1.6,23.2,7.1,24.6,19.2c0.3,2.4,0.2,4.8-0.3,7.2c-0.2,0.1-0.5,0.3-0.7,0.4c-0.8,0.6-0.8,1.6-0.1,2.2c-0.4,1.1-0.7,2.2-1.4,3.2
		c-0.5,0-0.9,0-1.4-0.1c-1.4-0.3-2.7,0.1-3.6,1.2c-0.9,1.1-1.2,2.4-0.5,3.8C238.6,152.7,238.9,153.2,238.8,153.7z M237.5,150.9
		c-0.3,0.8-0.2,1.7,0.2,2c0,0,0,0,0.1,0.1c0.1,0.1,0.2,0.2,0.4,0.1c0.1-0.1,0.2-0.3,0.1-0.4C237.9,152.2,238,151.5,237.5,150.9z"/>
	<path class="st0" d="M164.5,105.4c10.8,0,19.4,8.9,19.4,19.7c0,10.8-8.9,19.5-20,19.3c-10.6-0.1-19.2-8.9-19.1-19.8
		C144.8,114.1,153.7,105.4,164.5,105.4z"/>
	<path class="st0" d="M265.3,125.1c0-10.9,8.7-19.6,19.6-19.6c10.7,0,19.5,8.8,19.5,19.4c0,10.9-8.7,19.6-19.5,19.7
		C274.1,144.5,265.3,135.8,265.3,125.1z"/>
	<path class="st0" d="M129.2,170.6c-0.3-1.1-0.6-2.1-0.2-3.3c-0.6,0.1-1,0-1-0.7c0.1-0.5,0.3-1,0.6-1.5c0.7,0.9,1-0.4,1.6-0.2
		c0,0.6-0.7,0.7-0.8,1.3c0.5-0.3,0.9-0.6,1.3-0.8c1.1-0.6,2.2-0.7,3.3-0.1c0.7,0.3,1,0.8,0.7,1.7c-0.2,0.7-0.8,1.2-1,2.3
		c0.8-0.9,1.2-1.7,1.5-2.6c1,1.2,0.6,2.6-0.1,3.7c-0.8,1.4-2.2,1.8-3.7,1.6c-0.1-0.3,0.3-0.4,0.2-0.8
		C130.7,171.9,130,171.2,129.2,170.6L129.2,170.6z M132.2,170.7c0.9-0.2,1.2-0.6,1.5-1.3C133.1,169.8,132.8,170.1,132.2,170.7z"/>
	<path class="st0" d="M186.1,204.5c0.2-0.9,0.4,0.1,0.7,0c0.4-2.2,1.7-2.9,3.8-2c0.1-0.4-0.3-0.6-0.4-0.9c-0.3-0.8,0.3-2,1.1-2.5
		c0.8-0.5,2-0.3,2.6,0.4c0.3,0.3,0.2,0.5-0.1,0.8c-0.4,0.4-0.8,0.8-1.2,1.2c-0.1,0.1-0.4,0.3-0.2,0.5c0.1,0.2,0.4,0.1,0.6,0.1
		c0.4-0.1,0.6-0.4,0.8-0.8c0.2-0.4,0.5-0.7,0.9-0.4c0.5,0.3,0.1,0.7,0,1c-0.6,1.4-1.9,1.8-3.2,1.1c-0.3-0.2-0.4-0.2-0.6,0.2
		c-0.4,0.6-1,1.1-1.5,1.7c-0.1,0.1-0.3,0.3-0.2,0.5c0.1,0.1,0.4,0.1,0.5,0.1c0.5-0.1,0.7-0.5,0.9-0.9c0.2-0.4,0.5-0.6,0.8-0.4
		c0.5,0.2,0.2,0.6,0.1,0.9c-0.3,0.8-1.1,1.1-1.5,1.7C188.4,206.2,187.2,205.5,186.1,204.5z"/>
	<path class="st0" d="M296.2,187.5c0-0.2,0-0.4,0-0.7c0-2.3,1.3-3.1,3.5-2.1c0-0.6-0.3-1.1-0.3-1.7c0-1.1,0.7-1.6,1.5-1.9
		c0.8-0.3,1.5,0.1,2.1,0.6c0.3,0.3,0.2,0.5-0.1,0.7c-0.5,0.5-0.9,0.9-1.4,1.4c-0.1,0.1-0.3,0.3-0.2,0.5c0.1,0.1,0.4,0.1,0.5,0.1
		c0.5-0.1,0.7-0.5,0.9-0.9c0.2-0.4,0.5-0.6,0.8-0.4c0.5,0.2,0.2,0.6,0.1,0.9c-0.7,1.3-1.7,1.7-3.1,1.2c-0.4-0.2-0.6-0.2-0.8,0.3
		c-0.1,0.3-0.5,0.6-0.8,0.8c-0.5,0.3-0.7,0.7-0.6,1.2C297.7,187.6,297,187.6,296.2,187.5z"/>
	<path class="st0" d="M238.8,153.7c0-0.5-0.2-1-0.4-1.4c-0.7-1.4-0.4-2.8,0.5-3.8c0.9-1,2.2-1.5,3.6-1.2c0.5,0.1,0.9,0.1,1.4,0.1
		C242.7,149.8,241,151.9,238.8,153.7z"/>
	<path class="st0" d="M156.8,324.7c0.1-0.7-0.1-1.4,0.1-2.1c0.5-1.8,1.8-2.5,3.5-2.7c0.2,0,0.4,0.1,0.6-0.2c-0.4-0.3-0.9,0-1.3-0.3
		c0.1-0.4,0.6-0.3,0.6-0.6c0-0.2,0.1-0.6,0.4-0.5c0.3,0.1,0.3,0.3,0.2,0.6c0,0.2,0.1,0.3,0.3,0.2c0.4-0.2,0.6,0.1,0.9,0.3
		C160.5,321.1,158.7,323,156.8,324.7z"/>
	<path class="st0" d="M164,317.5c0-0.3-0.1-0.6-0.3-0.8c-0.6-0.8-0.2-2,0.7-2.3c0.3-0.1,0.6,0,0.9,0.2c0.2,0.2,0,0.4-0.1,0.6
		c-0.1,0.4-0.4,0.8-0.1,1.2C164.7,316.8,164.4,317.2,164,317.5z"/>
	<path class="st0" d="M153.2,149c-0.1,0.6,0.3,0.9,0.7,1.2c0.4,0.3,0.4,0.6,0,1c-0.4,0.4-0.6,0.2-0.9-0.1c-0.5-0.7-1.4-1.1-1.7-1.9
		C152,149,152.6,148.9,153.2,149z"/>
	<path class="st0" d="M245.3,144.2c-0.8-0.6-0.7-1.6,0.1-2.2c0.2-0.2,0.5-0.3,0.7-0.4C245.9,142.4,245.7,143.3,245.3,144.2z"/>
	<path class="st0" d="M299.2,187.5c0-0.1,0.1-0.2,0.1-0.3c0.3-0.4,0.5-1.1,1.1-0.9c0.5,0.2,0.2,0.8,0.3,1.2
		C300.3,187.6,299.7,187.6,299.2,187.5z"/>
	<path class="st0" d="M155.7,149c0,0.5-0.4,0.9-0.7,0.9c-0.5-0.1-1-0.3-1.2-0.9C154.4,148.9,155.1,148.9,155.7,149z"/>
	<path class="st0" d="M294.5,187.5c0-0.1,0-0.3,0.1-0.4c0.2-0.3,0.4-0.8,0.9-0.6c0.5,0.1,0.3,0.6,0.3,1
		C295.4,187.6,295,187.6,294.5,187.5z"/>
	<path class="st0" d="M225.6,259.9c-1.8,0.1-3.5,0.1-5.3,0c0.2-2.6,2.5-4.2,5-3.3c1,0.4,1.2,0.8,0.9,1.8
		C226,258.9,225.5,259.3,225.6,259.9z"/>
	<path class="st0" d="M227.1,251.1c0.6-0.1,1.1-0.1,1.7,0c0,0.3,0.1,0.6-0.3,0.8c-0.4,0.2-0.6,0.5-0.2,0.9c0.4,0.4,0.7,0.2,0.9-0.1
		c0.2-0.2,0.4-0.4,0.7-0.4l0,0c0.1,0.4,0.4,0.8-0.1,1.2c-0.4,0.2-0.3,0.6,0,0.9c0.3,0.3,0.7,0.5,0.8,0.9c0.3,0.4,1.4,0.6,0.6,1.4
		c-0.8,0.8-1-0.3-1.4-0.6c-0.3-0.2-0.5-0.5-0.7-0.7c-0.3-0.3-0.5-0.5-1-0.3c-0.4,0.2-0.8-0.1-0.6-0.6c0.1-0.2,0.3-0.4,0.1-0.6
		C226.8,253,226.9,252,227.1,251.1z"/>
	<path class="st0" d="M111.4,276.3c1.6,1.5,3.1,3,4.6,4.6c-0.8,0.1-1.6,0.4-2.4,0.2c-0.1-0.3,0.4-0.3,0.3-0.5c0,0-0.1-0.1-0.2-0.1
		c-1.3,0.5-2.4-0.4-2.6-2C111.1,277.7,111,277,111.4,276.3z"/>
	<path class="st0" d="M230.1,251.1c0.6-0.1,1.3-0.1,1.9,0c-0.5,1.3,0.8,1.6,1.2,2.5c0.1,0.3,0.6,0.4,0.3,0.8c-0.3,0.4-0.6,0.6-1,0.1
		c-0.6-0.6-1.2-1.2-1.8-1.8c-0.2-0.2-0.4-0.5-0.8-0.5c0,0,0,0,0,0C230,251.8,230.1,251.4,230.1,251.1z"/>
	<path class="st0" d="M137,257.5c-0.4-0.3-0.8-0.7-1.1-1.2c0.3-0.5,0-1,0.2-1.5c0.2-0.5,0.5-0.8,1-1.4c0,0.8,0,1.4,0,2
		c0,0.6,0.2,1,0.9,0.9c0.3,0,0.6,0,0.8,0c0.3,0,0.8-0.2,0.8,0.2c0,0.4-0.4,0.7-0.8,0.7C138.1,257.4,137.5,257.1,137,257.5z"/>
	<path class="st0" d="M233.1,251.1c1.2-0.1,2.4-0.1,3.6,0c-0.4,0.8-1,1.4-2,1.1C234.1,252,233.3,251.9,233.1,251.1z"/>
	<path class="st0" d="M158.4,320c-0.9,0.6-1.3,1.4-1.9,2c-0.3-0.2-0.2-0.4-0.1-0.6c0.2-0.3,0.3-0.6-0.2-0.8
		c-0.3-0.1-0.3-0.4-0.2-0.6c0.1-0.2,0.4-0.3,0.5-0.2c0.6,0.8,1,0.2,1.5,0C158,319.8,158.1,319.9,158.4,320z"/>
	<path class="st0" d="M110.5,275.5c0.3,0.2,0.6,0.5,0.8,0.9C110.5,276.6,110.5,276.1,110.5,275.5z"/>
	<path class="st0" d="M198,197.6c0,0.9-0.3,1.5-1.1,1.8c-0.6,0.2-0.4,0.4-0.1,0.7c0.2,0.2,0.4,0.4,0.6,0.6c0.4,0.3,0.2,0.6-0.1,0.8
		c-0.3,0.3-0.4,0.4-0.8,0.1c-1.2-1.2-2.4-2.4-3.6-3.6c-0.4-0.4-0.1-0.6,0.2-0.8c0.2-0.2,0.5-0.2,0.7-0.6c0.4-1.2,1.9-1.7,3-1
		C197.5,196.1,198.2,196.7,198,197.6z"/>
	<path class="st0" d="M199.4,193c0.3-1.1-0.2-1.9,0.6-2.5c0.2-0.1,0.3-0.4,0.5-0.3c0.3,0.1,0.1,0.4,0.2,0.6c0.3,0.6-0.7,1.5,0.1,1.9
		c0.5,0.3,1.3,0.2,2,0.3c0.2,0,0.6-0.1,0.6,0.2c0,0.3-0.3,0.4-0.5,0.5c-0.7,0.4-1.5,0-2.3,0.3c0,0.4,0.3,0.5,0.5,0.7
		c0.2,0.3,0.3,0.5,0,0.8c-0.3,0.3-0.6,0.4-0.9,0.1c-1.3-1.3-2.5-2.5-3.8-3.8c-0.3-0.3-0.1-0.5,0.1-0.8c0.3-0.3,0.6-0.4,1,0
		C198,191.5,198.6,192.2,199.4,193z"/>
	<path class="st0" d="M200,196.4c-0.2,0.2-0.4,0.4-0.6,0.6c-0.2,0.2-0.4,0-0.5-0.1c-0.8-0.8-1.5-1.6-2.3-2.3c-0.3-0.3-0.2-0.5,0-0.8
		c0.3-0.3,0.5-0.4,0.9-0.1c0.8,0.8,1.5,1.6,2.3,2.3C199.9,196.2,199.9,196.3,200,196.4z"/>
	<path class="st0" d="M307.4,179.9c-0.2,0.7-0.3,1.4-1.1,1.7c-0.8,0.3-0.6,0.6-0.1,1c0.2,0.1,0.3,0.3,0.5,0.5
		c0.4,0.3,0.2,0.5-0.1,0.8c-0.2,0.2-0.4,0.5-0.8,0.1c-1.2-1.2-2.4-2.4-3.6-3.6c-0.3-0.3-0.3-0.5,0.1-0.7c0.5-0.3,0.8-0.8,1.1-1.3
		c0.8-1.3,2.9-1,3.7,0.6C307.2,179.2,307.3,179.5,307.4,179.9z"/>
	<path class="st0" d="M309.6,176.1c0.4,0.4,0.6,0.6,0.8,0.8c0.3,0.3,0.1,0.5-0.1,0.8c-0.2,0.2-0.4,0.4-0.7,0.1c-1.4-1.2-2.8-2.5-4-4
		c-0.2-0.2-0.2-0.4,0.1-0.6c0.3-0.2,0.6-0.5,1-0.1c0.6,0.7,1.2,1.3,1.8,2c0.1,0,0.2-0.1,0.3-0.1c0-0.4,0-0.8,0-1.2
		c0-0.3,0-0.6,0.2-0.8c0.2-0.2,0.4-0.6,0.7-0.6c0.4,0.1,0.2,0.5,0.2,0.8c0,1.7,0,1.7,1.8,1.7c0.3,0,1-0.2,1,0.2
		c0,0.4-0.5,0.9-1.1,0.9C310.9,176.1,310.4,176.1,309.6,176.1z"/>
	<path class="st0" d="M309.2,178.5c0,0.3-0.3,0.5-0.5,0.7c-0.2,0.2-0.4,0.1-0.6-0.1c-0.8-0.8-1.6-1.6-2.4-2.4
		c-0.3-0.3-0.1-0.5,0.1-0.7c0.2-0.2,0.4-0.6,0.7-0.2c0.8,0.8,1.6,1.6,2.4,2.4C309.1,178.3,309.2,178.4,309.2,178.5z"/>
	<path class="st0" d="M152.3,152.1c0.1,0.9-0.3,1.4-1,1.7c-0.5,0.2-0.5,0.3-0.2,0.6c0,0,0.1,0.1,0.1,0.1c0.3,0.4,1.1,0.7,0.4,1.3
		c-0.6,0.6-0.9-0.2-1.3-0.5c-1-0.9-1.8-2-2.9-2.8c-0.3-0.2-0.6-0.6-0.3-0.8c0.7-0.5,0.9-1.3,1.6-1.8c0.7-0.5,1.5-0.6,2.2-0.2
		C151.7,150.3,152.5,151,152.3,152.1z"/>
	<path class="st0" d="M145.1,157c0,0.9-0.9,1.2-1.3,1.8c-0.2,0.2-0.7,0.4-0.4,0.7c0.3,0.3,0.7,0.1,1-0.2c0.2-0.2,0.3-0.5,0.4-0.7
		c0.2-0.3,0.5-0.4,0.8-0.2c0.4,0.1,0.2,0.5,0.1,0.7c-0.4,1.1-1.3,1.7-2.4,1.7c-1,0-1.9-0.8-2.2-1.8c-0.4-1.3,1-2.9,2.4-2.6
		c0.5,0.1,0.9,0.3,1.3,0.4l0,0C145,156.9,145,156.9,145.1,157L145.1,157z"/>
	<path class="st0" d="M144.9,156.8c-0.5-1.1-0.9-2.1,0.2-3.1c0.6-0.6,1.3-0.8,2-0.4c1.2,0.5,1.3,0.9,0.4,1.8
		c-0.2,0.2-0.5,0.5-0.7,0.7c-0.1,0.2-0.5,0.3-0.2,0.6c0.2,0.2,0.5,0.1,0.7,0c0.3-0.2,0.5-0.4,0.7-0.8c0.2-0.4,0.5-0.6,0.9-0.4
		c0.4,0.2,0.1,0.6,0,0.9c-0.7,1.5-2,1.8-3.4,1c-0.1-0.1-0.2-0.1-0.4-0.1c0,0,0,0,0,0C145,156.9,145,156.9,144.9,156.8L144.9,156.8z"
		/>
	<path class="st0" d="M140.2,164.7c-0.1,0.4-0.3,0.5-0.5,0.7c-0.2,0.2-0.4,0-0.6-0.2c-0.4-0.4-0.8-0.8-1.2-1.2
		c-0.3-0.3-0.5-0.7-1.2-0.3c-0.3,0.2-0.9-0.3-0.7-0.6c0.4-0.6,0-0.7-0.2-1.1c-0.6-0.8-0.4-1.8,0.4-2.3c0.4-0.3,0.7-0.1,1,0.2
		c0.4,0.4-0.1,0.4-0.2,0.6c-0.3,0.3-0.4,0.6-0.1,0.9c0.3,0.3,0.6,0.1,0.8-0.1c0.2-0.3,0.4-0.5,0.8-0.1c0.3,0.3,0.3,0.6-0.1,0.9
		c-0.5,0.4-0.4,0.7,0,1.1c0.4,0.4,0.9,0.8,1.3,1.3C140,164.4,140.1,164.6,140.2,164.7z"/>
	<path class="st0" d="M141.5,163.4c-0.1-0.1-0.2-0.1-0.3-0.2c-0.8-0.8-1.6-1.6-2.4-2.4c-0.1-0.1-0.2-0.3-0.2-0.3
		c0.6-0.7,1.2-1.3,1.8-1.9c0.2-0.2,0.6,0.8,0.4,1c-0.8,0.8-0.2,1.3,0.3,1.8c0.3,0.3,0.6,0.6,0.9,0.9c0.2,0.2,0.4,0.3,0.2,0.6
		C142,163.1,141.8,163.3,141.5,163.4z"/>
	<path class="st0" d="M129.2,170.6c-0.1,0.4-0.3,0.7-0.7,0.2c-0.2-0.3-0.5-0.5-0.9-0.3c-0.1,0.1-0.3,0-0.3-0.1c0-0.2,0-0.4,0.1-0.4
		c0.9-0.1,0.5-0.9,0.7-1.4c0.4,0.3,0.3,0.8,0.5,1.2C128.8,170,128.7,170.5,129.2,170.6C129.2,170.6,129.2,170.6,129.2,170.6z"/>
	<path class="st0" d="M237.5,150.9c0.5,0.6,0.4,1.2,0.7,1.7c0.1,0.1,0.1,0.3-0.1,0.4c-0.2,0.1-0.3,0-0.4-0.1c0,0,0,0-0.1-0.1
		C237.3,152.6,237.2,151.8,237.5,150.9z"/>
	<path class="st0" d="M132.2,170.7c0.6-0.5,1-0.8,1.5-1.3C133.4,170,133.1,170.4,132.2,170.7z"/>
	<path class="st0" d="M230.1,251.1c-0.1,0.4-0.1,0.8-0.2,1.1c-0.3,0-0.5,0.2-0.7,0.4c-0.3,0.3-0.6,0.5-0.9,0.1
		c-0.4-0.4-0.2-0.7,0.2-0.9c0.4-0.2,0.3-0.5,0.3-0.8C229.2,251,229.7,251,230.1,251.1z"/>
	<path class="st0" d="M130,263.9c2.7-0.2,5.1,1.7,5.5,4.3c0.4,2.9-1.5,5.4-4.2,5.9c-2.8,0.4-5.4-1.3-5.9-4.1c1,0.1,1.8-0.2,2.3-1.1
		c0.2-0.4,0.6-0.7,0.4-1.1c-0.2-0.5-0.7-0.2-1.1-0.3c0.1-0.7,0.2-1.3,1.2-0.8c1.3,0.5,2.7-0.4,3.1-1.7c0.1-0.2,0.1-0.5-0.1-0.6
		c-0.2-0.1-0.5-0.1-0.7,0c-0.2,0.1-0.3,0.3-0.4,0.5c-0.3,0.6-0.8,0.8-1.5,0.6C129.1,265,129.5,264.4,130,263.9z"/>
	<path class="st0" d="M130,263.9c-0.5,0.5-0.9,1-1.4,1.6c0.7,0.2,1.2,0,1.5-0.6c0.1-0.2,0.2-0.4,0.4-0.5c0.2-0.2,0.5-0.2,0.7,0
		c0.2,0.1,0.2,0.4,0.1,0.6c-0.4,1.3-1.8,2.2-3.1,1.7c-1-0.4-1.1,0.1-1.2,0.8l0,0c-0.8,0-1.1,0.8-1.7,1.1
		C125.4,266.1,127.5,264,130,263.9z"/>
	<path class="st0" d="M127,267.5c0.4,0.1,0.9-0.2,1.1,0.3c0.2,0.4-0.2,0.7-0.4,1.1c-0.5,0.9-1.3,1.2-2.3,1.1
		c-0.2-0.4-0.1-0.8-0.1-1.2C126.6,268.8,126.9,268.6,127,267.5L127,267.5z"/>
	<path class="st0" d="M127,267.5c-0.1,1.1-0.4,1.3-1.7,1.3c0-0.1,0-0.1,0-0.2C125.9,268.3,126.2,267.5,127,267.5z"/>
	<path class="st0" d="M144.9,156.8c0.1,0.1,0.1,0.1,0.2,0.2C145,156.9,145,156.9,144.9,156.8z"/>
</g>
</svg>
