<?xml version="1.0" encoding="utf-8"?>
<!-- Generator: Adobe Illustrator 26.0.1, SVG Export Plug-In . SVG Version: 6.00 Build 0)  -->
<svg version="1.1" id="Layer_1" xmlns="http://www.w3.org/2000/svg" xmlns:xlink="http://www.w3.org/1999/xlink" x="0px" y="0px"
	 viewBox="0 0 412 425" style="enable-background:new 0 0 412 425;" xml:space="preserve">
<style type="text/css">
	.st0{fill:#3168B2;}
</style>
<g>
	<path class="st0" d="M173.4,179.6c0-16.4,0-30.6,0-44.8c0-19.8,5.9-25.7,25.7-25.7c17.8,0,35.6,0.3,53.3-0.2
		c5.8-0.1,9.6,1.9,13.4,6c14.1,15.4,28.6,30.3,42.7,45.7c3.3,3.6,4.9,4,7.7-0.4c8.1-12.6,16.5-25,25-37.4c5.5-8,9.3-8.7,17.5-3.5
		c18.9,11.9,19,12.2,6.6,30.8c-16.2,24.1-32.3,48.4-48.7,72.4c-3.8,5.6-5.9,11-5.5,17.8c0.5,9.2,0.2,18.4,0.1,27.6
		c-0.2,14.3-7.1,21.3-21.6,21.4c-30,0.1-60.1,0.1-90.1,0c-4.1,0-7.3,0.8-10.6,3.8c-16,14.3-37.5,12.6-50.8-4.5
		c-5.7-7.3-11.3-11.5-20.9-13.3c-23.7-4.4-40.8-23.4-44-45.9c-3.6-24.9,7.2-47.5,28.6-59.9c20.3-11.8,46.2-10,64.7,4.4
		C168.2,175.1,169.9,176.7,173.4,179.6z M305.4,240c-2.2,2.8-3.2,3.6-3.7,4.6c-6,13.1-18.8,16-30.7,19.2c-7.1,1.9-15.1-0.7-17.7-8
		c-3.4-9.3-9.1-12.4-18.4-13.1c-15.6-1.3-24.2-17.1-12.5-30.8c5-5.9,8.2-12.7,9.7-20.5c1.5-8.1-2.1-11.9-9.6-12
		c-5.1-0.1-10.3,1.2-15.5,1.8c-2,0.2-3.9-0.2-4.3-2.4c-0.5-2.2,1.1-3.3,3-4c5-1.9,10.2-2.4,15.4-2.3c14.5,0.1,20.6,8.1,17.4,22.2
		c-1.9,8.5-6.5,15.7-11.5,22.8c-5.8,8.3-3.1,16.7,6.5,18c12,1.5,22.3,4,25.8,17.6c0.5,1.8,2.7,3.8,5.1,2.8c2-0.9,1.3-3.3,1-5
		c-1.7-11.5,2.9-20.6,9.4-29.7c9.7-13.4,18.5-27.4,27.8-41.1c2.4-3.6,3.9-7.6,2.1-11.2c-1.5-3-5.6-1.2-8.5-1.3
		c-6.7-0.2-13.5,0.1-20.2-0.1c-12.6-0.4-19.9-7.6-20.3-20.2c-0.3-8.6-0.4-17.2,0.1-25.8c0.4-6-1.9-7.1-7.3-7
		c-17.8,0.3-35.6,0.1-53.4,0.2c-11.5,0.1-16,4.5-16.1,16.3c-0.1,14.7,0.1,29.4-0.1,44.2c-0.1,7.4,0.8,14.3,4.3,21.2
		c5.4,10.7,5.6,22.5,3.3,34.2c-0.7,3.6-1,6.4,1.6,9.3c11.1,12.7,15.9,26.7,8.4,43.6c32.2,0,63.4,0.1,94.7-0.1
		c9.3-0.1,13.8-5.1,14-14.5C305.6,260,305.4,251.1,305.4,240z M182,219.4c0-28.4-21.3-50.8-48.6-51.8c-28.9-1-53,20.1-54.8,48
		c-1.8,28.8,18,52.4,46.1,55.2c3.2,0.3,7.2-1.3,9.3,2.4c3.2,5.6,6.1,2.6,9.4,0.3c15-10.8,15-10.7,4.2-25.5c-1.8-2.5-3.8-4.8-5.4-7.4
		c-2.1-3.6-4.6-5-9-4.1c-5.4,1-10.3-1-13.9-5.3c-1.3-1.5-2-3.1-0.1-4.8c1.5-1.3,2.8-0.8,4,0.4c4.5,4.4,9.6,5.6,14.8,1.7
		c4.9-3.7,5.1-8.8,2.6-14c-1-2-0.9-3.6,1.2-4.4c2.1-0.8,3.5,0.7,4.3,2.3c2.2,4.2,3.8,9.2,0.9,13.1c-4.6,6.3-1.6,10.4,2.4,14.9
		c1.8,2.1,3.3,4.4,4.9,6.6c8.7,11.9,8.8,12,20.6,3.2c2.8-2.1,8.8-5,7.6-6.8C176.3,234.9,183.8,226.7,182,219.4z M352.7,121.9
		c-5.3-0.5-6.1,3.1-7.7,5.4c-20.7,30.7-41.3,61.5-61.9,92.3c-10.2,15.2-10.1,15.1,5.4,24.8c3.7,2.3,5.2,2.2,7.7-1.6
		c23-34.7,46.3-69.2,69.5-103.8c1.3-2,3.8-4.7,1.6-6.5C362.5,128.3,357,125,352.7,121.9z M261.5,118.9c0,11.4-0.1,19.9,0,28.5
		c0.1,8.1,4.2,13.6,12.5,14.2c8.6,0.7,17.3,0.1,27.9,0.1C288.1,147,275.6,133.9,261.5,118.9z M190.4,253.3c-1.5-3.7-3.2-4.9-6.8-2.2
		c-12.9,9.7-26,19.1-39,28.7c-1.9,1.4-4.4,2.4-1.8,5.6c2.5,3.1,4.1,1.1,6-0.3c12.8-9.3,25.6-18.7,38.3-28.1
		C188.5,256,190.3,255.2,190.4,253.3z M150.2,291.3c3.8,3.4,6.6,3.8,10.3,1c10.1-7.8,20.5-15.3,30.9-22.7c2.9-2.1,4.5-4.8,2.2-7.6
		c-2.3-2.7-4.2,0.8-5.8,1.9C175.4,272.7,163.2,281.8,150.2,291.3z M164.8,296.2c15.9-1.8,23.6-7.6,25.6-18.8
		C181.9,283.7,174,289.5,164.8,296.2z M272,240.2c-1.3,6.1-1.7,10.1,3.4,13.2c5,3.1,8.1-0.1,13.3-2.2
		C282.5,247.1,277.8,244,272,240.2z"/>
	<path class="st0" d="M121.7,146.7c0.3,3.5,0.4,5.9-2.6,6.1c-2.2,0.1-2.9-1.9-3.2-3.7c-0.8-5.1-1.6-10.2-2.2-15.3
		c-0.2-2-0.7-4.6,2.6-4.7c2.3,0,2.9,1.6,3.1,3.6C120.3,137.8,121.1,142.9,121.7,146.7z"/>
	<path class="st0" d="M89.3,161.8c0.7,2.8,0.1,3.8-1.1,4.3c-1.6,0.7-3,0.2-4-1.2c-3.5-4.6-6.9-9.3-10.3-14c-0.9-1.3-1-2.9,0.1-4.2
		c1-1.1,2.5-1.2,3.2-0.4C81.6,151.8,85.8,157.4,89.3,161.8z"/>
	<path class="st0" d="M67.7,190.4c-1.2,2.5-2.8,3.3-5.2,2c-4.9-2.5-9.8-4.9-14.7-7.4c-1.9-0.9-2.9-2.3-2-4.4
		c0.5-1.3,1.7-2.1,2.9-1.5c6,2.9,12,6,17.9,9.1C67.2,188.6,67.4,189.7,67.7,190.4z"/>
</g>
</svg>
