<?xml version="1.0" encoding="utf-8"?>
<!-- Generator: Adobe Illustrator 26.0.1, SVG Export Plug-In . SVG Version: 6.00 Build 0)  -->
<svg version="1.1" id="Layer_1" xmlns="http://www.w3.org/2000/svg" xmlns:xlink="http://www.w3.org/1999/xlink" x="0px" y="0px"
	 viewBox="0 0 412 425" style="enable-background:new 0 0 412 425;" xml:space="preserve">
<style type="text/css">
	.st0{fill:#3168B2;}
</style>
<g>
	<path class="st0" d="M126.4,301.9c0.7-5.6,1.5-11.1,2.1-16.7c0.2-1.4-0.8-2.6-1.3-3.8c-1.3-2.8-0.2-4.6,2.9-4.6
		c1.8,0,3.6-0.1,5.4,0c2.3,0.1,3.7,2,2.6,4c-1.6,2.8-1.6,5.5-1.1,8.5c0.7,4,1.1,8,1.6,12.1c0,0.2,0.2,0.4,0.4,0.9
		c2.3-6.1,4.3-12.1,6.1-18.1c0.8-2.7,1.7-5.5,2.2-8.3c0.4-2,1.3-2.1,3-1.7c7.2,1.9,14.4,3.6,21.6,5.5c2.4,0.6,4.8,1.4,7.2,1.9
		c4.2,0.9,6.6,3.6,8,7.4c2.3,6.4,2.7,13.1,3.1,19.8c0.2,4.1,0.2,4.1-3.7,5.6c-10.2,3.8-20.9,5.6-31.7,6.6
		c-16.2,1.5-32.3,1.4-48.5-0.4c-10-1.1-19.9-3.1-29.4-6.8c-1.7-0.7-2.4-1.6-2.2-3.5c0.5-7,0.7-14,3-20.7c1.5-4.3,4.2-7.1,8.7-8.2
		c9.4-2.3,18.8-4.7,28.2-7.1c1.8-0.5,2.7-0.2,3.1,1.8c1.9,8.1,4.5,16.1,7.4,23.9c0.3,0.7,0.5,1.4,0.8,2.1
		C126.1,302,126.3,301.9,126.4,301.9z"/>
	<path class="st0" d="M289.7,281.2c0.7-5.5,1.5-11,2.2-16.5c0.2-1.5-0.8-2.7-1.3-4c-1.3-2.8-0.2-4.5,2.8-4.6c1.9,0,3.8-0.1,5.6,0
		c2,0.1,3.5,2,2.4,3.7c-1.9,3.1-1.5,6.3-1,9.6c0.6,3.9,1,7.8,1.5,11.8c1-0.3,0.9-1.1,1.1-1.7c2.8-8,5.6-16,7.5-24.3
		c0.4-1.8,1.1-2.3,2.9-1.8c9.7,2.5,19.5,5,29.3,7.5c3.8,0.9,6.1,3.3,7.5,6.8c2,5.2,2.7,10.6,3.1,16.1c0.1,1,0.1,2,0.1,2.9
		c0.2,5.5,0.2,5.6-5.2,7.4c-11.5,3.9-23.3,5.7-35.4,6.5c-16.6,1.1-33.1,0.8-49.5-1.7c-8-1.2-15.8-3-23.3-6c-1.5-0.6-2.1-1.3-2-3
		c0.3-7,0.6-14,2.8-20.7c1.5-4.6,4.3-7.5,9.1-8.6c9.3-2.2,18.5-4.6,27.7-7c1.9-0.5,2.9-0.4,3.4,1.9c1.9,8.3,4.6,16.3,7.5,24.3
		c0.2,0.5,0.4,1,0.5,1.4C289.4,281.2,289.5,281.2,289.7,281.2z"/>
	<path class="st0" d="M153.2,177.9c5-4.2,9.6-8,14.4-12c0.8,2.2,1.5,4.1,2.3,6.1c0.3,0.8,0.1,1.2-0.5,1.7
		c-7.6,6.3-15.2,12.6-22.7,18.9c0,0-0.1,0-0.3,0c-0.5-0.6-0.2-1.3-0.2-1.9c0-5.6,0-11.1,0-16.7c0-1.1-0.2-1.7-1.5-1.9
		c-8-1.3-12.1-6.2-12.1-14.3c0-15.4,0-30.7,0-46.1c0-8.3,5.6-13.9,13.8-14c24.3,0,48.6,0,72.9,0c7.9,0,13.7,5.5,13.7,13.4
		c0.1,15.9,0.1,31.8,0,47.6c-0.1,7.9-5.9,13.3-13.8,13.4c-9.3,0.1-18.5,0-27.8,0c-0.9,0-1.8,0-2.9,0c0.6,1.7,1.9,2.7,3,3.7
		c9.1,8.5,20.1,11.5,32.2,10.7c4.3-0.3,8,0.2,11.7,2.8c5.3,3.6,11.4,5,17.7,5.6c0.7,0.1,1.7,0.4,2.1-0.3c0.4-0.7-0.3-1.4-0.7-2
		c-1.5-2.9-3-5.7-4.4-8.6c-1.8-3.5-1.4-5.3,1.6-7.9c5.6-4.8,10.1-10.4,11.8-17.7c2.8-12-2.6-23.7-14.1-30.2
		c-2.1-1.2-4.3-2.2-6.5-3.1c-1.2-0.5-1.5-1-1.5-2.3c0-5.4-0.1-5.4,5-3.3c9.5,3.8,17.3,9.7,21.5,19.2c6,13.7,3,26.1-6.5,37.3
		c-1.1,1.3-2.3,2.7-3.7,3.6c-1.6,1.2-1.5,2.2-0.6,3.7c1.3,2.1,2.3,4.4,3.5,6.6c1.5,2.8,1.7,5.6-0.1,8.3c-1.8,2.7-4.5,3.6-7.7,3.3
		c-8.2-0.6-15.8-3-22.6-7.6c-1.1-0.8-2.2-1-3.6-0.9c-11.4,0.9-22.4-0.6-32.3-6.8c-7.4-4.6-13-10.6-16.2-18.8
		c-0.7-1.8-0.6-2.4,1.6-2.4c12.9,0.1,25.9,0.1,38.8,0c5,0,7.4-2.4,7.4-7.3c0-15.3,0-30.6,0-45.8c0-4.7-2.5-7.2-7.3-7.2
		c-23.9,0-47.7,0-71.6,0c-5.1,0-7.4,2.4-7.4,7.5c0,15.1,0,30.3,0,45.4c0,5.2,2.3,7.5,7.6,7.5c1.9,0,4.4-0.9,5.6,0.4
		c1.1,1.2,0.3,3.6,0.3,5.5C153.2,173.1,153.2,175.2,153.2,177.9z"/>
	<path class="st0" d="M271.7,206c-0.1-1.8,0-4.5,0.6-7.3c2.1-9.5,9.4-15.7,19.9-16.8c4.6-0.5,9.2-0.1,13.6,1.4
		c8.9,3.1,14,10.2,14.3,19.6c0.2,9.5-1.6,18.7-5.2,27.5c-1.9,4.4-4.6,8.3-8,11.6c-6.2,6-15.7,5.9-21.9-0.2
		c-6.9-6.7-9.8-15.3-11.8-24.4C272.2,214.1,271.9,210.5,271.7,206z"/>
	<path class="st0" d="M156.7,227.5c-0.2,8.1-2.1,15.8-5.1,23.2c-1.8,4.5-4.4,8.3-7.8,11.7c-6.5,6.6-16.2,6.4-22.7-0.2
		c-5.8-5.8-8.6-13.1-10.6-20.8c-1.4-5.2-1.9-10.5-2-15.8c-0.1-13,7.6-21.6,20.5-22.9c4.3-0.4,8.5-0.1,12.7,1.2
		c9.6,3.1,15.2,10.8,15,20.9C156.7,225.7,156.7,226.6,156.7,227.5z"/>
	<path class="st0" d="M209.6,143.1c-4.7,0-8.5-3.7-8.5-8.4c0-4.7,3.7-8.5,8.4-8.5c4.7,0,8.4,3.7,8.5,8.4
		C218.1,139.3,214.3,143.1,209.6,143.1z"/>
	<path class="st0" d="M155.3,126.2c4.7,0,8.4,3.8,8.4,8.5c0,4.7-3.8,8.4-8.5,8.4c-4.7,0-8.4-3.8-8.4-8.5
		C146.8,129.9,150.5,126.2,155.3,126.2z"/>
	<path class="st0" d="M182.4,126.2c4.8,0,8.4,3.7,8.4,8.4c0,4.8-3.7,8.4-8.4,8.4c-4.7,0-8.4-3.7-8.4-8.5
		C174,129.9,177.6,126.2,182.4,126.2z"/>
</g>
</svg>
