<?xml version="1.0" encoding="utf-8"?>
<!-- Generator: Adobe Illustrator 26.0.1, SVG Export Plug-In . SVG Version: 6.00 Build 0)  -->
<svg version="1.1" id="Layer_1" xmlns="http://www.w3.org/2000/svg" xmlns:xlink="http://www.w3.org/1999/xlink" x="0px" y="0px"
	 viewBox="0 0 412 425" style="enable-background:new 0 0 412 425;" xml:space="preserve">
<style type="text/css">
	.st0{fill:#3168B2;}
</style>
<path class="st0" d="M130.7,163.5c1.3,0.9,2.6,0.5,3.8,0.5c26.8,0,53.6,0,80.3,0.1c2.5,0,3.8-0.8,5.1-3
	c28.7-49.9,97-57.6,136.1-15.5c23.1,24.9,29.4,62,15.6,91.9c-15.2,32.8-46.6,52.5-81.6,50.9c-45-2-79.8-37.6-81.5-83.7
	c-0.1-3.3-1-4.2-4.1-3.9c-3,0.3-6.1,0.1-9.2,0.1c-1.5,0-2.4,0-1.5,2.1c4.7,11.4,1.6,19.9-9.4,25.5c-1.8,0.9-1.7,1.5-0.9,3.1
	c5.4,10.5,1.6,21.2-9.2,26.2c-2,0.9-2,1.4-1.1,3.3c6.6,13.7-1.7,27.3-16.9,27.4c-20.2,0.2-40.5,0.4-60.7,0
	C66,288.1,42.1,270,35.2,242.9c-6.5-25.5,0.4-47.2,20.2-64.4c21.7-18.8,43.7-37.2,65.6-55.7c7.4-6.3,17.2-5.9,24.2,0.4
	c7.5,6.7,8.1,18.4,1.3,25.8c-4,4.3-8.9,7.7-13.3,11.7C132.4,161.5,131.1,162,130.7,163.5z M296.8,280.9c21.2-0.4,41.6-9.7,56.8-28.6
	c26.7-33.1,22.6-78.4-8.9-106.9c-34.4-31.1-90.6-23.7-115.6,15.2c-1.5,2.3-1.7,3.2,1.6,3.6c10.2,1,17.4,9.1,17,18.8
	c-0.4,10.2-8,17.6-18.4,17.9c-3.1,0.1-6.2,0.2-9.2,0c-3-0.2-4,0.6-3.9,3.8C217.2,247.1,251.5,280.8,296.8,280.9z M174.7,171.8
	c-17.7,0-35.4,0-53.1,0c-2.5,0-5.4,0.5-6.6-2.7c-1.2-3.3,1.6-4.5,3.5-6.1c7-6.1,14-12,21-18c2.7-2.3,4.2-5.1,4-8.7
	c-0.3-4.4-2.5-7.5-6.4-9.3c-4.2-1.9-8.1-1-11.4,1.9c-22.4,19-44.9,37.7-67,57c-12.6,11-18.5,25.4-18,42.1
	c0.7,27.5,22.7,53,55.8,52.9c19.7,0,39.5,0,59.2,0c7.3,0,12.1-4.2,12.3-10.5c0.2-6-4.7-10.7-11.7-11.1c-2.7-0.1-4.7-1-4.7-3.9
	c0-2.9,2.2-3.8,4.8-3.9c3.6-0.1,7.2,0,10.8-0.1c6.4-0.1,10.9-4.4,11.2-10.3c0.2-6-4.3-10.6-11-10.9c-3.6-0.2-7.2-0.1-10.8-0.1
	c-2.8,0-5-0.9-5-4c0-2.8,2.2-3.8,4.8-3.8c3.1,0,6.2,0,9.2,0c4.6-0.1,9.2,0.7,13.8-0.2c5.5-1.1,9-5.5,8.7-11c-0.2-5.5-4.1-9.5-9.8-10
	c-1.7-0.2-3.3-0.1-5-0.2c-5.9,0-11.8,0-17.7,0c-2.3,0-4-1.2-4.2-3.6c-0.1-2.7,1.7-3.8,4.1-4.1c0.6-0.1,1.3,0,1.9,0
	c16.7,0,33.3,0,50,0c7.2,0,14.4,0.1,21.5,0c7.7-0.2,12.6-6.8,10.5-13.9c-1.4-4.5-5.7-7.4-11.3-7.5
	C210.3,171.8,192.5,171.8,174.7,171.8z"/>
<path class="st0" d="M293.1,230.3c-1.7-0.2-2.7-1.1-3.7-2.1c-7.7-8.1-15.4-16.1-23-24.2c-1.8-1.9-3-4.2-0.6-6.3
	c2.3-2.1,4.4-1,6.3,1.1c6.1,6.5,12.4,12.9,18.5,19.5c1.9,2.1,3,1.8,4.6-0.3c9.8-12.5,19.8-24.8,29.7-37.2c0.6-0.7,1.1-1.4,1.7-2.1
	c1.6-1.7,3.5-2.8,5.7-1c2.1,1.7,1.8,3.8,0.3,5.8c-4.1,5.2-8.3,10.4-12.5,15.6c-7.4,9.3-14.9,18.6-22.3,27.9
	C296.5,228.6,295.2,230.2,293.1,230.3z"/>
</svg>
