<?xml version="1.0" encoding="utf-8"?>
<!-- Generator: Adobe Illustrator 26.0.1, SVG Export Plug-In . SVG Version: 6.00 Build 0)  -->
<svg version="1.1" id="Layer_1" xmlns="http://www.w3.org/2000/svg" xmlns:xlink="http://www.w3.org/1999/xlink" x="0px" y="0px"
	 viewBox="0 0 412 425" style="enable-background:new 0 0 412 425;" xml:space="preserve">
<style type="text/css">
	.st0{fill:#3168B2;}
</style>
<g>
	<path class="st0" d="M94.1,151.6c-0.8-0.9-1.6-1.8-2.5-2.5c-0.5-0.7,0.2-1,0.5-1.4c10.6-10.6,21.2-21.2,31.8-31.8
		c3.5-3.5,7-7,10.5-10.5c3.8-3.8,8.3-6.2,13.6-7.2c0.2,0,0.3-0.1,0.5-0.2c1-0.1,1.9-0.2,2.9-0.3c4-0.1,7.8,0.6,11.5,2
		c2,1,3.9,2.1,5.7,3.3c0.1,0.2,0.3,0.4,0.6,0.5c1.6,1.5,3.2,3.1,4.8,4.6c0.4,0.6,0.9,1.1,1.5,1.5c1.3,1.5,2.8,2.9,4.3,4.3
		c0.4,0.6,0.9,1.1,1.5,1.5c1.3,1.5,2.8,2.9,4.3,4.3c0.4,0.6,0.9,1.1,1.5,1.5c1.3,1.5,2.8,2.9,4.3,4.3c0.4,0.6,0.9,1.1,1.5,1.5
		c1.3,1.5,2.7,2.9,4.3,4.2c0.4,0.6,0.9,1.1,1.5,1.5c1.4,1.4,2.8,2.8,4.3,4.3c0.4,0.6,0.9,1.1,1.5,1.5c1.3,1.5,2.8,2.9,4.3,4.3
		c0.6,0.6,0.1,1-0.3,1.4c-1.7,1.8-3.5,3.5-5.2,5.3c-1,1.2-1.9,1.2-2.7-0.1c-0.1-0.1-0.2-0.2-0.3-0.2c-0.7-0.7-1.4-1.4-2-2.1
		c-1.1-1.3-2.4-2.5-3.7-3.7c-0.7-0.7-1.4-1.4-2.1-2c-1.1-1.3-2.4-2.6-3.7-3.7c-0.7-0.7-1.4-1.4-2-2c-1.1-1.3-2.4-2.5-3.7-3.7
		c-0.7-0.7-1.4-1.4-2.1-2c-1.1-1.3-2.4-2.6-3.7-3.7c-0.7-0.7-1.4-1.4-2-2c-1.1-1.3-2.4-2.5-3.7-3.7c-0.7-0.7-1.4-1.4-2.1-2
		c-1.1-1.3-2.4-2.6-3.7-3.7c-0.7-0.9-1.5-1.7-2.4-2.4c-4.3-4.3-12.1-5.3-17.4-2.2c-2.4,1.1-4.1,3-5.9,4.8c-2,1.9-3.9,3.7-5.7,5.8
		c-2,1.8-3.9,3.8-5.8,5.7c-2,1.8-3.9,3.7-5.7,5.7c-2,1.8-3.9,3.8-5.8,5.7c-1.9,1.8-3.8,3.6-5.6,5.6c-0.1,0.1-0.2,0.2-0.3,0.3
		c-1.6,1.4-3.2,3-4.6,4.6c-0.4,0.2-0.5,0.5,0,0.8c0.2,0.2,0.3,0.3,0.5,0.5c1.4,1.5,2.8,3,4.4,4.4c0.4,0.5,0.8,1,1.4,1.4
		c1.3,1.6,2.8,3,4.4,4.4c0.5,0.5,0.9,0.9,1.4,1.4c2.3,2.7,2.3,2.7,4.6,0.2l0.1-0.1c1.9-1.9,3.8-3.8,5.7-5.7c1.9-1.9,3.8-3.8,5.8-5.7
		c1.9-1.9,3.8-3.8,5.7-5.7c0.8-0.7,1.5-1.4,2.2-2.2c1.6-1.6,1.6-1.7,3.3-0.3c0.7,0.9,1.4,1.6,2.3,2.3c0.4,0.5,0.8,0.9,1.2,1.4
		c0.7,0.7,1.8,1.3,2,2.2c0.2,0.9-1.3,1.3-1.7,2.2c-1.3,1.2-2.6,2.4-3.7,3.7c-0.8,0.6-1.4,1.2-2,2c-1.2,1.2-2.5,2.5-3.7,3.7
		c-0.7,0.6-1.4,1.2-2,2c-2.8,2.7-5.5,5.5-8.3,8.2c-1.7,1.7-1.7,1.7,0.1,3.3c1.4,1.5,2.8,3,4.4,4.4c0.4,0.5,0.8,1,1.4,1.4
		c1.4,1.6,2.8,3,4.4,4.4c0.5,0.5,0.9,0.9,1.4,1.4c0.6,1,1.1,0.9,1.6,0c1-0.9,2-1.8,2.9-2.8c1.1-0.9,2-1.8,2.9-2.9
		c1-0.8,2-1.8,2.9-2.8c1-0.9,2-1.8,2.9-2.9c1-0.9,1.9-1.9,2.9-2.8c1.1-0.9,2-1.8,2.9-2.9c1-0.8,2-1.8,2.9-2.8c0.4-0.4,1-0.8,1.3-1.2
		c0.8-1.1,1.5-1.3,2.4,0c0.5,0.7,1.3,1.2,1.9,1.8c0.7,0.9,1.4,1.6,2.3,2.3c0.3,0.4,0.6,0.8,1,1.1c0.8,0.6,0.8,1.1,0,1.8
		c-1,0.9-1.8,1.9-2.7,2.8c-0.2,0.2-0.4,0.4-0.6,0.6c-1.8,1.6-3.5,3.3-5.2,5.2c-0.2,0.2-0.4,0.4-0.6,0.6c-1.8,1.6-3.5,3.3-5.2,5.2
		c-0.2,0.2-0.4,0.4-0.6,0.6c-1.8,1.6-3.5,3.3-5.2,5.2c-0.2,0.2-0.4,0.4-0.6,0.6c-2.5,2.4-2.4,1.6-0.1,3.9c0.5,0.5,0.9,0.9,1.4,1.4
		c0.3,0.4,0.6,0.8,1.1,1.1c0.9,0.7,0.8,1.2,0,1.9c-0.9,0.8-1.7,1.7-2.5,2.5c-0.7,0.7-1.5,1.5-2.2,2.2c-1.6,1.6-1.6,1.6-3.3,0.2
		c-0.7-0.8-1.4-1.6-2.2-2.2c-1.1-1.3-2.2-2.4-3.5-3.5c-0.7-0.8-1.4-1.6-2.2-2.2c-1.1-1.3-2.2-2.4-3.5-3.5c-0.7-0.8-1.4-1.6-2.2-2.2
		c-1.1-1.3-2.2-2.4-3.5-3.5c-0.7-0.8-1.4-1.6-2.2-2.2c-1.1-1.3-2.2-2.4-3.5-3.5c-0.7-0.8-1.4-1.6-2.2-2.2c-1.1-1.3-2.2-2.4-3.5-3.5
		c-0.7-0.8-1.4-1.6-2.2-2.2c-1.1-1.3-2.2-2.4-3.5-3.5c-0.7-0.8-1.4-1.6-2.2-2.2c-1.1-1.3-2.2-2.4-3.5-3.5c-0.7-0.8-1.4-1.6-2.2-2.2
		c-1.1-1.3-2.2-2.4-3.5-3.5c-0.7-0.8-1.4-1.6-2.2-2.2C96.5,153.9,95.3,152.7,94.1,151.6z"/>
	<path class="st0" d="M311.7,245.9c0.5,0.7,1.1,1.2,1.7,1.7c2.9,3.1,4.9,6.8,6.3,10.8c0.3,1.9,0.6,3.8,1,5.7
		c-0.1,1.9-0.2,3.8-0.3,5.7c-0.5,1.9-1.1,3.8-1.6,5.7c-0.5,1-0.9,1.9-1.4,2.9c-1.4,2-2.7,3.9-4.4,5.6c-6.7,6.7-13.5,13.4-20.2,20.2
		c-7.6,7.6-15.2,15.3-22.9,22.9c-0.1,0-0.3-0.1-0.4-0.1c-1-1.2-2.1-2.3-3.4-3.4c-0.7-0.8-1.4-1.6-2.2-2.2c-1.1-1.3-2.2-2.4-3.5-3.5
		c-0.7-0.8-1.4-1.6-2.2-2.2c-1.1-1.3-2.2-2.4-3.5-3.5c-0.7-0.8-1.4-1.6-2.2-2.2c-1.1-1.3-2.2-2.4-3.5-3.5c-0.7-0.8-1.4-1.6-2.2-2.2
		c-1.1-1.3-2.2-2.4-3.5-3.5c-0.7-0.7-1.5-1.5-2.2-2.2c-1.1-1.3-2.2-2.4-3.5-3.5c-0.7-0.8-1.4-1.6-2.2-2.2c-1.1-1.3-2.2-2.4-3.5-3.5
		c-0.7-0.8-1.4-1.6-2.2-2.2c-1.1-1.3-2.2-2.4-3.5-3.5c-0.7-0.8-1.4-1.6-2.2-2.2c-1.1-1.3-2.2-2.4-3.5-3.5c-0.7-0.8-1.4-1.6-2.2-2.2
		c-1.1-1.3-2.2-2.4-3.5-3.5c-0.5-0.5-0.5-0.9,0-1.4c1.3-1.2,2.4-2.4,3.6-3.6c1.1-1,1.9-2.3,3.2-2.9c1.5,1.5,3,3,4.5,4.5
		c1.5,1.8,1.5,1.8,3.2,0.1c0.9-0.9,1.8-1.8,2.7-2.8c0.7-0.5,1.3-1.1,1.8-1.8c1.4-1.2,2.7-2.6,4-4c0.7-0.5,1.3-1.1,1.8-1.8
		c1.4-1.2,2.7-2.6,4-4c0.7-0.5,1.3-1.1,1.8-1.8c1.4-1.2,2.7-2.6,4-4c0.6-0.6,1.3-1.2,1.9-1.8l0.1,0l0.1,0c1.1,1.2,2.2,2.4,3.5,3.5
		c0.7,0.8,1.4,1.6,2.3,2.3c1.3,1.6,1.3,1.6-0.2,3c-6.6,6.5-13.1,13.1-19.7,19.6c-2.4,2.4-2.5,2.4,0.3,4.7c0.4,0.5,0.8,1,1.4,1.4
		c1.3,1.6,2.8,3,4.4,4.4c0.5,0.5,0.9,0.9,1.4,1.4c1.4,1.5,2.7,3.1,4.4,4.3c1.6-1.1,2.8-2.6,4.1-3.9c0.8-0.6,1.5-1.3,2-2.1
		c1.3-1.1,2.5-2.4,3.7-3.7c0.7-0.5,1.2-1,1.7-1.7c1.3-1.3,2.7-2.7,4-4c0.8-0.6,1.5-1.3,2-2.1c1.3-1.1,2.5-2.4,3.7-3.7
		c0.7-0.5,1.2-1,1.7-1.7c1.3-0.4,1.4,1.1,2.2,1.3c1,1.3,2.2,2.4,3.5,3.5c0.7,0.8,1.3,1.5,2,2.3c-0.7,0.7-1.3,1.4-2,2.1
		c-1,1-2,2-2.9,3c-1.2,1-2.2,2.1-3.2,3.2c-1.1,1-2.2,2-3.2,3.2c-0.8,0.6-1.5,1.3-2.1,2.1c-1,1-2,2-2.9,3c-1.2,1-2.2,2.1-3.2,3.2
		c-1.1,1-2.1,2-3.2,3.1c-0.4,0.4-0.6,0.7-0.1,1.1c1.1,1,2.1,2,3.2,3c0.5,0.7,1.1,1.3,1.8,1.8c1.4,1.6,2.8,3,4.4,4.4
		c0.5,0.5,0.9,0.9,1.4,1.4c2.3,2.7,2.3,2.7,4.6,0.2c0.1,0,0.1-0.1,0.1-0.1c1.9-1.9,3.8-3.8,5.7-5.7c1.9-1.9,3.8-3.8,5.7-5.6
		c1.9-1.9,3.9-3.9,5.8-5.8c1.9-1.9,3.8-3.8,5.7-5.7c1.9-1.9,3.9-3.9,5.8-5.8c2-1.8,3.9-3.7,5.7-5.7c1.5-1.7,2.6-3.6,3.1-5.8
		c0.6-1.9,0.9-3.8,0.5-5.8c-0.1-0.6-0.1-1.2-0.2-1.8c-0.9-4.3-3.6-7.4-6.8-10.1c-0.7-0.7-1.4-1.4-2-2c-1.1-1.3-2.4-2.5-3.7-3.7
		c-0.7-0.7-1.4-1.4-2.1-2c-1.1-1.3-2.4-2.5-3.7-3.7c-0.7-0.7-1.4-1.4-2-2c-1.1-1.3-2.4-2.6-3.7-3.7c-0.7-0.7-1.3-1.6-2.2-2.1
		c-1-1.6-2.5-2.8-3.9-4.1c-1.7-1.7-3.3-3.6-5.3-5.1c-1.7-1.9-3.4-3.8-5.3-5.4c-1.1-0.8-0.8-1.5,0.2-2.3c0.9-0.8,1.7-1.7,2.5-2.6
		c0.4-0.2,0.6-0.5,0.8-0.8c0.3-0.3,0.6-0.6,0.9-0.8c1.8-1.8,1.8-1.8,3.7-0.2c0.5,0.7,1.1,1.2,1.7,1.7c1.3,1.4,2.6,2.8,4,4
		c0.5,0.6,1,1.3,1.7,1.7c1.3,1.4,2.6,2.8,4,4c0.5,0.7,1.1,1.2,1.7,1.7c1.3,1.4,2.6,2.8,4,4c0.5,0.6,1,1.3,1.7,1.7
		c1.3,1.4,2.6,2.8,4,4c0.5,0.7,1.1,1.2,1.7,1.7c1.3,1.4,2.6,2.8,4,4c0.5,0.6,1,1.3,1.7,1.7C308.9,243.3,310.3,244.7,311.7,245.9z"/>
	<path class="st0" d="M254.6,113.6c1.8-1.7,3.7-3.3,6.1-4.2c1.8-0.4,3.6-0.5,5.4-0.4c1,0.3,2.1,0.6,3.1,0.9c0.8,0.5,1.5,0.9,2.3,1.4
		c11.4,11.4,22.8,22.8,34.2,34.2c1.2,1.2,2.2,2.5,3.1,3.9c0.6,1.5,0.9,3,1,4.6c0.2,2.5-0.6,4.7-1.8,6.9c-0.6,0.7-1.2,1.5-1.8,2.2
		c-1.3,1.1-2.4,2.2-3.5,3.5c-0.8,0.7-1.6,1.4-2.3,2.2c-1.3,1.1-2.4,2.2-3.5,3.5c-0.6,0.2-0.9,1.6-1.9,0.6c-0.2-0.4-0.5-0.7-0.9-0.9
		c-1.5-1.7-3.2-3.3-4.9-4.9c-0.2-0.4-0.5-0.7-0.9-0.9c-1.5-1.7-3.2-3.3-4.9-4.9c-0.2-0.4-0.5-0.7-0.9-0.9c-1.5-1.7-3.2-3.3-4.9-4.9
		c-0.2-0.4-0.5-0.7-0.9-0.9c-1.5-1.7-3.2-3.3-4.9-4.9c-0.2-0.4-0.5-0.7-0.9-0.9c-1.5-1.7-3.2-3.3-4.9-4.9c-0.2-0.4-0.5-0.7-0.9-0.9
		c-1.5-1.7-3.2-3.3-4.9-4.9c-0.2-0.4-0.5-0.7-0.9-0.9c-1.5-1.7-3.2-3.3-4.9-4.9c-0.2-0.4-0.5-0.7-0.9-0.9c-1.5-1.7-3.2-3.3-4.9-4.9
		c-0.2-0.4-0.5-0.7-0.9-0.9c-0.2-0.2-0.4-0.5-0.6-0.7c-0.7-0.8-1.9-1.4-2.1-2.3c-0.2-1.1,1.4-1.5,1.8-2.4c0.6-0.4,1-0.9,1.5-1.4
		c1.5-1.3,3-2.8,4.3-4.3C253.8,114.6,254.3,114.2,254.6,113.6z"/>
	<path class="st0" d="M107.2,298.6c0.6-1.7,1.2-3.5,1.6-5.3c0.8-2,1.3-4.1,1.8-6.2c0.4-1.1,0.8-2.2,1-3.4c1-2.6,1.7-5.3,2.4-8
		c0.7-1.9,1.3-3.8,1.7-5.7c1.2-3.6,2.3-7.3,3.2-11c0.8-2,1.3-4.1,1.8-6.2c0.6-1.9,1.1-3.8,1.7-5.7c0.1-0.5,0.3-0.9,0.4-1.4
		c1.5-1.4,1.4-1.4,2.9,0c4.9,4.9,9.8,9.8,14.7,14.7c11,11,22,22,33,33.1c0.4,0.4,1.4,0.7,1,1.7c-1.2,1.3-2.6,2.2-4.5,2.6
		c-2.4,0.5-4.7,1.3-7,1.9c-1.9,0.5-3.8,0.9-5.7,1.6c-1.4,0.2-2.7,0.6-4,1c-2.3,0.6-4.6,1.2-6.9,1.9c-0.2,0-0.4,0.1-0.6,0.1
		c-1.9,0.5-3.8,1-5.8,1.6c-1.9,0.4-3.8,0.9-5.7,1.5c-3.2,0.7-6.4,1.5-9.5,2.6c-0.7,0-1.4,0.2-2,0.5c-1.9,0.4-3.8,0.9-5.7,1.5
		c-1.9,0.5-3.8,1-5.7,1.5c-1.9,0.4-3.9,1.3-5.8-0.1c-0.9-0.9-1.5-1.9-1.5-3.2c0.5-1.9,1-3.8,1.5-5.7c0.2-0.2,0.3-0.5,0.3-0.9
		C106.4,301.9,106.8,300.3,107.2,298.6z"/>
	<path class="st0" d="M256.9,212.5c-0.8,0.7-1.6,1.4-2.3,2.2c-1.3,1.1-2.4,2.2-3.5,3.5c-0.8,0.7-1.6,1.4-2.3,2.2
		c-1.3,1.1-2.4,2.2-3.5,3.5c-0.8,0.7-1.6,1.4-2.3,2.2c-1.3,1.1-2.4,2.2-3.5,3.5c-0.8,0.7-1.6,1.4-2.3,2.2c-1.3,1.1-2.4,2.2-3.5,3.5
		c-0.8,0.7-1.6,1.4-2.3,2.2c-1.3,1.1-2.4,2.2-3.5,3.5c-0.8,0.7-1.6,1.4-2.3,2.2c-1.3,1.1-2.4,2.2-3.5,3.5c-0.8,0.7-1.6,1.4-2.3,2.2
		c-1.3,1.1-2.4,2.2-3.5,3.5c-0.8,0.7-1.6,1.4-2.3,2.2c-1.3,1.1-2.4,2.2-3.5,3.5c-0.8,0.7-1.6,1.4-2.3,2.2c-1.3,1.1-2.4,2.2-3.5,3.5
		c-0.8,0.7-1.6,1.4-2.3,2.2c-1.3,1.1-2.4,2.2-3.5,3.5c-0.8,0.7-1.6,1.4-2.3,2.2c-1.3,1.1-2.4,2.2-3.5,3.5c-0.8,0.7-1.6,1.4-2.3,2.2
		c-1.3,1.1-2.4,2.2-3.5,3.5c-0.8,0.7-1.6,1.4-2.3,2.2c-1.3,1.1-2.4,2.2-3.5,3.5c-0.7,0.7-1.5,1.3-2.2,2c-1.8-1.7-3.3-3.7-5.4-5.1
		c-0.7-1.2-1.7-2.2-2.9-2.9c-0.8-1.4-2.1-2.3-3.2-3.4c-0.6-0.8-1.3-1.5-2-2c-1.1-1.3-2.4-2.6-3.7-3.7c-0.8-0.9-1.4-1.9-2.5-2.4
		c-0.8-1.4-2.1-2.3-3.2-3.4c-0.6-0.8-1.2-1.5-2-2c-1.1-1.3-2.4-2.6-3.7-3.7c-0.6-0.8-1.3-1.4-2-2c-1.1-1.3-2.4-2.6-3.7-3.7
		c-0.6-0.8-1.2-1.5-2-2c-1.1-1.3-2.4-2.6-3.7-3.7c-0.6-0.8-1.2-1.4-2-2c-1.1-1.3-2.4-2.6-3.7-3.7c-0.6-0.8-1.2-1.5-2-2
		c-0.6-0.6-1.1-1.3-1.7-1.8c-0.6-0.5-0.7-0.9,0-1.5c0.8-0.8,1.6-1.6,2.3-2.4c0.6-0.4,1-0.9,1.4-1.4c1.5-1.3,3-2.8,4.3-4.3
		c0.6-0.4,1.1-0.8,1.4-1.4c1.5-1.3,3-2.8,4.3-4.3c0.6-0.4,1-0.9,1.4-1.4c1.5-1.3,3-2.8,4.3-4.3c0.6-0.4,1.1-0.8,1.4-1.4
		c1.4-1.1,2.6-2.4,3.7-3.7c2.6-2.6,5.2-5.2,7.7-7.8c1.6-1.3,3-2.8,4.3-4.3c0.6-0.4,1-0.9,1.4-1.4c1.5-1.3,3-2.8,4.3-4.3
		c0.6-0.4,1.1-0.8,1.4-1.4c1.5-1.3,3-2.8,4.3-4.3c0.6-0.4,1-0.9,1.4-1.4c1.5-1.3,3-2.8,4.3-4.3c0.6-0.4,1.1-0.8,1.4-1.4
		c1.5-1.3,3-2.8,4.3-4.3c0.6-0.4,1-0.9,1.4-1.4c1.5-1.3,3-2.8,4.3-4.3c0.6-0.4,1.1-0.8,1.4-1.4c1.5-1.3,3-2.8,4.3-4.3
		c0.6-0.4,1-0.9,1.4-1.4c1.5-1.3,3-2.8,4.3-4.3c0.6-0.4,1.1-0.8,1.4-1.4c1.4-1.4,2.8-2.9,4.2-4.3c0.6-0.4,1.1-0.9,1.5-1.5
		c1.5-1.4,3-2.7,4.3-4.3c0.6-0.4,1.1-0.8,1.4-1.4c1.5-1.3,3-2.8,4.3-4.3c0.6-0.4,1-0.9,1.4-1.4c1.5-1.3,3-2.8,4.3-4.3
		c0.6-0.4,1.1-0.8,1.4-1.4c1.5-1.3,3-2.8,4.3-4.3c0.7-0.5,1.2-1.1,1.7-1.7c2.1-1.8,2.1-1.8,4.2,0.2c0.2,0.2,0.4,0.3,0.5,0.4
		c0.5,0.7,1.1,1.3,1.8,1.8c1.3,1.3,2.6,2.6,3.9,3.9c0.5,0.7,1.1,1.3,1.8,1.8c1.2,1.4,2.5,2.7,4,3.9c0.5,0.7,1.1,1.3,1.8,1.8
		c1.3,1.3,2.6,2.6,3.9,3.9c0.5,0.7,1.1,1.3,1.8,1.8c1.2,1.4,2.5,2.7,4,3.9c0.5,0.7,1.1,1.3,1.8,1.8c1.3,1.3,2.6,2.6,3.9,3.9
		c0.5,0.7,1.1,1.3,1.8,1.8c1.2,1.4,2.5,2.7,4,3.9c0.5,0.7,1.1,1.3,1.8,1.8c1.3,1.3,2.6,2.6,3.9,3.9c0.5,0.7,1.1,1.3,1.8,1.8
		c1.2,1.4,2.5,2.7,4,3.9c0.5,0.7,1.1,1.3,1.8,1.8c-0.1,0.7-0.9,0.9-1.1,1.5c-1.3,1.1-2.4,2.2-3.5,3.5c-0.8,0.7-1.6,1.4-2.3,2.2
		c-1.3,1.1-2.4,2.2-3.5,3.5c-0.8,0.7-1.6,1.4-2.3,2.2c-1.3,1.1-2.4,2.2-3.5,3.5c-0.8,0.7-1.6,1.4-2.3,2.2c-1.3,1.1-2.4,2.2-3.5,3.5
		c-0.8,0.7-1.6,1.4-2.3,2.2c-1.3,1.1-2.4,2.2-3.5,3.5c-0.8,0.7-1.6,1.4-2.3,2.2C259.1,210.1,257.9,211.2,256.9,212.5z"/>
</g>
</svg>
