<svg width="24" height="25" viewBox="0 0 24 25" fill="none" xmlns="http://www.w3.org/2000/svg">
<path d="M5 15.5C4.06 15.5 3.19 15.83 2.5 16.38C1.58 17.11 1 18.24 1 19.5C1 20.25 1.21 20.96 1.58 21.56C2.27 22.72 3.54 23.5 5 23.5C6.01 23.5 6.93001 23.13 7.63 22.5C7.94 22.24 8.21 21.92 8.42 21.56C8.79 20.96 9 20.25 9 19.5C9 17.29 7.21 15.5 5 15.5ZM7.07001 19.07L4.94 21.04C4.8 21.17 4.60999 21.24 4.42999 21.24C4.23999 21.24 4.04999 21.17 3.89999 21.02L2.91 20.03C2.62 19.74 2.62 19.26 2.91 18.97C3.2 18.68 3.68 18.68 3.97 18.97L4.45 19.45L6.05 17.97C6.35 17.69 6.83 17.71 7.11 18.01C7.39 18.31 7.37001 18.79 7.07001 19.07Z" fill="#1B5148"/>
<path d="M19.48 13.45H21.5V12.01C21.5 9.94001 19.81 8.25 17.74 8.25H6.25999C4.18999 8.25 2.5 9.94001 2.5 12.01V16.38C3.19 15.83 4.06 15.5 5 15.5C7.21 15.5 9 17.29 9 19.5C9 20.25 8.79 20.96 8.42 21.56C8.21 21.92 7.94 22.24 7.63 22.5H17.74C19.81 22.5 21.5 20.81 21.5 18.74V17.55H19.6C18.52 17.55 17.53 16.76 17.44 15.68C17.38 15.05 17.62 14.46 18.04 14.05C18.41 13.67 18.92 13.45 19.48 13.45Z" fill="#56BE89"/>
<path d="M14.85 4.45012V8.25011H6.25999C4.18999 8.25011 2.5 9.94012 2.5 12.0101V8.34014C2.5 7.15014 3.23 6.09009 4.34 5.67009L12.28 2.67009C13.52 2.21009 14.85 3.12012 14.85 4.45012Z" fill="#1B5148"/>
<path d="M22.5608 14.4699V16.53C22.5608 17.08 22.1208 17.5299 21.5608 17.5499H19.6008C18.5208 17.5499 17.5308 16.7599 17.4408 15.6799C17.3808 15.0499 17.6208 14.4599 18.0408 14.0499C18.4108 13.6699 18.9208 13.45 19.4808 13.45H21.5608C22.1208 13.47 22.5608 13.9199 22.5608 14.4699Z" fill="#1B5148"/>
<path d="M14 13.25H7C6.59 13.25 6.25 12.91 6.25 12.5C6.25 12.09 6.59 11.75 7 11.75H14C14.41 11.75 14.75 12.09 14.75 12.5C14.75 12.91 14.41 13.25 14 13.25Z" fill="white"/>
</svg>
