<svg width="24" height="25" viewBox="0 0 24 25" fill="none" xmlns="http://www.w3.org/2000/svg">
<path d="M22 8.31V15.66C21.71 15.52 21.39 15.42 21.03 15.36L20.72 15.31L20.46 14.77C19.91 13.65 19.01 13 18 13C16.99 13 16.09 13.65 15.54 14.77L15.27 15.31L14.97 15.36C13.78 15.56 12.92 16.22 12.61 17.16C12.31 18.11 12.62 19.15 13.47 20.01L13.78 20.32L13.75 20.44C13.55 21.33 13.63 22.01 13.82 22.5H7.81C4.17 22.5 2 20.33 2 16.69V8.31C2 4.67 4.17 2.5 7.81 2.5H16.19C19.83 2.5 22 4.67 22 8.31Z" fill="#56BE89"/>
<path d="M19.1199 15.4399L19.4399 16.0899C19.5999 16.4099 20.0099 16.7099 20.3499 16.7699L20.7799 16.8399C22.0899 17.0599 22.3899 18.0199 21.4599 18.9599L21.0599 19.3599C20.7899 19.6299 20.6499 20.1499 20.7299 20.5299L20.7799 20.7699C21.1399 22.3499 20.2999 22.9599 18.9299 22.1299L18.6399 21.9499C18.2899 21.7399 17.7099 21.7399 17.3599 21.9499L17.0699 22.1299C15.6899 22.9599 14.8599 22.3499 15.2199 20.7699L15.2699 20.5299C15.3499 20.1599 15.2099 19.6299 14.9399 19.3599L14.5399 18.9599C13.6099 18.0099 13.9099 17.0599 15.2199 16.8399L15.6499 16.7699C15.9999 16.7099 16.3999 16.4099 16.5599 16.0899L16.8799 15.4399C17.4999 14.1899 18.4999 14.1899 19.1199 15.4399Z" fill="#1B5148"/>
<path fill-rule="evenodd" clip-rule="evenodd" d="M16.1296 8.41728C16.457 8.67106 16.5167 9.14217 16.2629 9.46954L13.9485 12.4552C13.3536 13.2076 12.2567 13.3448 11.4916 12.7535L11.4863 12.7495L9.65976 11.3121C9.54691 11.2264 9.38952 11.2478 9.30382 11.3583C9.30374 11.3584 9.3039 11.3582 9.30382 11.3583L6.9243 14.4477C6.67154 14.7759 6.20062 14.837 5.87246 14.5842C5.5443 14.3315 5.48318 13.8606 5.73593 13.5324L8.11666 10.4415C8.71057 9.67287 9.81178 9.53396 10.5787 10.1266L10.5839 10.1306L12.4105 11.5679C12.5245 11.6546 12.6852 11.6322 12.7703 11.5267L15.0774 8.55055C15.3312 8.22318 15.8023 8.16351 16.1296 8.41728Z" fill="white"/>
</svg>
