<svg width="16" height="17" viewBox="0 0 16 17" fill="none" xmlns="http://www.w3.org/2000/svg">
<path fill-rule="evenodd" clip-rule="evenodd" d="M4.20671 8.49967C4.20671 8.06665 4.27859 7.65145 4.40702 7.26207L2.16016 5.54636C1.72225 6.43541 1.47559 7.43728 1.47559 8.49967C1.47559 9.56122 1.72204 10.5624 2.15923 11.4509L4.40484 9.73185C4.27765 9.34425 4.20671 8.9306 4.20671 8.49967Z" fill="#FBBC05"/>
<path fill-rule="evenodd" clip-rule="evenodd" d="M8.15265 4.56066C9.09337 4.56066 9.94306 4.89399 10.6107 5.4394L12.5527 3.50004C11.3693 2.46974 9.85201 1.83339 8.15265 1.83339C5.51434 1.83339 3.24685 3.34213 2.16113 5.5467L4.40789 7.26241C4.92559 5.69097 6.40131 4.56066 8.15265 4.56066Z" fill="#EA4335"/>
<path fill-rule="evenodd" clip-rule="evenodd" d="M8.15265 12.4399C6.40141 12.4399 4.9257 11.3096 4.40799 9.73813L2.16113 11.4535C3.24685 13.6584 5.51434 15.1672 8.15265 15.1672C9.78097 15.1672 11.3356 14.5889 12.5024 13.5056L10.3697 11.8569C9.76795 12.2359 9.01014 12.4399 8.15265 12.4399Z" fill="#34A853"/>
<path fill-rule="evenodd" clip-rule="evenodd" d="M14.5249 8.5005C14.5249 8.10654 14.4642 7.68227 14.3731 7.28842H8.15234V9.86413H11.7332C11.5541 10.7424 11.0668 11.4175 10.3694 11.8568L12.5021 13.5056C13.7277 12.3681 14.5249 10.6735 14.5249 8.5005Z" fill="#4285F4"/>
</svg>
