<?xml version="1.0" encoding="utf-8"?>
<!-- Generator: Adobe Illustrator 26.0.1, SVG Export Plug-In . SVG Version: 6.00 Build 0)  -->
<svg version="1.1" id="Layer_1" xmlns="http://www.w3.org/2000/svg" xmlns:xlink="http://www.w3.org/1999/xlink" x="0px" y="0px"
	 viewBox="0 0 400 400" style="enable-background:new 0 0 400 400;" xml:space="preserve">
<style type="text/css">
	.st0{fill:#3168B2;}
	.st1{fill:#75A4D8;}
	.st2{fill:#0A0A0A;}
	.st3{fill:#010101;}
</style>
<path class="st0" d="M112.9,233.7c3-3.1,5.9-6.3,8.9-9.3c11-11,21.9-22,32.9-33c10.2-10.1,21.7-9.1,29.9,2.7c1.3,0,1.8-1.2,2.6-1.9
	c6.4-5.7,15.1-6.4,22.1-1.9c6.6,4.3,9.6,12.9,6.6,20.7c-0.9,2.5-0.2,3.3,1.6,4.5c9.4,6.5,10.5,18.8,2.6,27.1
	c-0.6,0.6-1.2,1.4-1.9,1.9c-1.6,1.3-1.9,2.1,0.2,3.6c9.4,6.8,10.5,18.9,2.5,27.1c-15.6,15.8-31.4,31.5-47.1,47.2
	c-3.2,3.2-6.5,3.4-9.1,0.7c-2.6-2.6-2.3-5.9,0.9-9.1c14.8-14.8,29.6-29.6,44.4-44.4c0.7-0.7,1.5-1.4,2.2-2.2
	c2.9-3.1,3.1-6.3,0.5-8.9c-2.4-2.5-6-2.3-8.8,0.5c-9.7,9.6-19.3,19.2-28.9,28.9c-0.9,0.9-1.8,1.9-2.7,2.7c-2.7,2.3-6,2.3-8.3,0
	c-2.3-2.3-2.5-5.6,0-8.3c3.2-3.4,6.5-6.5,9.8-9.8c12.3-12.3,24.7-24.7,37-37c1.8-1.8,3.3-3.7,2.8-6.4c-1-4.8-6.4-6.4-10.2-2.9
	c-5.4,5.1-10.6,10.5-15.9,15.7c-7.5,7.5-15.1,15.1-22.6,22.6c-3.2,3.2-6.6,3.5-9.1,1.1c-2.7-2.6-2.4-6,0.9-9.4
	c0.4-0.4,0.7-0.7,1.1-1.1c14.7-14.7,29.4-29.4,44.1-44.1c0.9-0.9,1.9-1.8,2.5-2.9c1.6-2.6,1.2-5.3-1-7.4c-2.1-2-4.6-2.2-7.1-0.6
	c-1.2,0.7-2.2,1.8-3.2,2.8c-15.9,15.9-31.8,31.8-47.7,47.7c-3.1,3.1-6.6,3.3-9.1,0.7c-2.4-2.5-2.1-5.8,0.8-8.9
	c0.5-0.6,1.1-1.1,1.6-1.6c11.2-11.2,22.4-22.3,33.5-33.5c3.8-3.8,2.9-9-1.7-10.5c-2.9-1-4.9,0.4-6.8,2.3
	c-16.2,16.3-32.5,32.5-48.8,48.7c-1.5,1.5-3,2.9-4.4,4.4c-2,2.1-4.4,2.7-7,1.6c-2.5-1-3.4-3.2-3.4-5.9c0-10.5-0.1-21.1-0.1-31.6
	c0-1,0-2.1-0.1-3.1c-0.4-3.9-3.2-6.5-6.8-6.5c-3.8,0-6.6,2.9-6.6,7c-0.1,11,0,22.1,0,33.1c0,7.4,0,14.9,0,22.3
	c0,4.4-2.2,7.1-5.8,7.1c-3.6,0.1-5.8-2.6-5.8-7c0-18.6,0-37.2,0-55.9c0-10.4,7.9-18.3,18.2-18.6c9.8-0.3,18.4,7.9,18.7,18.2
	c0.2,6.7,0,13.5,0,20.2C112.2,233.4,112.5,233.6,112.9,233.7z"/>
<path class="st0" d="M317,236.9c0,20.8,0,41.6,0,62.4c0,16.9-10.8,27.6-27.7,27.6c-28.9,0-57.8,0-86.7,0c-2.1,0-4.2,0.1-5.9-1.3
	c-1.7-1.4-2.6-3.3-2.1-5.4c0.4-2.1,1.5-3.8,3.7-4.6c1.6-0.6,3.3-0.5,4.9-0.5c28.6,0,57.3,0,85.9,0c10.8,0,16.2-5.3,16.2-16
	c0-42.1,0-84.3,0-126.4c0-1,0-2.1,0-3.1c0.3-3.2,2.7-5.7,5.7-5.7c3,0,5.6,2.3,6,5.5c0.2,1.7,0.1,3.3,0.1,5
	C317,195.3,317,216.1,317,236.9z"/>
<path class="st0" d="M177.6,97.4c21.7,0,43.4,0,65.1,0c2.7,0,5.2,0.2,6.7,2.7c2.3,3.7-0.1,8.4-4.5,8.9c-1.6,0.2-3.3,0.1-5,0.1
	c-41.5,0-83,0-124.5,0c-11.1,0-16.4,5.4-16.3,16.6c0,16.3,0,32.6,0,48.9c0,4.1-2,6.5-5.2,6.9c-3.4,0.4-6.4-2.2-6.4-6.1
	c-0.1-18.1-0.4-36.2,0.2-54.3c0.4-13.4,12-23.6,25.6-23.7C134.7,97.4,156.1,97.5,177.6,97.4z"/>
<path class="st1" d="M291.1,168.8c-7.4-23.9-23.2-38.3-47.2-44.2c10.7-4.7,21.5-8.5,29.2-17.3c7.5-8.7,10.9-19.6,15.3-31.1
	c7.3,24.4,23,38.9,47,45.4C311.6,129.1,297.2,144.7,291.1,168.8z M273.5,123.6c6.2,3.9,11.2,8.4,15.3,13.9c0.5,0.7,1.1,1.6,2,0.3
	c3.8-5.9,8.8-10.8,14.5-15.4c-6.7-4.2-11.8-9.3-16.4-15.3C284.9,113.6,279.9,118.9,273.5,123.6z"/>
</svg>
