<?xml version="1.0" encoding="utf-8"?>
<!-- Generator: Adobe Illustrator 26.0.1, SVG Export Plug-In . SVG Version: 6.00 Build 0)  -->
<svg version="1.1" id="Layer_1" xmlns="http://www.w3.org/2000/svg" xmlns:xlink="http://www.w3.org/1999/xlink" x="0px" y="0px"
	 viewBox="0 0 400 400" style="enable-background:new 0 0 400 400;" xml:space="preserve">
<style type="text/css">
	.st0{fill:#3168B2;}
	.st1{fill:#75A4D8;}
	.st2{fill:#0A0A0A;}
	.st3{fill:#010101;}
</style>
<path class="st1" d="M232.1,124.1c0.1,11.4-2.7,21.2-9.1,29.9c-4,5.4-9,9.8-14.5,13.6c-0.5,0.3-0.8,0.3-1.2,0
	c-10.5-7-18.3-16-21.7-28.3c-1.9-7-2.2-14.1-1.6-21.3c0-0.6,0.3-0.8,0.8-1c7.5-2.8,15-5.6,22.5-8.4c0.4-0.2,0.8-0.1,1.2,0
	c7.5,2.8,14.9,5.6,22.4,8.3c0.6,0.2,0.8,0.6,0.8,1.2C232,120.3,232,122.5,232.1,124.1z"/>
<path class="st0" d="M199.6,312.4c-43.5,0-87.1,0-130.6,0c-1.3,0-2.6,0-3.9-0.1c-3.1-0.3-5.3-2.5-5.4-5.5c-0.1-3.1,2.2-5.7,5.2-6.1
	c0.8-0.1,1.6,0,2.4,0c88.2,0,176.4,0,264.5,0c4.8,0,7.2,1.7,7.6,5.1c0.4,3.4-1.9,6.2-5.3,6.5c-1.1,0.1-2.2,0.1-3.3,0.1
	C287.1,312.4,243.4,312.4,199.6,312.4z"/>
<path class="st0" d="M200,276.7c43.3,0,86.5,0,129.8,0c1.3,0,2.7,0,3.9,0.1c3.4,0.4,5.3,2.2,5.8,5c0.4,2.8-1.5,5.2-4.6,6.2
	c-1.4,0.4-2.8,0.4-4.3,0.4c-87.5,0-174.9,0-262.4,0c-3.4,0-6.2-0.7-7.8-3.4c-1.3-2.1-0.9-4.1,0.7-6c1.7-2.1,4.2-2.4,7-2.4
	c22.5,0,45.1,0,67.6,0C157.1,276.7,178.6,276.7,200,276.7z"/>
<path class="st0" d="M199.5,264.3c-43.6,0-87.1,0-130.7,0c-5.7,0-8.9-1.9-9.1-5.4c-0.2-3.2,2.5-5.7,6.6-6.2c1-0.1,2.1,0,3.2,0
	c86.7,0,173.4,0,260.1,0c1.4,0,2.9,0,4.3,0.2c3.7,0.7,5.9,3.3,5.6,6.2c-0.3,2.8-3.1,5-7,5.2c-1.3,0.1-2.6,0-4,0
	C285.6,264.3,242.5,264.3,199.5,264.3z"/>
<path class="st1" d="M252.1,157.9c3.9-0.2,7.9-0.5,11.8-0.6c5-0.1,7.7,3.5,6,8.3c-2.8,7.8-5.6,15.6-8.6,23.3
	c-1.8,4.7-6.4,5.6-9.8,1.9c-1.3-1.4-2.6-2.8-3.7-4.4c-1.1-1.5-1.8-1.5-3.3-0.4c-13.9,10.9-27.9,21.7-41.9,32.6
	c-8.1,6.3-16.1,12.5-24.2,18.8c-3.2,2.5-5.6,2.5-8.7-0.1c-7.1-5.8-14.2-11.7-21.3-17.6c-3.3-2.7-3.8-6.2-1.5-9
	c2.3-2.7,5.8-2.7,9.1,0.1c5.4,4.4,10.8,8.8,16.1,13.4c1.4,1.2,2.4,1.5,4,0.2c20.4-15.9,40.9-31.8,61.4-47.6c1.6-1.2,1.6-2,0.5-3.6
	c-1.4-2-2.7-4-3.9-6.2c-2.2-4,0-8.1,4.6-8.5C243.2,158.2,247.6,158.1,252.1,157.9C252.1,157.8,252.1,157.9,252.1,157.9z"/>
<path class="st1" d="M327,157.2c1.2,0,2.4-0.1,3.6,0c3.9,0.2,6.7,3.6,5.4,7.3c-2.8,8.3-5.8,16.6-9,24.7c-1.7,4.3-6.1,4.9-9.3,1.7
	c-0.6-0.6-1.1-1.2-1.6-1.8c-4-4.5-4-4.5-8.9-0.7c-20.9,16.2-41.7,32.4-62.6,48.5c-3.7,2.9-5.8,2.8-9.4-0.2
	c-4.3-3.5-8.6-7.1-12.9-10.6c-3.3-2.8-3.9-6.2-1.7-8.9c2.4-2.8,5.7-2.9,9.1-0.1c2.9,2.4,5.8,4.7,8.6,7.2c1.1,1,1.9,1.2,3.3,0.2
	c20.6-16,41.2-32,61.9-48c1.5-1.2,1.5-1.9,0.4-3.4c-1.4-1.8-2.6-3.9-3.7-5.9c-2.5-4.5-0.2-8.6,5-8.9c7.3-0.4,14.6-0.8,21.8-1.1
	C327,157.3,327,157.3,327,157.2z"/>
<path class="st1" d="M149.2,163.4c0-2.8,1.1-4.5,3.2-5.5c2.3-1.2,4.6-0.7,6.5,0.8c2.8,2.3,5.6,4.7,8.4,7c8.4,7,16.8,13.9,25.3,20.9
	c1.9,1.6,3,3.5,2.5,6.1c-0.5,2.3-1.9,3.7-4.1,4.5c-2,0.7-3.8,0.1-5.4-1.2c-11.4-9.4-22.8-18.8-34.1-28.2
	C150,166.5,149.1,164.9,149.2,163.4z"/>
</svg>
