<?xml version="1.0" encoding="utf-8"?>
<!-- Generator: Adobe Illustrator 26.0.1, SVG Export Plug-In . SVG Version: 6.00 Build 0)  -->
<svg version="1.1" id="Layer_1" xmlns="http://www.w3.org/2000/svg" xmlns:xlink="http://www.w3.org/1999/xlink" x="0px" y="0px"
	 viewBox="0 0 400 400" style="enable-background:new 0 0 400 400;" xml:space="preserve">
<style type="text/css">
	.st0{fill:#3168B2;}
	.st1{fill:#75A4D8;}
	.st2{fill:#0A0A0A;}
	.st3{fill:#010101;}
</style>
<g>
	<path class="st0" d="M245.3,293.9c-20.2,0-40.4,0-60.6,0c-2.6,0-4.6,0.5-6.8,2.2c-11.8,9.3-28.4,9.9-40.5,1.7
		c-12.8-8.7-18.5-24.2-14.2-38.7c4.3-14.5,17.6-24.8,32.8-25.1c5.1-0.1,10.2,0.9,14.8,3.1c2.9,1.4,2.8,0.3,3.2-2.2
		c1.5-8.6-1.5-14.2-9.6-17.7c-4-1.7-7.5-4.7-11.3-6.9c-2.4-1.4-3.5-3.3-3.4-6.1c0.1-6,0-12,0.1-18c0.1-4.3,1.6-5.9,5.9-6
		c5.2-0.1,10.4-0.1,15.6,0c2.6,0.1,3.2-0.6,2.2-3.2c-4.6-12-9-24.1-13.4-36.2c-0.7-1.9-1.7-2.5-3.7-2.5c-7.9,0.1-15.9,0.1-23.8,0
		c-3.8,0-6.1-2-6.2-5c0-3,2.3-5.1,6.1-5.2c6.8-0.1,13.6-0.1,20.3,0c2.6,0,2.4-1,1.7-2.8c-1.4-3.4-2.7-6.8-3.8-10.3
		c-0.7-2.2-1.9-2.7-4-2.7c-11.2,0.1-22.4,0.1-33.6,0c-4.5,0-6.9-1.8-6.9-5.1c0-3.3,2.5-5.1,6.9-5.1c12.6,0,25.3,0.1,37.9-0.1
		c4.2-0.1,6.4,1.5,7.8,5.4c8.3,23,16.9,45.9,25.3,68.8c1,2.6,2.2,3.6,5,3.6c6.6-0.2,13.3-0.2,19.9,0c2.8,0.1,3.8-0.9,4.3-3.6
		c1-5.6,2.4-11.2,3.5-16.8c0.7-3.6,2.7-5.1,6.2-5.1c9.9,0.1,19.8,0.1,29.7,0c3.7,0,5.7,1.6,6.4,5.3c5.4,25.7,10.9,51.4,16.2,77.2
		c0.6,2.9,1.6,3.9,4.5,3.7c4.8-0.3,9.6-0.1,14.5,0c11.4,0.2,19.7,8.5,19.7,19.9c0,8.9,0,17.7,0,26.6c0,4.9-1.7,6.5-6.6,6.5
		C286.8,293.9,266,293.9,245.3,293.9z M246.1,283.8c18.1,0,36.2,0,54.3,0.1c2.6,0,3.7-0.6,3.6-3.4c-0.2-6.4,0-12.8-0.1-19.1
		c-0.1-6.2-3.8-10.1-10-10.1c-34.8-0.1-69.5,0-104.3,0c-2.6,0-2.8,0.5-1.7,2.8c4,8.5,4.7,17.3,1.4,26.2c-1.3,3.5-0.1,3.7,2.9,3.7
		C210.2,283.7,228.2,283.8,246.1,283.8z M238,241c8.2,0,16.4-0.1,24.6,0c2.3,0,3.4-0.3,2.7-3c-1.2-4.8-2.1-9.6-3.1-14.5
		c-0.4-2-1.3-2.8-3.4-2.7c-4,0.1-8.1,0-12.1-0.1c-3.9-0.1-6.2-2-5.9-5.1c0.3-3.4,2.4-5,5.8-5c3.4,0,6.8-0.1,10.2,0
		c1.7,0,2.7-0.2,2.3-2.4c-2.9-13.7-5.8-27.5-8.7-41.2c-0.3-1.4-0.9-2.1-2.6-2.1c-6.4,0.1-12.8,0.1-19.1,0c-1.8,0-2.5,0.6-2.9,2.3
		c-4.9,23.5-9.9,47.1-14.9,70.6c-0.5,2.4-0.1,3.2,2.6,3.1C221.6,240.9,229.8,241,238,241z M181.1,268.8c0-13.5-11.1-24.7-24.6-24.6
		c-13.5,0.1-24.6,11.3-24.5,24.8c0.1,13.3,11.1,24.3,24.4,24.4C170.1,293.4,181.1,282.5,181.1,268.8z M185.1,190.5
		C185.1,190.6,185.1,190.6,185.1,190.5c-5.7,0-11.5,0-17.2,0c-8,0-7.9,0-8.1,8.2c-0.1,2.9,0.9,4.4,3.3,5.9
		c5.7,3.3,11.2,7.1,16.9,10.5c2.9,1.7,4.3,3.8,4.1,7.3c-0.2,4.8,0.1,9.6-0.1,14.4c-0.1,3.1,0.5,4.5,4,4.2c3-0.3,6-0.2,9,0
		c2.4,0.2,3.1-0.9,3.6-2.9c3.1-14.8,6.1-29.5,9.3-44.3c0.6-2.7-0.3-3.4-2.9-3.3C199.7,190.6,192.4,190.5,185.1,190.5z"/>
	<path class="st1" d="M208,326c-34.5,0-69,0-103.5,0c-1.3,0-2.6,0.1-3.9-0.2c-2.6-0.7-4-2.6-3.8-5.2c0.2-2.6,1.7-4.3,4.4-4.7
		c1.2-0.1,2.3-0.1,3.5-0.1c68.6,0,137.3,0,205.9,0c1.6,0,3.1,0,4.7,0.1c2.9,0.2,4.5,2,4.7,4.7c0.2,2.9-1.4,4.7-4.2,5.2
		c-1.1,0.2-2.3,0.1-3.5,0.1C277.5,326,242.7,326,208,326z"/>
</g>
</svg>
