<?xml version="1.0" encoding="utf-8"?>
<!-- Generator: Adobe Illustrator 26.0.1, SVG Export Plug-In . SVG Version: 6.00 Build 0)  -->
<svg version="1.1" id="Layer_1" xmlns="http://www.w3.org/2000/svg" xmlns:xlink="http://www.w3.org/1999/xlink" x="0px" y="0px"
	 viewBox="0 0 400 400" style="enable-background:new 0 0 400 400;" xml:space="preserve">
<style type="text/css">
	.st0{fill:#3168B2;}
	.st1{fill:#75A4D8;}
	.st2{fill:#0A0A0A;}
	.st3{fill:#010101;}
</style>
<path class="st0" d="M328.1,181.1c-41.8,14.9-83.3,29.7-124.8,44.5c-2.6,0.9-4.9,0.6-7.5-0.3C154.8,210.6,113.7,196,71.5,181
	c6.7-2.5,12.4-4.7,18.3-6.8c35.2-12.5,70.5-25,105.7-37.5c2.7-1,5.1-1.5,8-0.4c40.3,14.4,80.6,28.7,120.8,43
	C325.5,179.7,326.7,180.4,328.1,181.1z"/>
<path class="st1" d="M71.9,260.3c10.7-3.8,20.6-7.2,30.4-11c4-1.5,7.6-1.7,11.8-0.2c27.1,9.8,54.2,19.4,81.3,29.1
	c3.2,1.2,6,1.2,9.2,0c27.1-9.8,54.2-19.3,81.3-29.2c4.1-1.5,7.7-1.4,11.8,0.1c9.8,3.7,19.8,7.2,30.9,11.1
	c-10.4,3.8-19.9,7.3-29.5,10.7c-31.4,11.2-62.7,22.3-94.1,33.4c-2.8,1-5.3,1.6-8.6,0.5c-40.2-14.5-80.5-28.7-120.8-43
	C74.6,261.7,73.7,261.1,71.9,260.3z"/>
<path class="st1" d="M71.4,220.7c13-4.7,24.6-9,36.3-12.8c1.7-0.6,4.1,0.9,6.1,1.6c26.9,9.6,53.9,19.1,80.7,28.8
	c3.9,1.4,7.2,1.3,11.1,0c26.9-9.7,53.8-19.2,80.7-28.9c3.9-1.4,7.2-1.4,11.1,0.1c9.9,3.8,20,7.3,31.3,11.3
	c-43,15.3-84.4,30-125.8,44.8c-1.9,0.7-3.7,0.7-5.7,0C155.8,250.7,114.4,236,71.4,220.7z"/>
</svg>
