<?xml version="1.0" encoding="utf-8"?>
<!-- Generator: Adobe Illustrator 26.0.1, SVG Export Plug-In . SVG Version: 6.00 Build 0)  -->
<svg version="1.1" id="Layer_1" xmlns="http://www.w3.org/2000/svg" xmlns:xlink="http://www.w3.org/1999/xlink" x="0px" y="0px"
	 viewBox="0 0 400 400" style="enable-background:new 0 0 400 400;" xml:space="preserve">
<style type="text/css">
	.st0{fill:#3168B2;}
	.st1{fill:#75A4D8;}
	.st2{fill:#0A0A0A;}
	.st3{fill:#010101;}
</style>
<g>
	<path class="st0" d="M223.9,222.1c-2.5-3.6-4.3-7.1-0.6-10.4c1.4-1.3,3.2-1.1,4.5,0.3c2.8,3.2,1.7,6.4-0.9,9.7c2.2,0,4,0,6.2,0
		c-1.6-3.4-3.5-7,0.4-10.1c1.3-1.1,2.9-0.9,4.1,0.4c2.8,3.2,2,6.4-0.5,9.8c2.4,0,4.4,0,6.4,0c-3.1-4.6-3.4-8.6-0.6-10.4
		c1.8-1.2,3.5-0.9,4.9,0.8c2.2,2.6,1.4,6.3-2.4,9.8c15.6,0,30.9-0.1,46.1,0c10.6,0.1,10.4-2,9.6,9.8c-1.1,14.4-0.2,28.8-1.6,43.1
		c-1.2,11.7-4.8,18.8-18.1,21.9c-36.3,8.4-73.1,11-110.1,9c-21.1-1.2-42-4.3-62.6-9.2c-9.8-2.3-16.3-9.7-16.8-19.8
		c-0.8-16.6-1.2-33.3-1.9-49.9c-0.2-4.2,1.6-5,5.3-4.9c21.2,0.2,42.3,0,63.5,0.3c4.8,0.1,4.9-1.3,3.7-5.3
		c-7.6-24.9-7.5-24.9-29-38.7c-7.4-4.8-14.9-9.4-22.3-14.2c-14.1-9.1-18.2-26.9-9.5-40.6c8.8-13.8,26.5-17.8,40.7-8.9
		c13.4,8.4,26.6,17.1,40,25.4c3.4,2.1,3.1,3.6,1.2,6.5c-8.1,12.4-15.9,25-24,37.4c-1.7,2.7-2.2,4.4,0.2,7.2
		c7.4,8.6,13.7,18,18.6,28.3c0.8,1.7,1.5,3,3.9,3C195.8,222,209.6,222.1,223.9,222.1z M195.4,249.2c-31.6,0-63.3,0.1-94.9-0.1
		c-3.6,0-5,0.6-4.7,4.6c0.6,7,0.4,14,0.7,21c0.4,9.5,5.1,15.1,14.3,17.2c19,4.3,38.3,7.1,57.7,8.5c38.1,2.6,75.9-0.2,113.1-8.8
		c6.8-1.6,11.3-6,12.3-13.4c1.1-8.1,0.5-16.3,1-24.4c0.2-3.8-0.9-4.7-4.7-4.7C258.7,249.3,227.1,249.3,195.4,249.2z M126,114.6
		c-10.8,0.1-20.1,7-23.1,17.3c-3.1,10.7,0.8,21.5,10.5,27.8c12,7.8,24.2,15.3,36.1,23.1c2.7,1.8,3.8,1.2,5.4-1.3
		c7.3-11.7,14.7-23.4,22.3-34.9c1.8-2.7,0.8-3.6-1.4-4.9c-12.2-7.7-24.4-15.5-36.6-23.3C135.3,115.8,130.8,114.6,126,114.6z
		 M181.9,227c1.1,4.3,2.5,8,3.1,11.9c0.6,4.1,2.1,5.6,6.6,5.6c30.5-0.3,60.9-0.1,91.4-0.1c13.2,0,13.1,0,13.3-13.4
		c0.1-3.4-1-4.1-4.2-4.1c-18.6,0.2-37.3,0.1-55.9,0.1C218.2,227,200.3,227,181.9,227z M130.8,244.3c8.1,0,16.3,0,24.4,0
		c12.9,0,12.8,0,10.6-12.9c-0.6-3.4-1.7-4.5-5.4-4.5c-17.6,0.2-35.2,0.1-52.9,0.1c-13.2,0-13.1,0-12.5,13.3c0.1,3.3,1.1,4.2,4.4,4.1
		C109.9,244.2,120.3,244.3,130.8,244.3z M176.6,244.1c0.8-0.7,4.6,2.2,4-1.9c-0.7-4.5-2.3-9-3.7-13.4c-0.9-3-3.7-1.9-5.5-1.6
		c-2.4,0.4-0.8,2.3-0.7,3.6c0.2,3,0.8,5.9,0.7,8.9C171.2,243.2,172,245.2,176.6,244.1z M174.2,222.6c-2.6-6.2-5.3-10.9-9.2-15.1
		C168,212.2,164.6,220.7,174.2,222.6z"/>
	<path class="st0" d="M310.3,133.6c-0.4,8.4-5,15.4-12.5,20.2c-13.5,8.5-27.4,16.3-41,24.5c-2.3,1.4-3.1,0.6-4.2-1.3
		c-5.9-10-11.8-20-17.8-30c-1.2-2-1.1-3.1,1-4.3c13.7-7.9,27.2-16,40.9-23.8c5.9-3.4,12.5-4.3,19.3-2.9
		C304.7,117.7,310.3,124.4,310.3,133.6z M305.2,133.9c0-6.9-3.4-11.2-9.1-12.8c-5.7-1.6-11.4-0.9-16.4,1.9
		c-12.6,7.1-24.9,14.5-37.4,21.8c-1.7,1-1.9,1.8-0.9,3.5c4.4,7.4,8.8,14.8,13.1,22.3c1,1.8,2,2.2,3.9,1
		c11.9-7.2,24.1-14.1,35.9-21.5C300.6,146.2,304.8,140.5,305.2,133.9z"/>
	<path class="st0" d="M240.1,200.4c1.1-3.4,1.1-6.8,5-6.6c2.4,0.2,3.3,2,3.6,4.1c0.4,2.5-0.2,4.9-2.6,5.9c-3.6,1.5-4.6-1.8-6.3-4.9
		c-1,3.3-1.3,6.7-5.1,6.3c-2.9-0.3-3.6-2.7-3.6-5.1c0-2.2,0.7-4.4,3.2-5C238,194.2,238.6,197.3,240.1,200.4z"/>
	<path class="st0" d="M249.6,182.8c-0.5,2.4-1.1,5.2-4.3,5c-3.1-0.2-3.8-2.9-3.8-5.5c0.1-2.5,1.2-4.9,4-4.9
		C248.6,177.4,249.4,180,249.6,182.8z"/>
	<path class="st0" d="M219.5,282.3c-11.5,0-23,0-34.4,0c-2,0-5,0.8-4.9-2.5c0.1-3.2,3.1-2.4,5.1-2.4c23.1-0.1,46.2-0.1,69.4,0
		c1.9,0,4.6-0.5,4.7,2.3c0.1,3.4-2.9,2.6-4.8,2.6C242.8,282.3,231.2,282.3,219.5,282.3z"/>
	<path class="st0" d="M144.4,276.7c-7.3,0-14.6,0-21.9,0c-1.8,0-4.1,0.1-4.2-2.3c-0.2-3,2.4-2.6,4.3-2.6c14.6,0,29.2,0,43.8,0
		c1.9,0,4.6-0.5,4.5,2.4c-0.1,2.7-2.6,2.5-4.6,2.5C159,276.7,151.7,276.7,144.4,276.7z"/>
	<path class="st0" d="M234.6,261.7c4,0,7.9,0,11.9,0c1.7,0,3.6,0.2,3.5,2.5c-0.1,1.8-1.5,2.5-3.2,2.5c-8.3,0-16.5,0-24.8,0
		c-1.7,0-3-0.8-3-2.6c0-1.9,1.5-2.3,3.1-2.3C226.3,261.8,230.4,261.8,234.6,261.7C234.6,261.8,234.6,261.8,234.6,261.7z"/>
	<path class="st0" d="M225.3,236.7c-0.1,2.7-0.6,5.3-3.8,5.4c-3.2,0.1-4.2-2.5-4.1-5.1c0-2.6,0.9-5.1,4.1-5.1
		C224.4,231.9,225.1,234.2,225.3,236.7z"/>
	<path class="st0" d="M237.2,236.7c-0.1,2.7-0.8,5.2-3.9,5.3c-3.2,0.1-4.1-2.4-4.1-5.1c0-2.7,1-5.1,4.1-5.1
		C236.2,231.9,237,234.2,237.2,236.7z"/>
	<path class="st0" d="M250.1,236.7c-0.3,2.8-0.9,5.4-4.1,5.4c-3.2-0.1-3.9-2.7-3.9-5.3c0-2.5,1-4.8,3.8-4.9
		C249.1,231.7,249.8,234.2,250.1,236.7z"/>
</g>
</svg>
