<?xml version="1.0" encoding="utf-8"?>
<!-- Generator: Adobe Illustrator 26.0.1, SVG Export Plug-In . SVG Version: 6.00 Build 0)  -->
<svg version="1.1" id="Layer_1" xmlns="http://www.w3.org/2000/svg" xmlns:xlink="http://www.w3.org/1999/xlink" x="0px" y="0px"
	 viewBox="0 0 400 400" style="enable-background:new 0 0 400 400;" xml:space="preserve">
<style type="text/css">
	.st0{fill:#3168B2;}
	.st1{fill:#75A4D8;}
	.st2{fill:#0A0A0A;}
	.st3{fill:#010101;}
</style>
<path class="st1" d="M271.8,146.3c0.6-4.2-2.4-4.1-5.2-4.2c-1.2-4.1-4.5-6.7-7.3-9.6c-0.9-0.9-2-1.3-3-0.2c-2.8,3.3-7,5.4-8.6,9.8
	c-1,0-2,0-3,0c1.5-4.3,5.5-6.5,8.4-9.6c1.8-1.9,2.7-3.6,1.6-6c2,0,4,0,6,0c-0.7,3.1,8.2,14.6,11.1,14.5c0.2,0,0.4,0,0.5-0.1
	c3.9-4.3,9.7-7,11.3-13.2c2,0.8,3.1,2.4,3.5,4.5c-6.3,0.7-8.5,6.7-12.8,10.1c-0.3,0.3-0.4,1.5-0.1,1.7c4.4,3.8,6.9,9.7,13.2,11.2
	c0,1.3,0,2.7,0,4c-6.3,1.5-8.9,7.5-13.3,11.3c-0.2,0.2-0.2,1.1,0,1.3c4.4,3.8,6.9,9.8,13.3,11.3c0,1.7,0,3.3,0,5
	c-6,1.3-8.5,6.8-12.4,10.5c-0.3,0.3-0.3,1.5,0,1.8c3.9,3.7,6.4,9.2,12.4,10.5c0,1.7,0,3.3,0,5c-6.3,1.5-8.9,7.5-13.3,11.3
	c-0.2,0.2-0.2,1.1,0,1.3c4.4,3.8,6.9,9.8,13.3,11.3c0,1.3,0,2.7,0,4c-6.3,1.5-8.9,7.5-13.3,11.3c-0.2,0.2-0.2,1.1,0,1.3
	c4.4,3.8,6.9,9.8,13.3,11.3c0,1.3,0,2.7,0,4c-6.3,1.5-8.8,7.4-13.2,11.2c-0.3,0.2-0.2,1.5,0.1,1.7c4.2,3.7,7,9.1,12.8,11.1
	c-0.6,2.5-1.8,4.3-4.5,4.9c-0.2-1.4,1.6-2.9,0.2-4.2c-3.6-3.3-6.2-7.8-11-9.8c0-2,0-4,0-6c4.8-1.9,7.2-6.5,10.9-9.7
	c0.9-0.8,0.9-1.8,0-2.6c-3.6-3.2-6.1-7.7-10.9-9.7c0-2,0-4,0-6c4.7-1.9,7.2-6.5,10.9-9.7c0.9-0.8,0.9-1.8,0-2.6
	c-3.6-3.2-6.1-7.7-10.9-9.7c0-2.3,0-4.7,0-7c4.4-1.6,6.6-5.8,9.9-8.7c1.2-1,1.2-2.5,0-3.5c-3.3-2.9-5.5-7.1-9.9-8.7c0-2.3,0-4.7,0-7
	c4.4-1.6,6.6-5.8,9.9-8.7c1.2-1,1.2-2.5,0-3.5c-3.3-2.9-5.5-7.1-9.9-8.7c0-2.3,0-4.7,0-7c4.7-1.9,7.2-6.5,10.9-9.6
	c0.9-0.8,0.9-1.8,0-2.6C279,152.8,276.5,148.3,271.8,146.3z"/>
<path class="st1" d="M311.2,239.9c0,1.3,0,2.6,0,4c-3.5,0.9-5.2,3.9-7.4,6.3c-2.5,2.7-4.8,4.1-8.2,1.7c0-6.6,0-13.3,0-19.9
	c3.4-2.4,5.7-1,8.2,1.7C306,236,307.8,239,311.2,239.9z"/>
<path class="st1" d="M295.7,139.3c0-6.6,0-13.3,0-19.9c3.4-2.4,5.7-1,8.2,1.7c2.2,2.4,4,5.4,7.4,6.3c0,1.3,0,2.6,0,4
	c-3.5,0.9-5.2,3.9-7.4,6.3C301.3,140.3,299,141.8,295.7,139.3z"/>
<path class="st1" d="M311.2,155.3c0,1.3,0,2.6,0,4c-3.5,0.9-5.2,3.9-7.4,6.3c-2.5,2.7-4.8,4.1-8.2,1.7c0-6.6,0-13.3,0-19.9
	c3.4-2.4,5.7-1,8.2,1.7C306,151.4,307.8,154.4,311.2,155.3z"/>
<path class="st1" d="M311.2,211c0,1.7,0,3.3,0,5c-3,0.5-4.5,3.1-6.3,5.1c-2.8,3.1-5.5,4.9-9.3,1.9c0-6.3,0-12.6,0-18.9
	c3.4-2.5,5.7-1,8.2,1.7C305.9,208,307.4,211.2,311.2,211z"/>
<path class="st1" d="M311.2,183.2c0,1.3,0,2.6,0,4c-3.5,0.9-5.2,3.9-7.4,6.3c-2.5,2.7-4.8,4.1-8.2,1.7c0-6.3,0-12.6,0-18.9
	c3.8-3,6.5-1.3,9.3,1.9C306.7,180,308.2,182.6,311.2,183.2z"/>
<path class="st1" d="M239.7,118.3c-7,0-13.9,0-20.9,0c-1.4-2.9-0.6-5,1.8-7.2c2.6-2.5,6.1-4.5,7.2-8.3c1,0,2,0,3,0
	c1.2,3.8,4.6,5.8,7.2,8.3C240.3,113.3,241.1,115.4,239.7,118.3z"/>
<path class="st1" d="M225.8,126.6c2.3,0,4.7,0,7,0c-1.1,2.4-0.3,4.1,1.6,6c2.9,3,6.9,5.3,8.4,9.6c-1.3,0-2.7,0-4,0
	c-1.4-4.1-5.2-6.1-7.9-9.1c-0.9-0.9-2.2-0.9-3.1,0c-2.7,3-6.5,5-7.9,9.1c-3,0-6,0-9,0c-1.6-4.4-5.8-6.5-8.6-9.9
	c-0.7-0.9-1.8-0.9-2.6-0.1c-2.8,3.1-6.8,5.3-7.7,9.9c-1.3,0-2.7,0-4,0c1.5-4.3,5.5-6.5,8.4-9.6c1.8-1.9,2.7-3.6,1.6-6c2,0,4,0,6,0
	c-0.5,2.8,1.2,4.6,3,6.4c8.5,8.5,8.4,8.5,17,0C225.8,131,227.2,129.3,225.8,126.6z"/>
<path class="st1" d="M242.7,142.2c-1.5-4.3-5.5-6.5-8.4-9.6c-1.8-1.9-2.6-3.6-1.6-6c7.3,0,14.6,0,21.9,0c1.1,2.4,0.3,4.1-1.6,6
	c-2.9,3-6.9,5.3-8.4,9.6C244.1,142.2,243.4,142.2,242.7,142.2z"/>
<path class="st1" d="M184,118.3c-7.3,0-14.6,0-21.9,0c-1.1-2.4-0.3-4.1,1.6-6c2.9-3,6.9-5.3,8.4-9.6c0.7,0,1.3,0,2,0
	c1.5,4.3,5.5,6.5,8.4,9.6C184.3,114.2,185.1,115.8,184,118.3z"/>
<path class="st1" d="M256.7,102.7c0.7,0,1.3,0,2,0c1.5,4.3,5.5,6.5,8.4,9.6c1.8,1.9,2.7,3.6,1.6,6c-7.3,0-14.6,0-21.9,0
	c-1.1-2.4-0.3-4.1,1.6-6C251.2,109.2,255.2,107,256.7,102.7z"/>
<path class="st1" d="M120.3,126.6c7.3,0,14.6,0,21.9,0c1.1,2.4,0.3,4.1-1.6,6c-2.9,3-6.9,5.3-8.4,9.6c-0.7,0-1.3,0-2,0
	c-1.5-4.3-5.5-6.5-8.4-9.6C120,130.7,119.2,129,120.3,126.6z"/>
<path class="st1" d="M160.1,142.2c-0.7,0-1.3,0-2,0c-1.5-4.3-5.5-6.5-8.4-9.6c-1.8-1.9-2.7-3.6-1.6-6c7.3,0,14.6,0,21.9,0
	c1.1,2.4,0.3,4.1-1.6,6C165.6,135.6,161.6,137.9,160.1,142.2z"/>
<path class="st1" d="M197.9,126.6c1.1,2.4,0.3,4.1-1.6,6c-2.9,3-6.9,5.3-8.4,9.6c-0.7,0-1.3,0-2,0c-1.5-4.3-5.5-6.5-8.4-9.6
	c-1.8-1.9-2.7-3.6-1.6-6C183.3,126.6,190.6,126.6,197.9,126.6z"/>
<path class="st1" d="M284.6,102.7c0.7,0,1.3,0,2,0c1.5,4.3,5.3,6.5,8.3,9.4c2.3,2.3,2.9,4.1,0.6,6.5c-6.9-0.1-13.9-0.2-20.8-0.3
	c-1.1-2.4-0.3-4.1,1.6-6C279.1,109.2,283,107,284.6,102.7z"/>
<path class="st1" d="M283.5,127.7c-1.7,6.2-7.5,8.9-11.3,13.2c-0.1,0.1-0.3,0.1-0.5,0.1c-2.9,0.2-11.8-11.3-11.1-14.5
	c6.2-0.1,12.5-0.1,18.7-0.2C280.9,126.4,282.3,126.6,283.5,127.7z"/>
<path class="st1" d="M211.9,118.3c-7,0-13.9,0-20.9,0c-1.4-2.9-0.6-5,1.8-7.2c2.6-2.5,6-4.5,7.2-8.3c0.7,0,1.3,0,2,0
	c1.5,4.3,5.5,6.5,8.4,9.6C212.2,114.2,213,115.8,211.9,118.3z"/>
<path class="st1" d="M306.5,276.8c-6,1.9-10.6-1-10.9-7.1c-0.2-3.3,0.1-6.6,0.1-9.9c3.4-2.4,5.7-1,8.2,1.7c2.2,2.3,4,5.4,7.4,6.3
	c0.2,1.7,0.6,3.5-0.8,5C308,273,306.7,274.3,306.5,276.8z"/>
<path class="st1" d="M225.8,126.6c1.4,2.7,0,4.4-1.9,6.3c-8.6,8.5-8.5,8.5-17,0c-1.8-1.8-3.5-3.5-3-6.4
	C211.2,126.6,218.5,126.6,225.8,126.6z"/>
<path class="st1" d="M287.4,239.9c-6.3-1.5-8.9-7.5-13.3-11.3c-0.2-0.2-0.2-1.1,0-1.3c4.4-3.8,6.9-9.8,13.3-11.3
	C287.4,224,287.4,231.9,287.4,239.9z"/>
<path class="st1" d="M287.4,183.1c-6.3-1.5-8.9-7.5-13.3-11.3c-0.2-0.2-0.2-1.1,0-1.3c4.4-3.8,6.9-9.8,13.3-11.3
	C287.4,167.2,287.4,175.2,287.4,183.1z"/>
<path class="st1" d="M287.4,267.8c-6.3-1.5-8.9-7.5-13.3-11.3c-0.2-0.2-0.2-1.1,0-1.3c4.4-3.8,6.9-9.8,13.3-11.3
	C287.4,251.8,287.4,259.8,287.4,267.8z"/>
<path class="st1" d="M287,295.8c-5.7-2-8.5-7.4-12.8-11.1c-0.3-0.3-0.4-1.5-0.1-1.7c4.4-3.7,6.9-9.7,13.2-11.2
	C287.5,279.8,288,287.8,287,295.8z"/>
<path class="st1" d="M144.2,102.7c0.7,0,1.3,0,2,0c1.5,4.3,5.5,6.5,8.4,9.6c1.8,1.9,2.7,3.6,1.6,6c-3.9,0.1-7.9,0.3-11.8,0.1
	c-4.9-0.2-7.6-3-7.9-7.9C140,108.9,142.6,106.3,144.2,102.7z"/>
<path class="st1" d="M287.4,155.3c-6.3-1.5-8.8-7.4-13.2-11.2c-0.3-0.2-0.2-1.5,0.1-1.7c4.2-3.4,6.4-9.4,12.8-10.1
	C288,139.9,287.4,147.6,287.4,155.3z"/>
<path class="st1" d="M287.4,211c-6-1.3-8.5-6.8-12.4-10.5c-0.3-0.3-0.3-1.5,0-1.8c3.9-3.7,6.4-9.2,12.4-10.5
	C287.4,195.8,287.4,203.4,287.4,211z"/>
<path class="st1" d="M271.8,230.9c4.7,1.9,7.2,6.5,10.9,9.7c0.9,0.8,0.9,1.8,0,2.6c-3.6,3.2-6.1,7.7-10.9,9.7
	C271.8,245.5,271.8,238.2,271.8,230.9z"/>
<path class="st1" d="M271.8,146.3c4.7,1.9,7.2,6.5,10.9,9.7c0.9,0.8,0.9,1.8,0,2.6c-3.6,3.2-6.1,7.7-10.9,9.6
	C271.8,160.9,271.8,153.6,271.8,146.3z"/>
<path class="st1" d="M271.8,258.8c4.8,1.9,7.2,6.5,10.9,9.7c0.9,0.8,0.9,1.8,0,2.6c-3.6,3.2-6.1,7.7-10.9,9.7
	C271.8,273.4,271.8,266.1,271.8,258.8z"/>
<path class="st1" d="M271.8,203.1c4.4,1.6,6.6,5.8,9.9,8.7c1.2,1,1.2,2.5,0,3.5c-3.3,2.9-5.5,7.1-9.9,8.7
	C271.8,217,271.8,210,271.8,203.1z"/>
<path class="st1" d="M271.8,175.2c4.4,1.6,6.6,5.8,9.9,8.7c1.2,1,1.2,2.5,0,3.5c-3.3,2.9-5.5,7.1-9.9,8.7
	C271.8,189.1,271.8,182.2,271.8,175.2z"/>
<path class="st1" d="M149.2,102.7c6.6,0,13.3,0,19.9,0c-1.6,4.4-5.8,6.6-8.6,9.9c-0.8,0.9-1.8,0.9-2.6,0
	C155,109.3,150.8,107.1,149.2,102.7z"/>
<path class="st1" d="M261.7,102.7c6.6,0,13.3,0,19.9,0c-1.6,4.4-5.8,6.6-8.7,9.9c-0.8,0.9-1.8,0.9-2.6,0
	C267.4,109.3,263.3,107.1,261.7,102.7z"/>
<path class="st1" d="M155.1,142.2c-6.6,0-13.3,0-19.9,0c1.6-4.4,5.8-6.6,8.6-9.9c0.8-0.9,1.8-0.9,2.6,0
	C149.3,135.6,153.5,137.8,155.1,142.2z"/>
<path class="st1" d="M183,142.2c-6.6,0-13.3,0-19.9,0c1.6-4.4,5.8-6.6,8.7-9.9c0.8-0.9,1.8-0.9,2.6,0
	C177.2,135.6,181.4,137.8,183,142.2z"/>
<path class="st1" d="M192,142.2c0.8-4.6,4.9-6.8,7.7-9.9c0.8-0.9,1.8-0.8,2.6,0.1c2.8,3.3,7,5.5,8.6,9.9
	C204.6,142.2,198.3,142.2,192,142.2z"/>
<path class="st1" d="M289.5,102.7c4.7-0.1,9.4-0.1,14.2-0.1c1.8,0,3.5,0.4,4.7,2c-2.3,2.4-4.5,4.8-6.8,7.2c-0.9,1-2,2.2-3.3,0.8
	C295.3,109.3,291.2,107.1,289.5,102.7z"/>
<path class="st1" d="M247.7,142.2c1.6-4.4,5.8-6.5,8.6-9.8c1-1.1,2-0.7,3,0.2c2.9,2.9,6.1,5.5,7.3,9.6
	C260.3,142.2,254,142.2,247.7,142.2z"/>
<path class="st1" d="M295.7,195.1c3.4,2.4,5.7,1,8.2-1.7c2.2-2.4,4-5.4,7.4-6.3c0,1.3,0,2.7,0,4c-3.7,1.1-5.5,4.5-8.1,6.9
	c-1,0.9-1,2.2,0,3.1c2.6,2.4,4.3,5.8,8.1,6.9c0,1,0,2,0,3c-3.8,0.2-5.4-3.1-7.4-5.2c-2.5-2.7-4.8-4.2-8.2-1.7
	C295.7,201.1,295.7,198.1,295.7,195.1z"/>
<path class="st1" d="M205.9,102.7c6.3,0,12.6,0,18.9,0c-1.4,4.1-5.2,6.1-7.9,9.1c-0.9,0.9-2.2,1-3.1,0
	C211.1,108.8,207.3,106.8,205.9,102.7z"/>
<path class="st1" d="M233.8,102.7c6.3,0,12.6,0,18.9,0c-1.4,4.1-5.2,6.1-7.9,9.1c-0.9,0.9-2.2,0.9-3.1,0
	C239,108.8,235.2,106.8,233.8,102.7z"/>
<path class="st1" d="M219.8,142.2c1.4-4.1,5.2-6.1,7.9-9.1c0.9-0.9,2.2-0.9,3.1,0c2.7,3,6.5,5,7.9,9.1
	C232.4,142.2,226.1,142.2,219.8,142.2z"/>
<path class="st1" d="M178,102.7c6.3,0,12.6,0,18.9,0c-1.4,4.1-5.2,6.1-7.9,9.1c-0.9,0.9-2.2,0.9-3.1,0
	C183.2,108.8,179.4,106.8,178,102.7z"/>
<path class="st1" d="M311.2,183.2c-3-0.5-4.5-3.1-6.3-5.1c-2.8-3.1-5.5-4.9-9.3-1.9c0-3,0-6,0-9c3.4,2.4,5.7,1,8.2-1.7
	c2.2-2.3,4-5.4,7.4-6.3c0,1.3,0,2.7,0,4c-3.7,1.1-5.5,4.5-8.1,6.9c-1,0.9-1,2.2,0,3.1c2.6,2.4,4.3,5.8,8.1,6.9
	C311.2,181.2,311.2,182.2,311.2,183.2z"/>
<path class="st1" d="M289.5,102.7c1.6,4.4,5.8,6.7,8.7,9.9c1.3,1.4,2.4,0.2,3.3-0.8c2.3-2.4,4.5-4.8,6.8-7.2c0.8,0,1.1,0.6,1.2,1.3
	c-1.3,3.2-4.3,4.9-6.4,7.3c-1,1.1-2.4,2.2-0.7,3.7c2.9,2.6,4.8,6.2,8.8,7.5c0,1,0,2,0,3c-3.5-0.9-5.2-3.9-7.4-6.3
	c-2.5-2.7-4.8-4.1-8.2-1.7c-0.2-0.3-0.3-0.5-0.2-0.9c2.3-2.4,1.7-4.2-0.6-6.5c-3-2.9-6.8-5.2-8.3-9.4
	C287.5,102.7,288.5,102.7,289.5,102.7z"/>
<path class="st1" d="M295.7,223c3.8,3,6.5,1.3,9.3-1.9c1.8-2,3.2-4.6,6.3-5.1c0,1,0,2,0,3c-3.7,1.1-5.5,4.5-8.1,6.9
	c-1,0.9-1,2.2,0,3.1c2.6,2.4,4.3,5.8,8.1,6.9c0,1.3,0,2.7,0,4c-3.5-0.9-5.2-3.9-7.4-6.3c-2.5-2.7-4.8-4.1-8.2-1.7
	C295.7,228.9,295.7,225.9,295.7,223z"/>
<path class="st1" d="M205.9,102.7c1.4,4.1,5.2,6.1,7.9,9.1c0.9,0.9,2.2,0.9,3.1,0c2.7-3,6.5-5,7.9-9.1c1,0,2,0,3,0
	c-1.2,3.8-4.6,5.8-7.2,8.3c-2.3,2.2-3.1,4.3-1.8,7.2c-2.3,0-4.7,0-7,0c1.1-2.4,0.3-4.1-1.6-6c-2.9-3-6.9-5.3-8.4-9.6
	C203.2,102.7,204.6,102.7,205.9,102.7z"/>
<path class="st1" d="M233.8,102.7c1.4,4.1,5.2,6.1,7.9,9.1c0.9,0.9,2.2,1,3.1,0c2.7-3,6.5-5,7.9-9.1c1.3,0,2.7,0,4,0
	c-1.5,4.3-5.5,6.5-8.4,9.6c-1.8,1.9-2.7,3.6-1.6,6c-2.3,0-4.7,0-7,0c1.4-2.9,0.6-5-1.8-7.2c-2.6-2.5-6.1-4.5-7.2-8.3
	C231.8,102.7,232.8,102.7,233.8,102.7z"/>
<path class="st1" d="M311.2,134.4c0,6,0,11.9,0,17.9c-4-1.3-5.9-5.1-8.9-7.6c-0.9-0.8-0.9-1.8,0-2.6
	C305.3,139.5,307.3,135.7,311.2,134.4z"/>
<path class="st1" d="M271.8,286.7c4.8,2,7.4,6.5,11,9.8c1.4,1.3-0.4,2.8-0.2,4.2c-6,1.9-10.6-1-10.9-7.1
	C271.5,291.3,271.7,289,271.8,286.7z"/>
<path class="st1" d="M178,102.7c1.4,4.1,5.2,6.1,7.9,9.1c0.9,0.9,2.2,0.9,3.1,0c2.7-3,6.5-5,7.9-9.1c1,0,2,0,3,0
	c-1.2,3.8-4.6,5.8-7.2,8.3c-2.3,2.2-3.1,4.3-1.8,7.2c-2.3,0-4.7,0-7,0c1.1-2.4,0.3-4.1-1.6-6c-2.9-3-6.9-5.3-8.4-9.6
	C175.4,102.7,176.7,102.7,178,102.7z"/>
<path class="st1" d="M311.2,124.4c-4-1.3-5.9-5-8.8-7.5c-1.6-1.4-0.2-2.6,0.7-3.7c2.1-2.5,5.1-4.2,6.4-7.3c3.2,3.7,1.4,8.1,1.8,12.2
	C311.6,120.2,311.3,122.3,311.2,124.4z"/>
<path class="st1" d="M311.2,246.9c0,5.6,0,11.3,0,16.9c-4.6-0.2-6.1-4.5-9-6.8c-0.9-0.8-0.6-1.9,0.3-2.6
	C305.4,251.9,307.3,248.2,311.2,246.9z"/>
<path class="st1" d="M127.3,142.2c-3.1,0.2-6.3,0.7-9.2-0.3c-3.4-1.1-5.9-3.4-5.5-7.5c2.4,0.4,3.4-4.2,5.8-2.2
	C121.6,135.1,125.5,137.7,127.3,142.2z"/>
<path class="st1" d="M311.2,246.9c-4,1.3-5.8,5-8.8,7.5c-0.8,0.7-1.2,1.8-0.3,2.6c2.9,2.4,4.4,6.6,9,6.8c0,1.3,0,2.7,0,4
	c-3.5-0.9-5.2-3.9-7.4-6.3c-2.5-2.7-4.8-4.1-8.2-1.7c0-2.7,0-5.3,0-8c3.4,2.4,5.7,1,8.2-1.7c2.2-2.3,4-5.4,7.4-6.3
	C311.2,244.9,311.2,245.9,311.2,246.9z"/>
<path class="st1" d="M311.2,235.9c-3.7-1.1-5.5-4.5-8.1-6.9c-1-0.9-1-2.2,0-3.1c2.6-2.4,4.3-5.8,8.1-6.9
	C311.2,224.6,311.2,230.3,311.2,235.9z"/>
<path class="st1" d="M311.2,180.2c-3.7-1.1-5.5-4.5-8.1-6.9c-1-0.9-1-2.2,0-3.1c2.6-2.4,4.3-5.8,8.1-6.9
	C311.2,168.9,311.2,174.5,311.2,180.2z"/>
<path class="st1" d="M311.2,208c-3.7-1.1-5.5-4.5-8.1-6.9c-1-0.9-1-2.2,0-3.1c2.6-2.4,4.3-5.8,8.1-6.9
	C311.2,196.8,311.2,202.4,311.2,208z"/>
<path class="st1" d="M311.2,134.4c-4,1.3-5.9,5.1-8.9,7.6c-0.9,0.8-0.9,1.8,0,2.6c2.9,2.6,4.9,6.3,8.9,7.6c0,1,0,2,0,3
	c-3.5-0.9-5.2-3.9-7.4-6.3c-2.5-2.7-4.8-4.1-8.2-1.7c0-2.7,0-5.3,0-8c3.4,2.4,5.7,1,8.2-1.7c2.2-2.3,4-5.4,7.4-6.3
	C311.2,132.4,311.2,133.4,311.2,134.4z"/>
<path class="st1" d="M183,142.2c-1.6-4.4-5.8-6.6-8.6-9.9c-0.8-0.9-1.8-0.9-2.6,0c-2.9,3.3-7,5.5-8.7,9.9c-1,0-2,0-3,0
	c1.5-4.3,5.5-6.5,8.4-9.6c1.8-1.9,2.7-3.6,1.6-6c2,0,4,0,6,0c-1.1,2.4-0.3,4.1,1.6,6c2.9,3,6.9,5.3,8.4,9.6
	C185,142.2,184,142.2,183,142.2z"/>
<path class="st1" d="M155.1,142.2c-1.6-4.4-5.8-6.6-8.7-9.9c-0.8-0.9-1.8-0.9-2.6,0c-2.9,3.3-7,5.5-8.6,9.9c-1,0-2,0-3,0
	c1.5-4.3,5.5-6.5,8.4-9.6c1.8-1.9,2.7-3.6,1.6-6c2,0,4,0,6,0c-1.1,2.4-0.3,4.1,1.6,6c2.9,3,6.9,5.3,8.4,9.6
	C157.1,142.2,156.1,142.2,155.1,142.2z"/>
<path class="st1" d="M149.2,102.7c1.6,4.4,5.8,6.6,8.7,9.9c0.8,0.9,1.8,0.9,2.6,0c2.9-3.3,7-5.5,8.6-9.9c1,0,2,0,3,0
	c-1.5,4.3-5.5,6.5-8.4,9.6c-1.8,1.9-2.7,3.6-1.6,6c-2,0-4,0-6,0c1.1-2.4,0.3-4.1-1.6-6c-2.9-3-6.9-5.3-8.4-9.6
	C147.2,102.7,148.2,102.7,149.2,102.7z"/>
<path class="st1" d="M261.7,102.7c1.6,4.4,5.8,6.6,8.6,9.9c0.8,0.9,1.8,0.9,2.6,0c2.9-3.3,7-5.5,8.7-9.9c1,0,2,0,3,0
	c-1.5,4.3-5.5,6.5-8.4,9.6c-1.8,1.9-2.7,3.6-1.6,6c-2,0-4,0-6,0c1.1-2.4,0.3-4.1-1.6-6c-2.9-3-6.9-5.3-8.4-9.6
	C259.7,102.7,260.7,102.7,261.7,102.7z"/>
<path class="st1" d="M127.3,142.2c-1.7-4.4-5.6-7.1-9-10c-2.3-2-3.3,2.6-5.8,2.2c0.1-5.1,2.9-7.5,7.8-7.8c-1.1,2.4-0.3,4.1,1.6,6
	c2.9,3,6.9,5.3,8.4,9.6C129.3,142.2,128.3,142.2,127.3,142.2z"/>
<path class="st1" d="M144.2,102.7c-1.6,3.6-4.2,6.2-7.8,7.8C136.7,105.5,138.7,103.4,144.2,102.7z"/>
<path class="st1" d="M306.5,276.8c0.2-2.4,1.6-3.8,4-4C310,275,308.7,276.3,306.5,276.8z"/>
<g>
	<path class="st0" d="M88.6,272.7c0-2,0-4,0-6c4.9-2.1,7.5-6.7,11.2-10.1c0.8-0.7,0.8-2,0-2.7c-3.7-3.4-6.3-8-11.2-10.1
		c0-1.7,0-3.3,0-5c4.9-2.1,7.5-6.7,11.2-10.1c0.8-0.7,0.8-2,0-2.7c-3.7-3.4-6.3-8-11.2-10.1c0-1.7,0-3.3,0-5
		c4.9-2.1,7.5-6.7,11.2-10.1c0.8-0.7,0.8-2,0-2.7c-3.7-3.4-6.3-8-11.2-10.1c0-1.7,0-3.3,0-5c4.9-2.1,7.5-6.7,11.2-10.1
		c0.8-0.7,0.8-2,0-2.7c-3.7-3.4-6.3-8-11.2-10.1c-0.2-6.5,1.8-8.9,7.8-9.8c-0.4,0.9-0.7,1.8-1.3,2.6c-4.3,5.1-4.4,5.1,0.6,9.9
		c8.4,8.2,6,8.2,14.4,0c4.9-4.8,4.9-4.8,0.5-9.9c-0.6-0.7-0.9-1.7-1.3-2.6c5,0,10,0,14.9,0c0.1,3.4-6.1,4.2-4,8
		c1.6,2.9,4.7,5,7.1,7.5c0.8,0.8,1.6,1.6,2.5,2.4c0.7,0.6,1.6,0.9,2.2,0.3c3.5-3.5,7.7-6.6,10.3-10.6c1.7-2.7-3.2-3.9-4-6.5
		c-0.1-0.3-0.1-0.6-0.2-1c4.7,0,9.3,0,14,0c0.1,3.4-6.1,4.2-4,8c1.6,2.9,4.7,5,7.1,7.5c0.8,0.8,1.6,1.6,2.5,2.4
		c0.7,0.6,1.6,0.9,2.2,0.3c3.5-3.5,7.7-6.6,10.3-10.6c1.7-2.7-3.2-3.9-4-6.5c-0.1-0.3-0.1-0.6-0.2-1c4.7,0,9.3,0,14,0
		c0.1,3.4-6.1,4.2-4,8c1.6,2.9,4.7,5,7.1,7.5c0.8,0.8,1.6,1.6,2.5,2.4c0.7,0.6,1.6,0.9,2.2,0.3c3.5-3.5,7.7-6.6,10.3-10.6
		c1.7-2.7-3.2-3.9-4-6.5c-0.1-0.3-0.1-0.6-0.2-1c5,0,10,0,14.9,0c-0.2,0.6-0.3,1.3-0.6,1.8c-4.8,6.3-4.6,8,1.9,12.5
		c0.9,0.6,2,1.1,3,1.6c-1.1,0.7-2.1,1.4-3.2,2.1c-7.5-10.1-7.7-10.1-15.6-2.2c-6.4,6.4-5.6,5.1,1.2,12.1c6.2,6.3,6.3,6.2,11.9-0.6
		c0.2-0.3,0.3-0.6,0.5-0.9c0.7,1.1,1.4,2.1,2.1,3.2c-7,2.9-7.6,5.2-2.6,10.2c1,1,2.1,2.1,3.1,3.1c5.1,5,7.3,4.5,10.2-2.6
		c1.4,0.7,2.4,1.8,3.1,3.1c-7.1,3-7.7,5.2-2.4,10.3c9.2,9,5.9,9.1,16.6-1.2c3.1-3,3.2-5.2-0.8-7.2c0.7-1.1,1.4-2.1,2.1-3.2
		c3,5.5,3.3,5.6,7.6,1.3c8.6-8.5,8.5-8.3,0-17.1c-3.1-3.2-5.3-3.4-7.9,0.1c-0.9,1.2-2.1,2.2-3.8,2l-0.1-0.2c0.7-3.4,6.5-4.4,4.7-8.3
		c-1.3-3-4.5-5.1-7-7.5c-1.3-1.3-2.4-3.7-4.8-2.5c-2.1,1-3.8,2.7-3.5,5.4c-1.3,0-2.7,0-4,0c0.1-0.3,0-0.8,0.2-0.9
		c6.2-4.6,6-9.5,0.8-14.7c5,0,10,0,14.9,0c-0.1,0.5-0.1,1-0.4,1.4c-4.4,6.1-4.4,6.1,1.1,11.6c0.1,0.1,0.2,0.2,0.4,0.4
		c5.9,5.9,5.9,5.9,11.8-0.1c5.3-5.3,5.3-5.3,0.6-11.4c-0.4-0.5-0.4-1.2-0.7-1.8c1.5-0.1,2.9-0.2,4.4-0.2c6.7,0.1,9.5,2.9,9.6,9.6
		c0,1.5-0.1,2.9-0.2,4.4c-0.7-0.3-1.8-0.4-2.2-1c-3.1-4.1-5.9-3.1-8.6,0.4c-0.5,0.6-1.2,1.2-1.7,1.8c-5.8,5.8-5.8,5.8-0.1,11.4
		c5.8,5.8,5.8,5.8,12.6,2.3c0,4.3,0,8.6,0,13c-2.5-0.1-3.2-3.2-5.2-3.5c-4.9-0.6-6.3,4.5-9.4,6.9c-1.5,1.2-4.4,2.8-2.6,5.1
		c2.8,3.8,6.1,7.6,10.2,9.9c2.8,1.5,3.8-3.2,6.5-3.5c0.2,0,0.3,0,0.5-0.1c0,4.3,0,8.6,0,13c-3.2-0.6-5-5.6-9.2-2.9
		c-0.2-0.3-0.5-0.6-0.7-0.9c3-5.3-2.4-6.8-4.7-9.4c-5.5-6-5.5-5.6-11.3-0.4c-4.2,3.8-7.3,7.2-2.8,12.7c-0.4,0.8-1.2,0.9-2,1
		c-2.1-4.9-3.3-5.3-6.8-1.9c-1.5,1.5-3,3-4.5,4.5c-5,5-4.4,7.6,2.7,10.1c2.1,3.8,5.5,5.2,9.6,5.1c-2.1,3.1-1.8,5.6,1.4,7.8
		c0.9,0.6,1.7,1.6,2.5,2.4c5.5,5.5,5.5,5.5,11,0.1c7.8-7.8,7.8-7.8-1.2-14.5c0.4-1,1.1-1.7,2.1-2.1c5.7,7.7,5.7,7.7,13.4,3.3
		c0.1-0.1,0.3,0,0.5-0.1c0,4.3,0,8.6,0,13c-3,0.4-3.6-5.2-7-3.1c-2.3,1.5-4.1,3.8-6.1,5.8c-0.7,0.7-1.3,1.5-2.1,2.1
		c-2.8,2.1-2.8,4.1,0,6.3c0.8,0.6,1.4,1.4,2.1,2.1c2.3,2.1,4.3,5,7,6.2c2.3,1,3.3-3.5,6.1-3.5c0,4,0,8,0,12c-3.2-0.6-5-5.6-9.2-2.9
		c-0.3-0.3-0.6-0.7-0.8-1c1.7-0.8,2.9-1.9,1.1-3.7c-3-3.1-6-6.1-9.1-9.1c-0.9-0.9-2-1.5-3-0.4c-3.2,3.6-7.7,6.1-9.7,10.9
		c-1.9,0.5-3.9,1-5.8,1.6c-0.3-2.3-1.7-4-3.4-5.5c0.4-1,1.1-1.7,2.1-2.1c2,3.9,4.2,3.8,7.1,0.7c10.4-11.1,10.7-6.7-0.7-18.6
		c-0.1-0.1-0.2-0.2-0.4-0.3c-2.2-2.1-3.4-1.4-3.9,1.4c-1-0.3-2-0.6-3-1c3.3-4.2,0.8-6.9-2.3-9.8c-8.3-7.9-6-8-14.1,0
		c-5.8,5.7-5.8,5.8,0.5,11.3c0.4,0.3,0.8,0.5,1.3,0.7c-0.7,1-1.4,2.1-2.1,3.1c-1.3-1.5-2.7-2.9-3.8-4.5c-2.3-3.1-4.3-2.7-6.6,0.1
		c-2.1,2.5-4.6,4.8-7,7c-1.5,1.4-1.8,2.7-0.1,4.1c3.3,2.9,5.9,6.7,9.7,9.1c-0.1,0.6-0.3,1.3-0.4,1.9c-4.3-1.4-6.5-5.4-9.6-8.3
		c-2.4-2.3-3.8-2.7-6.4-0.2c-9.6,9.6-9.6,9.4,0,19c2.6,2.6,4,2.1,6.4-0.2c3-2.9,5.2-6.9,9.6-8.3c0.3,1,0.6,2,1,3
		c-1,0.1-1.9,0.5-2.6,1.3c-11.1,11.4-10.3,7.3-0.7,17.7c2.7,3,4.7,3,7-0.1c0.5-0.7,1.2-1.2,1.7-1.8c2.1-2.3,5-4.3,6.2-7
		c1-2.2-3.5-3.3-3.5-6.1c0.6-0.1,1.3-0.3,1.9-0.4c1,2.5,3.4,3.5,5.1,5.3c-0.1,1.3-0.1,2.6-0.2,4c-5,2.4-9.6,6.3-11.2,11.1
		c-1.2,3.7,4.8,5.9,7.2,9.1c0.3,0.4,0.7,0.7,1,1.1c1.6,1.8,3.3,2.1,5,0.2c2.6-2.9,5.9-5.3,8.1-8.6c0.4,0.2,0.7,0.5,1.1,0.7
		c-0.7,4.2-4.5,6-7,8.7c-2.1,2.2-2.5,3.8-0.2,6.2c9.6,10.4,9.5,10.4,19.1,0c2.3-2.5,1.9-4-0.2-6.2c-2.1-2.2-5.2-3.7-5.9-7.1
		c0.6-0.1,1.3-0.3,1.9-0.4c7.5,10.2,7.6,10.2,16.2,1.6c0.9-0.9,1.9-1.9,2.8-2.8c1-1.1,1.5-2.4,0.4-3.5c-2.3-2.2-3.9-5.4-7.5-6.1
		c0.7-1.4,1.8-2.4,3.1-3.1c1.9,3.1,4.4,5.9,7.5,7.6c2.7,1.4,3.5-3.5,6.4-3.3c0,4.3,0,8.6,0,13c-3.1,0.2-4-5.4-7.4-3.4
		c-2.6,1.5-4.6,4.2-6.8,6.4c-0.1,0.1-0.2,0.2-0.4,0.3c-3.6,2.7-3.8,5.1-0.2,8.3c3,2.7,6.4,5.2,8.2,9.1c-1.1,0-2.1,0.1-3.2,0.1
		c-1.6-4.4-5.8-6.6-8.7-9.9c-1-1.2-2.5-1.2-3.5,0c-2.9,3.3-7.1,5.5-8.7,9.9c-2.3,0-4.7,0-7,0c-1.6-4.4-5.8-6.6-8.7-9.9
		c-1-1.2-2.5-1.2-3.5,0c-2.9,3.3-7.1,5.5-8.7,9.9c-2.3,0-4.7,0-7,0c-1.6-4.4-5.8-6.6-8.7-9.9c-1-1.2-2.5-1.2-3.5,0
		c-2.9,3.3-7.1,5.5-8.7,9.9c-2.7,0-5.3,0-8,0c-1.2-4.1-4.5-6.8-7.4-9.6c-1-1-2.4-1.6-3.5-0.5c-3.2,3.2-7.2,5.7-9,10.1
		c-2.7,0-5.3,0-8,0c-1.6-4.4-5.8-6.6-8.7-9.9c-1-1.2-2.5-1.2-3.5,0c-2.9,3.3-7.1,5.5-8.7,9.9c-2.3,0-4.7,0-7,0
		c-1.8-4.5-5.9-6.9-9-10.2c-0.7-0.8-2-0.8-2.7-0.1c-2.8,3.1-7.3,4.9-7.3,9.9c-1.6-0.3-3-0.9-3.7-2.5c2.8-2.6,5.5-5.2,8.3-7.8
		c1.3-1.2,2.4-2.7,0.8-4.3c-3.6-3.3-6.2-7.8-10.9-9.8c0-1.7,0-3.3,0-5c3.7-1.3,5.8-4.3,8-7.3c0.7,1.1,1.4,2.1,2.1,3.2
		c-3.5,1.1-6,3.3-7,6.9c-0.3,1.3,9.7,11.3,10.9,11c3.6-1,5.8-3.5,6.9-7c1.4,0.7,2.4,1.8,3.1,3.1c-7.9,3.3-8.6,6.1-3,11.7
		c7.3,7.4,7.3,7.3,15.9-1.3c3.1-3,3.8-5.3-0.6-7.5c1.1-1,2.2-2,3.2-3c2.1,4.8,2.7,5,6.2,1.6c2.5-2.4,4.8-4.9,7.3-7.3
		c1.5-1.5,1.6-2.7,0-4.1c-1.7-1.4-2.8-3.8-5.4-3.9c-4.1-5.7-8.3-11.1-15-14.1c0.2-2.9-1.6-5.3-3.9-5.3c-2.4,0.1-4.4,2.5-5,5.2
		c-1,0-2,0-3,0c0.2-2.4,2.2-3.6,3.8-5c2.2-2,2.2-3.4,0.1-5.6c-9.8-10.3-9.8-10.4-19.5,0c-0.2,0.2-0.4,0.5-0.7,0.7
		c-1.6,1.4-1.4,2.6,0,4.1c2.2,2.4,5.1,4.2,6.6,7.3c-0.7,0.6-1.3,1.3-2,1.9C95.1,277.8,92.6,274.4,88.6,272.7z M134.9,258.7
		c2.4,1.1,3.9,3.3,5.8,5.1c5,4.9,6.2,4.7,9.4-1.9c1.3,0.2,2.4,0.7,3.2,1.7c-7.3,5.5-7.3,5.5-1.1,11.7c1.6,1.6,3.2,3.3,4.9,4.9
		c0.8,0.8,1.9,1.9,2.9,0.7c3.4-3.7,8.1-6.2,9.9-11.2c5.8-4.7,12.8-8.4,14.1-16.9c1.7,0.2,3.3,1.5,4.9-0.5c3-3.7,9.2-6.3,9-10.5
		c-0.1-4.2-6-6.9-9.3-10.5c-0.8-0.9-1.9-1.8-3-0.6c-3.4,3.8-8.1,6.3-9.9,11.4c-1-0.4-1.6-1-2-2c1.4-2.7,3.8-4.6,6-6.6
		c3.6-3.2,6.5-6.2,1.3-10.4c-0.3-0.2-0.1-0.9-0.2-1.4c3.2,1,6.2,2.7,9.1,4.4c-0.5,2.1,0.9,3.4,2.2,4.6c11.1,10.6,7.1,10.5,18,0.2
		c3.1-2.9,3.2-5.1-0.7-7.2c0.4-1,1.1-1.7,2.1-2.1c2,4,4.3,3.8,7.2,0.7c10.3-10.9,10.4-7,0-17.7c-3.8-3.9-5-3.5-7.2,1.6
		c-1.4-0.7-2.4-1.8-3.1-3.1c1.8-0.1,3.7-1.1,3.8-2.7c0.1-4.8-4.8-6.2-7.2-9.4c-1.1-1.4-2.7-4-4.8-2.5c-3.9,2.9-7.6,6.3-10.3,10.6
		c-0.5,0.8,0.3,1.5,1,2c-4,2.1-8,4.2-12,6.2c-0.1-1,0.1-1.9,0.8-2.7c5.7-5.6,5.7-5.6-0.1-11.2c-0.9-0.9-2-1.6-3.1-2.5
		c0.1-0.8,0.2-1.6,1-2c1.5,1.3,3.1,2.5,4.5,3.9c5.2,5.2,5.2,5.2,10.3,0.1c8.4-8.6,8.4-6.1-0.1-14.8c-2.3-2.4-4.4-5.3-8.3-2.9
		c0-3.9-1.9-6.7-5.2-8.7c-0.9-3.5-4-7.8-6.4-6.3c-4.3,2.6-9.2,6-10.4,11.9c-2.3,1.2-4.5,2.4-6.8,3.6c-0.2-2.4,2.7-4.4-0.4-7.4
		c-10.3-10.2-10.6-10.3-20.1,0.8c-1.6,1.9-1.4,3,0.2,4.5c2.6,2.5,5.3,5,7.7,7.7c1.8,1.9,3.1,1.8,4.9,0c1.7-1.7,2.9-4.3,5.9-4
		c-0.5,1.7-1,3.4-1.5,5.1c-1.9-0.5-3.3,0.2-4.2,1.8c-1.1,1.8,0.7,2.7,1.6,3.6c2.5,2.6,5.1,5.1,7.7,7.7c1.8,1.8,3.1,1.5,4.1-0.7
		c0.6,0.7,1.3,1.4,1.9,2.1c-0.4,1-1.5,2.2-0.8,3.2c2.5,3.9,6.2,6.7,9.4,9.9c2.1,2.1,3.6-1.8,5.7-0.9c-1.2,2.4-1.7,5-1.1,7.7
		c-2.2-0.3-4.3-1-6.1,1.3c-2.1,2.7-4.7,5-7.2,7.3c-1.9,1.7-1.8,3,0,4.8c2.2,2.3,5.3,3.9,6.1,7.4c-1,0-2,0.1-3,0.1
		c-3.8-8.3-6.5-8.9-12.6-2.8c-1.2,1.2-2.2,2.4-3.5,3.5c-3.6,2.9-3,5,1,6.7c-0.7,0.3-1.4,0.7-2,1c-2.8-2.4-5.1-2.3-7.6,0.8
		c-1.6,1.9-3,4.3-5.9,4.8c-0.2-0.9-0.4-1.9-0.6-2.8c2.2-0.1,3.3-1.9,4.9-3.1c3.6-2.7,3.7-4.9,0.2-8.1c-2.6-2.3-6.1-4.1-6.5-8.2
		c1.3,0.1,2.6,0.3,3.9,0.4c-0.1,4.2,3.8,5.5,5.8,8.2c1.5,2,2.9,1.4,4.5-0.2c2.5-2.7,5.1-5.3,7.7-7.7c2-1.8,1.8-3.2-0.1-4.9
		c-0.9-0.7-1.4-1.8-2.1-2.7c0.4-0.8,1.2-0.9,2-1c3.8,5,3.8,5,8,0.8c8.7-8.7,8.7-8.7-0.7-17.8c-3.6-3.5-4.2-3.3-6.3,1.6
		c-1.4-0.7-2.4-1.8-3.1-3.1c3.5-1.8,4.2-3.9,1-6.8c-11.4-10.8-7.1-10.7-18.5,0c-3.1,2.9-2.5,5,1,6.8c-0.1,0.8-0.2,1.6-1,2
		c-2.2-0.5-3.5-4.8-6.2-2.2c-3.5,3.3-9.1,6-9.3,10.9c-0.2,3.1,3.8,6.7,8.3,7.2c0.1,1.3,0.3,2.6,0.4,3.9c-1.5,0.2-2.4-0.7-3.5-1.6
		c-9.2-8.1-9.2-8-17.8,1.1c-2.3,2.4-2.1,4,0.1,6.2c2.1,2.2,5.2,3.7,5.9,7.1c-1.3,0.1-2.6,0.3-3.9,0.4c0.1-1.7-0.6-3.1-1.8-4.4
		c-4.3-4.7-4.9-4.9-9.2-0.2c-2.4,2.6-7.3,4.6-6.6,8.1c1,4.6,6,7.2,9.3,10.5c1.8,1.7,3.3,0.5,4.3-1.4c0.3,0.4,0.6,0.7,0.9,1.1
		c-1.4,3.1-0.9,5.5,1.9,7.7c1.8,1.4,3.3,3.2,4.9,4.8c4.3,4.3,5.3,4.2,8.8-0.9c0.5-0.8,0.9-1.7,1.3-2.6c2.3,0,4.6,0.1,6.9,0.1
		c-0.1,0.8-0.3,1.9-1.3,1.8c-3.9-0.2-5.7,3-8.1,5.1c-1.6,1.4-1.4,2.5,0,4.2c9,10.9,11.4,10.9,20.7,0.2c1.6-1.8,1.5-2.8,0-4.6
		c-2.3-2.7-5.9-4.3-7.3-7.8C134.4,259.3,134.7,259,134.9,258.7z M190,309.7c0.2,2.8,8.3,13.2,10.8,14c1.3,0.4,1.8-0.4,2.5-1.1
		c2.7-2.7,5.4-5.4,8.1-8.1c1.1-1.1,2.3-2.6,0.9-3.9c-4-3.8-6.9-8.9-12.3-11.1c-6.3-8.4-13.6-15.6-21.9-21.9c-3-6.6-4.5-6.9-9.1-2.3
		c-2.1,2.1-4.2,4.2-6.3,6.3c-1,1-1.9,2.1-0.5,3.4c2.3,2,3.7,5.2,7.2,5.6c1.8,2.5,3.1,5.2,4.1,8.1c-2.3,4.2-6.3,6.8-9.3,10.2
		c-1,1.1-2.7,2.3-1.7,3.7c2.7,4,6.4,7.1,10,10.2c0.3,0.2,1.1,0.2,1.3,0c3.8-4.4,9.8-6.9,11.3-13.3
		C186.7,309.7,188.3,309.7,190,309.7z M136.2,180.2c-3.7-5.6-8.3-10.3-13.9-13.9c-3.1-6.8-5.1-7.3-10-2.4c-1.6,1.6-3.2,3.3-4.9,4.9
		c-3,2.7-2.1,4.4,1.2,5.6c-0.4,1-1,1.6-2,2c-2.6-2.2-4.7-2.3-7.5,0.5c-9.5,9.7-9.6,10.3,1.4,19c2.3,1.8,3.8,1.5,5-1
		c0.7,0.7,1.4,1.4,2.2,2.2c-5.2,3.2-0.7,5.2,1.1,7c9.3,9.3,6.6,9.3,15.4,0.6c5.4-5.3,5.3-5.7-1.2-10.6c0.8-1,2-1.5,3.2-1.7
		c2.9,5.7,4.2,6,8.4,1.8c1.3-1.3,2.6-2.6,3.9-3.9C143.6,185.3,143.1,183.3,136.2,180.2z M145.6,299.9c-2,0.2-2.7,1.6-3.8,2.6
		c-9.3,9.1-9.2,9-0.2,18.2c2.8,2.9,4.4,2.7,7.1-0.1c9-9.2,9.1-9.1-0.3-18.2C147.5,301.5,146.5,300.6,145.6,299.9z M145.1,271.7
		c-0.8,0.7-1.5,1.2-2.1,1.7c-11.2,9.5-11.2,9.8-0.7,20c2.5,2.5,3.8,1.8,6-0.3c10.2-10,10.2-11-1.2-19.9
		C146.5,272.7,145.8,272.3,145.1,271.7z M158.7,285.8c-1,0.9-2.3,2-3.4,3.1c-8.7,8.7-8.6,8.5,0,17.5c3.1,3.3,4.8,2.9,7.7-0.2
		c9.4-9.8,9.5-7.6-0.1-17.3C161.8,287.9,160.9,286.4,158.7,285.8z M102.8,224.9c2.6-0.6,4-2.9,5.7-4.6c7.7-7.7,7.7-5.8,0.2-13.5
		c-5.7-5.8-5.8-5.8-11.4-0.2c-7.8,7.9-7.7,5.8,0.2,13.8C99.1,222.1,100.4,224.2,102.8,224.9z"/>
	<path class="st0" d="M109.3,150.5c0.4,0.9,0.7,1.9,1.3,2.6c4.3,5.1,4.4,5.1-0.5,9.9c-8.4,8.2-6.1,8.2-14.4,0
		c-4.9-4.8-4.9-4.9-0.6-9.9c0.6-0.7,0.9-1.7,1.3-2.6C100.7,150.5,105,150.5,109.3,150.5z"/>
	<path class="st0" d="M138.2,150.5c0.1,0.3,0.1,0.7,0.2,1c0.8,2.6,5.7,3.9,4,6.5c-2.6,4.1-6.7,7.2-10.3,10.6
		c-0.7,0.6-1.6,0.3-2.2-0.3c-0.8-0.8-1.7-1.6-2.5-2.4c-2.4-2.5-5.5-4.6-7.1-7.5c-2.1-3.7,4.1-4.5,4-8
		C128.9,150.5,133.6,150.5,138.2,150.5z"/>
	<path class="st0" d="M193.9,150.5c0.1,0.3,0.1,0.7,0.2,1c0.8,2.6,5.7,3.9,4,6.5c-2.6,4.1-6.7,7.2-10.3,10.6
		c-0.7,0.6-1.6,0.3-2.2-0.3c-0.8-0.8-1.7-1.6-2.5-2.4c-2.4-2.5-5.5-4.6-7.1-7.5c-2.1-3.7,4.1-4.5,4-8
		C184.7,150.5,189.3,150.5,193.9,150.5z"/>
	<path class="st0" d="M166.1,150.5c0.1,0.3,0.1,0.7,0.2,1c0.8,2.6,5.7,3.9,4,6.5c-2.6,4.1-6.7,7.2-10.3,10.6
		c-0.7,0.6-1.6,0.3-2.2-0.3c-0.8-0.8-1.7-1.6-2.5-2.4c-2.4-2.5-5.5-4.6-7.1-7.5c-2.1-3.7,4.1-4.5,4-8
		C156.8,150.5,161.4,150.5,166.1,150.5z"/>
	<path class="st0" d="M256.9,325.2c-1.8-3.9-5.2-6.4-8.2-9.1c-3.5-3.2-3.4-5.6,0.2-8.3c0.1-0.1,0.2-0.2,0.4-0.3
		c2.2-2.2,4.2-4.9,6.8-6.4c3.4-2,4.3,3.6,7.4,3.4c-0.1,5.3,1.1,10.7-0.8,15.9c-2.7,0.3-4.2,2.1-5,4.5l-0.4,0.3L256.9,325.2z"/>
	<path class="st0" d="M249.7,150.5c0.2,0.6,0.3,1.3,0.7,1.8c4.7,6.1,4.7,6.1-0.6,11.4c-6,6-6,6-11.8,0.1c-0.1-0.1-0.2-0.2-0.4-0.4
		c-5.5-5.5-5.5-5.5-1.1-11.6c0.3-0.4,0.3-0.9,0.4-1.4C241.1,150.5,245.4,150.5,249.7,150.5z"/>
	<path class="st0" d="M263.5,207c-0.2,0-0.3,0-0.5,0.1c-2.7,0.4-3.7,5.1-6.5,3.5c-4.2-2.3-7.4-6.1-10.2-9.9c-1.7-2.3,1.1-4,2.6-5.1
		c3.1-2.4,4.5-7.5,9.4-6.9c1.9,0.2,2.7,3.3,5.2,3.5C263.5,197.1,263.5,202.1,263.5,207z"/>
	<path class="st0" d="M213.2,166.4c-1-0.5-2.1-0.9-3-1.6c-6.5-4.6-6.7-6.2-1.9-12.5c0.4-0.5,0.4-1.2,0.6-1.8c4.3,0,8.6,0,12.9,0
		c5.2,5.2,5.4,10.1-0.8,14.7c-0.2,0.1-0.1,0.6-0.2,0.9C218.3,166.2,215.7,166.3,213.2,166.4z"/>
	<path class="st0" d="M263.5,263.8c-2.8,0-3.8,4.5-6.1,3.5c-2.7-1.2-4.7-4.1-7-6.2c-0.7-0.7-1.3-1.5-2.1-2.1c-2.8-2.1-2.8-4.1,0-6.3
		c0.8-0.6,1.4-1.4,2.1-2.1c2-2,3.7-4.4,6.1-5.8c3.4-2.1,4,3.5,7,3.1C263.5,253.2,263.5,258.5,263.5,263.8z"/>
	<path class="st0" d="M263.5,179.2c-6.8,3.5-6.8,3.5-12.6-2.3c-5.6-5.6-5.6-5.6,0.1-11.4c0.6-0.6,1.2-1.1,1.7-1.8
		c2.7-3.5,5.5-4.5,8.6-0.4c0.4,0.6,1.4,0.7,2.2,1C263.5,169.2,263.5,174.2,263.5,179.2z"/>
	<path class="st0" d="M263.5,291.6c-2.9-0.1-3.8,4.7-6.4,3.3c-3.1-1.6-5.5-4.5-7.5-7.6c3.7-4.2,8.6-8,4.7-14.6
		c4.2-2.7,6,2.2,9.2,2.9C263.5,281,263.5,286.3,263.5,291.6z"/>
	<path class="st0" d="M263.5,234.9c-0.2,0-0.4,0-0.5,0.1c-7.7,4.4-7.7,4.4-13.4-3.3c3.7-4.2,8.6-8,4.7-14.6c4.2-2.7,6,2.2,9.2,2.9
		C263.5,225,263.5,229.9,263.5,234.9z"/>
	<path class="st0" d="M88.6,243.9c4.9,2.1,7.5,6.7,11.2,10.1c0.8,0.7,0.8,2,0,2.7c-3.7,3.4-6.3,8-11.2,10.1
		C88.6,259.1,88.6,251.5,88.6,243.9z"/>
	<path class="st0" d="M88.6,160.3c4.9,2.1,7.5,6.7,11.2,10.1c0.8,0.7,0.8,2,0,2.7c-3.7,3.4-6.3,8-11.2,10.1
		C88.6,175.5,88.6,167.9,88.6,160.3z"/>
	<path class="st0" d="M88.6,216c4.9,2.1,7.5,6.7,11.2,10.1c0.8,0.7,0.8,2,0,2.7c-3.7,3.4-6.3,8-11.2,10.1
		C88.6,231.3,88.6,223.6,88.6,216z"/>
	<path class="st0" d="M88.6,188.1c4.9,2.1,7.5,6.7,11.2,10.1c0.8,0.7,0.8,2,0,2.7c-3.7,3.4-6.3,8-11.2,10.1
		C88.6,203.4,88.6,195.8,88.6,188.1z"/>
	<path class="st0" d="M88.6,300.6c4.8,2,7.4,6.4,10.9,9.8c1.6,1.5,0.5,3-0.8,4.3c-2.7,2.6-5.5,5.2-8.3,7.8c-1.9-1.5-2.1-3.6-2.1-5.7
		C88.5,311.4,88.5,306,88.6,300.6z"/>
	<path class="st0" d="M96.6,288.3c-2.2,3-4.3,6-8,7.3c0-7.6,0-15.3,0-22.9c4,1.7,6.5,5,9,8.3C96.6,283.4,96.2,285.8,96.6,288.3z"/>
	<path class="st0" d="M120.3,325.3c1.6-4.4,5.8-6.6,8.7-9.9c1-1.2,2.5-1.1,3.5,0c2.9,3.3,7.1,5.5,8.7,9.9
		C134.2,325.3,127.3,325.3,120.3,325.3z"/>
	<path class="st0" d="M177,325.3c1.6-4.4,5.8-6.6,8.7-9.9c1-1.2,2.5-1.2,3.5,0c2.9,3.3,7.1,5.5,8.7,9.9
		C191,325.3,184,325.3,177,325.3z"/>
	<path class="st0" d="M204.9,325.3c1.6-4.4,5.8-6.6,8.7-9.9c1-1.2,2.5-1.2,3.5,0c2.9,3.3,7.1,5.5,8.7,9.9
		C218.8,325.3,211.9,325.3,204.9,325.3z"/>
	<path class="st0" d="M232.8,325.3c1.6-4.4,5.8-6.6,8.7-9.9c1-1.2,2.5-1.2,3.5,0c2.9,3.3,7.1,5.5,8.7,9.9
		C246.7,325.3,239.7,325.3,232.8,325.3z"/>
	<path class="st0" d="M149.2,325.3c1.8-4.5,5.9-6.9,9-10.1c1.1-1.1,2.5-0.5,3.5,0.5c2.9,2.9,6.1,5.5,7.4,9.6
		C162.4,325.3,155.8,325.3,149.2,325.3z"/>
	<path class="st0" d="M94.2,325c0.1-5,4.6-6.9,7.3-9.9c0.7-0.8,2-0.7,2.7,0.1c3.1,3.3,7.2,5.7,9,10.2C107,325.4,100.6,326,94.2,325z
		"/>
	<path class="st0" d="M257.7,325c0.8-2.4,2.3-4.1,5-4.5C262.1,323.2,260.3,324.5,257.7,325z"/>
	<path class="st0" d="M173.9,240.2c-1.6-0.8-3.2-1.6-4.9-2.4c-0.8-3.5-4-5.1-6.1-7.4c-1.7-1.9-1.9-3.1,0-4.8
		c2.5-2.3,5.1-4.6,7.2-7.3c1.9-2.4,3.9-1.7,6.1-1.3c1.2,2,2.9,3.5,4.8,4.9c0.1,0.5-0.1,1.2,0.2,1.4c5.2,4.2,2.3,7.2-1.3,10.4
		C177.7,235.5,175.3,237.4,173.9,240.2z"/>
	<path class="st0" d="M155.3,175.6c-0.6,0.6-1.2,1.2-1.8,1.8c-3-0.3-4.2,2.3-5.9,4c-1.8,1.8-3.1,1.9-4.9,0c-2.5-2.7-5.1-5.2-7.7-7.7
		c-1.6-1.5-1.8-2.6-0.2-4.5c9.5-11.2,9.7-11,20.1-0.8C158,171.2,155.1,173.2,155.3,175.6z"/>
	<path class="st0" d="M199.8,268.8c0,0.7,0,1.3,0,2c-4.3,1.4-6.5,5.4-9.6,8.3c-2.4,2.3-3.8,2.7-6.4,0.2c-9.6-9.6-9.6-9.4,0-19
		c2.6-2.6,4-2.1,6.4,0.2C193.3,263.4,195.5,267.3,199.8,268.8z"/>
	<path class="st0" d="M120.3,237.7c-2.3,0-4.6,0-7,0c-0.8-3.4-3.8-4.9-5.9-7.1c-2.2-2.2-2.4-3.8-0.1-6.2c8.6-9.2,8.5-9.2,17.8-1.1
		c1,0.9,2,1.8,3.5,1.6c0.6,0.9,1.2,1.9,1.8,2.8C125.9,230,122.6,233.3,120.3,237.7z"/>
	<path class="st0" d="M145.6,299.9c0.9,0.8,1.9,1.6,2.8,2.5c9.4,9.1,9.3,9,0.3,18.2c-2.7,2.8-4.3,2.9-7.1,0.1
		c-9-9.2-9.1-9.1,0.2-18.2C142.9,301.4,143.7,300,145.6,299.9z"/>
	<path class="st0" d="M145.1,271.7c0.7,0.5,1.4,1,2,1.4c11.4,8.9,11.4,9.9,1.2,19.9c-2.1,2.1-3.4,2.7-6,0.3
		c-10.4-10.2-10.5-10.5,0.7-20C143.6,272.9,144.3,272.4,145.1,271.7z"/>
	<path class="st0" d="M158.7,285.8c2.1,0.6,3,2,4.2,3.2c9.6,9.6,9.5,7.5,0.1,17.3c-2.9,3-4.6,3.5-7.7,0.2c-8.5-9-8.7-8.8,0-17.5
		C156.5,287.8,157.7,286.8,158.7,285.8z"/>
	<path class="st0" d="M226.9,300.2c1.8,0.9,3.8,1.5,5.8,1.5c0.7,3.4,3.7,4.9,5.9,7.1c2.1,2.2,2.5,3.7,0.2,6.2
		c-9.6,10.4-9.5,10.4-19.1,0c-2.3-2.4-1.9-4,0.2-6.2C222.4,306.1,226.2,304.4,226.9,300.2z"/>
	<path class="st0" d="M102.8,224.9c-2.4-0.7-3.7-2.8-5.3-4.4c-7.9-8-8-6-0.2-13.8c5.6-5.7,5.6-5.6,11.4,0.2
		c7.6,7.6,7.5,5.7-0.2,13.5C106.8,222,105.4,224.3,102.8,224.9z"/>
	<path class="st0" d="M184.1,252.8c-1.1-4.8-5.6-7-8.2-10.7c1.8-5.1,6.6-7.7,9.9-11.4c1-1.2,2.2-0.3,3,0.6c3.2,3.5,9.1,6.3,9.3,10.5
		c0.1,4.3-6.1,6.8-9,10.5C187.5,254.3,185.8,253.1,184.1,252.8z"/>
	<path class="st0" d="M130.2,260.8c1-1.3,2.6-0.8,3.9-1.1c1.5,3.5,5,5.1,7.3,7.8c1.5,1.7,1.6,2.8,0,4.6
		c-9.3,10.8-11.7,10.7-20.7-0.2c-1.3-1.6-1.5-2.7,0-4.2c2.4-2.1,4.1-5.3,8.1-5.1C129.9,262.7,130.1,261.6,130.2,260.8z"/>
	<path class="st0" d="M109.3,277.5c-3.3,0.4-6.7-0.3-9.8,1.6c-1.5-3-4.3-4.9-6.6-7.3c-1.4-1.5-1.6-2.7,0-4.1
		c0.3-0.2,0.5-0.5,0.7-0.7c9.7-10.4,9.7-10.3,19.5,0c2.1,2.2,2.2,3.6-0.1,5.6C111.6,273.9,109.5,275.1,109.3,277.5z"/>
	<path class="st0" d="M190,309.7c7.6-0.6,9.7-2.8,10-10.1c5.4,2.3,8.3,7.3,12.3,11.1c1.3,1.3,0.2,2.7-0.9,3.9
		c-2.7,2.7-5.4,5.4-8.1,8.1c-0.7,0.7-1.2,1.5-2.5,1.1C198.3,322.9,190.2,312.5,190,309.7z"/>
	<path class="st0" d="M177.8,189c2.1-4.6,4.2-9.2,6.3-13.9c3.9-2.3,6,0.6,8.3,2.9c8.5,8.8,8.6,6.3,0.1,14.8c-5,5.1-5.1,5.1-10.3-0.1
		C180.9,191.5,179.3,190.3,177.8,189z"/>
	<path class="st0" d="M200.8,273.7c2.1,2.6,4.7,4.1,8.1,4.1c0,2.8,4.4,3.8,3.5,6.1c-1.2,2.7-4,4.7-6.2,7c-0.6,0.6-1.3,1.1-1.7,1.8
		c-2.3,3.1-4.3,3.1-7,0.1c-9.6-10.4-10.4-6.4,0.7-17.7C198.9,274.3,199.7,273.8,200.8,273.7z"/>
	<path class="st0" d="M173.4,298.8c0.9,1.7,2,3.4,2.7,5.1c1.7,3.8,4.7,5.7,8.8,5.8c-1.5,6.3-7.4,8.9-11.3,13.3
		c-0.2,0.2-1.1,0.2-1.3,0c-3.6-3.2-7.3-6.3-10-10.2c-1-1.5,0.8-2.6,1.7-3.7C167.2,305.6,171.2,303,173.4,298.8z"/>
	<path class="st0" d="M210,168.5c-1.8,2.5-2.5,5.3-1.9,8.4c-0.2,0.3-0.3,0.6-0.5,0.9c-5.6,6.9-5.7,6.9-11.9,0.6
		c-6.9-7-7.6-5.7-1.2-12.1C202.3,158.4,202.5,158.4,210,168.5z"/>
	<path class="st0" d="M215.7,286.7c0.8,4,4.3,6,6.7,8.8c1.2,1.4,2.3,2.7,3.5,4c-2.2,3.4-5.4,5.7-8.1,8.6c-1.7,1.9-3.4,1.6-5-0.2
		c-0.3-0.4-0.7-0.7-1-1.1c-2.4-3.2-8.4-5.5-7.2-9.1C206.1,293,210.7,289.1,215.7,286.7z"/>
	<path class="st0" d="M224.8,245.7c-4.9,0.7-10.2-1.2-14.7,2.2c-0.4-0.2-0.9-0.4-1.3-0.7c-6.3-5.4-6.3-5.5-0.5-11.3
		c8.1-8,5.8-7.9,14.1,0C225.6,238.9,228.1,241.5,224.8,245.7z"/>
	<path class="st0" d="M239.6,192.8c1.2-5.3-2.8-9.1-4.1-13.6c1.7,0.1,2.9-0.8,3.8-2c2.7-3.5,4.9-3.2,7.9-0.1c8.5,8.7,8.6,8.6,0,17.1
		C242.9,198.4,242.5,198.3,239.6,192.8z"/>
	<path class="st0" d="M233.8,238.1c5-0.1,10.1,0.2,13.7-4.2c9,6.7,9,6.7,1.2,14.5c-5.5,5.5-5.5,5.5-11-0.1c-0.8-0.8-1.5-1.8-2.5-2.4
		C232,243.7,231.7,241.1,233.8,238.1z"/>
	<path class="st0" d="M208,251.1c-2.2,5.5-4.9,10.7-7.8,15.8c-3.8-2.4-6.4-6.1-9.7-9.1c-1.7-1.5-1.4-2.7,0.1-4.1
		c2.4-2.3,4.9-4.5,7-7c2.3-2.8,4.3-3.2,6.6-0.1C205.3,248.2,206.7,249.6,208,251.1z"/>
	<path class="st0" d="M112.6,305.5c3.5,3.5,7.4,5.4,12.4,2.9c4.4,2.2,3.6,4.5,0.6,7.5c-8.7,8.6-8.6,8.7-15.9,1.3
		C103.9,311.6,104.7,308.8,112.6,305.5z"/>
	<path class="st0" d="M163.1,197c7.6,2.1,9.2,1.4,13.7-5.9c1,0.8,2.1,1.6,3.1,2.5c5.8,5.6,5.8,5.6,0.1,11.2c-0.8,0.8-1,1.7-0.8,2.7
		c-0.6,0.6-1.2,1.2-1.8,1.8c-2.1-0.9-3.6,3-5.7,0.9c-3.2-3.2-6.9-6-9.4-9.9C161.7,199.1,162.7,198,163.1,197z"/>
	<path class="st0" d="M109.4,238.1c-5.4,3.9-6.2,6.2-3.9,12.5c-1,1.9-2.5,3.1-4.3,1.4c-3.4-3.3-8.4-5.9-9.3-10.5
		c-0.7-3.4,4.1-5.5,6.6-8.1c4.4-4.7,5-4.5,9.2,0.2C108.9,235,109.5,236.4,109.4,238.1z"/>
	<path class="st0" d="M107.7,196.9c5.9,3.4,10.3-1.5,15.3-2.9c6.5,4.9,6.6,5.3,1.2,10.6c-8.8,8.6-6.1,8.6-15.4-0.6
		C107,202.1,102.6,200.1,107.7,196.9z"/>
	<path class="st0" d="M224.1,194c6,5,7.6,5.2,13.4,2c4,2,3.9,4.2,0.8,7.2c-10.8,10.3-7.4,10.1-16.6,1.2
		C216.4,199.2,217,197,224.1,194z"/>
	<path class="st0" d="M153.4,263.7c5.7,1.5,10.2,6.6,16.7,6.1c-1.9,5-6.6,7.5-9.9,11.2c-1,1.1-2.1,0.1-2.9-0.7
		c-1.6-1.6-3.3-3.2-4.9-4.9C146,269.1,146,269.1,153.4,263.7z"/>
	<path class="st0" d="M234.7,301.3c3.9-3.6,7.9-7.2,11.8-10.8c3.6,0.6,5.2,3.8,7.5,6.1c1.1,1.1,0.7,2.4-0.4,3.5
		c-0.9,1-1.8,1.9-2.8,2.8C242.3,311.5,242.1,311.5,234.7,301.3z"/>
	<path class="st0" d="M253.6,216.3c-3.6-2.8-7.3-2.9-11.3-0.5c-2.3,1.4-5,2.3-7.5,3.5c-4.5-5.4-1.4-8.9,2.8-12.7
		c5.8-5.2,5.8-5.6,11.3,0.4C251.2,209.4,256.6,210.9,253.6,216.3z"/>
	<path class="st0" d="M134.8,249c-3.9-3.6-7.8-7.2-11.7-10.8c2-3.9,6.3-5.8,8.3-9.7c0.7,0.4,1.3,0.8,2,1.1c0.4,4.1,4,5.9,6.5,8.2
		c3.5,3.1,3.4,5.4-0.2,8.1C138.1,247.1,137.1,248.9,134.8,249z"/>
	<path class="st0" d="M106.6,176.3c-3.6,6-2.7,12.2-1.1,18.5c-1.2,2.5-2.7,2.9-5,1c-10.9-8.7-10.9-9.4-1.4-19
		C101.9,174,104,174.1,106.6,176.3z"/>
	<path class="st0" d="M211.8,221.7c5.6-6.7,5.6-8.8,0-15.5c2.2-5.1,3.4-5.5,7.2-1.6c10.4,10.7,10.3,6.8,0,17.7
		C216.1,225.5,213.8,225.8,211.8,221.7z"/>
	<path class="st0" d="M98.6,291.6c3.9,3.3,7.5,6.9,10.8,10.8c-1.1,3.5-3.3,6-6.9,7c-1.3,0.3-11.3-9.7-10.9-11
		C92.6,294.9,95.1,292.6,98.6,291.6z"/>
	<path class="st0" d="M134.9,258.7c-0.6-2.3,0-4.6,0.5-6.9c2.8-0.5,4.3-2.9,5.9-4.8c2.5-3.1,4.8-3.2,7.6-0.8
		c-6.9,5.6-6.6,10.6,1.2,15.7c-3.2,6.5-4.4,6.7-9.4,1.9C138.9,262,137.4,259.8,134.9,258.7z"/>
	<path class="st0" d="M155,221.8c6.5-5,6.7-8.6,1-15.5c2.1-4.9,2.7-5,6.3-1.6c9.4,9.2,9.4,9.2,0.7,17.8
		C158.8,226.7,158.8,226.7,155,221.8z"/>
	<path class="st0" d="M137.2,230.1c5.3-2.4,10.6-4.9,15.8-7.3c0.7,0.9,1.3,2,2.1,2.7c1.9,1.7,2.1,3.1,0.1,4.9
		c-2.7,2.5-5.2,5.1-7.7,7.7c-1.5,1.6-3,2.2-4.5,0.2C141,235.6,137.1,234.2,137.2,230.1z"/>
	<path class="st0" d="M152.9,203.2c-1.2-1.1-2.4-2.2-3.7-3.2c-4.4-3.4-8.6-2.4-12.8,3.2c-3.5-1.8-4.1-3.9-1-6.8
		c11.3-10.7,7.1-10.7,18.5,0C157.1,199.3,156.4,201.3,152.9,203.2z"/>
	<path class="st0" d="M208.6,203.2c-5.2-6.6-11.2-5.6-17.5-2c-0.8-0.5-1.5-1.2-1-2c2.7-4.2,6.4-7.6,10.3-10.6c2.1-1.5,3.7,1,4.8,2.5
		c2.4,3.2,7.3,4.6,7.2,9.4C212.4,202,210.5,203,208.6,203.2z"/>
	<path class="st0" d="M135.4,205.1c-2.4,5.3-4.9,10.6-7.3,15.8c-4.5-0.5-8.4-4.1-8.3-7.2c0.2-4.9,5.8-7.6,9.3-10.9
		C131.9,200.3,133.2,204.6,135.4,205.1z"/>
	<path class="st0" d="M253.4,271.9c-4-3.1-8.8-1.9-13.3-2.1c-2.5-0.1-4.9-0.1-7.4-0.2c2-4.8,6.5-7.3,9.7-10.9c1-1.1,2.1-0.5,3,0.4
		c3,3,6.1,6,9.1,9.1C256.3,269.9,255.2,271,253.4,271.9z"/>
	<path class="st0" d="M210.1,180.1c3.9,3.3,7.5,6.9,10.8,10.8c-2.9,7-5.2,7.6-10.2,2.6c-1-1-2.1-2.1-3.1-3.1
		C202.5,185.2,203.1,183,210.1,180.1z"/>
	<path class="st0" d="M225.7,263.6c0.7-0.9,1.4-1.8,2.2-2.6c5.3-5.5,5.3-8.8-0.1-14.3c0.5-2.7,1.8-3.4,3.9-1.4
		c0.1,0.1,0.2,0.2,0.4,0.3c11.5,11.9,11.1,7.5,0.7,18.6C229.9,267.4,227.7,267.5,225.7,263.6z"/>
	<path class="st0" d="M190.2,226.2c1,0.5,2.1,0.9,3.1,1.4c7.3,3.6,8.9,3.4,14.6-2.2c0.6-0.6,1.2-1,1.8-1.5c4,2,3.8,4.2,0.7,7.2
		c-10.9,10.3-6.9,10.5-18-0.2C191,229.6,189.7,228.3,190.2,226.2z"/>
	<path class="st0" d="M166.1,237.9c-5,2.5-10,4.9-15.1,7.4c-4-1.7-4.6-3.8-1-6.7c1.3-1,2.3-2.3,3.5-3.5
		C159.6,229,162.3,229.6,166.1,237.9z"/>
	<path class="st0" d="M106.4,251.7c5.6,3,11.3,6,16.9,9c-0.4,0.9-0.8,1.8-1.3,2.6c-3.5,5.1-4.5,5.2-8.8,0.9
		c-1.6-1.6-3.1-3.4-4.9-4.8C105.5,257.2,105.1,254.7,106.4,251.7z"/>
	<path class="st0" d="M235.4,179c-1.4-2.6-2.9-5.2-4.2-7.8c-1.3-2.7-3.6-4.2-6.4-5c-0.3-2.7,1.4-4.4,3.5-5.4
		c2.4-1.2,3.5,1.2,4.8,2.5c2.5,2.4,5.6,4.6,7,7.5C241.9,174.6,236.1,175.6,235.4,179z"/>
	<path class="st0" d="M210.8,277.4c4.9-3.3,8.2-8.2,12.8-11.8c1.7,1.5,3,3.2,3.4,5.5c-3.7,3.9-7.4,7.7-11.1,11.6
		C214.2,280.9,211.7,279.9,210.8,277.4z"/>
	<path class="st0" d="M128.2,305.3c2.1-2.3,4.2-4.5,6.3-6.8c1.8-2,1.8-4.4,1.8-6.9c2.6,0.2,3.7,2.5,5.4,3.9c1.6,1.3,1.5,2.6,0,4.1
		c-2.5,2.4-4.9,4.9-7.3,7.3C130.9,310.4,130.2,310.2,128.2,305.3z"/>
	<path class="st0" d="M178,277.7c-8.7,0.3-11.5,4.5-8.7,13c-3.6-0.4-4.9-3.6-7.2-5.6c-1.4-1.2-0.5-2.3,0.5-3.4
		c2.1-2.1,4.2-4.2,6.3-6.3C173.6,270.8,175,271.1,178,277.7z"/>
	<path class="st0" d="M126.3,192.3c2-1.1,4-2.1,6-3.3c3.3-2,4.2-5.2,4-8.8c6.9,3.1,7.3,5.1,2.4,10.1c-1.3,1.3-2.6,2.6-3.9,3.9
		C130.5,198.3,129.1,198,126.3,192.3z"/>
	<path class="st0" d="M232.9,220.2c-4.9,2.9-10.7,5.2-8.7,12.8c-7-2.5-7.7-5.1-2.7-10.1c1.5-1.5,3-3.1,4.5-4.5
		C229.6,214.9,230.7,215.3,232.9,220.2z"/>
	<path class="st0" d="M122.3,166.2c-6.8-1-9.3,5-13.7,8.1c-3.3-1.2-4.2-2.9-1.2-5.6c1.7-1.5,3.3-3.2,4.9-4.9
		C117.2,158.9,119.2,159.4,122.3,166.2z"/>
	<path class="st0" d="M178.9,166.5c-6.7-1.4-11.1,3.9-16.8,5.5c1.2-5.9,6.1-9.2,10.4-11.9C174.9,158.7,178,163,178.9,166.5z"/>
	<path class="st0" d="M152,182.5c0.8,5.8,6.4,8.1,9.2,12.4c-1,2.3-2.3,2.6-4.1,0.7c-2.5-2.6-5.2-5.1-7.7-7.7c-0.9-1-2.7-1.8-1.6-3.6
		C148.7,182.7,150.1,181.9,152,182.5z"/>
	<path class="st0" d="M121.3,277.6c-3,0-6,0-8.9,0c0.6-2.8,2.6-5.2,5-5.2C119.7,272.2,121.4,274.7,121.3,277.6z"/>
	<path class="st0" d="M131.4,228.5c-1.9,3.9-6.3,5.9-8.3,9.7c-0.9-0.2-1.9-0.3-2.8-0.5c2.3-4.4,5.7-7.8,10.1-10
		C130.7,228,131,228.2,131.4,228.5z"/>
</g>
</svg>
