<svg width="40" height="40" viewBox="0 0 40 40" fill="none" xmlns="http://www.w3.org/2000/svg">
<path d="M21.1301 33.2617C21.5879 33.3683 21.6299 33.968 21.1839 34.1167L18.5506 34.9833C11.9339 37.1167 8.45057 35.3333 6.30057 28.7167L4.16724 22.1333C2.0339 15.5167 3.80057 12.0167 10.4172 9.88332L11.9679 9.36979C12.3708 9.23638 12.7559 9.63773 12.628 10.0424C12.4579 10.5803 12.3012 11.1606 12.1506 11.7833L10.5172 18.7667C8.6839 26.6167 11.3672 30.95 19.2172 32.8167L21.1301 33.2617Z" fill="#1B5148"/>
<path d="M28.6176 5.34997L25.8343 4.69997C20.2676 3.38331 16.951 4.46664 15.001 8.49997C14.501 9.51664 14.101 10.75 13.7676 12.1666L12.1343 19.15C10.501 26.1166 12.651 29.55 19.601 31.2L22.401 31.8666C23.3676 32.1 24.2676 32.25 25.101 32.3166C30.301 32.8166 33.0676 30.3833 34.4676 24.3666L36.101 17.4C37.7343 10.4333 35.601 6.98331 28.6176 5.34997ZM25.4843 22.2166C25.3343 22.7833 24.8343 23.15 24.2676 23.15C24.1676 23.15 24.0676 23.1333 23.951 23.1166L19.101 21.8833C18.4343 21.7166 18.0343 21.0333 18.201 20.3666C18.3676 19.7 19.051 19.3 19.7176 19.4666L24.5676 20.7C25.251 20.8666 25.651 21.55 25.4843 22.2166ZM30.3676 16.5833C30.2176 17.15 29.7176 17.5166 29.1509 17.5166C29.051 17.5166 28.9509 17.5 28.8343 17.4833L20.751 15.4333C20.0843 15.2666 19.6843 14.5833 19.851 13.9166C20.0176 13.25 20.701 12.85 21.3676 13.0166L29.451 15.0666C30.1343 15.2166 30.5343 15.9 30.3676 16.5833Z" fill="#56BE89"/>
</svg>
