<svg width="41" height="40" viewBox="0 0 41 40" fill="none" xmlns="http://www.w3.org/2000/svg">
<path d="M26.1509 8.68325L28.5009 13.3833C28.8175 14.0333 29.6675 14.6499 30.3842 14.7833L34.6342 15.4833C37.3509 15.9333 37.9842 17.8999 36.0342 19.8666L32.7175 23.1833C32.1675 23.7333 31.8509 24.8166 32.0342 25.5999L32.9842 29.6999C33.7342 32.9333 32.0009 34.1999 29.1509 32.4999L25.1675 30.1333C24.4509 29.6999 23.2509 29.6999 22.5342 30.1333L18.5509 32.4999C15.7009 34.1833 13.9676 32.9333 14.7176 29.6999L15.6676 25.5999C15.8509 24.8333 15.5342 23.7499 14.9842 23.1833L11.6676 19.8666C9.71758 17.9166 10.3509 15.9499 13.0676 15.4833L17.3176 14.7833C18.0342 14.6666 18.8842 14.0333 19.2009 13.3833L21.5509 8.68325C22.8009 6.13325 24.8676 6.13325 26.1509 8.68325Z" fill="#56BE89"/>
<path d="M13.834 9.58325H3.83398C3.15065 9.58325 2.58398 9.01658 2.58398 8.33325C2.58398 7.64992 3.15065 7.08325 3.83398 7.08325H13.834C14.5173 7.08325 15.084 7.64992 15.084 8.33325C15.084 9.01658 14.5173 9.58325 13.834 9.58325Z" fill="#1B5148"/>
<path d="M8.83398 32.9167H3.83398C3.15065 32.9167 2.58398 32.3501 2.58398 31.6667C2.58398 30.9834 3.15065 30.4167 3.83398 30.4167H8.83398C9.51732 30.4167 10.084 30.9834 10.084 31.6667C10.084 32.3501 9.51732 32.9167 8.83398 32.9167Z" fill="#1B5148"/>
<path d="M5.50065 21.25H3.83398C3.15065 21.25 2.58398 20.6833 2.58398 20C2.58398 19.3167 3.15065 18.75 3.83398 18.75H5.50065C6.18398 18.75 6.75065 19.3167 6.75065 20C6.75065 20.6833 6.18398 21.25 5.50065 21.25Z" fill="#1B5148"/>
</svg>
