<svg width="25" height="25" viewBox="0 0 25 25" fill="none" xmlns="http://www.w3.org/2000/svg">
<path d="M12.5 22.5C18.0228 22.5 22.5 18.0228 22.5 12.5C22.5 6.97715 18.0228 2.5 12.5 2.5C6.97715 2.5 2.5 6.97715 2.5 12.5C2.5 18.0228 6.97715 22.5 12.5 22.5Z" fill="#56BE89"/>
<path d="M15.4501 8.79001C15.3701 8.62001 15.1901 8.51001 15.0001 8.51001H10.0001C9.81009 8.51001 9.64008 8.62001 9.55008 8.79001C9.46008 8.96001 9.48006 9.16001 9.60006 9.31001L12.1001 12.64C12.1901 12.77 12.3401 12.84 12.5001 12.84C12.6601 12.84 12.8101 12.77 12.9001 12.64L15.4001 9.31001C15.5101 9.17001 15.5301 8.96001 15.4501 8.79001Z" fill="#1B5148"/>
<path d="M12.5009 18.25C12.2609 18.25 12.0309 18.13 11.8909 17.94L6.8909 10.94C6.6509 10.6 6.73088 10.13 7.06088 9.89C7.40088 9.65 7.87087 9.73 8.11087 10.06L12.5009 16.21L16.8909 10.06C17.1309 9.72 17.6009 9.64 17.9409 9.89C18.2809 10.13 18.3609 10.6 18.1109 10.94L13.1109 17.94C12.9709 18.13 12.7409 18.25 12.5009 18.25Z" fill="white"/>
</svg>
